<svg width="100" height="58" viewBox="0 0 100 58" fill="none" xmlns="http://www.w3.org/2000/svg">
<mask id="path-1-outside-1_1108_13079" maskUnits="userSpaceOnUse" x="-1" y="-1" width="102" height="60" fill="black">
<rect fill="white" x="-1" y="-1" width="102" height="60"/>
<path d="M50.08 28.92C50.08 33.0267 49.4667 36.84 48.24 40.36C47.0667 43.88 45.3867 46.9467 43.2 49.56C41.0133 52.1733 38.3733 54.2267 35.28 55.72C32.24 57.2133 28.8533 57.96 25.12 57.96C21.3867 57.96 17.9733 57.24 14.88 55.8C11.84 54.3067 9.22667 52.2533 7.04 49.64C4.90667 47.0267 3.25333 43.9867 2.08 40.52C0.906667 37 0.32 33.1867 0.32 29.08C0.32 25.0267 0.906667 21.24 2.08 17.72C3.30667 14.1467 5.01333 11.0533 7.2 8.44C9.38667 5.82666 12 3.77333 15.04 2.28C18.1333 0.786666 21.5467 0.039999 25.28 0.039999C29.0133 0.039999 32.4 0.786666 35.44 2.28C38.5333 3.72 41.1467 5.74667 43.28 8.36C45.4667 10.9733 47.1467 14.04 48.32 17.56C49.4933 21.08 50.08 24.8667 50.08 28.92ZM37.44 29.08C37.44 26.52 37.1467 24.1467 36.56 21.96C35.9733 19.7733 35.1467 17.88 34.08 16.28C33.0133 14.68 31.7067 13.4267 30.16 12.52C28.6667 11.6133 26.9867 11.16 25.12 11.16C23.2533 11.16 21.5733 11.6133 20.08 12.52C18.5867 13.3733 17.3067 14.6 16.24 16.2C15.1733 17.7467 14.3467 19.6133 13.76 21.8C13.2267 23.9867 12.96 26.36 12.96 28.92C12.96 31.48 13.2533 33.8533 13.84 36.04C14.4267 38.2267 15.2533 40.12 16.32 41.72C17.3867 43.32 18.6667 44.5733 20.16 45.48C21.7067 46.3867 23.4133 46.84 25.28 46.84C27.1467 46.84 28.8267 46.4133 30.32 45.56C31.8133 44.6533 33.0933 43.4 34.16 41.8C35.2267 40.2 36.0267 38.3333 36.56 36.2C37.1467 34.0133 37.44 31.64 37.44 29.08ZM79.1575 11.24C76.9708 11.24 75.0242 11.8533 73.3175 13.08C71.6642 14.3067 69.7975 16.2 67.7175 18.76L59.0775 11.8C60.4642 9.93333 61.8508 8.28 63.2375 6.84C64.6775 5.4 66.1975 4.2 67.7975 3.24C69.4508 2.22666 71.2642 1.48 73.2375 0.999996C75.2108 0.466663 77.4508 0.199997 79.9575 0.199997C82.9442 0.199997 85.6108 0.626664 87.9575 1.48C90.3575 2.28 92.3842 3.45333 94.0375 5C95.7442 6.49333 97.0242 8.30666 97.8775 10.44C98.7842 12.5733 99.2375 14.9467 99.2375 17.56C99.2375 19.9067 98.9175 22.0133 98.2775 23.88C97.6908 25.6933 96.7842 27.4267 95.5575 29.08C94.3842 30.7333 92.8642 32.3867 90.9975 34.04C89.1308 35.64 86.9708 37.4 84.5175 39.32L75.3975 46.36H99.7975V57H58.3575V47.24L76.9975 31.96C78.7575 30.52 80.2508 29.24 81.4775 28.12C82.7042 26.9467 83.6908 25.8533 84.4375 24.84C85.2375 23.7733 85.7975 22.76 86.1175 21.8C86.4908 20.7867 86.6775 19.6933 86.6775 18.52C86.6775 16.12 85.9842 14.3067 84.5975 13.08C83.2108 11.8533 81.3975 11.24 79.1575 11.24Z"/>
</mask>
<path d="M48.24 40.36L47.2956 40.0309L47.2913 40.0438L48.24 40.36ZM43.2 49.56L43.9669 50.2017L43.9669 50.2017L43.2 49.56ZM35.28 55.72L34.8452 54.8194L34.8391 54.8224L35.28 55.72ZM14.88 55.8L14.4391 56.6976L14.4485 56.7022L14.458 56.7066L14.88 55.8ZM7.04 49.64L6.26528 50.2724L6.27306 50.2817L7.04 49.64ZM2.08 40.52L1.13131 40.8362L1.13278 40.8406L2.08 40.52ZM2.08 17.72L1.13414 17.3953L1.13132 17.4038L2.08 17.72ZM7.2 8.44L6.43306 7.79827L6.43306 7.79827L7.2 8.44ZM15.04 2.28L14.6052 1.37943L14.5991 1.38244L15.04 2.28ZM35.44 2.28L34.9991 3.17755L35.0085 3.18217L35.018 3.18658L35.44 2.28ZM43.28 8.36L42.5053 8.99242L42.5131 9.00172L43.28 8.36ZM48.32 17.56L49.2687 17.2438L49.2687 17.2438L48.32 17.56ZM36.56 21.96L37.5258 21.7009L37.5258 21.7009L36.56 21.96ZM34.08 16.28L33.248 16.8347L33.248 16.8347L34.08 16.28ZM30.16 12.52L29.641 13.3748L29.6476 13.3788L29.6543 13.3827L30.16 12.52ZM20.08 12.52L20.5761 13.3882L20.5876 13.3817L20.599 13.3748L20.08 12.52ZM16.24 16.2L17.0632 16.7677L17.0677 16.7612L17.0721 16.7547L16.24 16.2ZM13.76 21.8L12.7942 21.5409L12.7912 21.5519L12.7885 21.563L13.76 21.8ZM13.84 36.04L12.8742 36.2991L12.8742 36.2991L13.84 36.04ZM16.32 41.72L15.488 42.2747L15.488 42.2747L16.32 41.72ZM20.16 45.48L19.641 46.3348L19.6476 46.3388L19.6543 46.3427L20.16 45.48ZM30.32 45.56L30.8161 46.4282L30.8276 46.4217L30.839 46.4148L30.32 45.56ZM34.16 41.8L34.9921 42.3547L34.9921 42.3547L34.16 41.8ZM36.56 36.2L35.5942 35.9409L35.5919 35.9491L35.5899 35.9575L36.56 36.2ZM49.08 28.92C49.08 32.926 48.4819 36.6269 47.2957 40.0309L49.1843 40.6891C50.4514 37.0531 51.08 33.1274 51.08 28.92H49.08ZM47.2913 40.0438C46.1541 43.4555 44.5324 46.4093 42.4331 48.9183L43.9669 50.2017C46.2409 47.484 47.9792 44.3045 49.1887 40.6762L47.2913 40.0438ZM42.4331 48.9183C40.3383 51.4218 37.8118 53.3873 34.8453 54.8194L35.7148 56.6206C38.9349 55.066 41.6884 52.9248 43.9669 50.2017L42.4331 48.9183ZM34.8391 54.8224C31.9499 56.2417 28.7163 56.96 25.12 56.96V58.96C28.9904 58.96 32.5302 58.1849 35.7209 56.6176L34.8391 54.8224ZM25.12 56.96C21.5186 56.96 18.2511 56.2663 15.302 54.8934L14.458 56.7066C17.6955 58.2137 21.2548 58.96 25.12 58.96V56.96ZM15.3209 54.9024C12.407 53.4711 9.90454 51.5052 7.80694 48.9983L6.27306 50.2817C8.54879 53.0015 11.273 55.1423 14.4391 56.6976L15.3209 54.9024ZM7.81466 49.0076C5.76324 46.4946 4.16543 43.5623 3.02722 40.1994L1.13278 40.8406C2.34124 44.411 4.0501 47.5587 6.26534 50.2724L7.81466 49.0076ZM3.02868 40.2038C1.89276 36.796 1.32 33.0906 1.32 29.08H-0.68C-0.68 33.2828 -0.0794299 37.204 1.13132 40.8362L3.02868 40.2038ZM1.32 29.08C1.32 25.1243 1.89233 21.4453 3.02868 18.0362L1.13132 17.4038C-0.0789993 21.0347 -0.68 24.9291 -0.68 29.08H1.32ZM3.02582 18.0447C4.21707 14.5745 5.86688 11.5915 7.96694 9.08172L6.43306 7.79827C4.15978 10.5151 2.39626 13.7188 1.13418 17.3953L3.02582 18.0447ZM7.96694 9.08172C10.0645 6.57483 12.567 4.60893 15.4809 3.17755L14.5991 1.38244C11.433 2.93774 8.70879 5.0785 6.43306 7.79827L7.96694 9.08172ZM15.4747 3.18055C18.421 1.75822 21.6839 1.04 25.28 1.04V-0.960001C21.4094 -0.960001 17.8457 -0.184884 14.6053 1.37945L15.4747 3.18055ZM25.28 1.04C28.8763 1.04 32.1099 1.75827 34.9991 3.17755L35.8809 1.38244C32.6902 -0.184943 29.1504 -0.960001 25.28 -0.960001V1.04ZM35.018 3.18658C37.9762 4.56369 40.4685 6.49724 42.5053 8.99237L44.0547 7.72762C41.8248 4.99609 39.0905 2.87631 35.862 1.37342L35.018 3.18658ZM42.5131 9.00172C44.6124 11.5107 46.2341 14.4645 47.3713 17.8762L49.2687 17.2438C48.0592 13.6155 46.3209 10.436 44.0469 7.71827L42.5131 9.00172ZM47.3713 17.8762C48.5077 21.2853 49.08 24.9643 49.08 28.92H51.08C51.08 24.7691 50.479 20.8747 49.2687 17.2438L47.3713 17.8762ZM38.44 29.08C38.44 26.4437 38.1379 23.9822 37.5258 21.7009L35.5942 22.2191C36.1554 24.3111 36.44 26.5963 36.44 29.08H38.44ZM37.5258 21.7009C36.9158 19.4272 36.0487 17.4303 34.9121 15.7253L33.248 16.8347C34.2446 18.3297 35.0308 20.1194 35.5942 22.2191L37.5258 21.7009ZM34.9121 15.7253C33.7676 14.0086 32.3524 12.6461 30.6657 11.6573L29.6543 13.3827C31.0609 14.2073 32.2591 15.3514 33.248 16.8347L34.9121 15.7253ZM30.679 11.6652C29.0184 10.657 27.1567 10.16 25.12 10.16V12.16C26.8167 12.16 28.3149 12.5696 29.641 13.3748L30.679 11.6652ZM25.12 10.16C23.0834 10.16 21.2216 10.657 19.561 11.6652L20.599 13.3748C21.9251 12.5696 23.4233 12.16 25.12 12.16V10.16ZM19.5839 11.6518C17.9405 12.5908 16.5505 13.9315 15.408 15.6453L17.0721 16.7547C18.0629 15.2685 19.2328 14.1559 20.5761 13.3882L19.5839 11.6518ZM15.4168 15.6323C14.2736 17.2899 13.4045 19.2659 12.7942 21.5409L14.7258 22.0591C15.2888 19.9608 16.0731 18.2034 17.0632 16.7677L15.4168 15.6323ZM12.7885 21.563C12.2338 23.837 11.96 26.2909 11.96 28.92H13.96C13.96 26.4291 14.2195 24.1363 14.7315 22.037L12.7885 21.563ZM11.96 28.92C11.96 31.5563 12.2621 34.0178 12.8742 36.2991L14.8058 35.7809C14.2446 33.6889 13.96 31.4037 13.96 28.92H11.96ZM12.8742 36.2991C13.4842 38.5728 14.3513 40.5697 15.488 42.2747L17.1521 41.1653C16.1554 39.6703 15.3692 37.8806 14.8058 35.7809L12.8742 36.2991ZM15.488 42.2747C16.6275 43.984 18.0105 45.3448 19.641 46.3348L20.679 44.6252C19.3228 43.8018 18.1458 42.656 17.1521 41.1653L15.488 42.2747ZM19.6543 46.3427C21.3608 47.3431 23.2432 47.84 25.28 47.84V45.84C23.5835 45.84 22.0526 45.4303 20.6657 44.6173L19.6543 46.3427ZM25.28 47.84C27.3054 47.84 29.159 47.3752 30.8161 46.4282L29.8239 44.6918C28.4944 45.4515 26.9879 45.84 25.28 45.84V47.84ZM30.839 46.4148C32.4695 45.4248 33.8525 44.064 34.9921 42.3547L33.328 41.2453C32.3342 42.736 31.1572 43.8818 29.801 44.7052L30.839 46.4148ZM34.9921 42.3547C36.1307 40.6467 36.9729 38.6713 37.5301 36.4425L35.5899 35.9575C35.0804 37.9953 34.3226 39.7533 33.328 41.2453L34.9921 42.3547ZM37.5258 36.4591C38.1379 34.1778 38.44 31.7163 38.44 29.08H36.44C36.44 31.5637 36.1554 33.8489 35.5942 35.9409L37.5258 36.4591ZM73.3175 13.08L72.7339 12.268L72.7277 12.2724L72.7217 12.2769L73.3175 13.08ZM67.7175 18.76L67.0902 19.5388L67.8657 20.1635L68.4936 19.3906L67.7175 18.76ZM59.0775 11.8L58.2748 11.2037L57.7014 11.9755L58.4502 12.5788L59.0775 11.8ZM63.2375 6.84L62.5304 6.13289L62.5237 6.13956L62.5172 6.14636L63.2375 6.84ZM67.7975 3.24L68.312 4.09753L68.3201 4.0926L67.7975 3.24ZM73.2375 0.999996L73.4739 1.97166L73.4862 1.96867L73.4984 1.96536L73.2375 0.999996ZM87.9575 1.48L87.6158 2.41979L87.6285 2.42441L87.6413 2.42868L87.9575 1.48ZM94.0375 5L93.3543 5.73027L93.3665 5.74163L93.379 5.75257L94.0375 5ZM97.8775 10.44L96.949 10.8114L96.953 10.8213L96.9572 10.8311L97.8775 10.44ZM98.2775 23.88L97.3316 23.5557L97.3287 23.5639L97.3261 23.5722L98.2775 23.88ZM95.5575 29.08L94.7544 28.4842L94.7481 28.4926L94.742 28.5013L95.5575 29.08ZM90.9975 34.04L91.6483 34.7993L91.6545 34.794L91.6605 34.7886L90.9975 34.04ZM84.5175 39.32L85.1286 40.1116L85.1338 40.1075L84.5175 39.32ZM75.3975 46.36L74.7864 45.5684L72.4655 47.36H75.3975V46.36ZM99.7975 46.36H100.798V45.36H99.7975V46.36ZM99.7975 57V58H100.798V57H99.7975ZM58.3575 57H57.3575V58H58.3575V57ZM58.3575 47.24L57.7235 46.4666L57.3575 46.7667V47.24H58.3575ZM76.9975 31.96L76.3643 31.186L76.3635 31.1866L76.9975 31.96ZM81.4775 28.12L82.1518 28.8585L82.1603 28.8507L82.1687 28.8426L81.4775 28.12ZM84.4375 24.84L83.6375 24.24L83.6324 24.2468L84.4375 24.84ZM86.1175 21.8L85.1792 21.4543L85.1738 21.469L85.1688 21.4838L86.1175 21.8ZM84.5975 13.08L83.9349 13.829L83.9349 13.829L84.5975 13.08ZM79.1575 10.24C76.7704 10.24 74.6178 10.9139 72.7339 12.268L73.9011 13.892C75.4306 12.7927 77.1712 12.24 79.1575 12.24V10.24ZM72.7217 12.2769C70.9735 13.5739 69.0465 15.5384 66.9414 18.1294L68.4936 19.3906C70.5485 16.8615 72.3548 15.0394 73.9133 13.8831L72.7217 12.2769ZM68.3448 17.9812L59.7048 11.0212L58.4502 12.5788L67.0902 19.5388L68.3448 17.9812ZM59.8802 12.3963C61.2455 10.5585 62.605 8.93852 63.9578 7.53364L62.5172 6.14636C61.0967 7.62147 59.6828 9.30821 58.2748 11.2037L59.8802 12.3963ZM63.9446 7.5471C65.332 6.15969 66.7882 5.01179 68.312 4.09749L67.283 2.3825C65.6068 3.38821 64.023 4.6403 62.5304 6.13289L63.9446 7.5471ZM68.3201 4.0926C69.8806 3.13612 71.5967 2.42826 73.4739 1.97166L73.0011 0.0283286C70.9316 0.53173 69.021 1.31721 67.2749 2.38739L68.3201 4.0926ZM73.4984 1.96536C75.3701 1.45951 77.5199 1.2 79.9575 1.2V-0.800003C77.3818 -0.800003 75.0516 -0.526184 72.9766 0.0346327L73.4984 1.96536ZM79.9575 1.2C82.8499 1.2 85.3977 1.61324 87.6158 2.41979L88.2992 0.540206C85.8239 -0.359913 83.0385 -0.800003 79.9575 -0.800003V1.2ZM87.6413 2.42868C89.9208 3.18852 91.8179 4.29296 93.3543 5.73027L94.7207 4.26973C92.9504 2.6137 90.7942 1.37148 88.2737 0.531316L87.6413 2.42868ZM93.379 5.75257C94.9652 7.14052 96.1535 8.82264 96.949 10.8114L98.806 10.0686C97.8948 7.79069 96.5231 5.84614 94.696 4.24742L93.379 5.75257ZM96.9572 10.8311C97.805 12.826 98.2375 15.064 98.2375 17.56H100.238C100.238 14.8293 99.7634 12.3207 98.7978 10.0489L96.9572 10.8311ZM98.2375 17.56C98.2375 19.8166 97.9297 21.811 97.3316 23.5557L99.2234 24.2043C99.9053 22.2157 100.238 19.9967 100.238 17.56H98.2375ZM97.3261 23.5722C96.7754 25.2741 95.9215 26.9111 94.7544 28.4842L96.3606 29.6758C97.6468 27.9422 98.6062 26.1126 99.2289 24.1878L97.3261 23.5722ZM94.742 28.5013C93.6216 30.08 92.1565 31.6776 90.3345 33.2914L91.6605 34.7886C93.5718 33.0957 95.1468 31.3866 96.373 29.6587L94.742 28.5013ZM90.3467 33.2807C88.4938 34.8689 86.3457 36.6194 83.9012 38.5325L85.1338 40.1075C87.5959 38.1806 89.7678 36.4111 91.6483 34.7993L90.3467 33.2807ZM83.9064 38.5284L74.7864 45.5684L76.0086 47.1516L85.1286 40.1116L83.9064 38.5284ZM75.3975 47.36H99.7975V45.36H75.3975V47.36ZM98.7975 46.36V57H100.798V46.36H98.7975ZM99.7975 56H58.3575V58H99.7975V56ZM59.3575 57V47.24H57.3575V57H59.3575ZM58.9915 48.0134L77.6315 32.7334L76.3635 31.1866L57.7235 46.4666L58.9915 48.0134ZM77.6307 32.734C79.4 31.2864 80.9079 29.9942 82.1518 28.8585L80.8032 27.3815C79.5938 28.4858 78.115 29.7536 76.3643 31.186L77.6307 32.734ZM82.1687 28.8426C83.4237 27.6423 84.4523 26.5057 85.2426 25.4332L83.6324 24.2468C82.9294 25.201 81.9847 26.2511 80.7863 27.3974L82.1687 28.8426ZM85.2375 25.44C86.0827 24.313 86.7033 23.2047 87.0662 22.1162L85.1688 21.4838C84.8917 22.3153 84.3923 23.2336 83.6375 24.24L85.2375 25.44ZM87.0558 22.1457C87.4734 21.0125 87.6775 19.8011 87.6775 18.52H85.6775C85.6775 19.5856 85.5083 20.5609 85.1792 21.4543L87.0558 22.1457ZM87.6775 18.52C87.6775 15.9239 86.9208 13.8001 85.2601 12.331L83.9349 13.829C85.0476 14.8132 85.6775 16.3161 85.6775 18.52H87.6775ZM85.2601 12.331C83.654 10.9102 81.5879 10.24 79.1575 10.24V12.24C81.2071 12.24 82.7677 12.7964 83.9349 13.829L85.2601 12.331Z" fill="#BCBDBE" mask="url(#path-1-outside-1_1108_13079)"/>
</svg>
