<svg width="100" height="58" viewBox="0 0 100 58" fill="none" xmlns="http://www.w3.org/2000/svg">
<mask id="path-1-outside-1_1108_13080" maskUnits="userSpaceOnUse" x="-1" y="-1" width="102" height="60" fill="black">
<rect fill="white" x="-1" y="-1" width="102" height="60"/>
<path d="M50.08 28.92C50.08 33.0267 49.4667 36.84 48.24 40.36C47.0667 43.88 45.3867 46.9467 43.2 49.56C41.0133 52.1733 38.3733 54.2267 35.28 55.72C32.24 57.2133 28.8533 57.96 25.12 57.96C21.3867 57.96 17.9733 57.24 14.88 55.8C11.84 54.3067 9.22667 52.2533 7.04 49.64C4.90667 47.0267 3.25333 43.9867 2.08 40.52C0.906667 37 0.32 33.1867 0.32 29.08C0.32 25.0267 0.906667 21.24 2.08 17.72C3.30667 14.1467 5.01333 11.0533 7.2 8.44C9.38667 5.82666 12 3.77333 15.04 2.28C18.1333 0.786666 21.5467 0.039999 25.28 0.039999C29.0133 0.039999 32.4 0.786666 35.44 2.28C38.5333 3.72 41.1467 5.74667 43.28 8.36C45.4667 10.9733 47.1467 14.04 48.32 17.56C49.4933 21.08 50.08 24.8667 50.08 28.92ZM37.44 29.08C37.44 26.52 37.1467 24.1467 36.56 21.96C35.9733 19.7733 35.1467 17.88 34.08 16.28C33.0133 14.68 31.7067 13.4267 30.16 12.52C28.6667 11.6133 26.9867 11.16 25.12 11.16C23.2533 11.16 21.5733 11.6133 20.08 12.52C18.5867 13.3733 17.3067 14.6 16.24 16.2C15.1733 17.7467 14.3467 19.6133 13.76 21.8C13.2267 23.9867 12.96 26.36 12.96 28.92C12.96 31.48 13.2533 33.8533 13.84 36.04C14.4267 38.2267 15.2533 40.12 16.32 41.72C17.3867 43.32 18.6667 44.5733 20.16 45.48C21.7067 46.3867 23.4133 46.84 25.28 46.84C27.1467 46.84 28.8267 46.4133 30.32 45.56C31.8133 44.6533 33.0933 43.4 34.16 41.8C35.2267 40.2 36.0267 38.3333 36.56 36.2C37.1467 34.0133 37.44 31.64 37.44 29.08ZM82.7575 11.56H60.7575V0.999996H98.5975V10.28L84.4375 23.8C86.3575 24.12 88.2242 24.6267 90.0375 25.32C91.8508 26.0133 93.4508 27 94.8375 28.28C96.2242 29.5067 97.3442 31.0533 98.1975 32.92C99.0508 34.7333 99.4775 36.9467 99.4775 39.56C99.4775 42.2267 98.9975 44.68 98.0375 46.92C97.1308 49.16 95.7975 51.1067 94.0375 52.76C92.3308 54.4133 90.2242 55.6933 87.7175 56.6C85.2108 57.5067 82.4108 57.96 79.3175 57.96C74.2508 57.96 69.9308 57.08 66.3575 55.32C62.8375 53.5067 59.8775 51.16 57.4775 48.28L65.9575 40.2C67.8775 42.3867 69.8775 44.0667 71.9575 45.24C74.0908 46.36 76.5975 46.92 79.4775 46.92C81.8242 46.92 83.7175 46.3067 85.1575 45.08C86.6508 43.8533 87.3975 42.1733 87.3975 40.04C87.3975 37.6933 86.4375 35.9067 84.5175 34.68C82.6508 33.4533 79.9575 32.84 76.4375 32.84H71.3175L69.3975 25L82.7575 11.56Z"/>
</mask>
<path d="M48.24 40.36L47.2956 40.0309L47.2913 40.0438L48.24 40.36ZM43.2 49.56L43.9669 50.2017L43.9669 50.2017L43.2 49.56ZM35.28 55.72L34.8452 54.8194L34.8391 54.8224L35.28 55.72ZM14.88 55.8L14.4391 56.6976L14.4485 56.7022L14.458 56.7066L14.88 55.8ZM7.04 49.64L6.26528 50.2724L6.27306 50.2817L7.04 49.64ZM2.08 40.52L1.13131 40.8362L1.13278 40.8406L2.08 40.52ZM2.08 17.72L1.13414 17.3953L1.13132 17.4038L2.08 17.72ZM7.2 8.44L6.43306 7.79827L6.43306 7.79827L7.2 8.44ZM15.04 2.28L14.6052 1.37943L14.5991 1.38244L15.04 2.28ZM35.44 2.28L34.9991 3.17755L35.0085 3.18217L35.018 3.18658L35.44 2.28ZM43.28 8.36L42.5053 8.99242L42.5131 9.00172L43.28 8.36ZM48.32 17.56L49.2687 17.2438L49.2687 17.2438L48.32 17.56ZM36.56 21.96L37.5258 21.7009L37.5258 21.7009L36.56 21.96ZM34.08 16.28L33.248 16.8347L33.248 16.8347L34.08 16.28ZM30.16 12.52L29.641 13.3748L29.6476 13.3788L29.6543 13.3827L30.16 12.52ZM20.08 12.52L20.5761 13.3882L20.5876 13.3817L20.599 13.3748L20.08 12.52ZM16.24 16.2L17.0632 16.7677L17.0677 16.7612L17.0721 16.7547L16.24 16.2ZM13.76 21.8L12.7942 21.5409L12.7912 21.5519L12.7885 21.563L13.76 21.8ZM13.84 36.04L12.8742 36.2991L12.8742 36.2991L13.84 36.04ZM16.32 41.72L15.488 42.2747L15.488 42.2747L16.32 41.72ZM20.16 45.48L19.641 46.3348L19.6476 46.3388L19.6543 46.3427L20.16 45.48ZM30.32 45.56L30.8161 46.4282L30.8276 46.4217L30.839 46.4148L30.32 45.56ZM34.16 41.8L34.9921 42.3547L34.9921 42.3547L34.16 41.8ZM36.56 36.2L35.5942 35.9409L35.5919 35.9491L35.5899 35.9575L36.56 36.2ZM49.08 28.92C49.08 32.926 48.4819 36.6269 47.2957 40.0309L49.1843 40.6891C50.4514 37.0531 51.08 33.1274 51.08 28.92H49.08ZM47.2913 40.0438C46.1541 43.4555 44.5324 46.4093 42.4331 48.9183L43.9669 50.2017C46.2409 47.484 47.9792 44.3045 49.1887 40.6762L47.2913 40.0438ZM42.4331 48.9183C40.3383 51.4218 37.8118 53.3873 34.8453 54.8194L35.7148 56.6206C38.9349 55.066 41.6884 52.9248 43.9669 50.2017L42.4331 48.9183ZM34.8391 54.8224C31.9499 56.2417 28.7163 56.96 25.12 56.96V58.96C28.9904 58.96 32.5302 58.1849 35.7209 56.6176L34.8391 54.8224ZM25.12 56.96C21.5186 56.96 18.2511 56.2663 15.302 54.8934L14.458 56.7066C17.6955 58.2137 21.2548 58.96 25.12 58.96V56.96ZM15.3209 54.9024C12.407 53.4711 9.90454 51.5052 7.80694 48.9983L6.27306 50.2817C8.54879 53.0015 11.273 55.1423 14.4391 56.6976L15.3209 54.9024ZM7.81466 49.0076C5.76324 46.4946 4.16543 43.5623 3.02722 40.1994L1.13278 40.8406C2.34124 44.411 4.0501 47.5587 6.26534 50.2724L7.81466 49.0076ZM3.02868 40.2038C1.89276 36.796 1.32 33.0906 1.32 29.08H-0.68C-0.68 33.2828 -0.0794299 37.204 1.13132 40.8362L3.02868 40.2038ZM1.32 29.08C1.32 25.1243 1.89233 21.4453 3.02868 18.0362L1.13132 17.4038C-0.0789993 21.0347 -0.68 24.9291 -0.68 29.08H1.32ZM3.02582 18.0447C4.21707 14.5745 5.86688 11.5915 7.96694 9.08172L6.43306 7.79827C4.15978 10.5151 2.39626 13.7188 1.13418 17.3953L3.02582 18.0447ZM7.96694 9.08172C10.0645 6.57483 12.567 4.60893 15.4809 3.17755L14.5991 1.38244C11.433 2.93774 8.70879 5.0785 6.43306 7.79827L7.96694 9.08172ZM15.4747 3.18055C18.421 1.75822 21.6839 1.04 25.28 1.04V-0.960001C21.4094 -0.960001 17.8457 -0.184884 14.6053 1.37945L15.4747 3.18055ZM25.28 1.04C28.8763 1.04 32.1099 1.75827 34.9991 3.17755L35.8809 1.38244C32.6902 -0.184943 29.1504 -0.960001 25.28 -0.960001V1.04ZM35.018 3.18658C37.9762 4.56369 40.4685 6.49724 42.5053 8.99237L44.0547 7.72762C41.8248 4.99609 39.0905 2.87631 35.862 1.37342L35.018 3.18658ZM42.5131 9.00172C44.6124 11.5107 46.2341 14.4645 47.3713 17.8762L49.2687 17.2438C48.0592 13.6155 46.3209 10.436 44.0469 7.71827L42.5131 9.00172ZM47.3713 17.8762C48.5077 21.2853 49.08 24.9643 49.08 28.92H51.08C51.08 24.7691 50.479 20.8747 49.2687 17.2438L47.3713 17.8762ZM38.44 29.08C38.44 26.4437 38.1379 23.9822 37.5258 21.7009L35.5942 22.2191C36.1554 24.3111 36.44 26.5963 36.44 29.08H38.44ZM37.5258 21.7009C36.9158 19.4272 36.0487 17.4303 34.9121 15.7253L33.248 16.8347C34.2446 18.3297 35.0308 20.1194 35.5942 22.2191L37.5258 21.7009ZM34.9121 15.7253C33.7676 14.0086 32.3524 12.6461 30.6657 11.6573L29.6543 13.3827C31.0609 14.2073 32.2591 15.3514 33.248 16.8347L34.9121 15.7253ZM30.679 11.6652C29.0184 10.657 27.1567 10.16 25.12 10.16V12.16C26.8167 12.16 28.3149 12.5696 29.641 13.3748L30.679 11.6652ZM25.12 10.16C23.0834 10.16 21.2216 10.657 19.561 11.6652L20.599 13.3748C21.9251 12.5696 23.4233 12.16 25.12 12.16V10.16ZM19.5839 11.6518C17.9405 12.5908 16.5505 13.9315 15.408 15.6453L17.0721 16.7547C18.0629 15.2685 19.2328 14.1559 20.5761 13.3882L19.5839 11.6518ZM15.4168 15.6323C14.2736 17.2899 13.4045 19.2659 12.7942 21.5409L14.7258 22.0591C15.2888 19.9608 16.0731 18.2034 17.0632 16.7677L15.4168 15.6323ZM12.7885 21.563C12.2338 23.837 11.96 26.2909 11.96 28.92H13.96C13.96 26.4291 14.2195 24.1363 14.7315 22.037L12.7885 21.563ZM11.96 28.92C11.96 31.5563 12.2621 34.0178 12.8742 36.2991L14.8058 35.7809C14.2446 33.6889 13.96 31.4037 13.96 28.92H11.96ZM12.8742 36.2991C13.4842 38.5728 14.3513 40.5697 15.488 42.2747L17.1521 41.1653C16.1554 39.6703 15.3692 37.8806 14.8058 35.7809L12.8742 36.2991ZM15.488 42.2747C16.6275 43.984 18.0105 45.3448 19.641 46.3348L20.679 44.6252C19.3228 43.8018 18.1458 42.656 17.1521 41.1653L15.488 42.2747ZM19.6543 46.3427C21.3608 47.3431 23.2432 47.84 25.28 47.84V45.84C23.5835 45.84 22.0526 45.4303 20.6657 44.6173L19.6543 46.3427ZM25.28 47.84C27.3054 47.84 29.159 47.3752 30.8161 46.4282L29.8239 44.6918C28.4944 45.4515 26.9879 45.84 25.28 45.84V47.84ZM30.839 46.4148C32.4695 45.4248 33.8525 44.064 34.9921 42.3547L33.328 41.2453C32.3342 42.736 31.1572 43.8818 29.801 44.7052L30.839 46.4148ZM34.9921 42.3547C36.1307 40.6467 36.9729 38.6713 37.5301 36.4425L35.5899 35.9575C35.0804 37.9953 34.3226 39.7533 33.328 41.2453L34.9921 42.3547ZM37.5258 36.4591C38.1379 34.1778 38.44 31.7163 38.44 29.08H36.44C36.44 31.5637 36.1554 33.8489 35.5942 35.9409L37.5258 36.4591ZM82.7575 11.56L83.4667 12.265L85.1616 10.56H82.7575V11.56ZM60.7575 11.56H59.7575V12.56H60.7575V11.56ZM60.7575 0.999996V-3.8147e-06H59.7575V0.999996H60.7575ZM98.5975 0.999996H99.5975V-3.8147e-06H98.5975V0.999996ZM98.5975 10.28L99.2881 11.0033L99.5975 10.7078V10.28H98.5975ZM84.4375 23.8L83.7469 23.0767L82.3006 24.4576L84.2731 24.7864L84.4375 23.8ZM90.0375 25.32L90.3946 24.3859L90.3946 24.3859L90.0375 25.32ZM94.8375 28.28L94.1592 29.0148L94.167 29.022L94.1749 29.029L94.8375 28.28ZM98.1975 32.92L97.288 33.3358L97.2927 33.3458L98.1975 32.92ZM98.0375 46.92L97.1184 46.5261L97.1144 46.5354L97.1106 46.5448L98.0375 46.92ZM94.0375 52.76L93.3528 52.0312L93.3472 52.0364L93.3417 52.0418L94.0375 52.76ZM87.7175 56.6L87.3774 55.6596L87.3774 55.6596L87.7175 56.6ZM66.3575 55.32L65.8995 56.209L65.9076 56.2131L65.9157 56.2171L66.3575 55.32ZM57.4775 48.28L56.7877 47.556L56.1103 48.2014L56.7093 48.9202L57.4775 48.28ZM65.9575 40.2L66.7089 39.5402L66.0217 38.7575L65.2677 39.476L65.9575 40.2ZM71.9575 45.24L71.4662 46.111L71.4793 46.1184L71.4927 46.1254L71.9575 45.24ZM85.1575 45.08L84.5228 44.3073L84.5158 44.313L84.509 44.3188L85.1575 45.08ZM84.5175 34.68L83.9683 35.5158L83.9791 35.5227L84.5175 34.68ZM71.3175 32.84L70.3462 33.0779L70.5328 33.84H71.3175V32.84ZM69.3975 25L68.6883 24.295L68.2927 24.6929L68.4262 25.2379L69.3975 25ZM82.7575 10.56H60.7575V12.56H82.7575V10.56ZM61.7575 11.56V0.999996H59.7575V11.56H61.7575ZM60.7575 2H98.5975V-3.8147e-06H60.7575V2ZM97.5975 0.999996V10.28H99.5975V0.999996H97.5975ZM97.9069 9.55673L83.7469 23.0767L85.1281 24.5233L99.2881 11.0033L97.9069 9.55673ZM84.2731 24.7864C86.1274 25.0954 87.9295 25.5846 89.6804 26.254L90.3946 24.3859C88.5188 23.6687 86.5876 23.1445 84.6019 22.8136L84.2731 24.7864ZM89.6804 26.254C91.3784 26.9033 92.8687 27.8235 94.1592 29.0148L95.5158 27.5452C94.033 26.1765 92.3232 25.1233 90.3946 24.3859L89.6804 26.254ZM94.1749 29.029C95.4461 30.1535 96.4865 31.5823 97.288 33.3358L99.107 32.5042C98.2019 30.5243 97.0023 28.8599 95.5001 27.531L94.1749 29.029ZM97.2927 33.3458C98.0673 34.9919 98.4775 37.0509 98.4775 39.56H100.478C100.478 36.8424 100.034 34.4748 99.1023 32.4942L97.2927 33.3458ZM98.4775 39.56C98.4775 42.1041 98.0202 44.4218 97.1184 46.5261L98.9566 47.3139C99.9748 44.9381 100.478 42.3492 100.478 39.56H98.4775ZM97.1106 46.5448C96.2581 48.6509 95.0074 50.4769 93.3528 52.0312L94.7222 53.4888C96.5876 51.7365 98.0036 49.6691 98.9644 47.2952L97.1106 46.5448ZM93.3417 52.0418C91.7483 53.5854 89.7673 54.7952 87.3774 55.6596L88.0576 57.5404C90.681 56.5915 92.9134 55.2413 94.7333 53.4782L93.3417 52.0418ZM87.3774 55.6596C84.9957 56.5211 82.3131 56.96 79.3175 56.96V58.96C82.5085 58.96 85.426 58.4923 88.0576 57.5404L87.3774 55.6596ZM79.3175 56.96C74.3636 56.96 70.203 56.0994 66.7994 54.4229L65.9157 56.2171C69.6586 58.0606 74.1381 58.96 79.3175 58.96V56.96ZM66.8155 54.431C63.4077 52.6755 60.5552 50.4112 58.2457 47.6398L56.7093 48.9202C59.1998 51.9088 62.2673 54.3378 65.8995 56.209L66.8155 54.431ZM58.1673 49.004L66.6473 40.924L65.2677 39.476L56.7877 47.556L58.1673 49.004ZM65.2061 40.8598C67.1846 43.1131 69.2695 44.8718 71.4662 46.111L72.4488 44.369C70.4855 43.2615 68.5704 41.6602 66.7089 39.5402L65.2061 40.8598ZM71.4927 46.1254C73.7949 47.334 76.467 47.92 79.4775 47.92V45.92C76.728 45.92 74.3868 45.386 72.4223 44.3546L71.4927 46.1254ZM79.4775 47.92C82.0027 47.92 84.1446 47.2565 85.806 45.8412L84.509 44.3188C83.2904 45.3569 81.6456 45.92 79.4775 45.92V47.92ZM85.7922 45.8527C87.5428 44.4148 88.3975 42.4373 88.3975 40.04H86.3975C86.3975 41.9093 85.7589 43.2919 84.5228 44.3073L85.7922 45.8527ZM88.3975 40.04C88.3975 37.3645 87.2738 35.2543 85.0559 33.8373L83.9791 35.5227C85.6013 36.5591 86.3975 38.0222 86.3975 40.04H88.3975ZM85.0667 33.8443C82.968 32.4651 80.0494 31.84 76.4375 31.84V33.84C79.8656 33.84 82.3337 34.4415 83.9683 35.5157L85.0667 33.8443ZM76.4375 31.84H71.3175V33.84H76.4375V31.84ZM72.2888 32.6021L70.3688 24.7621L68.4262 25.2379L70.3462 33.0779L72.2888 32.6021ZM70.1067 25.705L83.4667 12.265L82.0483 10.855L68.6883 24.295L70.1067 25.705Z" fill="#BCBDBE" mask="url(#path-1-outside-1_1108_13080)"/>
</svg>
