<svg width="101" height="58" viewBox="0 0 101 58" fill="none" xmlns="http://www.w3.org/2000/svg">
<mask id="path-1-outside-1_1109_13082" maskUnits="userSpaceOnUse" x="-1" y="-1" width="103" height="60" fill="black">
<rect fill="white" x="-1" y="-1" width="103" height="60"/>
<path d="M50.08 28.92C50.08 33.0267 49.4667 36.84 48.24 40.36C47.0667 43.88 45.3867 46.9467 43.2 49.56C41.0133 52.1733 38.3733 54.2267 35.28 55.72C32.24 57.2133 28.8533 57.96 25.12 57.96C21.3867 57.96 17.9733 57.24 14.88 55.8C11.84 54.3067 9.22667 52.2533 7.04 49.64C4.90667 47.0267 3.25333 43.9867 2.08 40.52C0.906667 37 0.32 33.1867 0.32 29.08C0.32 25.0267 0.906667 21.24 2.08 17.72C3.30667 14.1467 5.01333 11.0533 7.2 8.44C9.38667 5.82666 12 3.77333 15.04 2.28C18.1333 0.786666 21.5467 0.039999 25.28 0.039999C29.0133 0.039999 32.4 0.786666 35.44 2.28C38.5333 3.72 41.1467 5.74667 43.28 8.36C45.4667 10.9733 47.1467 14.04 48.32 17.56C49.4933 21.08 50.08 24.8667 50.08 28.92ZM37.44 29.08C37.44 26.52 37.1467 24.1467 36.56 21.96C35.9733 19.7733 35.1467 17.88 34.08 16.28C33.0133 14.68 31.7067 13.4267 30.16 12.52C28.6667 11.6133 26.9867 11.16 25.12 11.16C23.2533 11.16 21.5733 11.6133 20.08 12.52C18.5867 13.3733 17.3067 14.6 16.24 16.2C15.1733 17.7467 14.3467 19.6133 13.76 21.8C13.2267 23.9867 12.96 26.36 12.96 28.92C12.96 31.48 13.2533 33.8533 13.84 36.04C14.4267 38.2267 15.2533 40.12 16.32 41.72C17.3867 43.32 18.6667 44.5733 20.16 45.48C21.7067 46.3867 23.4133 46.84 25.28 46.84C27.1467 46.84 28.8267 46.4133 30.32 45.56C31.8133 44.6533 33.0933 43.4 34.16 41.8C35.2267 40.2 36.0267 38.3333 36.56 36.2C37.1467 34.0133 37.44 31.64 37.44 29.08ZM61.6375 28.6L63.2375 0.999996H97.6375V11.8H73.7975L73.1575 21.48C74.2775 21.2133 75.3975 21 76.5175 20.84C77.6375 20.6267 78.9708 20.52 80.5175 20.52C83.2908 20.52 85.8508 20.8667 88.1975 21.56C90.5975 22.2533 92.6775 23.32 94.4375 24.76C96.1975 26.2 97.5842 28.0667 98.5975 30.36C99.6108 32.6 100.118 35.32 100.118 38.52C100.118 41.5067 99.6108 44.2 98.5975 46.6C97.5842 49 96.1442 51.0533 94.2775 52.76C92.4642 54.4133 90.2242 55.6933 87.5575 56.6C84.9442 57.5067 82.0375 57.96 78.8375 57.96C74.3042 57.96 70.3575 57.2133 66.9975 55.72C63.6375 54.2267 60.5975 52.1733 57.8775 49.56L65.3175 40.68C67.4508 42.6 69.5842 44.0933 71.7175 45.16C73.8508 46.2267 76.1708 46.76 78.6775 46.76C81.5575 46.76 83.8242 46.0933 85.4775 44.76C87.1842 43.4267 88.0375 41.48 88.0375 38.92C88.0375 36.4667 87.1308 34.5733 85.3175 33.24C83.5575 31.9067 81.1575 31.24 78.1175 31.24C76.3575 31.24 74.6775 31.4533 73.0775 31.88C71.5308 32.2533 70.0908 32.7333 68.7575 33.32L61.6375 28.6Z"/>
</mask>
<path d="M48.24 40.36L47.2956 40.0309L47.2913 40.0438L48.24 40.36ZM43.2 49.56L43.9669 50.2017L43.9669 50.2017L43.2 49.56ZM35.28 55.72L34.8452 54.8194L34.8391 54.8224L35.28 55.72ZM14.88 55.8L14.4391 56.6976L14.4485 56.7022L14.458 56.7066L14.88 55.8ZM7.04 49.64L6.26528 50.2724L6.27306 50.2817L7.04 49.64ZM2.08 40.52L1.13131 40.8362L1.13278 40.8406L2.08 40.52ZM2.08 17.72L1.13414 17.3953L1.13132 17.4038L2.08 17.72ZM7.2 8.44L6.43306 7.79827L6.43306 7.79827L7.2 8.44ZM15.04 2.28L14.6052 1.37943L14.5991 1.38244L15.04 2.28ZM35.44 2.28L34.9991 3.17755L35.0085 3.18217L35.018 3.18658L35.44 2.28ZM43.28 8.36L42.5053 8.99242L42.5131 9.00172L43.28 8.36ZM48.32 17.56L49.2687 17.2438L49.2687 17.2438L48.32 17.56ZM36.56 21.96L37.5258 21.7009L37.5258 21.7009L36.56 21.96ZM34.08 16.28L33.248 16.8347L33.248 16.8347L34.08 16.28ZM30.16 12.52L29.641 13.3748L29.6476 13.3788L29.6543 13.3827L30.16 12.52ZM20.08 12.52L20.5761 13.3882L20.5876 13.3817L20.599 13.3748L20.08 12.52ZM16.24 16.2L17.0632 16.7677L17.0677 16.7612L17.0721 16.7547L16.24 16.2ZM13.76 21.8L12.7942 21.5409L12.7912 21.5519L12.7885 21.563L13.76 21.8ZM13.84 36.04L12.8742 36.2991L12.8742 36.2991L13.84 36.04ZM16.32 41.72L15.488 42.2747L15.488 42.2747L16.32 41.72ZM20.16 45.48L19.641 46.3348L19.6476 46.3388L19.6543 46.3427L20.16 45.48ZM30.32 45.56L30.8161 46.4282L30.8276 46.4217L30.839 46.4148L30.32 45.56ZM34.16 41.8L34.9921 42.3547L34.9921 42.3547L34.16 41.8ZM36.56 36.2L35.5942 35.9409L35.5919 35.9491L35.5899 35.9575L36.56 36.2ZM49.08 28.92C49.08 32.926 48.4819 36.6269 47.2957 40.0309L49.1843 40.6891C50.4514 37.0531 51.08 33.1274 51.08 28.92H49.08ZM47.2913 40.0438C46.1541 43.4555 44.5324 46.4093 42.4331 48.9183L43.9669 50.2017C46.2409 47.484 47.9792 44.3045 49.1887 40.6762L47.2913 40.0438ZM42.4331 48.9183C40.3383 51.4218 37.8118 53.3873 34.8453 54.8194L35.7148 56.6206C38.9349 55.066 41.6884 52.9248 43.9669 50.2017L42.4331 48.9183ZM34.8391 54.8224C31.9499 56.2417 28.7163 56.96 25.12 56.96V58.96C28.9904 58.96 32.5302 58.1849 35.7209 56.6176L34.8391 54.8224ZM25.12 56.96C21.5186 56.96 18.2511 56.2663 15.302 54.8934L14.458 56.7066C17.6955 58.2137 21.2548 58.96 25.12 58.96V56.96ZM15.3209 54.9024C12.407 53.4711 9.90454 51.5052 7.80694 48.9983L6.27306 50.2817C8.54879 53.0015 11.273 55.1423 14.4391 56.6976L15.3209 54.9024ZM7.81466 49.0076C5.76324 46.4946 4.16543 43.5623 3.02722 40.1994L1.13278 40.8406C2.34124 44.411 4.0501 47.5587 6.26534 50.2724L7.81466 49.0076ZM3.02868 40.2038C1.89276 36.796 1.32 33.0906 1.32 29.08H-0.68C-0.68 33.2828 -0.0794299 37.204 1.13132 40.8362L3.02868 40.2038ZM1.32 29.08C1.32 25.1243 1.89233 21.4453 3.02868 18.0362L1.13132 17.4038C-0.0789993 21.0347 -0.68 24.9291 -0.68 29.08H1.32ZM3.02582 18.0447C4.21707 14.5745 5.86688 11.5915 7.96694 9.08172L6.43306 7.79827C4.15978 10.5151 2.39626 13.7188 1.13418 17.3953L3.02582 18.0447ZM7.96694 9.08172C10.0645 6.57483 12.567 4.60893 15.4809 3.17755L14.5991 1.38244C11.433 2.93774 8.70879 5.0785 6.43306 7.79827L7.96694 9.08172ZM15.4747 3.18055C18.421 1.75822 21.6839 1.04 25.28 1.04V-0.960001C21.4094 -0.960001 17.8457 -0.184884 14.6053 1.37945L15.4747 3.18055ZM25.28 1.04C28.8763 1.04 32.1099 1.75827 34.9991 3.17755L35.8809 1.38244C32.6902 -0.184943 29.1504 -0.960001 25.28 -0.960001V1.04ZM35.018 3.18658C37.9762 4.56369 40.4685 6.49724 42.5053 8.99237L44.0547 7.72762C41.8248 4.99609 39.0905 2.87631 35.862 1.37342L35.018 3.18658ZM42.5131 9.00172C44.6124 11.5107 46.2341 14.4645 47.3713 17.8762L49.2687 17.2438C48.0592 13.6155 46.3209 10.436 44.0469 7.71827L42.5131 9.00172ZM47.3713 17.8762C48.5077 21.2853 49.08 24.9643 49.08 28.92H51.08C51.08 24.7691 50.479 20.8747 49.2687 17.2438L47.3713 17.8762ZM38.44 29.08C38.44 26.4437 38.1379 23.9822 37.5258 21.7009L35.5942 22.2191C36.1554 24.3111 36.44 26.5963 36.44 29.08H38.44ZM37.5258 21.7009C36.9158 19.4272 36.0487 17.4303 34.9121 15.7253L33.248 16.8347C34.2446 18.3297 35.0308 20.1194 35.5942 22.2191L37.5258 21.7009ZM34.9121 15.7253C33.7676 14.0086 32.3524 12.6461 30.6657 11.6573L29.6543 13.3827C31.0609 14.2073 32.2591 15.3514 33.248 16.8347L34.9121 15.7253ZM30.679 11.6652C29.0184 10.657 27.1567 10.16 25.12 10.16V12.16C26.8167 12.16 28.3149 12.5696 29.641 13.3748L30.679 11.6652ZM25.12 10.16C23.0834 10.16 21.2216 10.657 19.561 11.6652L20.599 13.3748C21.9251 12.5696 23.4233 12.16 25.12 12.16V10.16ZM19.5839 11.6518C17.9405 12.5908 16.5505 13.9315 15.408 15.6453L17.0721 16.7547C18.0629 15.2685 19.2328 14.1559 20.5761 13.3882L19.5839 11.6518ZM15.4168 15.6323C14.2736 17.2899 13.4045 19.2659 12.7942 21.5409L14.7258 22.0591C15.2888 19.9608 16.0731 18.2034 17.0632 16.7677L15.4168 15.6323ZM12.7885 21.563C12.2338 23.837 11.96 26.2909 11.96 28.92H13.96C13.96 26.4291 14.2195 24.1363 14.7315 22.037L12.7885 21.563ZM11.96 28.92C11.96 31.5563 12.2621 34.0178 12.8742 36.2991L14.8058 35.7809C14.2446 33.6889 13.96 31.4037 13.96 28.92H11.96ZM12.8742 36.2991C13.4842 38.5728 14.3513 40.5697 15.488 42.2747L17.1521 41.1653C16.1554 39.6703 15.3692 37.8806 14.8058 35.7809L12.8742 36.2991ZM15.488 42.2747C16.6275 43.984 18.0105 45.3448 19.641 46.3348L20.679 44.6252C19.3228 43.8018 18.1458 42.656 17.1521 41.1653L15.488 42.2747ZM19.6543 46.3427C21.3608 47.3431 23.2432 47.84 25.28 47.84V45.84C23.5835 45.84 22.0526 45.4303 20.6657 44.6173L19.6543 46.3427ZM25.28 47.84C27.3054 47.84 29.159 47.3752 30.8161 46.4282L29.8239 44.6918C28.4944 45.4515 26.9879 45.84 25.28 45.84V47.84ZM30.839 46.4148C32.4695 45.4248 33.8525 44.064 34.9921 42.3547L33.328 41.2453C32.3342 42.736 31.1572 43.8818 29.801 44.7052L30.839 46.4148ZM34.9921 42.3547C36.1307 40.6467 36.9729 38.6713 37.5301 36.4425L35.5899 35.9575C35.0804 37.9953 34.3226 39.7533 33.328 41.2453L34.9921 42.3547ZM37.5258 36.4591C38.1379 34.1778 38.44 31.7163 38.44 29.08H36.44C36.44 31.5637 36.1554 33.8489 35.5942 35.9409L37.5258 36.4591ZM61.6375 28.6L60.6392 28.5421L60.6059 29.1159L61.085 29.4335L61.6375 28.6ZM63.2375 0.999996V-3.8147e-06H62.2938L62.2392 0.942122L63.2375 0.999996ZM97.6375 0.999996H98.6375V-3.8147e-06H97.6375V0.999996ZM97.6375 11.8V12.8H98.6375V11.8H97.6375ZM73.7975 11.8V10.8H72.8614L72.7997 11.734L73.7975 11.8ZM73.1575 21.48L72.1597 21.414L72.0702 22.7668L73.3891 22.4528L73.1575 21.48ZM76.5175 20.84L76.6589 21.8299L76.6819 21.8267L76.7046 21.8223L76.5175 20.84ZM88.1975 21.56L87.9142 22.519L87.92 22.5207L88.1975 21.56ZM94.4375 24.76L93.8043 25.534L93.8043 25.534L94.4375 24.76ZM98.5975 30.36L97.6828 30.7642L97.6864 30.7722L98.5975 30.36ZM98.5975 46.6L97.6763 46.211L97.6763 46.211L98.5975 46.6ZM94.2775 52.76L94.9513 53.499L94.9523 53.498L94.2775 52.76ZM87.5575 56.6L87.2356 55.6532L87.2297 55.6552L87.5575 56.6ZM66.9975 55.72L66.5914 56.6338L66.5914 56.6338L66.9975 55.72ZM57.8775 49.56L57.111 48.9178L56.511 49.6339L57.1847 50.2811L57.8775 49.56ZM65.3175 40.68L65.9865 39.9367L65.2164 39.2436L64.551 40.0378L65.3175 40.68ZM71.7175 45.16L71.2703 46.0544L71.2703 46.0544L71.7175 45.16ZM85.4775 44.76L84.8619 43.972L84.8558 43.9767L84.8497 43.9816L85.4775 44.76ZM85.3175 33.24L84.7136 34.0371L84.7193 34.0414L84.7251 34.0456L85.3175 33.24ZM73.0775 31.88L73.3121 32.8521L73.3237 32.8493L73.3352 32.8462L73.0775 31.88ZM68.7575 33.32L68.205 34.1535L68.6603 34.4553L69.1602 34.2353L68.7575 33.32ZM62.6358 28.6579L64.2358 1.05787L62.2392 0.942122L60.6392 28.5421L62.6358 28.6579ZM63.2375 2H97.6375V-3.8147e-06H63.2375V2ZM96.6375 0.999996V11.8H98.6375V0.999996H96.6375ZM97.6375 10.8H73.7975V12.8H97.6375V10.8ZM72.7997 11.734L72.1597 21.414L74.1553 21.546L74.7953 11.866L72.7997 11.734ZM73.3891 22.4528C74.4799 22.1931 75.5698 21.9855 76.6589 21.8299L76.3761 19.85C75.2252 20.0145 74.0751 20.2336 72.9259 20.5072L73.3891 22.4528ZM76.7046 21.8223C77.7456 21.6241 79.013 21.52 80.5175 21.52V19.52C78.9286 19.52 77.5294 19.6293 76.3304 19.8577L76.7046 21.8223ZM80.5175 21.52C83.2075 21.52 85.6708 21.8562 87.9142 22.519L88.4808 20.601C86.0309 19.8771 83.3742 19.52 80.5175 19.52V21.52ZM87.92 22.5207C90.2029 23.1802 92.1589 24.1877 93.8043 25.534L95.0707 23.986C93.1961 22.4523 90.9921 21.3264 88.475 20.5993L87.92 22.5207ZM93.8043 25.534C95.4307 26.8646 96.7263 28.5995 97.6828 30.7642L99.5122 29.9558C98.442 27.5338 96.9644 25.5354 95.0707 23.986L93.8043 25.534ZM97.6864 30.7722C98.6263 32.8499 99.1175 35.4211 99.1175 38.52H101.118C101.118 35.2189 100.595 32.3501 99.5086 29.9478L97.6864 30.7722ZM99.1175 38.52C99.1175 41.3925 98.6306 43.9508 97.6763 46.211L99.5188 46.989C100.591 44.4492 101.118 41.6209 101.118 38.52H99.1175ZM97.6763 46.211C96.7172 48.4824 95.3598 50.4155 93.6027 52.022L94.9523 53.498C96.9285 51.6912 98.4511 49.5176 99.5188 46.989L97.6763 46.211ZM93.6037 52.021C91.9061 53.5689 89.7911 54.7844 87.2356 55.6532L87.8794 57.5468C90.6573 56.6023 93.0222 55.2578 94.9513 53.499L93.6037 52.021ZM87.2297 55.6552C84.7369 56.5201 81.9431 56.96 78.8375 56.96V58.96C82.1319 58.96 85.1514 58.4932 87.8853 57.5448L87.2297 55.6552ZM78.8375 56.96C74.4123 56.96 70.6097 56.2311 67.4036 54.8062L66.5914 56.6338C70.1053 58.1956 74.196 58.96 78.8375 58.96V56.96ZM67.4036 54.8062C64.1524 53.3612 61.2089 51.374 58.5703 48.8389L57.1847 50.2811C59.9861 52.9727 63.1226 55.0921 66.5914 56.6338L67.4036 54.8062ZM58.644 50.2022L66.084 41.3222L64.551 40.0378L57.111 48.9178L58.644 50.2022ZM64.6485 41.4233C66.8356 43.3916 69.0422 44.9404 71.2703 46.0544L72.1647 44.2656C70.1261 43.2463 68.0661 41.8084 65.9865 39.9367L64.6485 41.4233ZM71.2703 46.0544C73.5496 47.1941 76.0237 47.76 78.6775 47.76V45.76C76.3179 45.76 74.1521 45.2593 72.1647 44.2656L71.2703 46.0544ZM78.6775 47.76C81.7049 47.76 84.2199 47.0588 86.1053 45.5384L84.8497 43.9816C83.4284 45.1278 81.4101 45.76 78.6775 45.76V47.76ZM86.0931 45.548C88.0879 43.9896 89.0375 41.725 89.0375 38.92H87.0375C87.0375 41.235 86.2804 42.8637 84.8619 43.972L86.0931 45.548ZM89.0375 38.92C89.0375 36.1818 88.0052 33.975 85.9099 32.4343L84.7251 34.0456C86.2565 35.1717 87.0375 36.7515 87.0375 38.92H89.0375ZM85.9214 32.4429C83.9327 30.9363 81.2948 30.24 78.1175 30.24V32.24C81.0202 32.24 83.1823 32.877 84.7136 34.0371L85.9214 32.4429ZM78.1175 30.24C76.276 30.24 74.509 30.4633 72.8198 30.9138L73.3352 32.8462C74.846 32.4433 76.439 32.24 78.1175 32.24V30.24ZM72.8429 30.9079C71.2438 31.2939 69.747 31.7921 68.3548 32.4047L69.1602 34.2353C70.4346 33.6746 71.8179 33.2128 73.3121 32.8521L72.8429 30.9079ZM69.31 32.4865L62.19 27.7665L61.085 29.4335L68.205 34.1535L69.31 32.4865Z" fill="#BCBDBE" mask="url(#path-1-outside-1_1109_13082)"/>
</svg>
