<svg width="101" height="58" viewBox="0 0 101 58" fill="none" xmlns="http://www.w3.org/2000/svg">
<mask id="path-1-outside-1_952_13011" maskUnits="userSpaceOnUse" x="-1" y="-1" width="103" height="60" fill="black">
<rect fill="white" x="-1" y="-1" width="103" height="60"/>
<path d="M21.72 11.24C19.5333 11.24 17.5867 11.8533 15.88 13.08C14.2267 14.3067 12.36 16.2 10.28 18.76L1.64 11.8C3.02667 9.93333 4.41333 8.28 5.8 6.84C7.24 5.4 8.76 4.2 10.36 3.24C12.0133 2.22666 13.8267 1.48 15.8 0.999996C17.7733 0.466663 20.0133 0.199997 22.52 0.199997C25.5067 0.199997 28.1733 0.626664 30.52 1.48C32.92 2.28 34.9467 3.45333 36.6 5C38.3067 6.49333 39.5867 8.30666 40.44 10.44C41.3467 12.5733 41.8 14.9467 41.8 17.56C41.8 19.9067 41.48 22.0133 40.84 23.88C40.2533 25.6933 39.3467 27.4267 38.12 29.08C36.9467 30.7333 35.4267 32.3867 33.56 34.04C31.6933 35.64 29.5333 37.4 27.08 39.32L17.96 46.36H42.36V57H0.92V47.24L19.56 31.96C21.32 30.52 22.8133 29.24 24.04 28.12C25.2667 26.9467 26.2533 25.8533 27 24.84C27.8 23.7733 28.36 22.76 28.68 21.8C29.0533 20.7867 29.24 19.6933 29.24 18.52C29.24 16.12 28.5467 14.3067 27.16 13.08C25.7733 11.8533 23.96 11.24 21.72 11.24ZM100.924 28.92C100.924 33.0267 100.31 36.84 99.0838 40.36C97.9104 43.88 96.2304 46.9467 94.0438 49.56C91.8571 52.1733 89.2171 54.2267 86.1238 55.72C83.0838 57.2133 79.6971 57.96 75.9638 57.96C72.2304 57.96 68.8171 57.24 65.7238 55.8C62.6838 54.3067 60.0704 52.2533 57.8838 49.64C55.7504 47.0267 54.0971 43.9867 52.9238 40.52C51.7504 37 51.1638 33.1867 51.1638 29.08C51.1638 25.0267 51.7504 21.24 52.9238 17.72C54.1504 14.1467 55.8571 11.0533 58.0438 8.44C60.2304 5.82666 62.8438 3.77333 65.8838 2.28C68.9771 0.786666 72.3904 0.039999 76.1238 0.039999C79.8571 0.039999 83.2438 0.786666 86.2838 2.28C89.3771 3.72 91.9904 5.74667 94.1238 8.36C96.3104 10.9733 97.9904 14.04 99.1638 17.56C100.337 21.08 100.924 24.8667 100.924 28.92ZM88.2838 29.08C88.2838 26.52 87.9904 24.1467 87.4038 21.96C86.8171 19.7733 85.9904 17.88 84.9238 16.28C83.8571 14.68 82.5504 13.4267 81.0038 12.52C79.5104 11.6133 77.8304 11.16 75.9638 11.16C74.0971 11.16 72.4171 11.6133 70.9238 12.52C69.4304 13.3733 68.1504 14.6 67.0838 16.2C66.0171 17.7467 65.1904 19.6133 64.6038 21.8C64.0704 23.9867 63.8038 26.36 63.8038 28.92C63.8038 31.48 64.0971 33.8533 64.6838 36.04C65.2704 38.2267 66.0971 40.12 67.1638 41.72C68.2304 43.32 69.5104 44.5733 71.0038 45.48C72.5504 46.3867 74.2571 46.84 76.1238 46.84C77.9904 46.84 79.6704 46.4133 81.1638 45.56C82.6571 44.6533 83.9371 43.4 85.0038 41.8C86.0704 40.2 86.8704 38.3333 87.4038 36.2C87.9904 34.0133 88.2838 31.64 88.2838 29.08Z"/>
</mask>
<path d="M15.88 13.08L15.2964 12.268L15.2902 12.2724L15.2842 12.2769L15.88 13.08ZM10.28 18.76L9.65267 19.5388L10.4282 20.1635L11.0561 19.3906L10.28 18.76ZM1.64 11.8L0.837256 11.2037L0.263865 11.9755L1.01267 12.5788L1.64 11.8ZM5.8 6.84L5.09289 6.13289L5.08622 6.13956L5.07968 6.14636L5.8 6.84ZM10.36 3.24L10.8745 4.09753L10.8826 4.0926L10.36 3.24ZM15.8 0.999996L16.0364 1.97166L16.0487 1.96867L16.0609 1.96536L15.8 0.999996ZM30.52 1.48L30.1783 2.41979L30.191 2.42441L30.2038 2.42868L30.52 1.48ZM36.6 5L35.9168 5.73027L35.929 5.74163L35.9415 5.75257L36.6 5ZM40.44 10.44L39.5115 10.8114L39.5155 10.8213L39.5197 10.8311L40.44 10.44ZM40.84 23.88L39.8941 23.5557L39.8912 23.5639L39.8886 23.5722L40.84 23.88ZM38.12 29.08L37.3169 28.4842L37.3106 28.4926L37.3045 28.5013L38.12 29.08ZM33.56 34.04L34.2108 34.7993L34.217 34.794L34.223 34.7886L33.56 34.04ZM27.08 39.32L27.6911 40.1116L27.6963 40.1075L27.08 39.32ZM17.96 46.36L17.3489 45.5684L15.028 47.36H17.96V46.36ZM42.36 46.36H43.36V45.36H42.36V46.36ZM42.36 57V58H43.36V57H42.36ZM0.92 57H-0.0799998V58H0.92V57ZM0.92 47.24L0.28604 46.4666L-0.0799998 46.7667V47.24H0.92ZM19.56 31.96L18.9268 31.186L18.926 31.1866L19.56 31.96ZM24.04 28.12L24.7143 28.8585L24.7228 28.8507L24.7312 28.8426L24.04 28.12ZM27 24.84L26.2 24.24L26.1949 24.2468L27 24.84ZM28.68 21.8L27.7417 21.4543L27.7363 21.469L27.7313 21.4838L28.68 21.8ZM27.16 13.08L26.4974 13.829L26.4974 13.829L27.16 13.08ZM21.72 10.24C19.3329 10.24 17.1803 10.9139 15.2964 12.268L16.4636 13.892C17.9931 12.7927 19.7337 12.24 21.72 12.24V10.24ZM15.2842 12.2769C13.536 13.5739 11.609 15.5384 9.50389 18.1294L11.0561 19.3906C13.111 16.8615 14.9173 15.0394 16.4758 13.8831L15.2842 12.2769ZM10.9073 17.9812L2.26733 11.0212L1.01267 12.5788L9.65267 19.5388L10.9073 17.9812ZM2.44274 12.3963C3.80802 10.5585 5.16747 8.93852 6.52032 7.53364L5.07968 6.14636C3.6592 7.62147 2.24531 9.30821 0.837256 11.2037L2.44274 12.3963ZM6.50711 7.5471C7.89452 6.15969 9.35067 5.01179 10.8745 4.09749L9.8455 2.3825C8.16933 3.38821 6.58549 4.6403 5.09289 6.13289L6.50711 7.5471ZM10.8826 4.0926C12.4431 3.13612 14.1592 2.42826 16.0364 1.97166L15.5636 0.0283286C13.4941 0.53173 11.5835 1.31721 9.83744 2.38739L10.8826 4.0926ZM16.0609 1.96536C17.9326 1.45951 20.0824 1.2 22.52 1.2V-0.800003C19.9443 -0.800003 17.6141 -0.526184 15.5391 0.0346327L16.0609 1.96536ZM22.52 1.2C25.4124 1.2 27.9602 1.61324 30.1783 2.41979L30.8617 0.540206C28.3864 -0.359913 25.601 -0.800003 22.52 -0.800003V1.2ZM30.2038 2.42868C32.4833 3.18852 34.3804 4.29296 35.9168 5.73027L37.2832 4.26973C35.5129 2.6137 33.3567 1.37148 30.8362 0.531316L30.2038 2.42868ZM35.9415 5.75257C37.5277 7.14052 38.716 8.82264 39.5115 10.8114L41.3685 10.0686C40.4573 7.79069 39.0856 5.84614 37.2585 4.24742L35.9415 5.75257ZM39.5197 10.8311C40.3675 12.826 40.8 15.064 40.8 17.56H42.8C42.8 14.8293 42.3259 12.3207 41.3603 10.0489L39.5197 10.8311ZM40.8 17.56C40.8 19.8166 40.4922 21.811 39.8941 23.5557L41.7859 24.2043C42.4678 22.2157 42.8 19.9967 42.8 17.56H40.8ZM39.8886 23.5722C39.3379 25.2741 38.484 26.9111 37.3169 28.4842L38.9231 29.6758C40.2093 27.9422 41.1687 26.1126 41.7914 24.1878L39.8886 23.5722ZM37.3045 28.5013C36.1841 30.08 34.719 31.6776 32.897 33.2914L34.223 34.7886C36.1343 33.0957 37.7093 31.3866 38.9355 29.6587L37.3045 28.5013ZM32.9092 33.2807C31.0563 34.8689 28.9082 36.6194 26.4637 38.5325L27.6963 40.1075C30.1584 38.1806 32.3303 36.4111 34.2108 34.7993L32.9092 33.2807ZM26.4689 38.5284L17.3489 45.5684L18.5711 47.1516L27.6911 40.1116L26.4689 38.5284ZM17.96 47.36H42.36V45.36H17.96V47.36ZM41.36 46.36V57H43.36V46.36H41.36ZM42.36 56H0.92V58H42.36V56ZM1.92 57V47.24H-0.0799998V57H1.92ZM1.55396 48.0134L20.194 32.7334L18.926 31.1866L0.28604 46.4666L1.55396 48.0134ZM20.1932 32.734C21.9625 31.2864 23.4704 29.9942 24.7143 28.8585L23.3657 27.3815C22.1563 28.4858 20.6775 29.7536 18.9268 31.186L20.1932 32.734ZM24.7312 28.8426C25.9862 27.6423 27.0148 26.5057 27.8051 25.4332L26.1949 24.2468C25.4919 25.201 24.5472 26.2511 23.3488 27.3974L24.7312 28.8426ZM27.8 25.44C28.6452 24.313 29.2658 23.2047 29.6287 22.1162L27.7313 21.4838C27.4542 22.3153 26.9548 23.2336 26.2 24.24L27.8 25.44ZM29.6183 22.1457C30.0359 21.0125 30.24 19.8011 30.24 18.52H28.24C28.24 19.5856 28.0708 20.5609 27.7417 21.4543L29.6183 22.1457ZM30.24 18.52C30.24 15.9239 29.4833 13.8001 27.8226 12.331L26.4974 13.829C27.6101 14.8132 28.24 16.3161 28.24 18.52H30.24ZM27.8226 12.331C26.2165 10.9102 24.1504 10.24 21.72 10.24V12.24C23.7696 12.24 25.3302 12.7964 26.4974 13.829L27.8226 12.331ZM99.0838 40.36L98.1394 40.0309L98.1351 40.0438L99.0838 40.36ZM94.0438 49.56L94.8107 50.2017L94.8107 50.2017L94.0438 49.56ZM86.1238 55.72L85.689 54.8194L85.6828 54.8224L86.1238 55.72ZM65.7238 55.8L65.2828 56.6976L65.2922 56.7022L65.3017 56.7066L65.7238 55.8ZM57.8838 49.64L57.109 50.2724L57.1168 50.2817L57.8838 49.64ZM52.9238 40.52L51.9751 40.8362L51.9765 40.8406L52.9238 40.52ZM52.9238 17.72L51.9779 17.3953L51.9751 17.4038L52.9238 17.72ZM58.0438 8.44L57.2768 7.79827L57.2768 7.79827L58.0438 8.44ZM65.8838 2.28L65.449 1.37943L65.4428 1.38244L65.8838 2.28ZM86.2838 2.28L85.8428 3.17755L85.8522 3.18217L85.8617 3.18658L86.2838 2.28ZM94.1238 8.36L93.349 8.99242L93.3568 9.00172L94.1238 8.36ZM99.1638 17.56L100.112 17.2438L100.112 17.2438L99.1638 17.56ZM87.4038 21.96L88.3696 21.7009L88.3696 21.7009L87.4038 21.96ZM84.9238 16.28L84.0917 16.8347L84.0917 16.8347L84.9238 16.28ZM81.0038 12.52L80.4848 13.3748L80.4914 13.3788L80.498 13.3827L81.0038 12.52ZM70.9238 12.52L71.4199 13.3882L71.4314 13.3817L71.4427 13.3748L70.9238 12.52ZM67.0838 16.2L67.907 16.7677L67.9114 16.7612L67.9158 16.7547L67.0838 16.2ZM64.6038 21.8L63.6379 21.5409L63.6349 21.5519L63.6322 21.563L64.6038 21.8ZM64.6838 36.04L63.7179 36.2991L63.7179 36.2991L64.6838 36.04ZM67.1638 41.72L66.3317 42.2747L66.3317 42.2747L67.1638 41.72ZM71.0038 45.48L70.4848 46.3348L70.4914 46.3388L70.498 46.3427L71.0038 45.48ZM81.1638 45.56L81.6599 46.4282L81.6714 46.4217L81.6827 46.4148L81.1638 45.56ZM85.0038 41.8L85.8358 42.3547L85.8358 42.3547L85.0038 41.8ZM87.4038 36.2L86.4379 35.9409L86.4357 35.9491L86.4336 35.9575L87.4038 36.2ZM99.9238 28.92C99.9238 32.926 99.3257 36.6269 98.1395 40.0309L100.028 40.6891C101.295 37.0531 101.924 33.1274 101.924 28.92H99.9238ZM98.1351 40.0438C96.9978 43.4555 95.3762 46.4093 93.2768 48.9183L94.8107 50.2017C97.0847 47.484 98.823 44.3045 100.032 40.6762L98.1351 40.0438ZM93.2768 48.9183C91.182 51.4218 88.6556 53.3873 85.689 54.8194L86.5585 56.6206C89.7786 55.066 92.5322 52.9248 94.8107 50.2017L93.2768 48.9183ZM85.6828 54.8224C82.7936 56.2417 79.5601 56.96 75.9638 56.96V58.96C79.8341 58.96 83.3739 58.1849 86.5647 56.6176L85.6828 54.8224ZM75.9638 56.96C72.3623 56.96 69.0949 56.2663 66.1458 54.8934L65.3017 56.7066C68.5393 58.2137 72.0985 58.96 75.9638 58.96V56.96ZM66.1647 54.9024C63.2508 53.4711 60.7483 51.5052 58.6507 48.9983L57.1168 50.2817C59.3925 53.0015 62.1167 55.1423 65.2828 56.6976L66.1647 54.9024ZM58.6584 49.0076C56.607 46.4946 55.0092 43.5623 53.871 40.1994L51.9765 40.8406C53.185 44.411 54.8938 47.5587 57.1091 50.2724L58.6584 49.0076ZM53.8724 40.2038C52.7365 36.796 52.1638 33.0906 52.1638 29.08H50.1638C50.1638 33.2828 50.7643 37.204 51.9751 40.8362L53.8724 40.2038ZM52.1638 29.08C52.1638 25.1243 52.7361 21.4453 53.8724 18.0362L51.9751 17.4038C50.7648 21.0347 50.1638 24.9291 50.1638 29.08H52.1638ZM53.8696 18.0447C55.0608 14.5745 56.7106 11.5915 58.8107 9.08172L57.2768 7.79827C55.0035 10.5151 53.24 13.7188 51.9779 17.3953L53.8696 18.0447ZM58.8107 9.08172C60.9083 6.57483 63.4108 4.60893 66.3247 3.17755L65.4428 1.38244C62.2767 2.93774 59.5525 5.0785 57.2768 7.79827L58.8107 9.08172ZM66.3185 3.18055C69.2648 1.75822 72.5277 1.04 76.1238 1.04V-0.960001C72.2532 -0.960001 68.6894 -0.184884 65.449 1.37945L66.3185 3.18055ZM76.1238 1.04C79.7201 1.04 82.9536 1.75827 85.8428 3.17755L86.7247 1.38244C83.5339 -0.184943 79.9941 -0.960001 76.1238 -0.960001V1.04ZM85.8617 3.18658C88.82 4.56369 91.3122 6.49724 93.3491 8.99237L94.8984 7.72762C92.6686 4.99609 89.9342 2.87631 86.7058 1.37342L85.8617 3.18658ZM93.3568 9.00172C95.4562 11.5107 97.0778 14.4645 98.2151 17.8762L100.112 17.2438C98.903 13.6155 97.1647 10.436 94.8907 7.71827L93.3568 9.00172ZM98.2151 17.8762C99.3514 21.2853 99.9238 24.9643 99.9238 28.92H101.924C101.924 24.7691 101.323 20.8747 100.112 17.2438L98.2151 17.8762ZM89.2838 29.08C89.2838 26.4437 88.9817 23.9822 88.3696 21.7009L86.4379 22.2191C86.9992 24.3111 87.2838 26.5963 87.2838 29.08H89.2838ZM88.3696 21.7009C87.7596 19.4272 86.8925 17.4303 85.7558 15.7253L84.0917 16.8347C85.0884 18.3297 85.8746 20.1194 86.4379 22.2191L88.3696 21.7009ZM85.7558 15.7253C84.6113 14.0086 83.1962 12.6461 81.5095 11.6573L80.498 13.3827C81.9046 14.2073 83.1028 15.3514 84.0917 16.8347L85.7558 15.7253ZM81.5227 11.6652C79.8622 10.657 78.0004 10.16 75.9638 10.16V12.16C77.6604 12.16 79.1587 12.5696 80.4848 13.3748L81.5227 11.6652ZM75.9638 10.16C73.9271 10.16 72.0653 10.657 70.4048 11.6652L71.4427 13.3748C72.7688 12.5696 74.2671 12.16 75.9638 12.16V10.16ZM70.4276 11.6518C68.7843 12.5908 67.3942 13.9315 66.2517 15.6453L67.9158 16.7547C68.9066 15.2685 70.0766 14.1559 71.4199 13.3882L70.4276 11.6518ZM66.2605 15.6323C65.1173 17.2899 64.2483 19.2659 63.6379 21.5409L65.5696 22.0591C66.1326 19.9608 66.9169 18.2034 67.907 16.7677L66.2605 15.6323ZM63.6322 21.563C63.0776 23.837 62.8038 26.2909 62.8038 28.92H64.8038C64.8038 26.4291 65.0632 24.1363 65.5753 22.037L63.6322 21.563ZM62.8038 28.92C62.8038 31.5563 63.1058 34.0178 63.7179 36.2991L65.6496 35.7809C65.0883 33.6889 64.8038 31.4037 64.8038 28.92H62.8038ZM63.7179 36.2991C64.3279 38.5728 65.195 40.5697 66.3317 42.2747L67.9958 41.1653C66.9992 39.6703 66.2129 37.8806 65.6496 35.7809L63.7179 36.2991ZM66.3317 42.2747C67.4713 43.984 68.8543 45.3448 70.4848 46.3348L71.5227 44.6252C70.1666 43.8018 68.9896 42.656 67.9958 41.1653L66.3317 42.2747ZM70.498 46.3427C72.2045 47.3431 74.0869 47.84 76.1238 47.84V45.84C74.4272 45.84 72.8963 45.4303 71.5095 44.6173L70.498 46.3427ZM76.1238 47.84C78.1492 47.84 80.0027 47.3752 81.6599 46.4282L80.6676 44.6918C79.3381 45.4515 77.8317 45.84 76.1238 45.84V47.84ZM81.6827 46.4148C83.3132 45.4248 84.6962 44.064 85.8358 42.3547L84.1717 41.2453C83.1779 42.736 82.0009 43.8818 80.6448 44.7052L81.6827 46.4148ZM85.8358 42.3547C86.9745 40.6467 87.8167 38.6713 88.3739 36.4425L86.4336 35.9575C85.9241 37.9953 85.1664 39.7533 84.1717 41.2453L85.8358 42.3547ZM88.3696 36.4591C88.9817 34.1778 89.2838 31.7163 89.2838 29.08H87.2838C87.2838 31.5637 86.9992 33.8489 86.4379 35.9409L88.3696 36.4591Z" fill="#BCBDBE" mask="url(#path-1-outside-1_952_13011)"/>
</svg>
