<svg width="152" height="58" viewBox="0 0 152 58" fill="none" xmlns="http://www.w3.org/2000/svg">
<mask id="path-1-outside-1_952_13013" maskUnits="userSpaceOnUse" x="-2" y="-1" width="155" height="60" fill="black">
<rect fill="white" x="-2" y="-1" width="155" height="60"/>
<path d="M25.32 11.56H3.32V0.999996H41.16V10.28L27 23.8C28.92 24.12 30.7867 24.6267 32.6 25.32C34.4133 26.0133 36.0133 27 37.4 28.28C38.7867 29.5067 39.9067 31.0533 40.76 32.92C41.6133 34.7333 42.04 36.9467 42.04 39.56C42.04 42.2267 41.56 44.68 40.6 46.92C39.6933 49.16 38.36 51.1067 36.6 52.76C34.8933 54.4133 32.7867 55.6933 30.28 56.6C27.7733 57.5067 24.9733 57.96 21.88 57.96C16.8133 57.96 12.4933 57.08 8.92 55.32C5.4 53.5067 2.44 51.16 0.0400002 48.28L8.52 40.2C10.44 42.3867 12.44 44.0667 14.52 45.24C16.6533 46.36 19.16 46.92 22.04 46.92C24.3867 46.92 26.28 46.3067 27.72 45.08C29.2133 43.8533 29.96 42.1733 29.96 40.04C29.96 37.6933 29 35.9067 27.08 34.68C25.2133 33.4533 22.52 32.84 19 32.84H13.88L11.96 25L25.32 11.56ZM93.4875 41.24C93.4875 43.8533 92.9275 46.2 91.8075 48.28C90.7408 50.3067 89.2475 52.04 87.3275 53.48C85.4075 54.8667 83.1142 55.9333 80.4475 56.68C77.8342 57.4267 74.9808 57.8 71.8875 57.8C68.7942 57.8 65.9142 57.4267 63.2475 56.68C60.6342 55.88 58.3675 54.7867 56.4475 53.4C54.5275 51.96 53.0075 50.2533 51.8875 48.28C50.8208 46.2533 50.2875 44.0133 50.2875 41.56C50.2875 38.0933 51.0342 35.32 52.5275 33.24C54.0742 31.1067 56.3408 29.3467 59.3275 27.96C57.1408 26.6267 55.4075 25 54.1275 23.08C52.8475 21.16 52.2075 18.68 52.2075 15.64C52.2075 13.5067 52.6608 11.5067 53.5675 9.64C54.5275 7.72 55.8608 6.06666 57.5675 4.68C59.3275 3.29333 61.4075 2.2 63.8075 1.4C66.2075 0.599997 68.9008 0.199997 71.8875 0.199997C74.8208 0.199997 77.4875 0.599997 79.8875 1.4C82.3408 2.2 84.4208 3.29333 86.1275 4.68C87.8875 6.06666 89.2208 7.72 90.1275 9.64C91.0875 11.5067 91.5675 13.5067 91.5675 15.64C91.5675 18.68 90.9275 21.16 89.6475 23.08C88.3675 25 86.6342 26.6267 84.4475 27.96C87.3275 29.4533 89.5408 31.2133 91.0875 33.24C92.6875 35.2133 93.4875 37.88 93.4875 41.24ZM79.8875 17C79.8875 15.24 79.1942 13.6933 77.8075 12.36C76.4208 11.0267 74.4475 10.36 71.8875 10.36C69.3275 10.36 67.3542 11.0267 65.9675 12.36C64.5808 13.64 63.8875 15.16 63.8875 16.92C63.8875 18.9467 64.6075 20.6267 66.0475 21.96C67.4875 23.24 69.4342 23.88 71.8875 23.88C74.3408 23.88 76.2875 23.24 77.7275 21.96C79.1675 20.68 79.8875 19.0267 79.8875 17ZM81.5675 40.6C81.5675 38.36 80.6608 36.6533 78.8475 35.48C77.0342 34.2533 74.7142 33.64 71.8875 33.64C69.0608 33.64 66.7408 34.2533 64.9275 35.48C63.1142 36.6533 62.2075 38.36 62.2075 40.6C62.2075 42.6267 63.0608 44.3067 64.7675 45.64C66.4742 46.9733 68.8475 47.64 71.8875 47.64C74.9275 47.64 77.3008 46.9733 79.0075 45.64C80.7142 44.3067 81.5675 42.6267 81.5675 40.6ZM151.158 28.92C151.158 33.0267 150.545 36.84 149.318 40.36C148.145 43.88 146.465 46.9467 144.278 49.56C142.091 52.1733 139.451 54.2267 136.358 55.72C133.318 57.2133 129.931 57.96 126.198 57.96C122.465 57.96 119.051 57.24 115.958 55.8C112.918 54.3067 110.305 52.2533 108.118 49.64C105.985 47.0267 104.331 43.9867 103.158 40.52C101.985 37 101.398 33.1867 101.398 29.08C101.398 25.0267 101.985 21.24 103.158 17.72C104.385 14.1467 106.091 11.0533 108.278 8.44C110.465 5.82666 113.078 3.77333 116.118 2.28C119.211 0.786666 122.625 0.039999 126.358 0.039999C130.091 0.039999 133.478 0.786666 136.518 2.28C139.611 3.72 142.225 5.74667 144.358 8.36C146.545 10.9733 148.225 14.04 149.398 17.56C150.571 21.08 151.158 24.8667 151.158 28.92ZM138.518 29.08C138.518 26.52 138.225 24.1467 137.638 21.96C137.051 19.7733 136.225 17.88 135.158 16.28C134.091 14.68 132.785 13.4267 131.238 12.52C129.745 11.6133 128.065 11.16 126.198 11.16C124.331 11.16 122.651 11.6133 121.158 12.52C119.665 13.3733 118.385 14.6 117.318 16.2C116.251 17.7467 115.425 19.6133 114.838 21.8C114.305 23.9867 114.038 26.36 114.038 28.92C114.038 31.48 114.331 33.8533 114.918 36.04C115.505 38.2267 116.331 40.12 117.398 41.72C118.465 43.32 119.745 44.5733 121.238 45.48C122.785 46.3867 124.491 46.84 126.358 46.84C128.225 46.84 129.905 46.4133 131.398 45.56C132.891 44.6533 134.171 43.4 135.238 41.8C136.305 40.2 137.105 38.3333 137.638 36.2C138.225 34.0133 138.518 31.64 138.518 29.08Z"/>
</mask>
<path d="M25.32 11.56L26.0292 12.265L27.7241 10.56H25.32V11.56ZM3.32 11.56H2.32V12.56H3.32V11.56ZM3.32 0.999996V-3.8147e-06H2.32V0.999996H3.32ZM41.16 0.999996H42.16V-3.8147e-06H41.16V0.999996ZM41.16 10.28L41.8506 11.0033L42.16 10.7078V10.28H41.16ZM27 23.8L26.3094 23.0767L24.8631 24.4576L26.8356 24.7864L27 23.8ZM32.6 25.32L32.9571 24.3859L32.9571 24.3859L32.6 25.32ZM37.4 28.28L36.7217 29.0148L36.7295 29.022L36.7374 29.029L37.4 28.28ZM40.76 32.92L39.8505 33.3358L39.8552 33.3458L40.76 32.92ZM40.6 46.92L39.6809 46.5261L39.6769 46.5354L39.6731 46.5448L40.6 46.92ZM36.6 52.76L35.9153 52.0312L35.9097 52.0364L35.9042 52.0418L36.6 52.76ZM30.28 56.6L29.9399 55.6596L29.9399 55.6596L30.28 56.6ZM8.92 55.32L8.46204 56.209L8.47006 56.2131L8.47815 56.2171L8.92 55.32ZM0.0400002 48.28L-0.649825 47.556L-1.32718 48.2014L-0.728221 48.9202L0.0400002 48.28ZM8.52 40.2L9.27144 39.5402L8.58423 38.7575L7.83018 39.476L8.52 40.2ZM14.52 45.24L14.0287 46.111L14.0418 46.1184L14.0552 46.1254L14.52 45.24ZM27.72 45.08L27.0853 44.3073L27.0783 44.313L27.0715 44.3188L27.72 45.08ZM27.08 34.68L26.5308 35.5158L26.5416 35.5227L27.08 34.68ZM13.88 32.84L12.9087 33.0779L13.0953 33.84H13.88V32.84ZM11.96 25L11.2508 24.295L10.8552 24.6929L10.9887 25.2379L11.96 25ZM25.32 10.56H3.32V12.56H25.32V10.56ZM4.32 11.56V0.999996H2.32V11.56H4.32ZM3.32 2H41.16V-3.8147e-06H3.32V2ZM40.16 0.999996V10.28H42.16V0.999996H40.16ZM40.4694 9.55673L26.3094 23.0767L27.6906 24.5233L41.8506 11.0033L40.4694 9.55673ZM26.8356 24.7864C28.6899 25.0954 30.492 25.5846 32.2429 26.254L32.9571 24.3859C31.0813 23.6687 29.1501 23.1445 27.1644 22.8136L26.8356 24.7864ZM32.2429 26.254C33.9409 26.9033 35.4312 27.8235 36.7217 29.0148L38.0783 27.5452C36.5955 26.1765 34.8857 25.1233 32.9571 24.3859L32.2429 26.254ZM36.7374 29.029C38.0086 30.1535 39.049 31.5823 39.8505 33.3358L41.6695 32.5042C40.7644 30.5243 39.5648 28.8599 38.0626 27.531L36.7374 29.029ZM39.8552 33.3458C40.6298 34.9919 41.04 37.0509 41.04 39.56H43.04C43.04 36.8424 42.5969 34.4748 41.6648 32.4942L39.8552 33.3458ZM41.04 39.56C41.04 42.1041 40.5827 44.4218 39.6809 46.5261L41.5191 47.3139C42.5373 44.9381 43.04 42.3492 43.04 39.56H41.04ZM39.6731 46.5448C38.8206 48.6509 37.5699 50.4769 35.9153 52.0312L37.2847 53.4888C39.1501 51.7365 40.5661 49.6691 41.5269 47.2952L39.6731 46.5448ZM35.9042 52.0418C34.3108 53.5854 32.3298 54.7952 29.9399 55.6596L30.6201 57.5404C33.2435 56.5915 35.4759 55.2413 37.2958 53.4782L35.9042 52.0418ZM29.9399 55.6596C27.5582 56.5211 24.8756 56.96 21.88 56.96V58.96C25.071 58.96 27.9885 58.4923 30.6201 57.5404L29.9399 55.6596ZM21.88 56.96C16.9261 56.96 12.7655 56.0994 9.36185 54.4229L8.47815 56.2171C12.2211 58.0606 16.7006 58.96 21.88 58.96V56.96ZM9.37796 54.431C5.97019 52.6755 3.11774 50.4112 0.808221 47.6398L-0.728221 48.9202C1.76227 51.9088 4.82981 54.3378 8.46204 56.209L9.37796 54.431ZM0.729826 49.004L9.20983 40.924L7.83018 39.476L-0.649825 47.556L0.729826 49.004ZM7.76856 40.8598C9.7471 43.1131 11.832 44.8718 14.0287 46.111L15.0113 44.369C13.048 43.2615 11.1329 41.6602 9.27144 39.5402L7.76856 40.8598ZM14.0552 46.1254C16.3574 47.334 19.0295 47.92 22.04 47.92V45.92C19.2905 45.92 16.9493 45.386 14.9848 44.3546L14.0552 46.1254ZM22.04 47.92C24.5652 47.92 26.7071 47.2565 28.3685 45.8412L27.0715 44.3188C25.8529 45.3569 24.2081 45.92 22.04 45.92V47.92ZM28.3547 45.8527C30.1053 44.4148 30.96 42.4373 30.96 40.04H28.96C28.96 41.9093 28.3214 43.2919 27.0853 44.3073L28.3547 45.8527ZM30.96 40.04C30.96 37.3645 29.8363 35.2543 27.6184 33.8373L26.5416 35.5227C28.1638 36.5591 28.96 38.0222 28.96 40.04H30.96ZM27.6292 33.8443C25.5305 32.4651 22.6119 31.84 19 31.84V33.84C22.4281 33.84 24.8962 34.4415 26.5308 35.5157L27.6292 33.8443ZM19 31.84H13.88V33.84H19V31.84ZM14.8513 32.6021L12.9313 24.7621L10.9887 25.2379L12.9087 33.0779L14.8513 32.6021ZM12.6692 25.705L26.0292 12.265L24.6108 10.855L11.2508 24.295L12.6692 25.705ZM91.8075 48.28L90.927 47.8059L90.9226 47.8143L91.8075 48.28ZM87.3275 53.48L87.913 54.2907L87.9203 54.2854L87.9275 54.28L87.3275 53.48ZM80.4475 56.68L80.1779 55.717L80.1728 55.7185L80.4475 56.68ZM63.2475 56.68L62.9548 57.6362L62.9663 57.6397L62.9779 57.643L63.2475 56.68ZM56.4475 53.4L55.8475 54.2L55.8547 54.2054L55.862 54.2107L56.4475 53.4ZM51.8875 48.28L51.0026 48.7457L51.01 48.7598L51.0178 48.7736L51.8875 48.28ZM52.5275 33.24L51.7179 32.653L51.7152 32.6568L52.5275 33.24ZM59.3275 27.96L59.7486 28.867L61.4445 28.0796L59.8481 27.1062L59.3275 27.96ZM54.1275 23.08L54.9596 22.5253L54.9596 22.5253L54.1275 23.08ZM53.5675 9.64L52.673 9.19276L52.668 9.2031L53.5675 9.64ZM57.5675 4.68L56.9486 3.8945L56.9427 3.89915L56.9369 3.90388L57.5675 4.68ZM63.8075 1.4L63.4913 0.451312L63.4913 0.451313L63.8075 1.4ZM79.8875 1.4L79.5713 2.3487L79.5775 2.35073L79.8875 1.4ZM86.1275 4.68L85.4969 5.45611L85.5027 5.46084L85.5086 5.46549L86.1275 4.68ZM90.1275 9.64L89.2233 10.067L89.2305 10.0823L89.2382 10.0973L90.1275 9.64ZM89.6475 23.08L88.8155 22.5253L88.8154 22.5253L89.6475 23.08ZM84.4475 27.96L83.9269 27.1062L82.4111 28.0305L83.9872 28.8478L84.4475 27.96ZM91.0875 33.24L90.2925 33.8467L90.3015 33.8584L90.3107 33.8698L91.0875 33.24ZM77.8075 12.36L78.5006 11.6392L78.5006 11.6392L77.8075 12.36ZM65.9675 12.36L66.6458 13.0948L66.6533 13.0879L66.6606 13.0808L65.9675 12.36ZM66.0475 21.96L65.3681 22.6938L65.3755 22.7007L65.3831 22.7074L66.0475 21.96ZM77.7275 21.96L77.0631 21.2126L77.0631 21.2126L77.7275 21.96ZM78.8475 35.48L78.2872 36.3083L78.2957 36.314L78.3042 36.3196L78.8475 35.48ZM64.9275 35.48L65.4708 36.3196L65.4793 36.314L65.4878 36.3083L64.9275 35.48ZM64.7675 45.64L64.1519 46.428L64.1519 46.428L64.7675 45.64ZM79.0075 45.64L79.6231 46.428L79.6231 46.428L79.0075 45.64ZM92.4875 41.24C92.4875 43.7058 91.9605 45.8866 90.927 47.8059L92.688 48.7541C93.8945 46.5134 94.4875 44.0009 94.4875 41.24H92.4875ZM90.9226 47.8143C89.9283 49.7035 88.5348 51.3246 86.7275 52.68L87.9275 54.28C89.9602 52.7554 91.5534 50.9099 92.6924 48.7457L90.9226 47.8143ZM86.742 52.6693C84.9322 53.9764 82.7499 54.9969 80.1779 55.717L80.7171 57.643C83.4784 56.8698 85.8828 55.7569 87.913 54.2907L86.742 52.6693ZM80.1728 55.7185C77.6601 56.4364 74.9005 56.8 71.8875 56.8V58.8C75.0612 58.8 78.0082 58.417 80.7222 57.6415L80.1728 55.7185ZM71.8875 56.8C68.8748 56.8 66.0865 56.4364 63.5171 55.717L62.9779 57.643C65.7419 58.4169 68.7135 58.8 71.8875 58.8V56.8ZM63.5402 55.7238C61.0159 54.9511 58.8515 53.9027 57.033 52.5893L55.862 54.2107C57.8835 55.6706 60.2524 56.8089 62.9548 57.6362L63.5402 55.7238ZM57.0475 52.6C55.231 51.2377 53.8054 49.6333 52.7572 47.7864L51.0178 48.7736C52.2096 50.8734 53.824 52.6823 55.8475 54.2L57.0475 52.6ZM52.7724 47.8143C51.7867 45.9413 51.2875 43.8629 51.2875 41.56H49.2875C49.2875 44.1638 49.855 46.5653 51.0026 48.7457L52.7724 47.8143ZM51.2875 41.56C51.2875 38.2298 52.005 35.6824 53.3398 33.8232L51.7152 32.6568C50.0633 34.9576 49.2875 37.9569 49.2875 41.56H51.2875ZM53.3371 33.827C54.7617 31.8621 56.8786 30.1995 59.7486 28.867L58.9064 27.053C55.8031 28.4938 53.3867 30.3512 51.7179 32.653L53.3371 33.827ZM59.8481 27.1062C57.772 25.8403 56.1503 24.3114 54.9596 22.5253L53.2954 23.6347C54.6647 25.6886 56.5096 27.413 58.8069 28.8138L59.8481 27.1062ZM54.9596 22.5253C53.8189 20.8143 53.2075 18.5442 53.2075 15.64H51.2075C51.2075 18.8157 51.8761 21.5057 53.2954 23.6347L54.9596 22.5253ZM53.2075 15.64C53.2075 13.6537 53.6284 11.8035 54.467 10.0769L52.668 9.2031C51.6933 11.2098 51.2075 13.3597 51.2075 15.64H53.2075ZM54.4619 10.0872C55.3568 8.2975 56.599 6.75539 58.1981 5.45611L56.9369 3.90388C55.1227 5.37794 53.6982 7.14249 52.6731 9.19279L54.4619 10.0872ZM58.1864 5.46549C59.8448 4.15888 61.8193 3.11683 64.1237 2.34868L63.4913 0.451313C60.9957 1.28317 58.8102 2.42778 56.9486 3.8945L58.1864 5.46549ZM64.1237 2.34868C66.4053 1.58817 68.9894 1.2 71.8875 1.2V-0.800003C68.8123 -0.800003 66.0097 -0.388178 63.4913 0.451312L64.1237 2.34868ZM71.8875 1.2C74.7301 1.2 77.288 1.5876 79.5713 2.34868L80.2037 0.451312C77.687 -0.387606 74.9115 -0.800003 71.8875 -0.800003V1.2ZM79.5775 2.35073C81.934 3.11916 83.9005 4.15899 85.4969 5.45611L86.7581 3.90388C84.9412 2.42767 82.7477 1.28083 80.1975 0.449266L79.5775 2.35073ZM85.5086 5.46549C87.1539 6.76179 88.3863 8.29471 89.2233 10.067L91.0318 9.21299C90.0553 7.14529 88.6211 5.37153 86.7464 3.89451L85.5086 5.46549ZM89.2382 10.0973C90.1242 11.8202 90.5675 13.663 90.5675 15.64H92.5675C92.5675 13.3503 92.0508 11.1932 91.0168 9.18265L89.2382 10.0973ZM90.5675 15.64C90.5675 18.5442 89.9561 20.8143 88.8155 22.5253L90.4795 23.6347C91.8989 21.5057 92.5675 18.8157 92.5675 15.64H90.5675ZM88.8154 22.5253C87.6247 24.3114 86.003 25.8403 83.9269 27.1062L84.9681 28.8138C87.2654 27.413 89.1103 25.6886 90.4796 23.6347L88.8154 22.5253ZM83.9872 28.8478C86.7708 30.2911 88.8563 31.9646 90.2925 33.8467L91.8825 32.6333C90.2254 30.462 87.8842 28.6156 84.9078 27.0722L83.9872 28.8478ZM90.3107 33.8698C91.7256 35.6147 92.4875 38.0349 92.4875 41.24H94.4875C94.4875 37.7251 93.6495 34.8119 91.8643 32.6102L90.3107 33.8698ZM80.8875 17C80.8875 14.9412 80.0632 13.1416 78.5006 11.6392L77.1144 13.0808C78.3252 14.245 78.8875 15.5388 78.8875 17H80.8875ZM78.5006 11.6392C76.8727 10.0739 74.6181 9.36 71.8875 9.36V11.36C74.2769 11.36 75.9689 11.9794 77.1144 13.0808L78.5006 11.6392ZM71.8875 9.36C69.1569 9.36 66.9023 10.0739 65.2744 11.6392L66.6606 13.0808C67.8061 11.9794 69.4981 11.36 71.8875 11.36V9.36ZM65.2892 11.6252C63.7141 13.0792 62.8875 14.8591 62.8875 16.92H64.8875C64.8875 15.4609 65.4476 14.2008 66.6458 13.0948L65.2892 11.6252ZM62.8875 16.92C62.8875 19.2149 63.7162 21.1643 65.3681 22.6938L66.7269 21.2262C65.4988 20.0891 64.8875 18.6784 64.8875 16.92H62.8875ZM65.3831 22.7074C67.052 24.1908 69.2583 24.88 71.8875 24.88V22.88C69.61 22.88 67.923 22.2892 66.7119 21.2126L65.3831 22.7074ZM71.8875 24.88C74.5167 24.88 76.723 24.1908 78.3919 22.7074L77.0631 21.2126C75.852 22.2892 74.165 22.88 71.8875 22.88V24.88ZM78.3919 22.7074C80.0576 21.2267 80.8875 19.2955 80.8875 17H78.8875C78.8875 18.7578 78.2774 20.1332 77.0631 21.2126L78.3919 22.7074ZM82.5675 40.6C82.5675 38.036 81.5014 36.0061 79.3908 34.6404L78.3042 36.3196C79.8203 37.3005 80.5675 38.684 80.5675 40.6H82.5675ZM79.4078 34.6517C77.387 33.2847 74.8562 32.64 71.8875 32.64V34.64C74.5722 34.64 76.6814 35.222 78.2872 36.3083L79.4078 34.6517ZM71.8875 32.64C68.9188 32.64 66.3881 33.2847 64.3672 34.6517L65.4878 36.3083C67.0936 35.222 69.2028 34.64 71.8875 34.64V32.64ZM64.3842 34.6404C62.2736 36.0061 61.2075 38.036 61.2075 40.6H63.2075C63.2075 38.684 63.9547 37.3005 65.4708 36.3196L64.3842 34.6404ZM61.2075 40.6C61.2075 42.9581 62.2218 44.9202 64.1519 46.428L65.3831 44.852C63.8998 43.6931 63.2075 42.2952 63.2075 40.6H61.2075ZM64.1519 46.428C66.0931 47.9446 68.7126 48.64 71.8875 48.64V46.64C68.9824 46.64 66.8552 46.002 65.3831 44.852L64.1519 46.428ZM71.8875 48.64C75.0624 48.64 77.6819 47.9446 79.6231 46.428L78.3919 44.852C76.9198 46.002 74.7926 46.64 71.8875 46.64V48.64ZM79.6231 46.428C81.5532 44.9202 82.5675 42.9581 82.5675 40.6H80.5675C80.5675 42.2952 79.8752 43.6931 78.3919 44.852L79.6231 46.428ZM149.318 40.36L148.374 40.0309L148.369 40.0438L149.318 40.36ZM144.278 49.56L145.045 50.2017L145.045 50.2017L144.278 49.56ZM136.358 55.72L135.923 54.8194L135.917 54.8224L136.358 55.72ZM115.958 55.8L115.517 56.6976L115.527 56.7022L115.536 56.7066L115.958 55.8ZM108.118 49.64L107.343 50.2724L107.351 50.2817L108.118 49.64ZM103.158 40.52L102.209 40.8362L102.211 40.8406L103.158 40.52ZM103.158 17.72L102.212 17.3953L102.209 17.4038L103.158 17.72ZM108.278 8.44L107.511 7.79827L107.511 7.79827L108.278 8.44ZM116.118 2.28L115.683 1.37943L115.677 1.38244L116.118 2.28ZM136.518 2.28L136.077 3.17755L136.087 3.18217L136.096 3.18658L136.518 2.28ZM144.358 8.36L143.583 8.99242L143.591 9.00172L144.358 8.36ZM149.398 17.56L150.347 17.2438L150.347 17.2438L149.398 17.56ZM137.638 21.96L138.604 21.7009L138.604 21.7009L137.638 21.96ZM135.158 16.28L134.326 16.8347L134.326 16.8347L135.158 16.28ZM131.238 12.52L130.719 13.3748L130.726 13.3788L130.732 13.3827L131.238 12.52ZM121.158 12.52L121.654 13.3882L121.666 13.3817L121.677 13.3748L121.158 12.52ZM117.318 16.2L118.141 16.7677L118.146 16.7612L118.15 16.7547L117.318 16.2ZM114.838 21.8L113.872 21.5409L113.869 21.5519L113.867 21.563L114.838 21.8ZM114.918 36.04L113.952 36.2991L113.952 36.2991L114.918 36.04ZM117.398 41.72L116.566 42.2747L116.566 42.2747L117.398 41.72ZM121.238 45.48L120.719 46.3348L120.726 46.3388L120.732 46.3427L121.238 45.48ZM131.398 45.56L131.894 46.4282L131.906 46.4217L131.917 46.4148L131.398 45.56ZM135.238 41.8L136.07 42.3547L136.07 42.3547L135.238 41.8ZM137.638 36.2L136.672 35.9409L136.67 35.9491L136.668 35.9575L137.638 36.2ZM150.158 28.92C150.158 32.926 149.56 36.6269 148.374 40.0309L150.262 40.6891C151.53 37.0531 152.158 33.1274 152.158 28.92H150.158ZM148.369 40.0438C147.232 43.4555 145.611 46.4093 143.511 48.9183L145.045 50.2017C147.319 47.484 149.057 44.3045 150.267 40.6762L148.369 40.0438ZM143.511 48.9183C141.416 51.4218 138.89 53.3873 135.923 54.8194L136.793 56.6206C140.013 55.066 142.767 52.9248 145.045 50.2017L143.511 48.9183ZM135.917 54.8224C133.028 56.2417 129.794 56.96 126.198 56.96V58.96C130.068 58.96 133.608 58.1849 136.799 56.6176L135.917 54.8224ZM126.198 56.96C122.597 56.96 119.329 56.2663 116.38 54.8934L115.536 56.7066C118.774 58.2137 122.333 58.96 126.198 58.96V56.96ZM116.399 54.9024C113.485 53.4711 110.983 51.5052 108.885 48.9983L107.351 50.2817C109.627 53.0015 112.351 55.1423 115.517 56.6976L116.399 54.9024ZM108.893 49.0076C106.841 46.4946 105.244 43.5623 104.105 40.1994L102.211 40.8406C103.419 44.411 105.128 47.5587 107.343 50.2724L108.893 49.0076ZM104.107 40.2038C102.971 36.796 102.398 33.0906 102.398 29.08H100.398C100.398 33.2828 100.999 37.204 102.209 40.8362L104.107 40.2038ZM102.398 29.08C102.398 25.1243 102.97 21.4453 104.107 18.0362L102.209 17.4038C100.999 21.0347 100.398 24.9291 100.398 29.08H102.398ZM104.104 18.0447C105.295 14.5745 106.945 11.5915 109.045 9.08172L107.511 7.79827C105.238 10.5151 103.474 13.7188 102.212 17.3953L104.104 18.0447ZM109.045 9.08172C111.143 6.57483 113.645 4.60893 116.559 3.17755L115.677 1.38244C112.511 2.93774 109.787 5.0785 107.511 7.79827L109.045 9.08172ZM116.553 3.18055C119.499 1.75822 122.762 1.04 126.358 1.04V-0.960001C122.488 -0.960001 118.924 -0.184884 115.683 1.37945L116.553 3.18055ZM126.358 1.04C129.954 1.04 133.188 1.75827 136.077 3.17755L136.959 1.38244C133.768 -0.184943 130.228 -0.960001 126.358 -0.960001V1.04ZM136.096 3.18658C139.054 4.56369 141.547 6.49724 143.583 8.99237L145.133 7.72762C142.903 4.99609 140.169 2.87631 136.94 1.37342L136.096 3.18658ZM143.591 9.00172C145.691 11.5107 147.312 14.4645 148.449 17.8762L150.347 17.2438C149.137 13.6155 147.399 10.436 145.125 7.71827L143.591 9.00172ZM148.449 17.8762C149.586 21.2853 150.158 24.9643 150.158 28.92H152.158C152.158 24.7691 151.557 20.8747 150.347 17.2438L148.449 17.8762ZM139.518 29.08C139.518 26.4437 139.216 23.9822 138.604 21.7009L136.672 22.2191C137.234 24.3111 137.518 26.5963 137.518 29.08H139.518ZM138.604 21.7009C137.994 19.4272 137.127 17.4303 135.99 15.7253L134.326 16.8347C135.323 18.3297 136.109 20.1194 136.672 22.2191L138.604 21.7009ZM135.99 15.7253C134.846 14.0086 133.431 12.6461 131.744 11.6573L130.732 13.3827C132.139 14.2073 133.337 15.3514 134.326 16.8347L135.99 15.7253ZM131.757 11.6652C130.097 10.657 128.235 10.16 126.198 10.16V12.16C127.895 12.16 129.393 12.5696 130.719 13.3748L131.757 11.6652ZM126.198 10.16C124.161 10.16 122.3 10.657 120.639 11.6652L121.677 13.3748C123.003 12.5696 124.501 12.16 126.198 12.16V10.16ZM120.662 11.6518C119.019 12.5908 117.629 13.9315 116.486 15.6453L118.15 16.7547C119.141 15.2685 120.311 14.1559 121.654 13.3882L120.662 11.6518ZM116.495 15.6323C115.352 17.2899 114.483 19.2659 113.872 21.5409L115.804 22.0591C116.367 19.9608 117.151 18.2034 118.141 16.7677L116.495 15.6323ZM113.867 21.563C113.312 23.837 113.038 26.2909 113.038 28.92H115.038C115.038 26.4291 115.298 24.1363 115.81 22.037L113.867 21.563ZM113.038 28.92C113.038 31.5563 113.34 34.0178 113.952 36.2991L115.884 35.7809C115.323 33.6889 115.038 31.4037 115.038 28.92H113.038ZM113.952 36.2991C114.562 38.5728 115.429 40.5697 116.566 42.2747L118.23 41.1653C117.234 39.6703 116.447 37.8806 115.884 35.7809L113.952 36.2991ZM116.566 42.2747C117.706 43.984 119.089 45.3448 120.719 46.3348L121.757 44.6252C120.401 43.8018 119.224 42.656 118.23 41.1653L116.566 42.2747ZM120.732 46.3427C122.439 47.3431 124.321 47.84 126.358 47.84V45.84C124.662 45.84 123.131 45.4303 121.744 44.6173L120.732 46.3427ZM126.358 47.84C128.384 47.84 130.237 47.3752 131.894 46.4282L130.902 44.6918C129.572 45.4515 128.066 45.84 126.358 45.84V47.84ZM131.917 46.4148C133.548 45.4248 134.931 44.064 136.07 42.3547L134.406 41.2453C133.412 42.736 132.235 43.8818 130.879 44.7052L131.917 46.4148ZM136.07 42.3547C137.209 40.6467 138.051 38.6713 138.608 36.4425L136.668 35.9575C136.159 37.9953 135.401 39.7533 134.406 41.2453L136.07 42.3547ZM138.604 36.4591C139.216 34.1778 139.518 31.7163 139.518 29.08H137.518C137.518 31.5637 137.234 33.8489 136.672 35.9409L138.604 36.4591Z" fill="#BCBDBE" mask="url(#path-1-outside-1_952_13013)"/>
</svg>
