<svg width="94" height="57" viewBox="0 0 94 57" fill="none" xmlns="http://www.w3.org/2000/svg">
<mask id="path-1-outside-1_952_13010" maskUnits="userSpaceOnUse" x="-1" y="-1" width="96" height="59" fill="black">
<rect fill="white" x="-1" y="-1" width="96" height="59"/>
<path d="M4.2 27.6L5.8 -3.8147e-06H40.2V10.8H16.36L15.72 20.48C16.84 20.2133 17.96 20 19.08 19.84C20.2 19.6267 21.5333 19.52 23.08 19.52C25.8533 19.52 28.4133 19.8667 30.76 20.56C33.16 21.2533 35.24 22.32 37 23.76C38.76 25.2 40.1467 27.0667 41.16 29.36C42.1733 31.6 42.68 34.32 42.68 37.52C42.68 40.5067 42.1733 43.2 41.16 45.6C40.1467 48 38.7067 50.0533 36.84 51.76C35.0267 53.4133 32.7867 54.6933 30.12 55.6C27.5067 56.5067 24.6 56.96 21.4 56.96C16.8667 56.96 12.92 56.2133 9.56 54.72C6.2 53.2267 3.16 51.1733 0.44 48.56L7.88 39.68C10.0133 41.6 12.1467 43.0933 14.28 44.16C16.4133 45.2267 18.7333 45.76 21.24 45.76C24.12 45.76 26.3867 45.0933 28.04 43.76C29.7467 42.4267 30.6 40.48 30.6 37.92C30.6 35.4667 29.6933 33.5733 27.88 32.24C26.12 30.9067 23.72 30.24 20.68 30.24C18.92 30.24 17.24 30.4533 15.64 30.88C14.0933 31.2533 12.6533 31.7333 11.32 32.32L4.2 27.6ZM67.3106 22.32V7.92H78.6706V22.32H93.1506V33.36H78.6706V47.76H67.3106V33.36H52.8306V22.32H67.3106Z"/>
</mask>
<path d="M4.2 27.6L3.20168 27.5421L3.16841 28.1159L3.64746 28.4335L4.2 27.6ZM5.8 -3.8147e-06V-1H4.85629L4.80168 -0.0578777L5.8 -3.8147e-06ZM40.2 -3.8147e-06H41.2V-1H40.2V-3.8147e-06ZM40.2 10.8V11.8H41.2V10.8H40.2ZM16.36 10.8V9.8H15.4239L15.3622 10.734L16.36 10.8ZM15.72 20.48L14.7222 20.414L14.6327 21.7668L15.9516 21.4528L15.72 20.48ZM19.08 19.84L19.2214 20.8299L19.2444 20.8267L19.2671 20.8223L19.08 19.84ZM30.76 20.56L30.4767 21.519L30.4825 21.5207L30.76 20.56ZM37 23.76L36.3668 24.534L36.3668 24.534L37 23.76ZM41.16 29.36L40.2453 29.7642L40.2489 29.7722L41.16 29.36ZM41.16 45.6L40.2388 45.211L40.2388 45.211L41.16 45.6ZM36.84 51.76L37.5138 52.499L37.5148 52.498L36.84 51.76ZM30.12 55.6L29.7981 54.6532L29.7922 54.6552L30.12 55.6ZM9.56 54.72L9.15386 55.6338L9.15386 55.6338L9.56 54.72ZM0.44 48.56L-0.32652 47.9178L-0.926483 48.6339L-0.252826 49.2811L0.44 48.56ZM7.88 39.68L8.54897 38.9367L7.77886 38.2436L7.11348 39.0378L7.88 39.68ZM14.28 44.16L13.8328 45.0544L13.8328 45.0544L14.28 44.16ZM28.04 43.76L27.4244 42.972L27.4183 42.9767L27.4122 42.9816L28.04 43.76ZM27.88 32.24L27.2761 33.0371L27.2818 33.0414L27.2876 33.0456L27.88 32.24ZM15.64 30.88L15.8746 31.8521L15.8862 31.8493L15.8977 31.8462L15.64 30.88ZM11.32 32.32L10.7675 33.1535L11.2228 33.4553L11.7227 33.2353L11.32 32.32ZM5.19832 27.6579L6.79832 0.05787L4.80168 -0.0578777L3.20168 27.5421L5.19832 27.6579ZM5.8 0.999996H40.2V-1H5.8V0.999996ZM39.2 -3.8147e-06V10.8H41.2V-3.8147e-06H39.2ZM40.2 9.8H16.36V11.8H40.2V9.8ZM15.3622 10.734L14.7222 20.414L16.7178 20.546L17.3578 10.866L15.3622 10.734ZM15.9516 21.4528C17.0424 21.1931 18.1323 20.9855 19.2214 20.8299L18.9386 18.85C17.7877 19.0145 16.6376 19.2336 15.4884 19.5072L15.9516 21.4528ZM19.2671 20.8223C20.3081 20.6241 21.5755 20.52 23.08 20.52V18.52C21.4911 18.52 20.0919 18.6293 18.8929 18.8577L19.2671 20.8223ZM23.08 20.52C25.77 20.52 28.2333 20.8562 30.4767 21.519L31.0433 19.601C28.5934 18.8771 25.9367 18.52 23.08 18.52V20.52ZM30.4825 21.5207C32.7654 22.1802 34.7214 23.1877 36.3668 24.534L37.6332 22.986C35.7586 21.4523 33.5546 20.3264 31.0375 19.5993L30.4825 21.5207ZM36.3668 24.534C37.9932 25.8646 39.2888 27.5995 40.2453 29.7642L42.0747 28.9558C41.0045 26.5338 39.5269 24.5354 37.6332 22.986L36.3668 24.534ZM40.2489 29.7722C41.1888 31.8499 41.68 34.4211 41.68 37.52H43.68C43.68 34.2189 43.1579 31.3501 42.0711 28.9478L40.2489 29.7722ZM41.68 37.52C41.68 40.3925 41.1931 42.9508 40.2388 45.211L42.0813 45.989C43.1536 43.4492 43.68 40.6209 43.68 37.52H41.68ZM40.2388 45.211C39.2797 47.4824 37.9223 49.4155 36.1652 51.022L37.5148 52.498C39.491 50.6912 41.0136 48.5176 42.0813 45.989L40.2388 45.211ZM36.1662 51.021C34.4686 52.5689 32.3536 53.7844 29.7981 54.6532L30.4419 56.5468C33.2198 55.6023 35.5847 54.2578 37.5138 52.499L36.1662 51.021ZM29.7922 54.6552C27.2994 55.5201 24.5056 55.96 21.4 55.96V57.96C24.6944 57.96 27.7139 57.4932 30.4478 56.5448L29.7922 54.6552ZM21.4 55.96C16.9748 55.96 13.1722 55.2311 9.96614 53.8062L9.15386 55.6338C12.6678 57.1956 16.7585 57.96 21.4 57.96V55.96ZM9.96614 53.8062C6.71491 52.3612 3.77136 50.374 1.13283 47.8389L-0.252826 49.2811C2.54864 51.9727 5.68509 54.0921 9.15386 55.6338L9.96614 53.8062ZM1.20652 49.2022L8.64652 40.3222L7.11348 39.0378L-0.32652 47.9178L1.20652 49.2022ZM7.21104 40.4233C9.39809 42.3916 11.6047 43.9404 13.8328 45.0544L14.7272 43.2656C12.6886 42.2463 10.6286 40.8084 8.54897 38.9367L7.21104 40.4233ZM13.8328 45.0544C16.1121 46.1941 18.5862 46.76 21.24 46.76V44.76C18.8804 44.76 16.7146 44.2593 14.7272 43.2656L13.8328 45.0544ZM21.24 46.76C24.2674 46.76 26.7824 46.0588 28.6678 44.5384L27.4122 42.9816C25.9909 44.1278 23.9726 44.76 21.24 44.76V46.76ZM28.6556 44.548C30.6504 42.9896 31.6 40.725 31.6 37.92H29.6C29.6 40.235 28.8429 41.8637 27.4244 42.972L28.6556 44.548ZM31.6 37.92C31.6 35.1818 30.5677 32.975 28.4724 31.4343L27.2876 33.0456C28.819 34.1717 29.6 35.7515 29.6 37.92H31.6ZM28.4839 31.4429C26.4952 29.9363 23.8573 29.24 20.68 29.24V31.24C23.5827 31.24 25.7448 31.877 27.2761 33.0371L28.4839 31.4429ZM20.68 29.24C18.8385 29.24 17.0715 29.4633 15.3823 29.9138L15.8977 31.8462C17.4085 31.4433 19.0015 31.24 20.68 31.24V29.24ZM15.4054 29.9079C13.8063 30.2939 12.3095 30.7921 10.9173 31.4047L11.7227 33.2353C12.9971 32.6746 14.3804 32.2128 15.8746 31.8521L15.4054 29.9079ZM11.8725 31.4865L4.75254 26.7665L3.64746 28.4335L10.7675 33.1535L11.8725 31.4865ZM67.3106 22.32V23.32H68.3106V22.32H67.3106ZM67.3106 7.92V6.92H66.3106V7.92H67.3106ZM78.6706 7.92H79.6706V6.92H78.6706V7.92ZM78.6706 22.32H77.6706V23.32H78.6706V22.32ZM93.1506 22.32H94.1506V21.32H93.1506V22.32ZM93.1506 33.36V34.36H94.1506V33.36H93.1506ZM78.6706 33.36V32.36H77.6706V33.36H78.6706ZM78.6706 47.76V48.76H79.6706V47.76H78.6706ZM67.3106 47.76H66.3106V48.76H67.3106V47.76ZM67.3106 33.36H68.3106V32.36H67.3106V33.36ZM52.8306 33.36H51.8306V34.36H52.8306V33.36ZM52.8306 22.32V21.32H51.8306V22.32H52.8306ZM68.3106 22.32V7.92H66.3106V22.32H68.3106ZM67.3106 8.92H78.6706V6.92H67.3106V8.92ZM77.6706 7.92V22.32H79.6706V7.92H77.6706ZM78.6706 23.32H93.1506V21.32H78.6706V23.32ZM92.1506 22.32V33.36H94.1506V22.32H92.1506ZM93.1506 32.36H78.6706V34.36H93.1506V32.36ZM77.6706 33.36V47.76H79.6706V33.36H77.6706ZM78.6706 46.76H67.3106V48.76H78.6706V46.76ZM68.3106 47.76V33.36H66.3106V47.76H68.3106ZM67.3106 32.36H52.8306V34.36H67.3106V32.36ZM53.8306 33.36V22.32H51.8306V33.36H53.8306ZM52.8306 23.32H67.3106V21.32H52.8306V23.32Z" fill="#BCBDBE" mask="url(#path-1-outside-1_952_13010)"/>
</svg>
