<svg width="40" height="42" viewBox="0 0 40 42" fill="none" xmlns="http://www.w3.org/2000/svg">
<path d="M24.9535 31.1069C25.0005 30.7518 25.0256 30.3943 25.0289 30.0362C25.0256 29.6781 25.0005 29.3205 24.9535 28.9655L27.2861 27.1507C27.3915 27.0707 27.4635 26.955 27.4883 26.8256C27.5132 26.6962 27.4891 26.5622 27.4208 26.4494L25.2121 22.643C25.1481 22.5289 25.0443 22.4419 24.9203 22.3985C24.7963 22.3551 24.6605 22.3583 24.5387 22.4075L21.7859 23.5103C21.2131 23.0759 20.5867 22.716 19.9219 22.4396L19.5071 19.5327C19.4888 19.4041 19.4241 19.2864 19.325 19.2017C19.2259 19.117 19.0991 19.071 18.9684 19.0723H14.5402C14.4095 19.071 14.2828 19.117 14.1836 19.2017C14.0845 19.2864 14.0198 19.4041 14.0015 19.5327L13.5867 22.4396C12.9211 22.7143 12.2945 23.0743 11.7227 23.5103L8.95915 22.4075C8.83731 22.3583 8.70159 22.3551 8.57755 22.3985C8.45351 22.4419 8.34973 22.5289 8.28576 22.643L6.07703 26.4494C6.00873 26.5622 5.9847 26.6962 6.00955 26.8256C6.0344 26.955 6.10637 27.0707 6.21171 27.1507L8.53895 28.9655C8.4922 29.3206 8.46702 29.6781 8.46353 30.0362C8.46683 30.3943 8.49202 30.7518 8.53895 31.1069L6.21171 32.9217C6.10637 33.0016 6.0344 33.1174 6.00955 33.2468C5.9847 33.3762 6.00873 33.5101 6.07703 33.623L8.28576 37.4293C8.34973 37.5435 8.45351 37.6304 8.57755 37.6738C8.70159 37.7172 8.83731 37.714 8.95915 37.6649L11.712 36.562C12.2848 36.9965 12.9112 37.3563 13.5759 37.6327L13.9907 40.5397C14.009 40.6683 14.0738 40.7859 14.1729 40.8706C14.272 40.9553 14.3987 41.0013 14.5294 41.0001H18.9469C19.0776 41.0013 19.2043 40.9553 19.3034 40.8706C19.4026 40.7859 19.4673 40.6683 19.4856 40.5397L19.9004 37.6327C20.566 37.358 21.1926 36.9981 21.7643 36.562L24.5172 37.6649C24.639 37.714 24.7747 37.7172 24.8988 37.6738C25.0228 37.6304 25.1266 37.5435 25.1906 37.4293L27.3993 33.623C27.4676 33.5101 27.4916 33.3762 27.4668 33.2468C27.4419 33.1174 27.3699 33.0016 27.2646 32.9217L24.9535 31.1069ZM16.7489 33.88C15.9837 33.881 15.2353 33.6565 14.5985 33.2348C13.9618 32.8131 13.4651 32.2131 13.1716 31.5108C12.878 30.8086 12.8006 30.0356 12.9493 29.2896C13.0979 28.5436 13.4659 27.8582 14.0066 27.3201C14.5473 26.782 15.2365 26.4154 15.987 26.2666C16.7374 26.1179 17.5154 26.1937 18.2225 26.4845C18.9296 26.7752 19.534 27.2679 19.9593 27.9001C20.3845 28.5324 20.6115 29.2757 20.6115 30.0362C20.6122 30.5407 20.5128 31.0404 20.319 31.5067C20.1252 31.973 19.8408 32.3968 19.4821 32.7538C19.1233 33.1108 18.6973 33.394 18.2283 33.5873C17.7593 33.7805 17.2566 33.88 16.7489 33.88Z" stroke="#111119" stroke-width="2" stroke-linecap="round" stroke-linejoin="round"/>
<path d="M9.92773 22.2152V3C9.92773 1.89543 10.8232 1 11.9277 1H31.5001C32.6047 1 33.5001 1.89543 33.5001 3V27.535C33.5001 28.6396 32.6047 29.535 31.5001 29.535H25.2498" stroke="#111119" stroke-width="2"/>
<path d="M13.6484 12.166H21.0924" stroke="#111119" stroke-width="2" stroke-linecap="round"/>
<path d="M11.168 8.44434H32.2591" stroke="#111119" stroke-width="2" stroke-linecap="round"/>
<path d="M13.6484 15.8877H21.0924" stroke="#111119" stroke-width="2" stroke-linecap="round"/>
<circle cx="13.65" cy="4.72224" r="1.24065" transform="rotate(180 13.65 4.72224)" fill="#111119"/>
<circle cx="18.6148" cy="4.72224" r="1.24065" transform="rotate(180 18.6148 4.72224)" fill="#111119"/>
<circle cx="23.5758" cy="4.72224" r="1.24065" transform="rotate(180 23.5758 4.72224)" fill="#111119"/>
</svg>
