<svg width="40" height="40" viewBox="0 0 40 40" fill="none" xmlns="http://www.w3.org/2000/svg">
<path d="M5 22.9384V10.8462C5 10.3565 5.1864 9.88695 5.5182 9.54073C5.84999 9.1945 6.3 9 6.76923 9H26.2308C26.7 9 27.15 9.1945 27.4818 9.54073C27.8136 9.88695 28 10.3565 28 10.8462V23.5845M16.8101 33H26.2308C26.7 33 27.15 32.8055 27.4818 32.4593C27.8136 32.1131 28 31.6435 28 31.1538V30.3691" stroke="#111119" stroke-width="2" stroke-linecap="round" stroke-linejoin="round"/>
<path d="M16 9V12.936C15.6547 12.5796 15.2273 12.3461 14.7696 12.2638C14.3118 12.1815 13.8432 12.2538 13.4202 12.472C12.9973 12.6903 12.6381 13.0451 12.3861 13.4937C12.1341 13.9423 12 14.4654 12 15C12 15.5346 12.1341 16.0577 12.3861 16.5063C12.6381 16.9549 12.9973 17.3097 13.4202 17.528C13.8432 17.7462 14.3118 17.8185 14.7696 17.7362C15.2273 17.6539 15.6547 17.4204 16 17.064V21" stroke="#111119" stroke-width="2" stroke-linecap="round" stroke-linejoin="round"/>
<path d="M28 21H24.064C24.4204 20.6547 24.6539 20.2273 24.7362 19.7696C24.8185 19.3118 24.7462 18.8432 24.528 18.4202C24.3097 17.9973 23.9549 17.6381 23.5063 17.3861C23.0577 17.1341 22.5346 17 22 17C21.4654 17 20.9423 17.1341 20.4937 17.3861C20.0451 17.6381 19.6903 17.9973 19.472 18.4202C19.2538 18.8432 19.1815 19.3118 19.2638 19.7696C19.3461 20.2273 19.5796 20.6547 19.936 21H16" stroke="#111119" stroke-width="2" stroke-linecap="round" stroke-linejoin="round"/>
<path d="M15.988 29.3301C16.0251 29.0548 16.045 28.7776 16.0476 28.5C16.045 28.2224 16.0251 27.9452 15.988 27.6699L17.8326 26.2629C17.9159 26.201 17.9728 26.1112 17.9924 26.0109C18.0121 25.9106 17.9931 25.8068 17.9391 25.7192L16.1925 22.7683C16.1419 22.6798 16.0598 22.6124 15.9617 22.5787C15.8636 22.5451 15.7563 22.5476 15.66 22.5857L13.4831 23.4407C13.0301 23.1039 12.5348 22.8249 12.0091 22.6106L11.6811 20.357C11.6667 20.2572 11.6155 20.166 11.5371 20.1004C11.4587 20.0347 11.3585 19.999 11.2551 20H7.75339C7.65002 19.999 7.54981 20.0347 7.47143 20.1004C7.39306 20.166 7.34186 20.2572 7.32739 20.357L6.99937 22.6106C6.47304 22.8236 5.97753 23.1026 5.52541 23.4407L3.34002 22.5857C3.24368 22.5476 3.13635 22.5451 3.03827 22.5787C2.94018 22.6124 2.85811 22.6798 2.80752 22.7683L1.06092 25.7192C1.0069 25.8068 0.987904 25.9106 1.00755 26.0109C1.0272 26.1112 1.08412 26.201 1.16742 26.2629L3.00774 27.6699C2.97078 27.9452 2.95086 28.2224 2.9481 28.5C2.95071 28.7776 2.97063 29.0548 3.00774 29.3301L1.16742 30.7371C1.08412 30.799 1.0272 30.8888 1.00755 30.9891C0.987904 31.0894 1.0069 31.1932 1.06092 31.2808L2.80752 34.2317C2.85811 34.3202 2.94018 34.3876 3.03827 34.4213C3.13635 34.4549 3.24368 34.4524 3.34002 34.4143L5.51689 33.5593C5.96986 33.8961 6.4652 34.1751 6.99085 34.3894L7.31887 36.643C7.33334 36.7428 7.38453 36.834 7.46291 36.8996C7.54129 36.9653 7.6415 37.001 7.74487 37H11.2381C11.3415 37.001 11.4417 36.9653 11.52 36.8996C11.5984 36.834 11.6496 36.7428 11.6641 36.643L11.9921 34.3894C12.5184 34.1764 13.014 33.8974 13.4661 33.5593L15.6429 34.4143C15.7393 34.4524 15.8466 34.4549 15.9447 34.4213C16.0428 34.3876 16.1248 34.3202 16.1754 34.2317L17.922 31.2808C17.9761 31.1932 17.9951 31.0894 17.9754 30.9891C17.9558 30.8888 17.8988 30.799 17.8155 30.7371L15.988 29.3301ZM9.5 31.48C8.89487 31.4808 8.30308 31.3067 7.79952 30.9798C7.29597 30.6528 6.90326 30.1877 6.6711 29.6433C6.43895 29.0988 6.37777 28.4995 6.4953 27.9212C6.61284 27.3429 6.90382 26.8115 7.33141 26.3943C7.75901 25.9771 8.30401 25.6929 8.89745 25.5776C9.49089 25.4623 10.1061 25.521 10.6653 25.7465C11.2244 25.9719 11.7024 26.3538 12.0386 26.844C12.3749 27.3341 12.5544 27.9104 12.5544 28.5C12.555 28.8911 12.4764 29.2786 12.3231 29.6401C12.1699 30.0016 11.945 30.3301 11.6613 30.6069C11.3776 30.8837 11.0407 31.1032 10.6699 31.2531C10.299 31.4029 9.90147 31.48 9.5 31.48Z" stroke="#111119" stroke-width="2" stroke-linecap="round" stroke-linejoin="round"/>
<path d="M17.5 24.8382L31.8063 24.8382L31.8063 22.4861C31.8062 22.3969 31.8282 22.3094 31.8698 22.2333C31.9115 22.1571 31.9713 22.0952 32.0425 22.0544C32.1137 22.0134 32.1937 21.995 32.2737 22.0012C32.3536 22.0074 32.4305 22.0381 32.4959 22.0897L38.8162 27.0876C38.8729 27.1325 38.9192 27.1918 38.9511 27.2606C38.9831 27.3294 38.9999 27.4056 39 27.483L39 27.4842C38.9999 27.5613 38.9834 27.6373 38.9516 27.7059C38.9199 27.7745 38.874 27.8337 38.8176 27.8786L32.4972 32.909C32.432 32.9611 32.3551 32.9921 32.275 32.9987C32.195 33.0053 32.1148 32.9871 32.0434 32.9462C31.8982 32.8625 31.8062 32.6958 31.8062 32.5144L31.8062 30.1615L17 30.1615" stroke="#111119" stroke-width="2"/>
</svg>
