<svg width="40" height="40" viewBox="0 0 40 40" fill="none" xmlns="http://www.w3.org/2000/svg">
<path d="M18.2857 13.7143V5C18.2857 3.89543 17.3903 3 16.2857 3H4C2.89543 3 2 3.89543 2 5V20.7143C2 21.8189 2.89543 22.7143 4 22.7143H9.28571" stroke="#111119" stroke-width="2"/>
<path d="M4.57129 10.7148H9.71415" stroke="#111119" stroke-width="2" stroke-linecap="round"/>
<path d="M2.85742 8.14355H17.4289" stroke="#111119" stroke-width="2" stroke-linecap="round"/>
<path d="M4.57153 13.2861H9.71439" stroke="#111119" stroke-width="2" stroke-linecap="round"/>
<circle cx="4.57059" cy="5.57157" r="0.857143" transform="rotate(180 4.57059 5.57157)" fill="#111119"/>
<circle cx="7.9993" cy="5.57157" r="0.857143" transform="rotate(180 7.9993 5.57157)" fill="#111119"/>
<circle cx="11.428" cy="5.57157" r="0.857143" transform="rotate(180 11.428 5.57157)" fill="#111119"/>
<path d="M21.7136 14.1429V5C21.7136 3.89543 22.6091 3 23.7136 3H35.9993C37.1039 3 37.9993 3.89543 37.9993 5V20.7143C37.9993 21.8189 37.1039 22.7143 35.9993 22.7143H30.7136" stroke="#111119" stroke-width="2"/>
<path d="M24.2849 10.7139H29.4278" stroke="#111119" stroke-width="2" stroke-linecap="round"/>
<path d="M22.571 8.14258H37.1425" stroke="#111119" stroke-width="2" stroke-linecap="round"/>
<path d="M24.2849 13.2861H29.4278" stroke="#111119" stroke-width="2" stroke-linecap="round"/>
<circle cx="24.2852" cy="5.57157" r="0.857143" transform="rotate(180 24.2852 5.57157)" fill="#111119"/>
<circle cx="27.7139" cy="5.57157" r="0.857143" transform="rotate(180 27.7139 5.57157)" fill="#111119"/>
<circle cx="31.1426" cy="5.57157" r="0.857143" transform="rotate(180 31.1426 5.57157)" fill="#111119"/>
<path d="M28.6757 26.4933C28.7269 26.106 28.7544 25.716 28.758 25.3254C28.7544 24.9347 28.7269 24.5447 28.6757 24.1574L31.2203 22.1777C31.3352 22.0904 31.4137 21.9642 31.4408 21.823C31.4679 21.6819 31.4417 21.5358 31.3672 21.4126L28.9578 17.2605C28.888 17.1359 28.7748 17.0411 28.6395 16.9937C28.5042 16.9464 28.3561 16.9499 28.2232 17.0035L25.2203 18.2065C24.5954 17.7326 23.9121 17.3401 23.1869 17.0386L22.7344 13.8675C22.7145 13.7272 22.6439 13.5989 22.5357 13.5065C22.4276 13.414 22.2894 13.3639 22.1468 13.3653H17.3162C17.1736 13.3639 17.0354 13.414 16.9272 13.5065C16.8191 13.5989 16.7485 13.7272 16.7285 13.8675L16.276 17.0386C15.55 17.3382 14.8664 17.7309 14.2427 18.2065L11.228 17.0035C11.0951 16.9499 10.9471 16.9464 10.8118 16.9937C10.6764 17.0411 10.5632 17.1359 10.4934 17.2605L8.08403 21.4126C8.00952 21.5358 7.98331 21.6819 8.01042 21.823C8.03752 21.9642 8.11604 22.0904 8.23095 22.1777L10.7696 24.1574C10.7187 24.5447 10.6912 24.9348 10.6874 25.3254C10.691 25.716 10.7185 26.106 10.7696 26.4933L8.23095 28.4731C8.11604 28.5603 8.03752 28.6866 8.01042 28.8277C7.98331 28.9688 8.00952 29.115 8.08403 29.2381L10.4934 33.3903C10.5632 33.5148 10.6764 33.6097 10.8118 33.657C10.9471 33.7043 11.0951 33.7009 11.228 33.6472L14.231 32.4442C14.8558 32.9181 15.5392 33.3106 16.2643 33.6122L16.7168 36.7832C16.7367 36.9236 16.8074 37.0519 16.9155 37.1443C17.0236 37.2367 17.1619 37.2869 17.3045 37.2855H22.1233C22.2659 37.2869 22.4041 37.2367 22.5122 37.1443C22.6204 37.0519 22.691 36.9236 22.7109 36.7832L23.1634 33.6122C23.8895 33.3125 24.5731 32.9199 25.1968 32.4442L28.1997 33.6472C28.3326 33.7009 28.4807 33.7043 28.616 33.657C28.7513 33.6097 28.8645 33.5148 28.9343 33.3903L31.3437 29.2381C31.4182 29.115 31.4444 28.9688 31.4173 28.8277C31.3902 28.6866 31.3117 28.5603 31.1968 28.4731L28.6757 26.4933ZM19.7256 29.5184C18.8908 29.5196 18.0745 29.2746 17.3798 28.8146C16.6852 28.3546 16.1435 27.7001 15.8232 26.934C15.5029 26.168 15.4185 25.3247 15.5807 24.5109C15.7428 23.6972 16.1442 22.9495 16.7341 22.3625C17.3239 21.7755 18.0758 21.3756 18.8944 21.2133C19.7131 21.0511 20.5617 21.1338 21.3331 21.4509C22.1044 21.7681 22.7638 22.3056 23.2276 22.9952C23.6915 23.6849 23.9392 24.4958 23.9392 25.3254C23.9399 25.8757 23.8315 26.4208 23.6201 26.9295C23.4087 27.4382 23.0985 27.9005 22.7071 28.2899C22.3158 28.6794 21.851 28.9883 21.3394 29.1991C20.8278 29.4099 20.2794 29.5184 19.7256 29.5184Z" stroke="#111119" stroke-width="2" stroke-linecap="round" stroke-linejoin="round"/>
<path d="M18.4224 23.6836H17.9013C17.7631 23.6836 17.6305 23.7429 17.5328 23.8484C17.435 23.954 17.3801 24.0972 17.3801 24.2464V26.4977H17.9013V25.3721H18.4224V26.4977H18.9435V24.2464C18.9435 24.0972 18.8886 23.954 18.7909 23.8484C18.6932 23.7429 18.5606 23.6836 18.4224 23.6836ZM18.4224 24.8093H17.9013V24.2464H18.4224M20.2464 23.6836H19.2041V26.4977H19.7253V25.3721H20.2464C20.3846 25.3721 20.5172 25.3128 20.6149 25.2072C20.7126 25.1017 20.7675 24.9585 20.7675 24.8093V24.2464C20.7675 24.0972 20.7126 23.954 20.6149 23.8484C20.5172 23.7429 20.3846 23.6836 20.2464 23.6836ZM20.2464 24.8093H19.7253V24.2464H20.2464M21.8098 24.2464V25.9349H22.0704V26.4977H21.0281V25.9349H21.2887V24.2464H21.0281V23.6836H22.0704V24.2464H21.8098Z" fill="#111119"/>
</svg>
