<svg width="40" height="40" viewBox="0 0 40 40" fill="none" xmlns="http://www.w3.org/2000/svg">
<path d="M33.3337 29.3002C35.0858 28.5328 36.5206 27.1861 37.3972 25.4861C38.2738 23.786 38.5389 21.8362 38.148 19.9638C37.7571 18.0914 36.734 16.4105 35.2505 15.2032C33.7669 13.9959 31.9131 13.3358 30.0004 13.3335H27.9004C27.3721 11.2877 26.3651 9.39675 24.9626 7.81651C23.56 6.23626 21.8019 5.01197 19.8333 4.24454C17.8647 3.47712 15.7419 3.18853 13.6399 3.40258C11.5378 3.61662 9.51673 4.32717 7.74321 5.47564C5.96968 6.62412 4.49449 8.17765 3.43922 10.0082C2.38396 11.8387 1.77883 13.8938 1.67373 16.0041C1.56863 18.1144 1.96656 20.2194 2.83472 22.1458C3.70288 24.0721 5.01641 25.7645 6.66705 27.0835" stroke="#111119" stroke-width="2" stroke-linecap="round" stroke-linejoin="round"/>
<path d="M14.2438 25.0101C14.2438 25.3567 14.1804 25.6667 14.0538 25.9401C13.9271 26.2067 13.7504 26.4334 13.5238 26.6201C13.2971 26.8001 13.0271 26.9401 12.7138 27.0401C12.4004 27.1334 12.0538 27.1801 11.6738 27.1801C11.1404 27.1801 10.6171 27.0901 10.1038 26.9101C9.59042 26.7234 9.12375 26.4401 8.70375 26.0601L9.61375 24.9701C9.93375 25.2301 10.2604 25.4367 10.5938 25.5901C10.9338 25.7434 11.3038 25.8201 11.7038 25.8201C12.0238 25.8201 12.2704 25.7634 12.4438 25.6501C12.6238 25.5301 12.7138 25.3667 12.7138 25.1601V25.1401C12.7138 25.0401 12.6938 24.9534 12.6538 24.8801C12.6204 24.8001 12.5504 24.7267 12.4438 24.6601C12.3438 24.5934 12.2004 24.5267 12.0138 24.4601C11.8338 24.3934 11.5971 24.3234 11.3038 24.2501C10.9504 24.1634 10.6304 24.0667 10.3438 23.9601C10.0571 23.8534 9.81375 23.7234 9.61375 23.5701C9.41375 23.4101 9.25708 23.2134 9.14375 22.9801C9.03708 22.7467 8.98375 22.4567 8.98375 22.1101V22.0901C8.98375 21.7701 9.04375 21.4834 9.16375 21.2301C9.28375 20.9701 9.45042 20.7467 9.66375 20.5601C9.88375 20.3734 10.1438 20.2301 10.4438 20.1301C10.7438 20.0301 11.0738 19.9801 11.4338 19.9801C11.9471 19.9801 12.4171 20.0567 12.8438 20.2101C13.2771 20.3634 13.6738 20.5834 14.0338 20.8701L13.2338 22.0301C12.9204 21.8167 12.6138 21.6501 12.3138 21.5301C12.0138 21.4034 11.7138 21.3401 11.4138 21.3401C11.1138 21.3401 10.8871 21.4001 10.7338 21.5201C10.5871 21.6334 10.5138 21.7767 10.5138 21.9501V21.9701C10.5138 22.0834 10.5338 22.1834 10.5738 22.2701C10.6204 22.3501 10.7004 22.4234 10.8138 22.4901C10.9271 22.5567 11.0804 22.6201 11.2738 22.6801C11.4738 22.7401 11.7238 22.8101 12.0238 22.8901C12.3771 22.9834 12.6904 23.0901 12.9638 23.2101C13.2438 23.3234 13.4771 23.4634 13.6638 23.6301C13.8571 23.7901 14.0004 23.9801 14.0938 24.2001C14.1938 24.4201 14.2438 24.6834 14.2438 24.9901V25.0101ZM20.0302 27.0801H18.5602V26.5001C18.3736 26.7067 18.1502 26.8734 17.8902 27.0001C17.6302 27.1201 17.3136 27.1801 16.9402 27.1801C16.6869 27.1801 16.4469 27.1467 16.2202 27.0801C16.0002 27.0067 15.8069 26.9001 15.6402 26.7601C15.4736 26.6201 15.3402 26.4501 15.2402 26.2501C15.1469 26.0434 15.1002 25.8067 15.1002 25.5401V25.5201C15.1002 25.2267 15.1536 24.9734 15.2602 24.7601C15.3669 24.5467 15.5136 24.3701 15.7002 24.2301C15.8936 24.0901 16.1202 23.9867 16.3802 23.9201C16.6469 23.8467 16.9402 23.8101 17.2602 23.8101C17.5336 23.8101 17.7702 23.8301 17.9702 23.8701C18.1769 23.9101 18.3769 23.9634 18.5702 24.0301V23.9401C18.5702 23.6201 18.4736 23.3767 18.2802 23.2101C18.0869 23.0434 17.8002 22.9601 17.4202 22.9601C17.1269 22.9601 16.8669 22.9867 16.6402 23.0401C16.4202 23.0867 16.1869 23.1567 15.9402 23.2501L15.5602 22.0901C15.8536 21.9634 16.1602 21.8601 16.4802 21.7801C16.8002 21.7001 17.1869 21.6601 17.6402 21.6601C18.4736 21.6601 19.0802 21.8634 19.4602 22.2701C19.8402 22.6767 20.0302 23.2434 20.0302 23.9701V27.0801ZM18.5902 25.1901V24.9201C18.4569 24.8601 18.3069 24.8134 18.1402 24.7801C17.9802 24.7401 17.8069 24.7201 17.6202 24.7201C17.2936 24.7201 17.0369 24.7834 16.8502 24.9101C16.6636 25.0367 16.5702 25.2201 16.5702 25.4601V25.4801C16.5702 25.6867 16.6469 25.8467 16.8002 25.9601C16.9536 26.0734 17.1536 26.1301 17.4002 26.1301C17.7602 26.1301 18.0469 26.0434 18.2602 25.8701C18.4802 25.6967 18.5902 25.4701 18.5902 25.1901ZM25.9482 27.0801H24.4782V26.5001C24.2915 26.7067 24.0682 26.8734 23.8082 27.0001C23.5482 27.1201 23.2315 27.1801 22.8582 27.1801C22.6049 27.1801 22.3649 27.1467 22.1382 27.0801C21.9182 27.0067 21.7249 26.9001 21.5582 26.7601C21.3915 26.6201 21.2582 26.4501 21.1582 26.2501C21.0649 26.0434 21.0182 25.8067 21.0182 25.5401V25.5201C21.0182 25.2267 21.0715 24.9734 21.1782 24.7601C21.2849 24.5467 21.4315 24.3701 21.6182 24.2301C21.8115 24.0901 22.0382 23.9867 22.2982 23.9201C22.5649 23.8467 22.8582 23.8101 23.1782 23.8101C23.4515 23.8101 23.6882 23.8301 23.8882 23.8701C24.0949 23.9101 24.2949 23.9634 24.4882 24.0301V23.9401C24.4882 23.6201 24.3915 23.3767 24.1982 23.2101C24.0049 23.0434 23.7182 22.9601 23.3382 22.9601C23.0449 22.9601 22.7849 22.9867 22.5582 23.0401C22.3382 23.0867 22.1049 23.1567 21.8582 23.2501L21.4782 22.0901C21.7715 21.9634 22.0782 21.8601 22.3982 21.7801C22.7182 21.7001 23.1049 21.6601 23.5582 21.6601C24.3915 21.6601 24.9982 21.8634 25.3782 22.2701C25.7582 22.6767 25.9482 23.2434 25.9482 23.9701V27.0801ZM24.5082 25.1901V24.9201C24.3749 24.8601 24.2249 24.8134 24.0582 24.7801C23.8982 24.7401 23.7249 24.7201 23.5382 24.7201C23.2115 24.7201 22.9549 24.7834 22.7682 24.9101C22.5815 25.0367 22.4882 25.2201 22.4882 25.4601V25.4801C22.4882 25.6867 22.5649 25.8467 22.7182 25.9601C22.8715 26.0734 23.0715 26.1301 23.3182 26.1301C23.6782 26.1301 23.9649 26.0434 24.1782 25.8701C24.3982 25.6967 24.5082 25.4701 24.5082 25.1901ZM32.4762 25.0101C32.4762 25.3567 32.4128 25.6667 32.2862 25.9401C32.1595 26.2067 31.9828 26.4334 31.7562 26.6201C31.5295 26.8001 31.2595 26.9401 30.9462 27.0401C30.6328 27.1334 30.2862 27.1801 29.9062 27.1801C29.3728 27.1801 28.8495 27.0901 28.3362 26.9101C27.8228 26.7234 27.3562 26.4401 26.9362 26.0601L27.8462 24.9701C28.1662 25.2301 28.4928 25.4367 28.8262 25.5901C29.1662 25.7434 29.5362 25.8201 29.9362 25.8201C30.2562 25.8201 30.5028 25.7634 30.6762 25.6501C30.8562 25.5301 30.9462 25.3667 30.9462 25.1601V25.1401C30.9462 25.0401 30.9262 24.9534 30.8862 24.8801C30.8528 24.8001 30.7828 24.7267 30.6762 24.6601C30.5762 24.5934 30.4328 24.5267 30.2462 24.4601C30.0662 24.3934 29.8295 24.3234 29.5362 24.2501C29.1828 24.1634 28.8628 24.0667 28.5762 23.9601C28.2895 23.8534 28.0462 23.7234 27.8462 23.5701C27.6462 23.4101 27.4895 23.2134 27.3762 22.9801C27.2695 22.7467 27.2162 22.4567 27.2162 22.1101V22.0901C27.2162 21.7701 27.2762 21.4834 27.3962 21.2301C27.5162 20.9701 27.6828 20.7467 27.8962 20.5601C28.1162 20.3734 28.3762 20.2301 28.6762 20.1301C28.9762 20.0301 29.3062 19.9801 29.6662 19.9801C30.1795 19.9801 30.6495 20.0567 31.0762 20.2101C31.5095 20.3634 31.9062 20.5834 32.2662 20.8701L31.4662 22.0301C31.1528 21.8167 30.8462 21.6501 30.5462 21.5301C30.2462 21.4034 29.9462 21.3401 29.6462 21.3401C29.3462 21.3401 29.1195 21.4001 28.9662 21.5201C28.8195 21.6334 28.7462 21.7767 28.7462 21.9501V21.9701C28.7462 22.0834 28.7662 22.1834 28.8062 22.2701C28.8528 22.3501 28.9328 22.4234 29.0462 22.4901C29.1595 22.5567 29.3128 22.6201 29.5062 22.6801C29.7062 22.7401 29.9562 22.8101 30.2562 22.8901C30.6095 22.9834 30.9228 23.0901 31.1962 23.2101C31.4762 23.3234 31.7095 23.4634 31.8962 23.6301C32.0895 23.7901 32.2328 23.9801 32.3262 24.2001C32.4262 24.4201 32.4762 24.6834 32.4762 24.9901V25.0101Z" fill="#111119"/>
</svg>
