<svg width="178" height="1208" viewBox="0 0 178 1208" fill="none" xmlns="http://www.w3.org/2000/svg">
<mask id="mask0_1269_13361" style="mask-type:alpha" maskUnits="userSpaceOnUse" x="-1" y="218" width="111" height="118">
<path fill-rule="evenodd" clip-rule="evenodd" d="M-0.5 218H88.6159V276H89.7819C91.8909 273.551 95.0144 272 98.5 272C104.851 272 110 277.149 110 283.5C110 289.851 104.851 295 98.5 295C95.5162 295 92.7977 293.864 90.7539 292H88.6159V335.96H-0.5V218Z" fill="#D9D9D9"/>
</mask>
<g mask="url(#mask0_1269_13361)">
<path d="M84.6591 224.631C72.8596 224.631 63.0609 232.55 59.7932 243.281C56.2272 241.46 52.2927 240.336 48.0147 240.336C33.5593 240.336 21.8401 252.055 21.8401 266.511C21.8401 267.133 21.9608 267.699 22.0034 268.31C9.72437 272.579 0.900391 284.187 0.900391 297.92C0.900391 315.267 14.9628 329.33 32.3099 329.33H137.008C154.355 329.33 168.418 315.267 168.418 297.92C168.418 284.187 159.594 272.578 147.315 268.31C147.358 267.699 147.478 267.133 147.478 266.511C147.478 252.055 135.759 240.336 121.304 240.336C117.026 240.336 113.091 241.461 109.525 243.281C106.257 232.55 96.4586 224.631 84.6591 224.631Z" fill="#111119"/>
</g>
<path fill-rule="evenodd" clip-rule="evenodd" d="M93.0005 329.329V297.996C94.7097 298.645 96.5635 299 98.5002 299C107.061 299 114 292.06 114 283.5C114 274.94 107.061 268 98.5002 268C96.5635 268 94.7097 268.355 93.0005 269.004V224.64C93.2326 224.634 93.4656 224.631 93.6994 224.631C105.499 224.631 115.298 232.55 118.565 243.28C122.131 241.46 126.066 240.336 130.344 240.336C144.799 240.336 156.518 252.055 156.518 266.51C156.518 266.887 156.474 267.243 156.43 267.601C156.401 267.834 156.372 268.069 156.355 268.31C168.634 272.578 177.458 284.187 177.458 297.92C177.458 315.267 163.396 329.329 146.049 329.329H93.0005Z" fill="#191A20"/>
<mask id="mask1_1269_13361" style="mask-type:alpha" maskUnits="userSpaceOnUse" x="-1" y="436" width="111" height="118">
<path fill-rule="evenodd" clip-rule="evenodd" d="M-0.5 436H88.6159V494H89.7819C91.8909 491.551 95.0144 490 98.5 490C104.851 490 110 495.149 110 501.5C110 507.851 104.851 513 98.5 513C95.5162 513 92.7977 511.864 90.7539 510H88.6159V553.96H-0.5V436Z" fill="#D9D9D9"/>
</mask>
<g mask="url(#mask1_1269_13361)">
<path d="M84.6591 442.631C72.8596 442.631 63.0609 450.55 59.7932 461.281C56.2272 459.46 52.2927 458.336 48.0147 458.336C33.5593 458.336 21.8401 470.055 21.8401 484.511C21.8401 485.133 21.9608 485.699 22.0034 486.31C9.72437 490.579 0.900391 502.187 0.900391 515.92C0.900391 533.267 14.9628 547.33 32.3099 547.33H137.008C154.355 547.33 168.418 533.267 168.418 515.92C168.418 502.187 159.594 490.578 147.315 486.31C147.358 485.699 147.478 485.133 147.478 484.511C147.478 470.055 135.759 458.336 121.304 458.336C117.026 458.336 113.091 459.461 109.525 461.281C106.257 450.55 96.4586 442.631 84.6591 442.631Z" fill="#111119"/>
</g>
<path fill-rule="evenodd" clip-rule="evenodd" d="M93.0005 547.329V515.996C94.7097 516.645 96.5635 517 98.5002 517C107.061 517 114 510.06 114 501.5C114 492.94 107.061 486 98.5002 486C96.5635 486 94.7097 486.355 93.0005 487.004V442.64C93.2326 442.634 93.4656 442.631 93.6994 442.631C105.499 442.631 115.298 450.55 118.565 461.28C122.131 459.46 126.066 458.336 130.344 458.336C144.799 458.336 156.518 470.055 156.518 484.51C156.518 484.887 156.474 485.243 156.43 485.601C156.401 485.834 156.372 486.069 156.355 486.31C168.634 490.578 177.458 502.187 177.458 515.92C177.458 533.267 163.396 547.329 146.049 547.329H93.0005Z" fill="#191A20"/>
<mask id="mask2_1269_13361" style="mask-type:alpha" maskUnits="userSpaceOnUse" x="-1" y="654" width="111" height="118">
<path fill-rule="evenodd" clip-rule="evenodd" d="M-0.5 654H88.6159V712H89.7819C91.8909 709.551 95.0144 708 98.5 708C104.851 708 110 713.149 110 719.5C110 725.851 104.851 731 98.5 731C95.5162 731 92.7977 729.864 90.7539 728H88.6159V771.96H-0.5V654Z" fill="#D9D9D9"/>
</mask>
<g mask="url(#mask2_1269_13361)">
<path d="M84.6591 660.631C72.8596 660.631 63.0609 668.55 59.7932 679.281C56.2272 677.46 52.2927 676.336 48.0147 676.336C33.5593 676.336 21.8401 688.055 21.8401 702.511C21.8401 703.133 21.9608 703.699 22.0034 704.31C9.72437 708.579 0.900391 720.187 0.900391 733.92C0.900391 751.267 14.9628 765.33 32.3099 765.33H137.008C154.355 765.33 168.418 751.267 168.418 733.92C168.418 720.187 159.594 708.578 147.315 704.31C147.358 703.699 147.478 703.133 147.478 702.511C147.478 688.055 135.759 676.336 121.304 676.336C117.026 676.336 113.091 677.461 109.525 679.281C106.257 668.55 96.4586 660.631 84.6591 660.631Z" fill="#111119"/>
</g>
<path fill-rule="evenodd" clip-rule="evenodd" d="M93.0005 765.329V733.996C94.7097 734.645 96.5635 735 98.5002 735C107.061 735 114 728.06 114 719.5C114 710.94 107.061 704 98.5002 704C96.5635 704 94.7097 704.355 93.0005 705.004V660.64C93.2326 660.634 93.4656 660.631 93.6994 660.631C105.499 660.631 115.298 668.55 118.565 679.28C122.131 677.46 126.066 676.336 130.344 676.336C144.799 676.336 156.518 688.055 156.518 702.51C156.518 702.887 156.474 703.243 156.43 703.601C156.401 703.834 156.372 704.069 156.355 704.31C168.634 708.578 177.458 720.187 177.458 733.92C177.458 751.267 163.396 765.329 146.049 765.329H93.0005Z" fill="#191A20"/>
<mask id="mask3_1269_13361" style="mask-type:alpha" maskUnits="userSpaceOnUse" x="-1" y="872" width="111" height="118">
<path fill-rule="evenodd" clip-rule="evenodd" d="M-0.5 872H88.6159V930H89.7819C91.8909 927.551 95.0144 926 98.5 926C104.851 926 110 931.149 110 937.5C110 943.851 104.851 949 98.5 949C95.5162 949 92.7977 947.864 90.7539 946H88.6159V989.96H-0.5V872Z" fill="#D9D9D9"/>
</mask>
<g mask="url(#mask3_1269_13361)">
<path d="M84.6591 878.631C72.8596 878.631 63.0609 886.55 59.7932 897.281C56.2272 895.46 52.2927 894.336 48.0147 894.336C33.5593 894.336 21.8401 906.055 21.8401 920.511C21.8401 921.133 21.9608 921.699 22.0034 922.31C9.72437 926.579 0.900391 938.187 0.900391 951.92C0.900391 969.267 14.9628 983.33 32.3099 983.33H137.008C154.355 983.33 168.418 969.267 168.418 951.92C168.418 938.187 159.594 926.578 147.315 922.31C147.358 921.699 147.478 921.133 147.478 920.511C147.478 906.055 135.759 894.336 121.304 894.336C117.026 894.336 113.091 895.461 109.525 897.281C106.257 886.55 96.4586 878.631 84.6591 878.631Z" fill="#111119"/>
</g>
<path fill-rule="evenodd" clip-rule="evenodd" d="M93.0005 983.329V951.996C94.7097 952.645 96.5635 953 98.5002 953C107.061 953 114 946.06 114 937.5C114 928.94 107.061 922 98.5002 922C96.5635 922 94.7097 922.355 93.0005 923.004V878.64C93.2326 878.634 93.4656 878.631 93.6994 878.631C105.499 878.631 115.298 886.55 118.565 897.28C122.131 895.46 126.066 894.336 130.344 894.336C144.799 894.336 156.518 906.055 156.518 920.51C156.518 920.887 156.474 921.243 156.43 921.601C156.401 921.834 156.372 922.069 156.355 922.31C168.634 926.578 177.458 938.187 177.458 951.92C177.458 969.267 163.396 983.329 146.049 983.329H93.0005Z" fill="#191A20"/>
<mask id="mask4_1269_13361" style="mask-type:alpha" maskUnits="userSpaceOnUse" x="-1" y="1090" width="111" height="118">
<path fill-rule="evenodd" clip-rule="evenodd" d="M-0.5 1090H88.6159V1148H89.7819C91.8909 1145.55 95.0144 1144 98.5 1144C104.851 1144 110 1149.15 110 1155.5C110 1161.85 104.851 1167 98.5 1167C95.5162 1167 92.7977 1165.86 90.7539 1164H88.6159V1207.96H-0.5V1090Z" fill="#D9D9D9"/>
</mask>
<g mask="url(#mask4_1269_13361)">
<path d="M84.6591 1096.63C72.8596 1096.63 63.0609 1104.55 59.7932 1115.28C56.2272 1113.46 52.2927 1112.34 48.0147 1112.34C33.5593 1112.34 21.8401 1124.06 21.8401 1138.51C21.8401 1139.13 21.9608 1139.7 22.0034 1140.31C9.72437 1144.58 0.900391 1156.19 0.900391 1169.92C0.900391 1187.27 14.9628 1201.33 32.3099 1201.33H137.008C154.355 1201.33 168.418 1187.27 168.418 1169.92C168.418 1156.19 159.594 1144.58 147.315 1140.31C147.358 1139.7 147.478 1139.13 147.478 1138.51C147.478 1124.06 135.759 1112.34 121.304 1112.34C117.026 1112.34 113.091 1113.46 109.525 1115.28C106.257 1104.55 96.4586 1096.63 84.6591 1096.63Z" fill="#111119"/>
</g>
<path fill-rule="evenodd" clip-rule="evenodd" d="M93.0005 1201.33V1170C94.7097 1170.64 96.5635 1171 98.5002 1171C107.061 1171 114 1164.06 114 1155.5C114 1146.94 107.061 1140 98.5002 1140C96.5635 1140 94.7097 1140.36 93.0005 1141V1096.64C93.2326 1096.63 93.4656 1096.63 93.6994 1096.63C105.499 1096.63 115.298 1104.55 118.565 1115.28C122.131 1113.46 126.066 1112.34 130.344 1112.34C144.799 1112.34 156.518 1124.05 156.518 1138.51C156.518 1138.89 156.474 1139.24 156.43 1139.6C156.401 1139.83 156.372 1140.07 156.355 1140.31C168.634 1144.58 177.458 1156.19 177.458 1169.92C177.458 1187.27 163.396 1201.33 146.049 1201.33H93.0005Z" fill="#191A20"/>
<mask id="mask5_1269_13361" style="mask-type:alpha" maskUnits="userSpaceOnUse" x="-1" y="0" width="111" height="118">
<path fill-rule="evenodd" clip-rule="evenodd" d="M-0.5 0H88.6159V58H89.7819C91.8909 55.5508 95.0144 54 98.5 54C104.851 54 110 59.1487 110 65.5C110 71.8513 104.851 77 98.5 77C95.5162 77 92.7977 75.8636 90.7539 74H88.6159V117.96H-0.5V0Z" fill="#D9D9D9"/>
</mask>
<g mask="url(#mask5_1269_13361)">
<path d="M84.6591 6.63135C72.8596 6.63135 63.0609 14.55 59.7932 25.2809C56.2272 23.4599 52.2927 22.3361 48.0147 22.3361C33.5593 22.3361 21.8401 34.0553 21.8401 48.5107C21.8401 49.1333 21.9608 49.699 22.0034 50.3105C9.72437 54.5787 0.900391 66.1873 0.900391 79.9202C0.900391 97.2674 14.9628 111.33 32.3099 111.33H137.008C154.355 111.33 168.418 97.2674 168.418 79.9202C168.418 66.1873 159.594 54.5783 147.315 50.3105C147.358 49.699 147.478 49.133 147.478 48.5107C147.478 34.0553 135.759 22.3361 121.304 22.3361C117.026 22.3361 113.091 23.4606 109.525 25.2806C106.257 14.55 96.4586 6.63135 84.6591 6.63135Z" fill="#111119"/>
</g>
<path fill-rule="evenodd" clip-rule="evenodd" d="M93.0005 111.329V79.996C94.7097 80.6448 96.5635 81 98.5002 81C107.061 81 114 74.0604 114 65.5C114 56.9396 107.061 50 98.5002 50C96.5635 50 94.7097 50.3552 93.0005 51.004V6.64014C93.2326 6.63397 93.4656 6.63086 93.6994 6.63086C105.499 6.63086 115.298 14.5495 118.565 25.2801C122.131 23.4601 126.066 22.3356 130.344 22.3356C144.799 22.3356 156.518 34.0549 156.518 48.5102C156.518 48.8868 156.474 49.2428 156.43 49.6007C156.401 49.8342 156.372 50.0686 156.355 50.31C168.634 54.5778 177.458 66.1868 177.458 79.9197C177.458 97.2669 163.396 111.329 146.049 111.329H93.0005Z" fill="#191A20"/>
</svg>
