<svg width="1232" height="256" viewBox="0 0 1232 256" fill="none" xmlns="http://www.w3.org/2000/svg">
<rect x="0.5" y="0.5" width="1231" height="255" stroke="#FFCD17"/>
<rect x="20" y="36" width="60" height="200" fill="#FFCD17"/>
<rect x="100" y="36" width="60" height="200" fill="#FFCD17"/>
<rect x="180" y="36" width="60" height="200" fill="#FFCD17"/>
<rect x="260" y="36" width="60" height="200" fill="#FFCD17"/>
<rect x="340" y="36" width="60" height="200" fill="#FFCD17"/>
<rect x="420" y="36" width="60" height="200" fill="#FFCD17"/>
<rect x="500" y="36" width="60" height="200" fill="#FFCD17"/>
<rect x="580" y="36" width="60" height="200" fill="#4E4A60"/>
<rect x="580" y="96" width="60" height="140" fill="#FFCD17"/>
<rect x="660" y="36" width="60" height="200" fill="#4E4A60"/>
<rect x="740" y="36" width="60" height="200" fill="#4E4A60"/>
<path d="M902.452 52.536L869.32 132H846.22L879.748 55.044H838.696V35.772H902.452V52.536ZM973.093 52.536L939.961 132H916.861L950.389 55.044H909.337V35.772H973.093V52.536ZM980.373 59.928C980.373 52.8 982.397 47.3 986.445 43.428C990.581 39.556 995.905 37.62 1002.42 37.62C1008.93 37.62 1014.21 39.556 1018.26 43.428C1022.31 47.3 1024.33 52.8 1024.33 59.928C1024.33 67.056 1022.31 72.556 1018.26 76.428C1014.21 80.3 1008.93 82.236 1002.42 82.236C995.905 82.236 990.581 80.3 986.445 76.428C982.397 72.556 980.373 67.056 980.373 59.928ZM1070 39.072L1019.18 132H997.401L1048.22 39.072H1070ZM1002.29 50.82C998.061 50.82 995.949 53.856 995.949 59.928C995.949 65.912 998.061 68.904 1002.29 68.904C1004.31 68.904 1005.89 68.156 1007.04 66.66C1008.18 65.164 1008.75 62.92 1008.75 59.928C1008.75 53.856 1006.6 50.82 1002.29 50.82ZM1043.21 111.144C1043.21 104.016 1045.23 98.516 1049.28 94.644C1053.33 90.772 1058.61 88.836 1065.12 88.836C1071.63 88.836 1076.91 90.772 1080.96 94.644C1085.01 98.516 1087.03 104.016 1087.03 111.144C1087.03 118.272 1085.01 123.772 1080.96 127.644C1076.91 131.516 1071.63 133.452 1065.12 133.452C1058.61 133.452 1053.33 131.516 1049.28 127.644C1045.23 123.772 1043.21 118.272 1043.21 111.144ZM1064.99 102.036C1062.96 102.036 1061.38 102.784 1060.23 104.28C1059.18 105.776 1058.65 108.064 1058.65 111.144C1058.65 117.128 1060.76 120.12 1064.99 120.12C1067.01 120.12 1068.59 119.372 1069.74 117.876C1070.88 116.38 1071.45 114.136 1071.45 111.144C1071.45 108.152 1070.88 105.908 1069.74 104.412C1068.59 102.828 1067.01 102.036 1064.99 102.036Z" fill="#FFCD17"/>
<path d="M858.91 176.5C858.91 178 858.63 179.41 858.07 180.73C857.51 182.03 856.73 183.18 855.73 184.18C854.75 185.16 853.57 185.94 852.19 186.52C850.83 187.08 849.34 187.36 847.72 187.36C846.1 187.36 844.61 187.08 843.25 186.52C841.89 185.94 840.71 185.17 839.71 184.21C838.73 183.23 837.96 182.09 837.4 180.79C836.86 179.47 836.59 178.06 836.59 176.56V176.5C836.59 175 836.87 173.6 837.43 172.3C837.99 170.98 838.76 169.83 839.74 168.85C840.74 167.85 841.92 167.07 843.28 166.51C844.66 165.93 846.16 165.64 847.78 165.64C849.4 165.64 850.89 165.93 852.25 166.51C853.61 167.07 854.78 167.84 855.76 168.82C856.76 169.78 857.53 170.92 858.07 172.24C858.63 173.54 858.91 174.94 858.91 176.44V176.5ZM854.08 176.56V176.5C854.08 175.6 853.92 174.75 853.6 173.95C853.3 173.15 852.86 172.45 852.28 171.85C851.72 171.25 851.05 170.78 850.27 170.44C849.49 170.08 848.64 169.9 847.72 169.9C846.78 169.9 845.92 170.07 845.14 170.41C844.38 170.75 843.72 171.22 843.16 171.82C842.62 172.42 842.19 173.12 841.87 173.92C841.57 174.7 841.42 175.54 841.42 176.44V176.5C841.42 177.4 841.57 178.25 841.87 179.05C842.19 179.85 842.63 180.55 843.19 181.15C843.77 181.75 844.44 182.23 845.2 182.59C845.98 182.93 846.84 183.1 847.78 183.1C848.7 183.1 849.55 182.93 850.33 182.59C851.11 182.25 851.77 181.78 852.31 181.18C852.87 180.58 853.3 179.89 853.6 179.11C853.92 178.31 854.08 177.46 854.08 176.56ZM878.998 170.2H867.628V174.67H877.648V178.87H867.628V187H863.008V166H878.998V170.2ZM913.08 176.5C913.08 178 912.8 179.41 912.24 180.73C911.68 182.03 910.9 183.18 909.9 184.18C908.92 185.16 907.74 185.94 906.36 186.52C905 187.08 903.51 187.36 901.89 187.36C900.27 187.36 898.78 187.08 897.42 186.52C896.06 185.94 894.88 185.17 893.88 184.21C892.9 183.23 892.13 182.09 891.57 180.79C891.03 179.47 890.76 178.06 890.76 176.56V176.5C890.76 175 891.04 173.6 891.6 172.3C892.16 170.98 892.93 169.83 893.91 168.85C894.91 167.85 896.09 167.07 897.45 166.51C898.83 165.93 900.33 165.64 901.95 165.64C903.57 165.64 905.06 165.93 906.42 166.51C907.78 167.07 908.95 167.84 909.93 168.82C910.93 169.78 911.7 170.92 912.24 172.24C912.8 173.54 913.08 174.94 913.08 176.44V176.5ZM908.25 176.56V176.5C908.25 175.6 908.09 174.75 907.77 173.95C907.47 173.15 907.03 172.45 906.45 171.85C905.89 171.25 905.22 170.78 904.44 170.44C903.66 170.08 902.81 169.9 901.89 169.9C900.95 169.9 900.09 170.07 899.31 170.41C898.55 170.75 897.89 171.22 897.33 171.82C896.79 172.42 896.36 173.12 896.04 173.92C895.74 174.7 895.59 175.54 895.59 176.44V176.5C895.59 177.4 895.74 178.25 896.04 179.05C896.36 179.85 896.8 180.55 897.36 181.15C897.94 181.75 898.61 182.23 899.37 182.59C900.15 182.93 901.01 183.1 901.95 183.1C902.87 183.1 903.72 182.93 904.5 182.59C905.28 182.25 905.94 181.78 906.48 181.18C907.04 180.58 907.47 179.89 907.77 179.11C908.09 178.31 908.25 177.46 908.25 176.56ZM935.328 187H929.928L925.428 180.28H921.798V187H917.178V166H926.778C929.278 166 931.218 166.61 932.598 167.83C933.998 169.05 934.698 170.75 934.698 172.93V172.99C934.698 174.69 934.278 176.08 933.438 177.16C932.618 178.22 931.538 179 930.198 179.5L935.328 187ZM930.018 173.23V173.17C930.018 172.17 929.698 171.42 929.058 170.92C928.418 170.42 927.528 170.17 926.388 170.17H921.798V176.2H926.478C927.618 176.2 928.488 175.93 929.088 175.39C929.708 174.85 930.018 174.13 930.018 173.23ZM957.938 184.03C956.858 184.95 955.568 185.74 954.068 186.4C952.588 187.04 950.888 187.36 948.968 187.36C947.328 187.36 945.828 187.09 944.468 186.55C943.128 186.01 941.968 185.26 940.988 184.3C940.028 183.34 939.278 182.2 938.738 180.88C938.198 179.56 937.928 178.12 937.928 176.56V176.5C937.928 175 938.198 173.6 938.738 172.3C939.298 170.98 940.068 169.83 941.048 168.85C942.028 167.85 943.188 167.07 944.528 166.51C945.868 165.93 947.338 165.64 948.938 165.64C949.878 165.64 950.728 165.71 951.488 165.85C952.268 165.97 952.988 166.15 953.648 166.39C954.308 166.63 954.928 166.93 955.508 167.29C956.088 167.65 956.648 168.06 957.188 168.52L954.278 172.03C953.878 171.69 953.478 171.39 953.078 171.13C952.678 170.87 952.258 170.65 951.818 170.47C951.398 170.29 950.938 170.15 950.438 170.05C949.938 169.95 949.388 169.9 948.788 169.9C947.948 169.9 947.158 170.08 946.418 170.44C945.698 170.78 945.058 171.25 944.498 171.85C943.958 172.43 943.528 173.12 943.208 173.92C942.908 174.7 942.758 175.54 942.758 176.44V176.5C942.758 177.46 942.908 178.35 943.208 179.17C943.528 179.97 943.968 180.67 944.528 181.27C945.108 181.87 945.778 182.34 946.538 182.68C947.318 183 948.178 183.16 949.118 183.16C950.838 183.16 952.288 182.74 953.468 181.9V178.9H948.818V174.91H957.938V184.03ZM982.843 187H978.013L976.093 182.29H967.213L965.293 187H960.583L969.583 165.85H973.843L982.843 187ZM974.443 178.21L971.653 171.4L968.863 178.21H974.443ZM1004.74 187H1000.81L990.644 173.65V187H986.084V166H990.344L1000.18 178.93V166H1004.74V187ZM1014.62 187H1010V166H1014.62V187ZM1036.72 187H1019.23V183.49L1030.78 170.05H1019.59V166H1036.72V169.51L1025.17 182.95H1036.72V187ZM1061.56 187H1056.73L1054.81 182.29H1045.93L1044.01 187H1039.3L1048.3 165.85H1052.56L1061.56 187ZM1053.16 178.21L1050.37 171.4L1047.58 178.21H1053.16ZM1080.71 170.26H1074.32V187H1069.7V170.26H1063.31V166H1080.71V170.26ZM1089.09 187H1084.47V166H1089.09V187ZM1115.73 176.5C1115.73 178 1115.45 179.41 1114.89 180.73C1114.33 182.03 1113.55 183.18 1112.55 184.18C1111.57 185.16 1110.39 185.94 1109.01 186.52C1107.65 187.08 1106.16 187.36 1104.54 187.36C1102.92 187.36 1101.43 187.08 1100.07 186.52C1098.71 185.94 1097.53 185.17 1096.53 184.21C1095.55 183.23 1094.78 182.09 1094.22 180.79C1093.68 179.47 1093.41 178.06 1093.41 176.56V176.5C1093.41 175 1093.69 173.6 1094.25 172.3C1094.81 170.98 1095.58 169.83 1096.56 168.85C1097.56 167.85 1098.74 167.07 1100.1 166.51C1101.48 165.93 1102.98 165.64 1104.6 165.64C1106.22 165.64 1107.71 165.93 1109.07 166.51C1110.43 167.07 1111.6 167.84 1112.58 168.82C1113.58 169.78 1114.35 170.92 1114.89 172.24C1115.45 173.54 1115.73 174.94 1115.73 176.44V176.5ZM1110.9 176.56V176.5C1110.9 175.6 1110.74 174.75 1110.42 173.95C1110.12 173.15 1109.68 172.45 1109.1 171.85C1108.54 171.25 1107.87 170.78 1107.09 170.44C1106.31 170.08 1105.46 169.9 1104.54 169.9C1103.6 169.9 1102.74 170.07 1101.96 170.41C1101.2 170.75 1100.54 171.22 1099.98 171.82C1099.44 172.42 1099.01 173.12 1098.69 173.92C1098.39 174.7 1098.24 175.54 1098.24 176.44V176.5C1098.24 177.4 1098.39 178.25 1098.69 179.05C1099.01 179.85 1099.45 180.55 1100.01 181.15C1100.59 181.75 1101.26 182.23 1102.02 182.59C1102.8 182.93 1103.66 183.1 1104.6 183.1C1105.52 183.1 1106.37 182.93 1107.15 182.59C1107.93 182.25 1108.59 181.78 1109.13 181.18C1109.69 180.58 1110.12 179.89 1110.42 179.11C1110.74 178.31 1110.9 177.46 1110.9 176.56ZM1138.48 187H1134.55L1124.38 173.65V187H1119.82V166H1124.08L1133.92 178.93V166H1138.48V187ZM1158.71 180.79C1158.71 181.83 1158.52 182.76 1158.14 183.58C1157.76 184.38 1157.23 185.06 1156.55 185.62C1155.87 186.16 1155.06 186.58 1154.12 186.88C1153.18 187.16 1152.14 187.3 1151 187.3C1149.4 187.3 1147.83 187.03 1146.29 186.49C1144.75 185.93 1143.35 185.08 1142.09 183.94L1144.82 180.67C1145.78 181.45 1146.76 182.07 1147.76 182.53C1148.78 182.99 1149.89 183.22 1151.09 183.22C1152.05 183.22 1152.79 183.05 1153.31 182.71C1153.85 182.35 1154.12 181.86 1154.12 181.24V181.18C1154.12 180.88 1154.06 180.62 1153.94 180.4C1153.84 180.16 1153.63 179.94 1153.31 179.74C1153.01 179.54 1152.58 179.34 1152.02 179.14C1151.48 178.94 1150.77 178.73 1149.89 178.51C1148.83 178.25 1147.87 177.96 1147.01 177.64C1146.15 177.32 1145.42 176.93 1144.82 176.47C1144.22 175.99 1143.75 175.4 1143.41 174.7C1143.09 174 1142.93 173.13 1142.93 172.09V172.03C1142.93 171.07 1143.11 170.21 1143.47 169.45C1143.83 168.67 1144.33 168 1144.97 167.44C1145.63 166.88 1146.41 166.45 1147.31 166.15C1148.21 165.85 1149.2 165.7 1150.28 165.7C1151.82 165.7 1153.23 165.93 1154.51 166.39C1155.81 166.85 1157 167.51 1158.08 168.37L1155.68 171.85C1154.74 171.21 1153.82 170.71 1152.92 170.35C1152.02 169.97 1151.12 169.78 1150.22 169.78C1149.32 169.78 1148.64 169.96 1148.18 170.32C1147.74 170.66 1147.52 171.09 1147.52 171.61V171.67C1147.52 172.01 1147.58 172.31 1147.7 172.57C1147.84 172.81 1148.08 173.03 1148.42 173.23C1148.76 173.43 1149.22 173.62 1149.8 173.8C1150.4 173.98 1151.15 174.19 1152.05 174.43C1153.11 174.71 1154.05 175.03 1154.87 175.39C1155.71 175.73 1156.41 176.15 1156.97 176.65C1157.55 177.13 1157.98 177.7 1158.26 178.36C1158.56 179.02 1158.71 179.81 1158.71 180.73V180.79Z" fill="#FFCD17"/>
<path d="M838.872 195.14H836.936V193.27H838.872V195.14ZM838.74 209H837.046V197.626H838.74V209ZM844.365 202.488V209H842.671V197.626H844.365V199.606C844.747 198.99 845.245 198.469 845.861 198.044C846.477 197.604 847.277 197.384 848.259 197.384C848.949 197.384 849.557 197.494 850.085 197.714C850.628 197.934 851.083 198.249 851.449 198.66C851.831 199.056 852.117 199.533 852.307 200.09C852.513 200.647 852.615 201.263 852.615 201.938V209H850.921V202.356C850.921 201.3 850.65 200.464 850.107 199.848C849.565 199.232 848.787 198.924 847.775 198.924C847.291 198.924 846.837 199.012 846.411 199.188C846.001 199.349 845.641 199.591 845.333 199.914C845.025 200.222 844.783 200.596 844.607 201.036C844.446 201.476 844.365 201.96 844.365 202.488ZM858.516 199.122V205.766C858.516 206.47 858.692 206.961 859.044 207.24C859.396 207.519 859.858 207.658 860.43 207.658C860.723 207.658 860.995 207.629 861.244 207.57C861.508 207.511 861.787 207.409 862.08 207.262V208.714C861.787 208.875 861.471 208.993 861.134 209.066C860.811 209.154 860.445 209.198 860.034 209.198C859.579 209.198 859.154 209.139 858.758 209.022C858.362 208.905 858.017 208.721 857.724 208.472C857.445 208.208 857.225 207.871 857.064 207.46C856.903 207.049 856.822 206.558 856.822 205.986V199.122H855.238V197.626H856.822V194.194H858.516V197.626H862.124V199.122H858.516ZM865.812 203.94C865.871 204.556 866.018 205.106 866.252 205.59C866.487 206.059 866.788 206.463 867.154 206.8C867.521 207.123 867.932 207.372 868.386 207.548C868.841 207.709 869.318 207.79 869.816 207.79C870.608 207.79 871.283 207.643 871.84 207.35C872.412 207.057 872.933 206.668 873.402 206.184L874.458 207.13C873.886 207.775 873.234 208.296 872.5 208.692C871.767 209.073 870.858 209.264 869.772 209.264C868.995 209.264 868.262 209.125 867.572 208.846C866.883 208.553 866.282 208.149 865.768 207.636C865.255 207.108 864.844 206.477 864.536 205.744C864.243 205.011 864.096 204.204 864.096 203.324C864.096 202.503 864.228 201.733 864.492 201.014C864.771 200.281 865.152 199.65 865.636 199.122C866.12 198.579 866.692 198.154 867.352 197.846C868.027 197.538 868.76 197.384 869.552 197.384C870.388 197.384 871.136 197.545 871.796 197.868C872.456 198.176 873.014 198.601 873.468 199.144C873.923 199.687 874.268 200.325 874.502 201.058C874.737 201.791 874.854 202.576 874.854 203.412C874.854 203.485 874.854 203.566 874.854 203.654C874.854 203.742 874.847 203.837 874.832 203.94H865.812ZM865.812 202.686H873.138C873.094 202.173 872.984 201.681 872.808 201.212C872.647 200.743 872.412 200.332 872.104 199.98C871.811 199.628 871.444 199.349 871.004 199.144C870.579 198.924 870.08 198.814 869.508 198.814C869.01 198.814 868.548 198.917 868.122 199.122C867.697 199.313 867.323 199.584 867 199.936C866.678 200.273 866.414 200.677 866.208 201.146C866.003 201.615 865.871 202.129 865.812 202.686ZM879.514 202.488V209H877.82V197.626H879.514V199.606C879.895 198.99 880.394 198.469 881.01 198.044C881.626 197.604 882.425 197.384 883.408 197.384C884.097 197.384 884.706 197.494 885.234 197.714C885.776 197.934 886.231 198.249 886.598 198.66C886.979 199.056 887.265 199.533 887.456 200.09C887.661 200.647 887.764 201.263 887.764 201.938V209H886.07V202.356C886.07 201.3 885.798 200.464 885.256 199.848C884.713 199.232 883.936 198.924 882.924 198.924C882.44 198.924 881.985 199.012 881.56 199.188C881.149 199.349 880.79 199.591 880.482 199.914C880.174 200.222 879.932 200.596 879.756 201.036C879.594 201.476 879.514 201.96 879.514 202.488ZM902.2 209H900.506V206.712C900.272 207.049 900.008 207.372 899.714 207.68C899.436 207.988 899.12 208.259 898.768 208.494C898.416 208.729 898.02 208.912 897.58 209.044C897.155 209.176 896.678 209.242 896.15 209.242C895.461 209.242 894.794 209.11 894.148 208.846C893.503 208.582 892.924 208.201 892.41 207.702C891.897 207.189 891.486 206.565 891.178 205.832C890.87 205.099 890.716 204.263 890.716 203.324C890.716 202.385 890.87 201.549 891.178 200.816C891.486 200.083 891.897 199.467 892.41 198.968C892.924 198.455 893.503 198.066 894.148 197.802C894.794 197.523 895.461 197.384 896.15 197.384C896.678 197.384 897.162 197.45 897.602 197.582C898.042 197.714 898.438 197.89 898.79 198.11C899.142 198.33 899.458 198.587 899.736 198.88C900.03 199.173 900.286 199.481 900.506 199.804V192.94H902.2V209ZM900.572 203.302C900.572 202.642 900.455 202.041 900.22 201.498C900 200.955 899.692 200.493 899.296 200.112C898.915 199.731 898.475 199.437 897.976 199.232C897.492 199.012 896.986 198.902 896.458 198.902C895.901 198.902 895.38 199.005 894.896 199.21C894.412 199.401 893.987 199.687 893.62 200.068C893.268 200.435 892.982 200.897 892.762 201.454C892.557 201.997 892.454 202.613 892.454 203.302C892.454 203.977 892.557 204.585 892.762 205.128C892.982 205.671 893.276 206.14 893.642 206.536C894.009 206.917 894.434 207.211 894.918 207.416C895.402 207.621 895.916 207.724 896.458 207.724C896.986 207.724 897.492 207.621 897.976 207.416C898.475 207.196 898.915 206.895 899.296 206.514C899.692 206.133 900 205.671 900.22 205.128C900.455 204.571 900.572 203.962 900.572 203.302ZM907.966 195.14H906.03V193.27H907.966V195.14ZM907.834 209H906.14V197.626H907.834V209ZM913.459 202.488V209H911.765V197.626H913.459V199.606C913.84 198.99 914.339 198.469 914.955 198.044C915.571 197.604 916.37 197.384 917.353 197.384C918.042 197.384 918.651 197.494 919.179 197.714C919.722 197.934 920.176 198.249 920.543 198.66C920.924 199.056 921.21 199.533 921.401 200.09C921.606 200.647 921.709 201.263 921.709 201.938V209H920.015V202.356C920.015 201.3 919.744 200.464 919.201 199.848C918.658 199.232 917.881 198.924 916.869 198.924C916.385 198.924 915.93 199.012 915.505 199.188C915.094 199.349 914.735 199.591 914.427 199.914C914.119 200.222 913.877 200.596 913.701 201.036C913.54 201.476 913.459 201.96 913.459 202.488ZM936.146 207.02C936.146 207.944 936.006 208.751 935.728 209.44C935.464 210.129 935.075 210.701 934.562 211.156C934.063 211.625 933.454 211.977 932.736 212.212C932.032 212.447 931.24 212.564 930.36 212.564C929.406 212.564 928.497 212.432 927.632 212.168C926.766 211.904 925.952 211.508 925.19 210.98L925.96 209.66C926.62 210.129 927.309 210.489 928.028 210.738C928.746 210.987 929.516 211.112 930.338 211.112C931.599 211.112 932.604 210.767 933.352 210.078C934.1 209.403 934.474 208.399 934.474 207.064V205.722C933.975 206.382 933.366 206.947 932.648 207.416C931.929 207.885 931.049 208.12 930.008 208.12C929.318 208.12 928.651 208.003 928.006 207.768C927.375 207.519 926.81 207.167 926.312 206.712C925.813 206.243 925.41 205.678 925.102 205.018C924.808 204.358 924.662 203.61 924.662 202.774C924.662 201.938 924.808 201.19 925.102 200.53C925.41 199.855 925.813 199.291 926.312 198.836C926.81 198.367 927.382 198.007 928.028 197.758C928.673 197.509 929.333 197.384 930.008 197.384C930.536 197.384 931.02 197.45 931.46 197.582C931.914 197.699 932.318 197.861 932.67 198.066C933.036 198.271 933.366 198.513 933.66 198.792C933.953 199.071 934.217 199.364 934.452 199.672V197.626H936.146V207.02ZM934.518 202.752C934.518 202.165 934.4 201.637 934.166 201.168C933.931 200.684 933.616 200.273 933.22 199.936C932.838 199.599 932.398 199.342 931.9 199.166C931.401 198.975 930.88 198.88 930.338 198.88C929.795 198.88 929.282 198.968 928.798 199.144C928.328 199.32 927.91 199.577 927.544 199.914C927.192 200.251 926.913 200.662 926.708 201.146C926.502 201.615 926.4 202.143 926.4 202.73C926.4 203.317 926.502 203.852 926.708 204.336C926.928 204.805 927.214 205.216 927.566 205.568C927.932 205.905 928.35 206.169 928.82 206.36C929.304 206.536 929.81 206.624 930.338 206.624C930.88 206.624 931.401 206.536 931.9 206.36C932.398 206.169 932.838 205.905 933.22 205.568C933.616 205.231 933.931 204.827 934.166 204.358C934.4 203.874 934.518 203.339 934.518 202.752ZM948.815 199.122V205.766C948.815 206.47 948.991 206.961 949.343 207.24C949.695 207.519 950.157 207.658 950.729 207.658C951.022 207.658 951.293 207.629 951.543 207.57C951.807 207.511 952.085 207.409 952.379 207.262V208.714C952.085 208.875 951.77 208.993 951.433 209.066C951.11 209.154 950.743 209.198 950.333 209.198C949.878 209.198 949.453 209.139 949.057 209.022C948.661 208.905 948.316 208.721 948.023 208.472C947.744 208.208 947.524 207.871 947.363 207.46C947.201 207.049 947.121 206.558 947.121 205.986V199.122H945.537V197.626H947.121V194.194H948.815V197.626H952.423V199.122H948.815ZM966.253 203.302C966.253 204.109 966.099 204.879 965.791 205.612C965.498 206.331 965.087 206.961 964.559 207.504C964.031 208.047 963.4 208.479 962.667 208.802C961.934 209.11 961.142 209.264 960.291 209.264C959.44 209.264 958.656 209.11 957.937 208.802C957.218 208.479 956.595 208.054 956.067 207.526C955.539 206.983 955.128 206.353 954.835 205.634C954.542 204.915 954.395 204.153 954.395 203.346C954.395 202.539 954.542 201.777 954.835 201.058C955.128 200.325 955.539 199.687 956.067 199.144C956.595 198.601 957.218 198.176 957.937 197.868C958.67 197.545 959.47 197.384 960.335 197.384C961.186 197.384 961.97 197.545 962.689 197.868C963.422 198.176 964.053 198.601 964.581 199.144C965.109 199.672 965.52 200.295 965.813 201.014C966.106 201.733 966.253 202.495 966.253 203.302ZM964.515 203.346C964.515 202.73 964.405 202.151 964.185 201.608C963.98 201.065 963.686 200.596 963.305 200.2C962.924 199.789 962.476 199.467 961.963 199.232C961.45 198.997 960.892 198.88 960.291 198.88C959.675 198.88 959.11 198.997 958.597 199.232C958.084 199.452 957.644 199.767 957.277 200.178C956.925 200.574 956.646 201.043 956.441 201.586C956.236 202.114 956.133 202.686 956.133 203.302C956.133 203.918 956.236 204.497 956.441 205.04C956.661 205.583 956.954 206.052 957.321 206.448C957.702 206.844 958.15 207.159 958.663 207.394C959.176 207.629 959.734 207.746 960.335 207.746C960.951 207.746 961.516 207.636 962.029 207.416C962.542 207.181 962.982 206.866 963.349 206.47C963.716 206.074 964.002 205.612 964.207 205.084C964.412 204.541 964.515 203.962 964.515 203.346ZM983.991 204.138V197.626H985.663V209H983.991V207.02C983.61 207.636 983.111 208.164 982.495 208.604C981.879 209.029 981.08 209.242 980.097 209.242C979.408 209.242 978.792 209.132 978.249 208.912C977.721 208.692 977.267 208.384 976.885 207.988C976.519 207.577 976.233 207.093 976.027 206.536C975.837 205.979 975.741 205.363 975.741 204.688V197.626H977.435V204.27C977.435 205.326 977.707 206.162 978.249 206.778C978.792 207.394 979.569 207.702 980.581 207.702C981.065 207.702 981.513 207.621 981.923 207.46C982.349 207.284 982.708 207.042 983.001 206.734C983.309 206.411 983.551 206.03 983.727 205.59C983.903 205.15 983.991 204.666 983.991 204.138ZM991.762 199.122V205.766C991.762 206.47 991.938 206.961 992.29 207.24C992.642 207.519 993.104 207.658 993.676 207.658C993.969 207.658 994.241 207.629 994.49 207.57C994.754 207.511 995.033 207.409 995.326 207.262V208.714C995.033 208.875 994.717 208.993 994.38 209.066C994.057 209.154 993.691 209.198 993.28 209.198C992.825 209.198 992.4 209.139 992.004 209.022C991.608 208.905 991.263 208.721 990.97 208.472C990.691 208.208 990.471 207.871 990.31 207.46C990.149 207.049 990.068 206.558 990.068 205.986V199.122H988.484V197.626H990.068V194.194H991.762V197.626H995.37V199.122H991.762ZM1000.35 195.14H998.413V193.27H1000.35V195.14ZM1000.22 209H998.523V197.626H1000.22V209ZM1006 209H1004.3V192.94H1006V209ZM1011.91 195.14H1009.97V193.27H1011.91V195.14ZM1011.78 209H1010.08V197.626H1011.78V209ZM1022.59 199.056H1015.31V197.626H1024.9V198.704L1017.33 207.57H1024.9V209H1015.05V207.922L1022.59 199.056ZM1028.62 203.94C1028.68 204.556 1028.83 205.106 1029.06 205.59C1029.3 206.059 1029.6 206.463 1029.96 206.8C1030.33 207.123 1030.74 207.372 1031.19 207.548C1031.65 207.709 1032.13 207.79 1032.62 207.79C1033.42 207.79 1034.09 207.643 1034.65 207.35C1035.22 207.057 1035.74 206.668 1036.21 206.184L1037.27 207.13C1036.69 207.775 1036.04 208.296 1035.31 208.692C1034.58 209.073 1033.67 209.264 1032.58 209.264C1031.8 209.264 1031.07 209.125 1030.38 208.846C1029.69 208.553 1029.09 208.149 1028.58 207.636C1028.06 207.108 1027.65 206.477 1027.34 205.744C1027.05 205.011 1026.9 204.204 1026.9 203.324C1026.9 202.503 1027.04 201.733 1027.3 201.014C1027.58 200.281 1027.96 199.65 1028.44 199.122C1028.93 198.579 1029.5 198.154 1030.16 197.846C1030.84 197.538 1031.57 197.384 1032.36 197.384C1033.2 197.384 1033.94 197.545 1034.6 197.868C1035.26 198.176 1035.82 198.601 1036.28 199.144C1036.73 199.687 1037.08 200.325 1037.31 201.058C1037.55 201.791 1037.66 202.576 1037.66 203.412C1037.66 203.485 1037.66 203.566 1037.66 203.654C1037.66 203.742 1037.66 203.837 1037.64 203.94H1028.62ZM1028.62 202.686H1035.95C1035.9 202.173 1035.79 201.681 1035.62 201.212C1035.46 200.743 1035.22 200.332 1034.91 199.98C1034.62 199.628 1034.25 199.349 1033.81 199.144C1033.39 198.924 1032.89 198.814 1032.32 198.814C1031.82 198.814 1031.36 198.917 1030.93 199.122C1030.51 199.313 1030.13 199.584 1029.81 199.936C1029.49 200.273 1029.22 200.677 1029.02 201.146C1028.81 201.615 1028.68 202.129 1028.62 202.686ZM1061.04 201.278C1061.04 202.363 1060.84 203.383 1060.45 204.336C1060.05 205.275 1059.49 206.089 1058.75 206.778C1058.03 207.467 1057.17 208.01 1056.16 208.406C1055.16 208.802 1054.06 209 1052.86 209H1047.51V193.6H1052.86C1054.06 193.6 1055.16 193.798 1056.16 194.194C1057.17 194.575 1058.03 195.111 1058.75 195.8C1059.49 196.489 1060.05 197.303 1060.45 198.242C1060.84 199.181 1061.04 200.193 1061.04 201.278ZM1059.24 201.322C1059.24 200.471 1059.08 199.672 1058.77 198.924C1058.48 198.176 1058.06 197.531 1057.5 196.988C1056.96 196.431 1056.29 195.998 1055.5 195.69C1054.7 195.367 1053.82 195.206 1052.86 195.206H1049.25V207.394H1052.86C1053.82 207.394 1054.7 207.24 1055.5 206.932C1056.29 206.624 1056.96 206.199 1057.5 205.656C1058.06 205.099 1058.48 204.453 1058.77 203.72C1059.08 202.987 1059.24 202.187 1059.24 201.322ZM1065.45 203.94C1065.5 204.556 1065.65 205.106 1065.89 205.59C1066.12 206.059 1066.42 206.463 1066.79 206.8C1067.15 207.123 1067.56 207.372 1068.02 207.548C1068.47 207.709 1068.95 207.79 1069.45 207.79C1070.24 207.79 1070.92 207.643 1071.47 207.35C1072.05 207.057 1072.57 206.668 1073.04 206.184L1074.09 207.13C1073.52 207.775 1072.87 208.296 1072.13 208.692C1071.4 209.073 1070.49 209.264 1069.41 209.264C1068.63 209.264 1067.89 209.125 1067.21 208.846C1066.52 208.553 1065.91 208.149 1065.4 207.636C1064.89 207.108 1064.48 206.477 1064.17 205.744C1063.88 205.011 1063.73 204.204 1063.73 203.324C1063.73 202.503 1063.86 201.733 1064.13 201.014C1064.4 200.281 1064.79 199.65 1065.27 199.122C1065.75 198.579 1066.33 198.154 1066.99 197.846C1067.66 197.538 1068.39 197.384 1069.19 197.384C1070.02 197.384 1070.77 197.545 1071.43 197.868C1072.09 198.176 1072.65 198.601 1073.1 199.144C1073.56 199.687 1073.9 200.325 1074.14 201.058C1074.37 201.791 1074.49 202.576 1074.49 203.412C1074.49 203.485 1074.49 203.566 1074.49 203.654C1074.49 203.742 1074.48 203.837 1074.47 203.94H1065.45ZM1065.45 202.686H1072.77C1072.73 202.173 1072.62 201.681 1072.44 201.212C1072.28 200.743 1072.05 200.332 1071.74 199.98C1071.44 199.628 1071.08 199.349 1070.64 199.144C1070.21 198.924 1069.71 198.814 1069.14 198.814C1068.64 198.814 1068.18 198.917 1067.76 199.122C1067.33 199.313 1066.96 199.584 1066.63 199.936C1066.31 200.273 1066.05 200.677 1065.84 201.146C1065.64 201.615 1065.5 202.129 1065.45 202.686ZM1081.47 207.064L1085.32 197.626H1087.15L1082.2 209.088H1080.7L1075.77 197.626H1077.64L1081.47 207.064ZM1105.12 201.278C1105.12 202.349 1104.93 203.368 1104.55 204.336C1104.16 205.289 1103.63 206.133 1102.94 206.866C1102.25 207.599 1101.42 208.186 1100.45 208.626C1099.49 209.051 1098.42 209.264 1097.24 209.264C1096.07 209.264 1095 209.051 1094.03 208.626C1093.08 208.201 1092.26 207.629 1091.57 206.91C1090.88 206.177 1090.34 205.333 1089.96 204.38C1089.59 203.412 1089.41 202.393 1089.41 201.322C1089.41 200.251 1089.6 199.239 1089.98 198.286C1090.36 197.318 1090.9 196.467 1091.59 195.734C1092.28 195.001 1093.11 194.421 1094.07 193.996C1095.04 193.556 1096.11 193.336 1097.29 193.336C1098.46 193.336 1099.52 193.549 1100.48 193.974C1101.44 194.399 1102.27 194.979 1102.96 195.712C1103.65 196.431 1104.18 197.274 1104.55 198.242C1104.93 199.195 1105.12 200.207 1105.12 201.278ZM1103.31 201.322C1103.31 200.442 1103.16 199.613 1102.85 198.836C1102.56 198.059 1102.14 197.384 1101.6 196.812C1101.06 196.24 1100.41 195.785 1099.66 195.448C1098.93 195.111 1098.12 194.942 1097.24 194.942C1096.36 194.942 1095.55 195.111 1094.8 195.448C1094.07 195.771 1093.44 196.218 1092.91 196.79C1092.38 197.362 1091.96 198.037 1091.65 198.814C1091.36 199.577 1091.21 200.398 1091.21 201.278C1091.21 202.158 1091.36 202.987 1091.65 203.764C1091.96 204.541 1092.39 205.216 1092.93 205.788C1093.47 206.36 1094.11 206.815 1094.84 207.152C1095.59 207.489 1096.41 207.658 1097.29 207.658C1098.17 207.658 1098.97 207.497 1099.71 207.174C1100.45 206.837 1101.09 206.382 1101.62 205.81C1102.15 205.238 1102.56 204.571 1102.85 203.808C1103.16 203.031 1103.31 202.202 1103.31 201.322ZM1119.98 203.302C1119.98 204.241 1119.83 205.077 1119.52 205.81C1119.21 206.543 1118.8 207.167 1118.29 207.68C1117.79 208.179 1117.21 208.567 1116.55 208.846C1115.9 209.11 1115.24 209.242 1114.55 209.242C1114.02 209.242 1113.54 209.176 1113.1 209.044C1112.66 208.912 1112.26 208.736 1111.91 208.516C1111.56 208.296 1111.23 208.039 1110.94 207.746C1110.66 207.453 1110.41 207.145 1110.19 206.822V212.52H1108.5V197.626H1110.19V199.914C1110.43 199.577 1110.68 199.254 1110.96 198.946C1111.25 198.638 1111.58 198.374 1111.93 198.154C1112.28 197.919 1112.67 197.736 1113.1 197.604C1113.54 197.457 1114.02 197.384 1114.55 197.384C1115.22 197.384 1115.88 197.516 1116.53 197.78C1117.19 198.044 1117.77 198.433 1118.29 198.946C1118.8 199.445 1119.21 200.061 1119.52 200.794C1119.83 201.527 1119.98 202.363 1119.98 203.302ZM1118.24 203.324C1118.24 202.649 1118.13 202.041 1117.91 201.498C1117.71 200.955 1117.42 200.493 1117.06 200.112C1116.69 199.716 1116.26 199.415 1115.78 199.21C1115.3 199.005 1114.78 198.902 1114.24 198.902C1113.71 198.902 1113.2 199.012 1112.7 199.232C1112.22 199.437 1111.78 199.731 1111.38 200.112C1111 200.493 1110.69 200.955 1110.46 201.498C1110.24 202.041 1110.13 202.642 1110.13 203.302C1110.13 203.962 1110.24 204.571 1110.46 205.128C1110.69 205.671 1111 206.133 1111.38 206.514C1111.78 206.895 1112.22 207.196 1112.7 207.416C1113.2 207.621 1113.71 207.724 1114.24 207.724C1114.78 207.724 1115.3 207.629 1115.78 207.438C1116.28 207.233 1116.7 206.947 1117.06 206.58C1117.42 206.199 1117.71 205.737 1117.91 205.194C1118.13 204.637 1118.24 204.013 1118.24 203.324ZM1130.92 205.81C1130.92 206.353 1130.81 206.837 1130.59 207.262C1130.38 207.673 1130.1 208.025 1129.73 208.318C1129.38 208.611 1128.95 208.839 1128.45 209C1127.97 209.147 1127.44 209.22 1126.87 209.22C1126.05 209.22 1125.22 209.073 1124.38 208.78C1123.55 208.472 1122.81 208.061 1122.16 207.548L1123.02 206.338C1123.63 206.807 1124.27 207.167 1124.93 207.416C1125.61 207.665 1126.28 207.79 1126.96 207.79C1127.65 207.79 1128.21 207.629 1128.65 207.306C1129.09 206.983 1129.31 206.543 1129.31 205.986V205.942C1129.31 205.663 1129.23 205.421 1129.07 205.216C1128.92 205.011 1128.72 204.835 1128.45 204.688C1128.19 204.527 1127.88 204.387 1127.53 204.27C1127.19 204.153 1126.84 204.043 1126.47 203.94C1126.03 203.808 1125.59 203.669 1125.13 203.522C1124.69 203.361 1124.29 203.163 1123.92 202.928C1123.57 202.693 1123.28 202.4 1123.04 202.048C1122.82 201.696 1122.71 201.256 1122.71 200.728V200.684C1122.71 200.2 1122.81 199.76 1123 199.364C1123.19 198.953 1123.45 198.609 1123.79 198.33C1124.14 198.037 1124.55 197.817 1125.02 197.67C1125.5 197.509 1126.03 197.428 1126.58 197.428C1127.29 197.428 1128 197.545 1128.72 197.78C1129.44 198 1130.09 198.301 1130.67 198.682L1129.9 199.958C1129.38 199.621 1128.82 199.357 1128.23 199.166C1127.66 198.961 1127.1 198.858 1126.54 198.858C1125.86 198.858 1125.33 199.019 1124.93 199.342C1124.54 199.65 1124.34 200.039 1124.34 200.508V200.552C1124.34 200.816 1124.42 201.051 1124.58 201.256C1124.74 201.447 1124.95 201.615 1125.22 201.762C1125.5 201.909 1125.81 202.041 1126.16 202.158C1126.52 202.275 1126.88 202.393 1127.26 202.51C1127.7 202.642 1128.14 202.789 1128.56 202.95C1129 203.111 1129.4 203.317 1129.75 203.566C1130.1 203.815 1130.38 204.116 1130.59 204.468C1130.81 204.82 1130.92 205.253 1130.92 205.766V205.81ZM844.702 227.81C844.702 228.353 844.592 228.837 844.372 229.262C844.167 229.673 843.881 230.025 843.514 230.318C843.162 230.611 842.737 230.839 842.238 231C841.754 231.147 841.226 231.22 840.654 231.22C839.833 231.22 839.004 231.073 838.168 230.78C837.332 230.472 836.591 230.061 835.946 229.548L836.804 228.338C837.42 228.807 838.058 229.167 838.718 229.416C839.393 229.665 840.067 229.79 840.742 229.79C841.431 229.79 841.996 229.629 842.436 229.306C842.876 228.983 843.096 228.543 843.096 227.986V227.942C843.096 227.663 843.015 227.421 842.854 227.216C842.707 227.011 842.502 226.835 842.238 226.688C841.974 226.527 841.666 226.387 841.314 226.27C840.977 226.153 840.625 226.043 840.258 225.94C839.818 225.808 839.371 225.669 838.916 225.522C838.476 225.361 838.073 225.163 837.706 224.928C837.354 224.693 837.061 224.4 836.826 224.048C836.606 223.696 836.496 223.256 836.496 222.728V222.684C836.496 222.2 836.591 221.76 836.782 221.364C836.973 220.953 837.237 220.609 837.574 220.33C837.926 220.037 838.337 219.817 838.806 219.67C839.29 219.509 839.811 219.428 840.368 219.428C841.072 219.428 841.783 219.545 842.502 219.78C843.221 220 843.873 220.301 844.46 220.682L843.69 221.958C843.162 221.621 842.605 221.357 842.018 221.166C841.446 220.961 840.881 220.858 840.324 220.858C839.649 220.858 839.114 221.019 838.718 221.342C838.322 221.65 838.124 222.039 838.124 222.508V222.552C838.124 222.816 838.205 223.051 838.366 223.256C838.527 223.447 838.74 223.615 839.004 223.762C839.283 223.909 839.598 224.041 839.95 224.158C840.302 224.275 840.669 224.393 841.05 224.51C841.49 224.642 841.923 224.789 842.348 224.95C842.788 225.111 843.184 225.317 843.536 225.566C843.888 225.815 844.167 226.116 844.372 226.468C844.592 226.82 844.702 227.253 844.702 227.766V227.81ZM848.861 225.94C848.92 226.556 849.066 227.106 849.301 227.59C849.536 228.059 849.836 228.463 850.203 228.8C850.57 229.123 850.98 229.372 851.435 229.548C851.89 229.709 852.366 229.79 852.865 229.79C853.657 229.79 854.332 229.643 854.889 229.35C855.461 229.057 855.982 228.668 856.451 228.184L857.507 229.13C856.935 229.775 856.282 230.296 855.549 230.692C854.816 231.073 853.906 231.264 852.821 231.264C852.044 231.264 851.31 231.125 850.621 230.846C849.932 230.553 849.33 230.149 848.817 229.636C848.304 229.108 847.893 228.477 847.585 227.744C847.292 227.011 847.145 226.204 847.145 225.324C847.145 224.503 847.277 223.733 847.541 223.014C847.82 222.281 848.201 221.65 848.685 221.122C849.169 220.579 849.741 220.154 850.401 219.846C851.076 219.538 851.809 219.384 852.601 219.384C853.437 219.384 854.185 219.545 854.845 219.868C855.505 220.176 856.062 220.601 856.517 221.144C856.972 221.687 857.316 222.325 857.551 223.058C857.786 223.791 857.903 224.576 857.903 225.412C857.903 225.485 857.903 225.566 857.903 225.654C857.903 225.742 857.896 225.837 857.881 225.94H848.861ZM848.861 224.686H856.187C856.143 224.173 856.033 223.681 855.857 223.212C855.696 222.743 855.461 222.332 855.153 221.98C854.86 221.628 854.493 221.349 854.053 221.144C853.628 220.924 853.129 220.814 852.557 220.814C852.058 220.814 851.596 220.917 851.171 221.122C850.746 221.313 850.372 221.584 850.049 221.936C849.726 222.273 849.462 222.677 849.257 223.146C849.052 223.615 848.92 224.129 848.861 224.686ZM862.563 226.468V231H860.869V219.626H862.563V222.596C862.768 222.127 863.025 221.694 863.333 221.298C863.641 220.902 863.993 220.565 864.389 220.286C864.785 219.993 865.217 219.773 865.687 219.626C866.156 219.479 866.662 219.413 867.205 219.428V221.254H867.073C866.457 221.254 865.87 221.364 865.313 221.584C864.77 221.804 864.293 222.134 863.883 222.574C863.472 223.014 863.149 223.564 862.915 224.224C862.68 224.869 862.563 225.617 862.563 226.468ZM874.361 229.064L878.211 219.626H880.037L875.087 231.088H873.591L868.663 219.626H870.533L874.361 229.064ZM884.677 217.14H882.741V215.27H884.677V217.14ZM884.545 231H882.851V219.626H884.545V231ZM898.244 229.064C897.672 229.709 897.019 230.237 896.286 230.648C895.567 231.059 894.673 231.264 893.602 231.264C892.766 231.264 891.989 231.11 891.27 230.802C890.566 230.479 889.95 230.054 889.422 229.526C888.909 228.983 888.505 228.353 888.212 227.634C887.919 226.915 887.772 226.153 887.772 225.346C887.772 224.539 887.919 223.777 888.212 223.058C888.505 222.325 888.909 221.687 889.422 221.144C889.95 220.601 890.566 220.176 891.27 219.868C891.989 219.545 892.766 219.384 893.602 219.384C894.145 219.384 894.636 219.435 895.076 219.538C895.516 219.641 895.919 219.787 896.286 219.978C896.653 220.154 896.99 220.367 897.298 220.616C897.606 220.865 897.892 221.129 898.156 221.408L897.034 222.596C896.579 222.127 896.081 221.723 895.538 221.386C895.01 221.049 894.357 220.88 893.58 220.88C893.008 220.88 892.473 220.997 891.974 221.232C891.475 221.452 891.043 221.767 890.676 222.178C890.309 222.574 890.023 223.043 889.818 223.586C889.613 224.114 889.51 224.686 889.51 225.302C889.51 225.918 889.613 226.497 889.818 227.04C890.038 227.583 890.331 228.059 890.698 228.47C891.079 228.866 891.519 229.181 892.018 229.416C892.531 229.636 893.089 229.746 893.69 229.746C894.423 229.746 895.069 229.585 895.626 229.262C896.198 228.939 896.711 228.536 897.166 228.052L898.244 229.064ZM901.734 225.94C901.793 226.556 901.939 227.106 902.174 227.59C902.409 228.059 902.709 228.463 903.076 228.8C903.443 229.123 903.853 229.372 904.308 229.548C904.763 229.709 905.239 229.79 905.738 229.79C906.53 229.79 907.205 229.643 907.762 229.35C908.334 229.057 908.855 228.668 909.324 228.184L910.38 229.13C909.808 229.775 909.155 230.296 908.422 230.692C907.689 231.073 906.779 231.264 905.694 231.264C904.917 231.264 904.183 231.125 903.494 230.846C902.805 230.553 902.203 230.149 901.69 229.636C901.177 229.108 900.766 228.477 900.458 227.744C900.165 227.011 900.018 226.204 900.018 225.324C900.018 224.503 900.15 223.733 900.414 223.014C900.693 222.281 901.074 221.65 901.558 221.122C902.042 220.579 902.614 220.154 903.274 219.846C903.949 219.538 904.682 219.384 905.474 219.384C906.31 219.384 907.058 219.545 907.718 219.868C908.378 220.176 908.935 220.601 909.39 221.144C909.845 221.687 910.189 222.325 910.424 223.058C910.659 223.791 910.776 224.576 910.776 225.412C910.776 225.485 910.776 225.566 910.776 225.654C910.776 225.742 910.769 225.837 910.754 225.94H901.734ZM901.734 224.686H909.06C909.016 224.173 908.906 223.681 908.73 223.212C908.569 222.743 908.334 222.332 908.026 221.98C907.733 221.628 907.366 221.349 906.926 221.144C906.501 220.924 906.002 220.814 905.43 220.814C904.931 220.814 904.469 220.917 904.044 221.122C903.619 221.313 903.245 221.584 902.922 221.936C902.599 222.273 902.335 222.677 902.13 223.146C901.925 223.615 901.793 224.129 901.734 224.686ZM921.552 227.81C921.552 228.353 921.442 228.837 921.222 229.262C921.016 229.673 920.73 230.025 920.364 230.318C920.012 230.611 919.586 230.839 919.088 231C918.604 231.147 918.076 231.22 917.504 231.22C916.682 231.22 915.854 231.073 915.018 230.78C914.182 230.472 913.441 230.061 912.796 229.548L913.654 228.338C914.27 228.807 914.908 229.167 915.568 229.416C916.242 229.665 916.917 229.79 917.592 229.79C918.281 229.79 918.846 229.629 919.286 229.306C919.726 228.983 919.946 228.543 919.946 227.986V227.942C919.946 227.663 919.865 227.421 919.704 227.216C919.557 227.011 919.352 226.835 919.088 226.688C918.824 226.527 918.516 226.387 918.164 226.27C917.826 226.153 917.474 226.043 917.108 225.94C916.668 225.808 916.22 225.669 915.766 225.522C915.326 225.361 914.922 225.163 914.556 224.928C914.204 224.693 913.91 224.4 913.676 224.048C913.456 223.696 913.346 223.256 913.346 222.728V222.684C913.346 222.2 913.441 221.76 913.632 221.364C913.822 220.953 914.086 220.609 914.424 220.33C914.776 220.037 915.186 219.817 915.656 219.67C916.14 219.509 916.66 219.428 917.218 219.428C917.922 219.428 918.633 219.545 919.352 219.78C920.07 220 920.723 220.301 921.31 220.682L920.54 221.958C920.012 221.621 919.454 221.357 918.868 221.166C918.296 220.961 917.731 220.858 917.174 220.858C916.499 220.858 915.964 221.019 915.568 221.342C915.172 221.65 914.974 222.039 914.974 222.508V222.552C914.974 222.816 915.054 223.051 915.216 223.256C915.377 223.447 915.59 223.615 915.854 223.762C916.132 223.909 916.448 224.041 916.8 224.158C917.152 224.275 917.518 224.393 917.9 224.51C918.34 224.642 918.772 224.789 919.198 224.95C919.638 225.111 920.034 225.317 920.386 225.566C920.738 225.815 921.016 226.116 921.222 226.468C921.442 226.82 921.552 227.253 921.552 227.766V227.81ZM933.604 219.67H937.212V221.122H933.626V231H931.932V221.122H930.37V219.648H931.932V218.658C931.932 217.411 932.226 216.465 932.812 215.82C933.414 215.175 934.264 214.852 935.364 214.852C935.76 214.852 936.098 214.874 936.376 214.918C936.67 214.962 936.956 215.035 937.234 215.138V216.612C936.926 216.524 936.648 216.458 936.398 216.414C936.149 216.355 935.878 216.326 935.584 216.326C934.264 216.326 933.604 217.133 933.604 218.746V219.67ZM950.312 225.302C950.312 226.109 950.158 226.879 949.85 227.612C949.556 228.331 949.146 228.961 948.618 229.504C948.09 230.047 947.459 230.479 946.726 230.802C945.992 231.11 945.2 231.264 944.35 231.264C943.499 231.264 942.714 231.11 941.996 230.802C941.277 230.479 940.654 230.054 940.126 229.526C939.598 228.983 939.187 228.353 938.894 227.634C938.6 226.915 938.454 226.153 938.454 225.346C938.454 224.539 938.6 223.777 938.894 223.058C939.187 222.325 939.598 221.687 940.126 221.144C940.654 220.601 941.277 220.176 941.996 219.868C942.729 219.545 943.528 219.384 944.394 219.384C945.244 219.384 946.029 219.545 946.748 219.868C947.481 220.176 948.112 220.601 948.64 221.144C949.168 221.672 949.578 222.295 949.872 223.014C950.165 223.733 950.312 224.495 950.312 225.302ZM948.574 225.346C948.574 224.73 948.464 224.151 948.244 223.608C948.038 223.065 947.745 222.596 947.364 222.2C946.982 221.789 946.535 221.467 946.022 221.232C945.508 220.997 944.951 220.88 944.35 220.88C943.734 220.88 943.169 220.997 942.656 221.232C942.142 221.452 941.702 221.767 941.336 222.178C940.984 222.574 940.705 223.043 940.5 223.586C940.294 224.114 940.192 224.686 940.192 225.302C940.192 225.918 940.294 226.497 940.5 227.04C940.72 227.583 941.013 228.052 941.38 228.448C941.761 228.844 942.208 229.159 942.722 229.394C943.235 229.629 943.792 229.746 944.394 229.746C945.01 229.746 945.574 229.636 946.088 229.416C946.601 229.181 947.041 228.866 947.408 228.47C947.774 228.074 948.06 227.612 948.266 227.084C948.471 226.541 948.574 225.962 948.574 225.346ZM955.074 226.468V231H953.38V219.626H955.074V222.596C955.28 222.127 955.536 221.694 955.844 221.298C956.152 220.902 956.504 220.565 956.9 220.286C957.296 219.993 957.729 219.773 958.198 219.626C958.668 219.479 959.174 219.413 959.716 219.428V221.254H959.584C958.968 221.254 958.382 221.364 957.824 221.584C957.282 221.804 956.805 222.134 956.394 222.574C955.984 223.014 955.661 223.564 955.426 224.224C955.192 224.869 955.074 225.617 955.074 226.468ZM976.702 227.81C976.702 228.353 976.592 228.837 976.372 229.262C976.167 229.673 975.881 230.025 975.514 230.318C975.162 230.611 974.737 230.839 974.238 231C973.754 231.147 973.226 231.22 972.654 231.22C971.833 231.22 971.004 231.073 970.168 230.78C969.332 230.472 968.591 230.061 967.946 229.548L968.804 228.338C969.42 228.807 970.058 229.167 970.718 229.416C971.393 229.665 972.067 229.79 972.742 229.79C973.431 229.79 973.996 229.629 974.436 229.306C974.876 228.983 975.096 228.543 975.096 227.986V227.942C975.096 227.663 975.015 227.421 974.854 227.216C974.707 227.011 974.502 226.835 974.238 226.688C973.974 226.527 973.666 226.387 973.314 226.27C972.977 226.153 972.625 226.043 972.258 225.94C971.818 225.808 971.371 225.669 970.916 225.522C970.476 225.361 970.073 225.163 969.706 224.928C969.354 224.693 969.061 224.4 968.826 224.048C968.606 223.696 968.496 223.256 968.496 222.728V222.684C968.496 222.2 968.591 221.76 968.782 221.364C968.973 220.953 969.237 220.609 969.574 220.33C969.926 220.037 970.337 219.817 970.806 219.67C971.29 219.509 971.811 219.428 972.368 219.428C973.072 219.428 973.783 219.545 974.502 219.78C975.221 220 975.873 220.301 976.46 220.682L975.69 221.958C975.162 221.621 974.605 221.357 974.018 221.166C973.446 220.961 972.881 220.858 972.324 220.858C971.649 220.858 971.114 221.019 970.718 221.342C970.322 221.65 970.124 222.039 970.124 222.508V222.552C970.124 222.816 970.205 223.051 970.366 223.256C970.527 223.447 970.74 223.615 971.004 223.762C971.283 223.909 971.598 224.041 971.95 224.158C972.302 224.275 972.669 224.393 973.05 224.51C973.49 224.642 973.923 224.789 974.348 224.95C974.788 225.111 975.184 225.317 975.536 225.566C975.888 225.815 976.167 226.116 976.372 226.468C976.592 226.82 976.702 227.253 976.702 227.766V227.81ZM991.003 225.302C991.003 226.109 990.849 226.879 990.541 227.612C990.248 228.331 989.837 228.961 989.309 229.504C988.781 230.047 988.15 230.479 987.417 230.802C986.684 231.11 985.892 231.264 985.041 231.264C984.19 231.264 983.406 231.11 982.687 230.802C981.968 230.479 981.345 230.054 980.817 229.526C980.289 228.983 979.878 228.353 979.585 227.634C979.292 226.915 979.145 226.153 979.145 225.346C979.145 224.539 979.292 223.777 979.585 223.058C979.878 222.325 980.289 221.687 980.817 221.144C981.345 220.601 981.968 220.176 982.687 219.868C983.42 219.545 984.22 219.384 985.085 219.384C985.936 219.384 986.72 219.545 987.439 219.868C988.172 220.176 988.803 220.601 989.331 221.144C989.859 221.672 990.27 222.295 990.563 223.014C990.856 223.733 991.003 224.495 991.003 225.302ZM989.265 225.346C989.265 224.73 989.155 224.151 988.935 223.608C988.73 223.065 988.436 222.596 988.055 222.2C987.674 221.789 987.226 221.467 986.713 221.232C986.2 220.997 985.642 220.88 985.041 220.88C984.425 220.88 983.86 220.997 983.347 221.232C982.834 221.452 982.394 221.767 982.027 222.178C981.675 222.574 981.396 223.043 981.191 223.586C980.986 224.114 980.883 224.686 980.883 225.302C980.883 225.918 980.986 226.497 981.191 227.04C981.411 227.583 981.704 228.052 982.071 228.448C982.452 228.844 982.9 229.159 983.413 229.394C983.926 229.629 984.484 229.746 985.085 229.746C985.701 229.746 986.266 229.636 986.779 229.416C987.292 229.181 987.732 228.866 988.099 228.47C988.466 228.074 988.752 227.612 988.957 227.084C989.162 226.541 989.265 225.962 989.265 225.346ZM996.382 219.67H999.99V221.122H996.404V231H994.71V221.122H993.148V219.648H994.71V218.658C994.71 217.411 995.003 216.465 995.59 215.82C996.191 215.175 997.042 214.852 998.142 214.852C998.538 214.852 998.875 214.874 999.154 214.918C999.447 214.962 999.733 215.035 1000.01 215.138V216.612C999.704 216.524 999.425 216.458 999.176 216.414C998.926 216.355 998.655 216.326 998.362 216.326C997.042 216.326 996.382 217.133 996.382 218.746V219.67ZM1004.44 221.122V227.766C1004.44 228.47 1004.61 228.961 1004.97 229.24C1005.32 229.519 1005.78 229.658 1006.35 229.658C1006.65 229.658 1006.92 229.629 1007.17 229.57C1007.43 229.511 1007.71 229.409 1008 229.262V230.714C1007.71 230.875 1007.39 230.993 1007.06 231.066C1006.73 231.154 1006.37 231.198 1005.96 231.198C1005.5 231.198 1005.08 231.139 1004.68 231.022C1004.28 230.905 1003.94 230.721 1003.65 230.472C1003.37 230.208 1003.15 229.871 1002.99 229.46C1002.82 229.049 1002.74 228.558 1002.74 227.986V221.122H1001.16V219.626H1002.74V216.194H1004.44V219.626H1008.05V221.122H1004.44ZM1019.34 219.582L1022.42 228.756L1025.41 219.626H1027.17L1023.17 231.088H1021.69L1018.63 222.112L1015.55 231.088H1014.06L1010.08 219.626H1011.88L1014.87 228.756L1017.93 219.582H1019.34ZM1033.68 220.968C1033 220.968 1032.39 221.049 1031.83 221.21C1031.29 221.357 1030.75 221.555 1030.22 221.804L1029.72 220.418C1030.35 220.125 1030.99 219.897 1031.63 219.736C1032.28 219.56 1033.02 219.472 1033.85 219.472C1035.41 219.472 1036.6 219.861 1037.44 220.638C1038.28 221.401 1038.69 222.537 1038.69 224.048V231H1037.07V229.284C1036.67 229.797 1036.13 230.252 1035.46 230.648C1034.8 231.044 1033.96 231.242 1032.95 231.242C1032.42 231.242 1031.9 231.169 1031.39 231.022C1030.89 230.875 1030.44 230.655 1030.03 230.362C1029.63 230.054 1029.31 229.68 1029.06 229.24C1028.82 228.8 1028.71 228.279 1028.71 227.678C1028.71 227.077 1028.82 226.549 1029.06 226.094C1029.29 225.625 1029.62 225.236 1030.05 224.928C1030.49 224.62 1031 224.385 1031.59 224.224C1032.19 224.063 1032.85 223.982 1033.57 223.982C1034.3 223.982 1034.94 224.026 1035.48 224.114C1036.02 224.202 1036.55 224.319 1037.07 224.466V224.07C1037.07 223.043 1036.77 222.273 1036.16 221.76C1035.58 221.232 1034.75 220.968 1033.68 220.968ZM1033.74 225.236C1032.67 225.236 1031.85 225.449 1031.28 225.874C1030.71 226.299 1030.42 226.879 1030.42 227.612C1030.42 227.979 1030.5 228.301 1030.64 228.58C1030.8 228.859 1031.02 229.101 1031.28 229.306C1031.54 229.497 1031.84 229.643 1032.18 229.746C1032.53 229.849 1032.9 229.9 1033.28 229.9C1033.81 229.9 1034.3 229.827 1034.76 229.68C1035.23 229.519 1035.63 229.306 1035.97 229.042C1036.32 228.763 1036.59 228.441 1036.78 228.074C1036.99 227.693 1037.09 227.275 1037.09 226.82V225.72C1036.66 225.603 1036.17 225.493 1035.61 225.39C1035.07 225.287 1034.45 225.236 1033.74 225.236ZM1044 226.468V231H1042.3V219.626H1044V222.596C1044.2 222.127 1044.46 221.694 1044.77 221.298C1045.08 220.902 1045.43 220.565 1045.82 220.286C1046.22 219.993 1046.65 219.773 1047.12 219.626C1047.59 219.479 1048.1 219.413 1048.64 219.428V221.254H1048.51C1047.89 221.254 1047.31 221.364 1046.75 221.584C1046.21 221.804 1045.73 222.134 1045.32 222.574C1044.91 223.014 1044.58 223.564 1044.35 224.224C1044.12 224.869 1044 225.617 1044 226.468ZM1051.74 225.94C1051.8 226.556 1051.94 227.106 1052.18 227.59C1052.41 228.059 1052.71 228.463 1053.08 228.8C1053.45 229.123 1053.86 229.372 1054.31 229.548C1054.77 229.709 1055.24 229.79 1055.74 229.79C1056.53 229.79 1057.21 229.643 1057.77 229.35C1058.34 229.057 1058.86 228.668 1059.33 228.184L1060.38 229.13C1059.81 229.775 1059.16 230.296 1058.43 230.692C1057.69 231.073 1056.78 231.264 1055.7 231.264C1054.92 231.264 1054.19 231.125 1053.5 230.846C1052.81 230.553 1052.21 230.149 1051.69 229.636C1051.18 229.108 1050.77 228.477 1050.46 227.744C1050.17 227.011 1050.02 226.204 1050.02 225.324C1050.02 224.503 1050.15 223.733 1050.42 223.014C1050.7 222.281 1051.08 221.65 1051.56 221.122C1052.05 220.579 1052.62 220.154 1053.28 219.846C1053.95 219.538 1054.69 219.384 1055.48 219.384C1056.31 219.384 1057.06 219.545 1057.72 219.868C1058.38 220.176 1058.94 220.601 1059.39 221.144C1059.85 221.687 1060.19 222.325 1060.43 223.058C1060.66 223.791 1060.78 224.576 1060.78 225.412C1060.78 225.485 1060.78 225.566 1060.78 225.654C1060.78 225.742 1060.77 225.837 1060.76 225.94H1051.74ZM1051.74 224.686H1059.06C1059.02 224.173 1058.91 223.681 1058.73 223.212C1058.57 222.743 1058.34 222.332 1058.03 221.98C1057.74 221.628 1057.37 221.349 1056.93 221.144C1056.5 220.924 1056.01 220.814 1055.43 220.814C1054.94 220.814 1054.47 220.917 1054.05 221.122C1053.62 221.313 1053.25 221.584 1052.93 221.936C1052.6 222.273 1052.34 222.677 1052.13 223.146C1051.93 223.615 1051.8 224.129 1051.74 224.686ZM1081.17 231H1079.47V228.712C1079.24 229.049 1078.97 229.372 1078.68 229.68C1078.4 229.988 1078.09 230.259 1077.73 230.494C1077.38 230.729 1076.99 230.912 1076.55 231.044C1076.12 231.176 1075.64 231.242 1075.12 231.242C1074.43 231.242 1073.76 231.11 1073.11 230.846C1072.47 230.582 1071.89 230.201 1071.38 229.702C1070.86 229.189 1070.45 228.565 1070.14 227.832C1069.84 227.099 1069.68 226.263 1069.68 225.324C1069.68 224.385 1069.84 223.549 1070.14 222.816C1070.45 222.083 1070.86 221.467 1071.38 220.968C1071.89 220.455 1072.47 220.066 1073.11 219.802C1073.76 219.523 1074.43 219.384 1075.12 219.384C1075.64 219.384 1076.13 219.45 1076.57 219.582C1077.01 219.714 1077.4 219.89 1077.76 220.11C1078.11 220.33 1078.42 220.587 1078.7 220.88C1078.99 221.173 1079.25 221.481 1079.47 221.804V214.94H1081.17V231ZM1079.54 225.302C1079.54 224.642 1079.42 224.041 1079.19 223.498C1078.97 222.955 1078.66 222.493 1078.26 222.112C1077.88 221.731 1077.44 221.437 1076.94 221.232C1076.46 221.012 1075.95 220.902 1075.42 220.902C1074.87 220.902 1074.35 221.005 1073.86 221.21C1073.38 221.401 1072.95 221.687 1072.59 222.068C1072.23 222.435 1071.95 222.897 1071.73 223.454C1071.52 223.997 1071.42 224.613 1071.42 225.302C1071.42 225.977 1071.52 226.585 1071.73 227.128C1071.95 227.671 1072.24 228.14 1072.61 228.536C1072.97 228.917 1073.4 229.211 1073.88 229.416C1074.37 229.621 1074.88 229.724 1075.42 229.724C1075.95 229.724 1076.46 229.621 1076.94 229.416C1077.44 229.196 1077.88 228.895 1078.26 228.514C1078.66 228.133 1078.97 227.671 1079.19 227.128C1079.42 226.571 1079.54 225.962 1079.54 225.302ZM1085.96 225.94C1086.02 226.556 1086.17 227.106 1086.4 227.59C1086.64 228.059 1086.94 228.463 1087.3 228.8C1087.67 229.123 1088.08 229.372 1088.54 229.548C1088.99 229.709 1089.47 229.79 1089.97 229.79C1090.76 229.79 1091.43 229.643 1091.99 229.35C1092.56 229.057 1093.08 228.668 1093.55 228.184L1094.61 229.13C1094.04 229.775 1093.38 230.296 1092.65 230.692C1091.92 231.073 1091.01 231.264 1089.92 231.264C1089.15 231.264 1088.41 231.125 1087.72 230.846C1087.03 230.553 1086.43 230.149 1085.92 229.636C1085.41 229.108 1084.99 228.477 1084.69 227.744C1084.39 227.011 1084.25 226.204 1084.25 225.324C1084.25 224.503 1084.38 223.733 1084.64 223.014C1084.92 222.281 1085.3 221.65 1085.79 221.122C1086.27 220.579 1086.84 220.154 1087.5 219.846C1088.18 219.538 1088.91 219.384 1089.7 219.384C1090.54 219.384 1091.29 219.545 1091.95 219.868C1092.61 220.176 1093.16 220.601 1093.62 221.144C1094.07 221.687 1094.42 222.325 1094.65 223.058C1094.89 223.791 1095 224.576 1095 225.412C1095 225.485 1095 225.566 1095 225.654C1095 225.742 1095 225.837 1094.98 225.94H1085.96ZM1085.96 224.686H1093.29C1093.24 224.173 1093.13 223.681 1092.96 223.212C1092.8 222.743 1092.56 222.332 1092.25 221.98C1091.96 221.628 1091.59 221.349 1091.15 221.144C1090.73 220.924 1090.23 220.814 1089.66 220.814C1089.16 220.814 1088.7 220.917 1088.27 221.122C1087.85 221.313 1087.47 221.584 1087.15 221.936C1086.83 222.273 1086.56 222.677 1086.36 223.146C1086.15 223.615 1086.02 224.129 1085.96 224.686ZM1109.45 225.302C1109.45 226.241 1109.3 227.077 1108.99 227.81C1108.68 228.543 1108.27 229.167 1107.76 229.68C1107.26 230.179 1106.68 230.567 1106.02 230.846C1105.38 231.11 1104.71 231.242 1104.02 231.242C1103.49 231.242 1103.01 231.176 1102.57 231.044C1102.13 230.912 1101.73 230.736 1101.38 230.516C1101.03 230.296 1100.71 230.039 1100.41 229.746C1100.13 229.453 1099.88 229.145 1099.66 228.822V234.52H1097.97V219.626H1099.66V221.914C1099.9 221.577 1100.16 221.254 1100.43 220.946C1100.73 220.638 1101.05 220.374 1101.4 220.154C1101.75 219.919 1102.14 219.736 1102.57 219.604C1103.01 219.457 1103.49 219.384 1104.02 219.384C1104.69 219.384 1105.35 219.516 1106 219.78C1106.66 220.044 1107.25 220.433 1107.76 220.946C1108.27 221.445 1108.68 222.061 1108.99 222.794C1109.3 223.527 1109.45 224.363 1109.45 225.302ZM1107.72 225.324C1107.72 224.649 1107.61 224.041 1107.39 223.498C1107.18 222.955 1106.89 222.493 1106.53 222.112C1106.16 221.716 1105.74 221.415 1105.25 221.21C1104.77 221.005 1104.25 220.902 1103.71 220.902C1103.18 220.902 1102.67 221.012 1102.17 221.232C1101.69 221.437 1101.25 221.731 1100.85 222.112C1100.47 222.493 1100.16 222.955 1099.93 223.498C1099.71 224.041 1099.6 224.642 1099.6 225.302C1099.6 225.962 1099.71 226.571 1099.93 227.128C1100.16 227.671 1100.47 228.133 1100.85 228.514C1101.25 228.895 1101.69 229.196 1102.17 229.416C1102.67 229.621 1103.18 229.724 1103.71 229.724C1104.25 229.724 1104.77 229.629 1105.25 229.438C1105.75 229.233 1106.18 228.947 1106.53 228.58C1106.89 228.199 1107.18 227.737 1107.39 227.194C1107.61 226.637 1107.72 226.013 1107.72 225.324ZM1114.43 231H1112.73V214.94H1114.43V231ZM1129.51 225.302C1129.51 226.109 1129.36 226.879 1129.05 227.612C1128.76 228.331 1128.35 228.961 1127.82 229.504C1127.29 230.047 1126.66 230.479 1125.93 230.802C1125.19 231.11 1124.4 231.264 1123.55 231.264C1122.7 231.264 1121.92 231.11 1121.2 230.802C1120.48 230.479 1119.85 230.054 1119.33 229.526C1118.8 228.983 1118.39 228.353 1118.09 227.634C1117.8 226.915 1117.65 226.153 1117.65 225.346C1117.65 224.539 1117.8 223.777 1118.09 223.058C1118.39 222.325 1118.8 221.687 1119.33 221.144C1119.85 220.601 1120.48 220.176 1121.2 219.868C1121.93 219.545 1122.73 219.384 1123.59 219.384C1124.45 219.384 1125.23 219.545 1125.95 219.868C1126.68 220.176 1127.31 220.601 1127.84 221.144C1128.37 221.672 1128.78 222.295 1129.07 223.014C1129.37 223.733 1129.51 224.495 1129.51 225.302ZM1127.77 225.346C1127.77 224.73 1127.66 224.151 1127.44 223.608C1127.24 223.065 1126.95 222.596 1126.56 222.2C1126.18 221.789 1125.74 221.467 1125.22 221.232C1124.71 220.997 1124.15 220.88 1123.55 220.88C1122.93 220.88 1122.37 220.997 1121.86 221.232C1121.34 221.452 1120.9 221.767 1120.54 222.178C1120.18 222.574 1119.91 223.043 1119.7 223.586C1119.5 224.114 1119.39 224.686 1119.39 225.302C1119.39 225.918 1119.5 226.497 1119.7 227.04C1119.92 227.583 1120.21 228.052 1120.58 228.448C1120.96 228.844 1121.41 229.159 1121.92 229.394C1122.44 229.629 1122.99 229.746 1123.59 229.746C1124.21 229.746 1124.78 229.636 1125.29 229.416C1125.8 229.181 1126.24 228.866 1126.61 228.47C1126.98 228.074 1127.26 227.612 1127.47 227.084C1127.67 226.541 1127.77 225.962 1127.77 225.346ZM1142.23 219.626L1137.46 231.374C1136.98 232.547 1136.43 233.376 1135.83 233.86C1135.24 234.344 1134.53 234.586 1133.68 234.586C1133.21 234.586 1132.78 234.535 1132.4 234.432C1132.02 234.344 1131.64 234.205 1131.26 234.014L1131.83 232.672C1132.11 232.819 1132.38 232.921 1132.64 232.98C1132.92 233.053 1133.24 233.09 1133.61 233.09C1134.12 233.09 1134.56 232.936 1134.91 232.628C1135.26 232.32 1135.6 231.763 1135.94 230.956L1130.77 219.626H1132.64L1136.78 229.108L1140.43 219.626H1142.23ZM1153.93 221.65C1154.14 221.342 1154.37 221.049 1154.62 220.77C1154.88 220.491 1155.17 220.249 1155.5 220.044C1155.82 219.839 1156.18 219.677 1156.57 219.56C1156.98 219.443 1157.44 219.384 1157.94 219.384C1159.26 219.384 1160.29 219.795 1161.04 220.616C1161.79 221.423 1162.16 222.537 1162.16 223.96V231H1160.47V224.356C1160.47 223.256 1160.2 222.413 1159.68 221.826C1159.16 221.225 1158.44 220.924 1157.52 220.924C1157.09 220.924 1156.69 221.005 1156.31 221.166C1155.93 221.313 1155.59 221.54 1155.3 221.848C1155.02 222.141 1154.79 222.508 1154.62 222.948C1154.45 223.388 1154.37 223.887 1154.37 224.444V231H1152.7V224.312C1152.7 223.241 1152.44 222.413 1151.91 221.826C1151.4 221.225 1150.68 220.924 1149.78 220.924C1149.32 220.924 1148.9 221.012 1148.52 221.188C1148.14 221.364 1147.8 221.613 1147.51 221.936C1147.23 222.259 1147.01 222.64 1146.85 223.08C1146.69 223.505 1146.61 223.982 1146.61 224.51V231H1144.91V219.626H1146.61V221.54C1146.8 221.261 1147 220.99 1147.22 220.726C1147.46 220.462 1147.72 220.235 1148.02 220.044C1148.31 219.839 1148.64 219.677 1149.01 219.56C1149.37 219.443 1149.8 219.384 1150.28 219.384C1151.21 219.384 1151.97 219.604 1152.57 220.044C1153.17 220.469 1153.63 221.005 1153.93 221.65ZM1166.85 225.94C1166.91 226.556 1167.06 227.106 1167.29 227.59C1167.53 228.059 1167.83 228.463 1168.19 228.8C1168.56 229.123 1168.97 229.372 1169.43 229.548C1169.88 229.709 1170.36 229.79 1170.86 229.79C1171.65 229.79 1172.32 229.643 1172.88 229.35C1173.45 229.057 1173.97 228.668 1174.44 228.184L1175.5 229.13C1174.93 229.775 1174.27 230.296 1173.54 230.692C1172.81 231.073 1171.9 231.264 1170.81 231.264C1170.03 231.264 1169.3 231.125 1168.61 230.846C1167.92 230.553 1167.32 230.149 1166.81 229.636C1166.29 229.108 1165.88 228.477 1165.58 227.744C1165.28 227.011 1165.14 226.204 1165.14 225.324C1165.14 224.503 1165.27 223.733 1165.53 223.014C1165.81 222.281 1166.19 221.65 1166.68 221.122C1167.16 220.579 1167.73 220.154 1168.39 219.846C1169.07 219.538 1169.8 219.384 1170.59 219.384C1171.43 219.384 1172.18 219.545 1172.84 219.868C1173.5 220.176 1174.05 220.601 1174.51 221.144C1174.96 221.687 1175.31 222.325 1175.54 223.058C1175.78 223.791 1175.89 224.576 1175.89 225.412C1175.89 225.485 1175.89 225.566 1175.89 225.654C1175.89 225.742 1175.89 225.837 1175.87 225.94H1166.85ZM1166.85 224.686H1174.18C1174.13 224.173 1174.02 223.681 1173.85 223.212C1173.69 222.743 1173.45 222.332 1173.14 221.98C1172.85 221.628 1172.48 221.349 1172.04 221.144C1171.62 220.924 1171.12 220.814 1170.55 220.814C1170.05 220.814 1169.59 220.917 1169.16 221.122C1168.74 221.313 1168.36 221.584 1168.04 221.936C1167.72 222.273 1167.45 222.677 1167.25 223.146C1167.04 223.615 1166.91 224.129 1166.85 224.686ZM1180.55 224.488V231H1178.86V219.626H1180.55V221.606C1180.93 220.99 1181.43 220.469 1182.05 220.044C1182.66 219.604 1183.46 219.384 1184.45 219.384C1185.14 219.384 1185.74 219.494 1186.27 219.714C1186.82 219.934 1187.27 220.249 1187.64 220.66C1188.02 221.056 1188.3 221.533 1188.49 222.09C1188.7 222.647 1188.8 223.263 1188.8 223.938V231H1187.11V224.356C1187.11 223.3 1186.84 222.464 1186.29 221.848C1185.75 221.232 1184.97 220.924 1183.96 220.924C1183.48 220.924 1183.02 221.012 1182.6 221.188C1182.19 221.349 1181.83 221.591 1181.52 221.914C1181.21 222.222 1180.97 222.596 1180.79 223.036C1180.63 223.476 1180.55 223.96 1180.55 224.488ZM1194.7 221.122V227.766C1194.7 228.47 1194.88 228.961 1195.23 229.24C1195.58 229.519 1196.05 229.658 1196.62 229.658C1196.91 229.658 1197.18 229.629 1197.43 229.57C1197.7 229.511 1197.97 229.409 1198.27 229.262V230.714C1197.97 230.875 1197.66 230.993 1197.32 231.066C1197 231.154 1196.63 231.198 1196.22 231.198C1195.77 231.198 1195.34 231.139 1194.95 231.022C1194.55 230.905 1194.2 230.721 1193.91 230.472C1193.63 230.208 1193.41 229.871 1193.25 229.46C1193.09 229.049 1193.01 228.558 1193.01 227.986V221.122H1191.43V219.626H1193.01V216.194H1194.7V219.626H1198.31V221.122H1194.7ZM1203.14 231H1201.11V228.69H1203.14V231Z" fill="white"/>
</svg>
