<svg width="40" height="40" viewBox="0 0 40 40" fill="none" xmlns="http://www.w3.org/2000/svg">
<path d="M33.3337 29.3002C35.0858 28.5328 36.5206 27.1861 37.3972 25.4861C38.2738 23.786 38.5389 21.8362 38.148 19.9638C37.7571 18.0914 36.734 16.4105 35.2505 15.2032C33.7669 13.9959 31.9131 13.3358 30.0004 13.3335H27.9004C27.3721 11.2877 26.3651 9.39675 24.9626 7.81651C23.56 6.23626 21.8019 5.01197 19.8333 4.24454C17.8647 3.47712 15.7419 3.18853 13.6399 3.40258C11.5378 3.61662 9.51673 4.32717 7.74321 5.47564C5.96968 6.62412 4.49449 8.17765 3.43922 10.0082C2.38396 11.8387 1.77883 13.8938 1.67373 16.0041C1.56863 18.1144 1.96656 20.2194 2.83472 22.1458C3.70288 24.0721 5.01641 25.7645 6.66705 27.0835" stroke="#111119" stroke-width="2" stroke-linecap="round" stroke-linejoin="round"/>
<path d="M10.7938 27.0801H9.25375V20.0801H10.7938V27.0801ZM16.9931 27.0801H15.5231V26.5001C15.3365 26.7067 15.1131 26.8734 14.8531 27.0001C14.5931 27.1201 14.2765 27.1801 13.9031 27.1801C13.6498 27.1801 13.4098 27.1467 13.1831 27.0801C12.9631 27.0067 12.7698 26.9001 12.6031 26.7601C12.4365 26.6201 12.3031 26.4501 12.2031 26.2501C12.1098 26.0434 12.0631 25.8067 12.0631 25.5401V25.5201C12.0631 25.2267 12.1165 24.9734 12.2231 24.7601C12.3298 24.5467 12.4765 24.3701 12.6631 24.2301C12.8565 24.0901 13.0831 23.9867 13.3431 23.9201C13.6098 23.8467 13.9031 23.8101 14.2231 23.8101C14.4965 23.8101 14.7331 23.8301 14.9331 23.8701C15.1398 23.9101 15.3398 23.9634 15.5331 24.0301V23.9401C15.5331 23.6201 15.4365 23.3767 15.2431 23.2101C15.0498 23.0434 14.7631 22.9601 14.3831 22.9601C14.0898 22.9601 13.8298 22.9867 13.6031 23.0401C13.3831 23.0867 13.1498 23.1567 12.9031 23.2501L12.5231 22.0901C12.8165 21.9634 13.1231 21.8601 13.4431 21.7801C13.7631 21.7001 14.1498 21.6601 14.6031 21.6601C15.4365 21.6601 16.0431 21.8634 16.4231 22.2701C16.8031 22.6767 16.9931 23.2434 16.9931 23.9701V27.0801ZM15.5531 25.1901V24.9201C15.4198 24.8601 15.2698 24.8134 15.1031 24.7801C14.9431 24.7401 14.7698 24.7201 14.5831 24.7201C14.2565 24.7201 13.9998 24.7834 13.8131 24.9101C13.6265 25.0367 13.5331 25.2201 13.5331 25.4601V25.4801C13.5331 25.6867 13.6098 25.8467 13.7631 25.9601C13.9165 26.0734 14.1165 26.1301 14.3631 26.1301C14.7231 26.1301 15.0098 26.0434 15.2231 25.8701C15.4431 25.6967 15.5531 25.4701 15.5531 25.1901ZM22.9111 27.0801H21.4411V26.5001C21.2544 26.7067 21.0311 26.8734 20.7711 27.0001C20.5111 27.1201 20.1944 27.1801 19.8211 27.1801C19.5678 27.1801 19.3278 27.1467 19.1011 27.0801C18.8811 27.0067 18.6878 26.9001 18.5211 26.7601C18.3544 26.6201 18.2211 26.4501 18.1211 26.2501C18.0278 26.0434 17.9811 25.8067 17.9811 25.5401V25.5201C17.9811 25.2267 18.0344 24.9734 18.1411 24.7601C18.2478 24.5467 18.3944 24.3701 18.5811 24.2301C18.7744 24.0901 19.0011 23.9867 19.2611 23.9201C19.5278 23.8467 19.8211 23.8101 20.1411 23.8101C20.4144 23.8101 20.6511 23.8301 20.8511 23.8701C21.0578 23.9101 21.2578 23.9634 21.4511 24.0301V23.9401C21.4511 23.6201 21.3544 23.3767 21.1611 23.2101C20.9678 23.0434 20.6811 22.9601 20.3011 22.9601C20.0078 22.9601 19.7478 22.9867 19.5211 23.0401C19.3011 23.0867 19.0678 23.1567 18.8211 23.2501L18.4411 22.0901C18.7344 21.9634 19.0411 21.8601 19.3611 21.7801C19.6811 21.7001 20.0678 21.6601 20.5211 21.6601C21.3544 21.6601 21.9611 21.8634 22.3411 22.2701C22.7211 22.6767 22.9111 23.2434 22.9111 23.9701V27.0801ZM21.4711 25.1901V24.9201C21.3378 24.8601 21.1878 24.8134 21.0211 24.7801C20.8611 24.7401 20.6878 24.7201 20.5011 24.7201C20.1744 24.7201 19.9178 24.7834 19.7311 24.9101C19.5444 25.0367 19.4511 25.2201 19.4511 25.4601V25.4801C19.4511 25.6867 19.5278 25.8467 19.6811 25.9601C19.8344 26.0734 20.0344 26.1301 20.2811 26.1301C20.6411 26.1301 20.9278 26.0434 21.1411 25.8701C21.3611 25.6967 21.4711 25.4701 21.4711 25.1901ZM29.4391 25.0101C29.4391 25.3567 29.3757 25.6667 29.2491 25.9401C29.1224 26.2067 28.9457 26.4334 28.7191 26.6201C28.4924 26.8001 28.2224 26.9401 27.9091 27.0401C27.5957 27.1334 27.2491 27.1801 26.8691 27.1801C26.3357 27.1801 25.8124 27.0901 25.2991 26.9101C24.7857 26.7234 24.3191 26.4401 23.8991 26.0601L24.8091 24.9701C25.1291 25.2301 25.4557 25.4367 25.7891 25.5901C26.1291 25.7434 26.4991 25.8201 26.8991 25.8201C27.2191 25.8201 27.4657 25.7634 27.6391 25.6501C27.8191 25.5301 27.9091 25.3667 27.9091 25.1601V25.1401C27.9091 25.0401 27.8891 24.9534 27.8491 24.8801C27.8157 24.8001 27.7457 24.7267 27.6391 24.6601C27.5391 24.5934 27.3957 24.5267 27.2091 24.4601C27.0291 24.3934 26.7924 24.3234 26.4991 24.2501C26.1457 24.1634 25.8257 24.0667 25.5391 23.9601C25.2524 23.8534 25.0091 23.7234 24.8091 23.5701C24.6091 23.4101 24.4524 23.2134 24.3391 22.9801C24.2324 22.7467 24.1791 22.4567 24.1791 22.1101V22.0901C24.1791 21.7701 24.2391 21.4834 24.3591 21.2301C24.4791 20.9701 24.6457 20.7467 24.8591 20.5601C25.0791 20.3734 25.3391 20.2301 25.6391 20.1301C25.9391 20.0301 26.2691 19.9801 26.6291 19.9801C27.1424 19.9801 27.6124 20.0567 28.0391 20.2101C28.4724 20.3634 28.8691 20.5834 29.2291 20.8701L28.4291 22.0301C28.1157 21.8167 27.8091 21.6501 27.5091 21.5301C27.2091 21.4034 26.9091 21.3401 26.6091 21.3401C26.3091 21.3401 26.0824 21.4001 25.9291 21.5201C25.7824 21.6334 25.7091 21.7767 25.7091 21.9501V21.9701C25.7091 22.0834 25.7291 22.1834 25.7691 22.2701C25.8157 22.3501 25.8957 22.4234 26.0091 22.4901C26.1224 22.5567 26.2757 22.6201 26.4691 22.6801C26.6691 22.7401 26.9191 22.8101 27.2191 22.8901C27.5724 22.9834 27.8857 23.0901 28.1591 23.2101C28.4391 23.3234 28.6724 23.4634 28.8591 23.6301C29.0524 23.7901 29.1957 23.9801 29.2891 24.2001C29.3891 24.4201 29.4391 24.6834 29.4391 24.9901V25.0101Z" fill="#111119"/>
</svg>
