<svg width="40" height="40" viewBox="0 0 40 40" fill="none" xmlns="http://www.w3.org/2000/svg">
<path d="M16.9391 29.8235H13.5C11.7273 29.8235 10.1673 29.2353 8.90273 27.9765C7.63818 26.7412 7 25.2235 7 23.4471C7 21.9176 7.46091 20.5529 8.38273 19.3529C9.28164 18.1797 10.573 17.3659 12.0227 17.0588C12.5191 15.2588 13.5 13.8 14.9773 12.6824C16.4545 11.5882 18.1327 11 20 11C22.3045 11 24.2664 11.8 25.8618 13.4C27.4691 14.9882 28.2727 16.9412 28.2727 19.2353C29.6318 19.3882 30.7664 19.9765 31.6527 21C32.4091 21.8588 32.8345 22.8353 32.9527 23.9412H30.5891C30.4709 23.3529 30.2109 22.8706 29.7736 22.4471C29.2064 21.8706 28.5091 21.5882 27.6818 21.5882H25.9091V19.2353C25.9091 17.6118 25.3182 16.2235 24.1836 15.0706C23.0373 13.9412 21.6427 13.3529 20 13.3529C18.3691 13.3529 16.9745 13.9412 15.8164 15.0706C14.6818 16.2235 14.0909 17.6118 14.0909 19.2353H13.5C12.3536 19.2353 11.3845 19.6353 10.5809 20.4471C9.76545 21.2471 9.36364 22.2118 9.36364 23.3529C9.36364 24.4941 9.76545 25.4706 10.5809 26.2941C11.3845 27.0824 12.3536 27.4706 13.5 27.4706H16.4545C16.4545 28.3176 16.6318 29.1059 16.9391 29.8235ZM33 26.2941V28.6471H30.6364V31H28.2727V28.6471H25.6727C25.2 30.0588 23.9 31 22.3636 31C20.3545 31 18.8182 29.4706 18.8182 27.4706C18.8182 25.4706 20.3545 23.9412 22.3636 23.9412C23.9 23.9412 25.2 24.8824 25.6727 26.2941H33ZM23.5455 27.4706C23.5455 26.8824 23.0727 26.2941 22.3636 26.2941C21.6545 26.2941 21.1818 26.8824 21.1818 27.4706C21.1818 28.0588 21.6545 28.6471 22.3636 28.6471C23.0727 28.6471 23.5455 28.0588 23.5455 27.4706Z" fill="#111119"/>
</svg>
