<svg width="40" height="40" viewBox="0 0 40 40" fill="none" xmlns="http://www.w3.org/2000/svg">
<g clip-path="url(#clip0_1217_13235)">
<path d="M24.0174 22.7718C22.9145 24.0289 21.5717 25.0575 20.0603 25.8032V30.0889C20.0603 30.4678 19.9097 30.8312 19.6418 31.0991C19.3739 31.367 19.0106 31.5175 18.6317 31.5175H10.0603C9.68137 31.5175 9.31801 31.367 9.0501 31.0991C8.78219 30.8312 8.63168 30.4678 8.63168 30.0889V25.8032C5.62124 24.3006 3.3198 21.6777 2.22124 18.4974C1.12267 15.3172 1.31453 11.8331 2.75563 8.79268C4.19674 5.75229 6.77225 3.39796 9.92948 2.23493C13.0867 1.07189 16.574 1.19283 19.6431 2.57178M8.63168 38.5718H20.0603" stroke="#111119" stroke-width="2" stroke-linecap="round" stroke-linejoin="round"/>
<path d="M21.1291 11.2402C20.1262 11.0659 20.1262 9.62589 21.1291 9.4516C22.9048 9.14256 24.5482 8.31173 25.8498 7.06504C27.1515 5.81836 28.0524 4.21229 28.4377 2.4516L28.4977 2.1716C28.7148 1.18017 30.1262 1.17446 30.352 2.16303L30.4262 2.48589C30.8264 4.23861 31.7354 5.83404 33.0393 7.07181C34.3432 8.30959 35.9837 9.13453 37.7548 9.44303C38.7634 9.62017 38.7634 11.0659 37.7548 11.243C35.9842 11.552 34.3443 12.3772 33.041 13.615C31.7377 14.8527 30.829 16.4478 30.4291 18.2002L30.3548 18.523C30.1291 19.5116 28.7177 19.5059 28.5005 18.5145L28.4434 18.2373C28.0577 16.4758 27.1559 14.8692 25.8532 13.6225C24.5505 12.3757 22.9058 11.5482 21.1291 11.2402Z" stroke="#111119" stroke-width="2" stroke-linecap="round" stroke-linejoin="round"/>
</g>
<defs>
<clipPath id="clip0_1217_13235">
<rect width="40" height="40" fill="white"/>
</clipPath>
</defs>
</svg>
