<svg width="40" height="40" viewBox="0 0 40 40" fill="none" xmlns="http://www.w3.org/2000/svg">
<g clip-path="url(#clip0_1217_13222)">
<path d="M32.3492 17.4945L32.7376 17.4473L32.9212 17.1017L34.23 14.637L35.4542 17.0854L35.6351 17.4473L36.0369 17.4948L38.7689 17.818L36.8729 19.5266L36.5735 19.7964L36.6333 20.195L37.0167 22.751L34.6475 21.2703L34.25 21.0218L33.8525 21.2703L31.4833 22.751L31.8667 20.195L31.9265 19.7964L31.6271 19.5266L29.7259 17.8133L32.3492 17.4945Z" stroke="#111119" stroke-width="1.5"/>
<path d="M18.3492 31.4945L18.7376 31.4473L18.9212 31.1017L20.23 28.637L21.4542 31.0854L21.6351 31.4473L22.0369 31.4948L24.7689 31.818L22.8729 33.5266L22.5735 33.7964L22.6333 34.195L23.0167 36.751L20.6475 35.2703L20.25 35.0218L19.8525 35.2703L17.4833 36.751L17.8667 34.195L17.9265 33.7964L17.6271 33.5266L15.7259 31.8133L18.3492 31.4945Z" stroke="#111119" stroke-width="1.5"/>
<path d="M4.34922 17.4945L4.73765 17.4473L4.92115 17.1017L6.22995 14.637L7.45418 17.0854L7.63512 17.4473L8.0369 17.4948L10.7689 17.818L8.87291 19.5266L8.57351 19.7964L8.6333 20.195L9.01674 22.751L6.6475 21.2703L6.25 21.0218L5.8525 21.2703L3.48326 22.751L3.8667 20.195L3.92649 19.7964L3.62709 19.5266L1.72594 17.8133L4.34922 17.4945Z" stroke="#111119" stroke-width="1.5"/>
<path d="M27 26H25.1429V21.6818C25.1421 20.9949 24.8484 20.3363 24.3261 19.8505C23.8039 19.3648 23.0957 19.0916 22.3571 19.0909H18.6429C17.9043 19.0916 17.1961 19.3648 16.6739 19.8505C16.1516 20.3363 15.8579 20.9949 15.8571 21.6818V26H14V21.6818C14.0015 20.537 14.4911 19.4394 15.3615 18.6299C16.2319 17.8204 17.4119 17.365 18.6429 17.3636H22.3571C23.5881 17.365 24.7681 17.8204 25.6385 18.6299C26.5089 19.4394 26.9985 20.537 27 21.6818V26ZM20.5 8.72727C21.051 8.72727 21.5896 8.87923 22.0477 9.16392C22.5058 9.44861 22.8628 9.85326 23.0737 10.3267C23.2845 10.8001 23.3397 11.3211 23.2322 11.8236C23.1247 12.3262 22.8594 12.7879 22.4698 13.1502C22.0802 13.5126 21.5838 13.7593 21.0435 13.8593C20.5031 13.9593 19.943 13.908 19.434 13.7119C18.9249 13.5158 18.4899 13.1837 18.1838 12.7576C17.8777 12.3315 17.7143 11.8306 17.7143 11.3182C17.7143 10.631 18.0078 9.97202 18.5302 9.48613C19.0526 9.00024 19.7612 8.72727 20.5 8.72727ZM20.5 7C19.5817 7 18.6841 7.25326 17.9206 7.72775C17.1571 8.20223 16.562 8.87664 16.2106 9.66569C15.8592 10.4547 15.7672 11.323 15.9464 12.1606C16.1255 12.9983 16.5677 13.7677 17.217 14.3716C17.8663 14.9755 18.6936 15.3868 19.5942 15.5534C20.4948 15.72 21.4284 15.6345 22.2767 15.3077C23.1251 14.9808 23.8502 14.4274 24.3604 13.7172C24.8706 13.0071 25.1429 12.1722 25.1429 11.3182C25.1429 10.7511 25.0228 10.1896 24.7894 9.66569C24.5561 9.14178 24.2141 8.66575 23.783 8.26477C23.3519 7.86379 22.84 7.54571 22.2767 7.3287C21.7134 7.11169 21.1097 7 20.5 7Z" fill="#111119"/>
</g>
<defs>
<clipPath id="clip0_1217_13222">
<rect width="40" height="40" fill="white"/>
</clipPath>
</defs>
</svg>
