<svg width="40" height="40" viewBox="0 0 40 40" fill="none" xmlns="http://www.w3.org/2000/svg">
<path d="M36.6663 20.588C36.6663 25.0997 33.4547 28.8713 29.1663 29.788M10.4763 29.9997C6.53134 29.9997 3.33301 26.8397 3.33301 22.9413C3.33301 19.0413 6.53134 15.8813 10.4763 15.8813C10.9497 15.8813 11.413 15.928 11.8597 16.0147M23.968 11.7113C24.9887 11.3557 26.0621 11.1748 27.143 11.1763C28.233 11.1763 29.2813 11.358 30.2597 11.6913M30.2597 11.6913C29.728 6.98967 25.693 3.33301 20.793 3.33301C15.533 3.33301 11.2697 7.54634 11.268 12.7447C11.2666 13.8613 11.4665 14.969 11.858 16.0147C12.7802 16.1938 13.658 16.5528 14.4413 17.0713M30.2597 11.6913C31.3843 12.0758 32.4256 12.6671 33.333 13.4347" stroke="#111119" stroke-width="2" stroke-linecap="round"/>
<path d="M14.166 28.333C14.166 25.9763 14.166 24.798 14.8993 24.0663C15.631 23.333 16.8093 23.333 19.166 23.333H20.8327C23.1893 23.333 24.3677 23.333 25.0994 24.0663C25.8327 24.798 25.8327 25.9763 25.8327 28.333V31.6663C25.8327 34.023 25.8327 35.2013 25.0994 35.933C24.3677 36.6663 23.1893 36.6663 20.8327 36.6663H19.166C16.8093 36.6663 15.631 36.6663 14.8993 35.933C14.166 35.2013 14.166 34.023 14.166 31.6663V28.333Z" stroke="#111119" stroke-width="2"/>
<path d="M18.333 30H21.6663" stroke="#111119" stroke-width="2" stroke-linecap="round" stroke-linejoin="round"/>
</svg>
