<svg width="50" height="50" viewBox="0 0 50 50" fill="none" xmlns="http://www.w3.org/2000/svg">
<g clip-path="url(#clip0_1286_13426)">
<path d="M40.3469 15.8187C39.6642 12.2486 37.7582 9.0283 34.957 6.71208C32.1559 4.39585 28.6348 3.12866 25.0001 3.12866C21.3653 3.12866 17.8443 4.39585 15.0431 6.71208C12.2419 9.0283 10.3359 12.2486 9.65319 15.8187C6.76938 16.332 4.18258 17.9072 2.4029 20.2337C0.623233 22.5602 -0.220118 25.4691 0.039166 28.3867C0.29845 31.3044 1.64155 34.0189 3.80359 35.9951C5.96563 37.9714 8.78968 39.0657 11.7188 39.0624H12.5001V35.9374H11.7188C9.48843 35.9432 7.3433 35.081 5.73733 33.5333C4.13136 31.9856 3.19057 29.8737 3.11404 27.6446C3.0375 25.4156 3.83123 23.2442 5.32725 21.5899C6.82328 19.9357 8.90423 18.9284 11.1298 18.7812L12.436 18.6921L12.5766 17.3906C12.9101 14.3285 14.3626 11.4975 16.6554 9.44075C18.9483 7.38401 21.9199 6.2465 25.0001 6.2465C28.0802 6.2465 31.0519 7.38401 33.3447 9.44075C35.6376 11.4975 37.0901 14.3285 37.4235 17.3906L37.5641 18.6921L38.8704 18.7828C41.0914 18.9358 43.1662 19.9454 44.6572 21.5987C46.1482 23.2519 46.9389 25.4197 46.8625 27.6446C46.7861 29.8696 45.8486 31.978 44.2477 33.5251C42.6468 35.0722 40.5076 35.9371 38.2813 35.9374H37.5001V39.0624H38.2813C41.2104 39.0657 44.0345 37.9714 46.1965 35.9951C48.3586 34.0189 49.7017 31.3044 49.961 28.3867C50.2202 25.4691 49.3769 22.5602 47.5972 20.2337C45.8175 17.9072 43.2307 16.332 40.3469 15.8187Z" fill="#111119"/>
<path d="M35.9375 34.375V31.25H32.6547C32.4532 30.2719 32.0648 29.3419 31.5109 28.5109L33.8391 26.1828L31.6297 23.9734L29.3016 26.3016C28.4706 25.7477 27.5406 25.3593 26.5625 25.1578V21.875H23.4375V25.1578C22.4594 25.3593 21.5294 25.7477 20.6984 26.3016L18.3703 23.9734L16.1609 26.1828L18.4891 28.5109C17.9352 29.3419 17.5468 30.2719 17.3453 31.25H14.0625V34.375H17.3453C17.5468 35.3531 17.9352 36.2831 18.4891 37.1141L16.1609 39.4422L18.3703 41.6516L20.6984 39.3234C21.5294 39.8773 22.4594 40.2657 23.4375 40.4672V43.75H26.5625V40.4672C27.5406 40.2657 28.4706 39.8773 29.3016 39.3234L31.6297 41.6516L33.8391 39.4422L31.5109 37.1141C32.0648 36.2831 32.4532 35.3531 32.6547 34.375H35.9375ZM25 37.5C24.0729 37.5 23.1666 37.2251 22.3958 36.71C21.6249 36.1949 21.0241 35.4629 20.6693 34.6063C20.3145 33.7498 20.2217 32.8073 20.4026 31.898C20.5834 30.9887 21.0299 30.1535 21.6854 29.4979C22.341 28.8424 23.1762 28.3959 24.0855 28.2151C24.9948 28.0342 25.9373 28.127 26.7938 28.4818C27.6504 28.8366 28.3824 29.4374 28.8975 30.2083C29.4126 30.9791 29.6875 31.8854 29.6875 32.8125C29.6863 34.0553 29.192 35.2469 28.3132 36.1257C27.4344 37.0045 26.2428 37.4988 25 37.5Z" fill="#111119"/>
</g>
<defs>
<clipPath id="clip0_1286_13426">
<rect width="50" height="50" fill="white"/>
</clipPath>
</defs>
</svg>
