<svg width="50" height="50" viewBox="0 0 50 50" fill="none" xmlns="http://www.w3.org/2000/svg">
<path d="M18.5 2V47.8333" stroke="#111119" stroke-width="3" stroke-linecap="round" stroke-linejoin="round"/>
<path d="M28.9167 10.3335H13.2917C11.3578 10.3335 9.50313 11.1017 8.13568 12.4692C6.76823 13.8366 6 15.6913 6 17.6252C6 19.559 6.76823 21.4137 8.13568 22.7811C9.50313 24.1486 11.3578 24.9168 13.2917 24.9168H23.7083C25.6422 24.9168 27.4969 25.6851 28.8643 27.0525C30.2318 28.42 31 30.2746 31 32.2085C31 34.1424 30.2318 35.997 28.8643 37.3645C27.4969 38.7319 25.6422 39.5002 23.7083 39.5002H6" stroke="#111119" stroke-width="3" stroke-linecap="round" stroke-linejoin="round"/>
<path d="M38 25L38 48" stroke="#111119" stroke-width="3" stroke-linecap="round" stroke-linejoin="round"/>
<path d="M45 41L38 48L31 41" stroke="#111119" stroke-width="3" stroke-linecap="round" stroke-linejoin="round"/>
</svg>
