<svg width="53" height="39" viewBox="0 0 53 39" fill="none" xmlns="http://www.w3.org/2000/svg">
<path d="M16.9159 19.2222H1.53833" stroke="#111119" stroke-width="2" stroke-linecap="round" stroke-linejoin="round"/>
<path d="M4.19071 13.9243L1.53809 19.2218V23.8351C1.53809 24.2429 1.7001 24.6341 1.98848 24.9224C2.27687 25.2108 2.668 25.3728 3.07584 25.3728H15.3779C15.7857 25.3728 16.1768 25.2108 16.4652 24.9224C16.7536 24.6341 16.9156 24.2429 16.9156 23.8351V19.2218L14.263 13.9243C14.1357 13.6681 13.9394 13.4524 13.6963 13.3017C13.4532 13.1509 13.1728 13.071 12.8867 13.0708H5.567C5.28091 13.071 5.00054 13.1509 4.75741 13.3017C4.51427 13.4524 4.31802 13.6681 4.19071 13.9243Z" stroke="#111119" stroke-width="2" stroke-linecap="round" stroke-linejoin="round"/>
<path d="M4.61426 22.2974H4.62195" stroke="#111119" stroke-width="2" stroke-linecap="round" stroke-linejoin="round"/>
<path d="M7.68945 22.2974H7.69714" stroke="#111119" stroke-width="2" stroke-linecap="round" stroke-linejoin="round"/>
<rect x="22.5286" y="1" width="28.7551" height="36.4439" rx="2.84439" stroke="#111119" stroke-width="2"/>
<rect x="26.9812" y="5.63184" width="19.5286" height="3.482" stroke="#111119" stroke-width="2"/>
<rect x="26.9812" y="12.6514" width="7.9954" height="6.5898" stroke="#111119" stroke-width="2"/>
<rect x="38.5144" y="12.6514" width="7.9954" height="6.5898" stroke="#111119" stroke-width="2"/>
<path d="M25.9817 23H35.9681" stroke="#111119" stroke-width="2"/>
<path d="M25.9817 28H35.9681" stroke="#111119" stroke-width="2"/>
<path d="M25.9817 33H35.9681" stroke="#111119" stroke-width="2"/>
</svg>
