<svg width="42" height="41" viewBox="0 0 42 41" fill="none" xmlns="http://www.w3.org/2000/svg">
<path d="M35.8908 25.0393C36.3946 23.4494 36.6663 21.7563 36.6663 19.9997C36.6663 10.7949 29.2044 3.33301 19.9997 3.33301C10.7949 3.33301 3.33301 10.7949 3.33301 19.9997C3.33301 29.2044 10.7949 36.6663 19.9997 36.6663C21.7063 36.6663 23.353 36.4098 24.9033 35.9333" stroke="#111119" stroke-width="2" stroke-linecap="round" stroke-linejoin="round"/>
<path d="M3.33301 20H36.6663" stroke="#111119" stroke-width="2" stroke-linecap="round" stroke-linejoin="round"/>
<path d="M19.9997 3.33301C24.1685 7.89693 26.5376 13.8197 26.6663 19.9997C26.5376 26.1796 24.1685 32.1024 19.9997 36.6663C15.8309 32.1024 13.4618 26.1796 13.333 19.9997C13.4618 13.8197 15.8309 7.89693 19.9997 3.33301Z" stroke="#111119" stroke-width="2" stroke-linecap="round" stroke-linejoin="round"/>
<path d="M40.3675 39.0999L30.0713 28.8037" stroke="#111119" stroke-width="2" stroke-linecap="round" stroke-linejoin="round"/>
<path d="M30.0713 39.0999V28.8037H40.3675" stroke="#111119" stroke-width="2" stroke-linecap="round" stroke-linejoin="round"/>
</svg>
