<svg width="31" height="39" viewBox="0 0 31 39" fill="none" xmlns="http://www.w3.org/2000/svg">
<path d="M12.8072 35.0186C13.1435 35.0186 13.4161 34.746 13.4161 34.4097C13.4161 34.0734 13.1435 33.8008 12.8072 33.8008C12.4709 33.8008 12.1982 34.0734 12.1982 34.4097C12.1982 34.746 12.4709 35.0186 12.8072 35.0186Z" stroke="#111119" stroke-width="2" stroke-linecap="round" stroke-linejoin="round"/>
<path d="M19.5071 35.0186C19.8434 35.0186 20.1161 34.746 20.1161 34.4097C20.1161 34.0734 19.8434 33.8008 19.5071 33.8008C19.1708 33.8008 18.8982 34.0734 18.8982 34.4097C18.8982 34.746 19.1708 35.0186 19.5071 35.0186Z" stroke="#111119" stroke-width="2" stroke-linecap="round" stroke-linejoin="round"/>
<path d="M7.9375 22.2314H10.3732L12.0052 30.385C12.0608 30.6654 12.2134 30.9172 12.436 31.0964C12.6587 31.2757 12.9372 31.3709 13.223 31.3654H19.1418C19.4276 31.3709 19.7062 31.2757 19.9288 31.0964C20.1515 30.9172 20.304 30.6654 20.3597 30.385L21.334 25.2761H10.9822" stroke="#111119" stroke-width="2" stroke-linecap="round" stroke-linejoin="round"/>
<rect x="1" y="1" width="28.7551" height="36.4439" rx="2.84439" stroke="#111119" stroke-width="2"/>
<rect x="5.45312" y="5.63184" width="19.5286" height="3.482" stroke="#111119" stroke-width="2"/>
<rect x="5.222" y="12.4202" width="8.45765" height="7.05204" stroke="#111119" stroke-width="1.53775"/>
<rect x="16.7552" y="12.4202" width="8.45765" height="7.05204" stroke="#111119" stroke-width="1.53775"/>
</svg>
