<svg width="40" height="40" viewBox="0 0 40 40" fill="none" xmlns="http://www.w3.org/2000/svg">
<rect x="5.62207" y="1.77832" width="28.7551" height="36.4439" rx="2.84439" stroke="#111119" stroke-width="2"/>
<rect x="10.0752" y="6.41016" width="19.5286" height="3.482" stroke="#111119" stroke-width="2"/>
<rect x="9.84407" y="13.1986" width="8.45765" height="7.05204" stroke="#111119" stroke-width="1.53775"/>
<rect x="21.3773" y="13.1986" width="8.45765" height="7.05204" stroke="#111119" stroke-width="1.53775"/>
<path d="M15.49 31.6532C15.31 31.8465 15.1233 32.0199 14.93 32.1732C14.7367 32.3265 14.5233 32.4599 14.29 32.5732C14.0633 32.6799 13.8133 32.7599 13.54 32.8132C13.2667 32.8732 12.96 32.9032 12.62 32.9032C12.1067 32.9032 11.63 32.8099 11.19 32.6232C10.75 32.4365 10.37 32.1832 10.05 31.8632C9.73 31.5365 9.48 31.1532 9.3 30.7132C9.12 30.2732 9.03 29.8032 9.03 29.3032V29.2832C9.03 28.7832 9.12 28.3165 9.3 27.8832C9.48 27.4432 9.73 27.0599 10.05 26.7332C10.37 26.3999 10.7533 26.1399 11.2 25.9532C11.6467 25.7599 12.14 25.6632 12.68 25.6632C13.0067 25.6632 13.3033 25.6899 13.57 25.7432C13.8433 25.7965 14.09 25.8699 14.31 25.9632C14.53 26.0565 14.7333 26.1699 14.92 26.3032C15.1067 26.4365 15.28 26.5832 15.44 26.7432L14.46 27.8732C14.1867 27.6265 13.9067 27.4332 13.62 27.2932C13.34 27.1532 13.0233 27.0832 12.67 27.0832C12.3767 27.0832 12.1033 27.1399 11.85 27.2532C11.6033 27.3665 11.39 27.5232 11.21 27.7232C11.03 27.9232 10.89 28.1565 10.79 28.4232C10.69 28.6832 10.64 28.9632 10.64 29.2632V29.2832C10.64 29.5832 10.69 29.8665 10.79 30.1332C10.89 30.3999 11.0267 30.6332 11.2 30.8332C11.38 31.0332 11.5933 31.1932 11.84 31.3132C12.0933 31.4265 12.37 31.4832 12.67 31.4832C13.07 31.4832 13.4067 31.4099 13.68 31.2632C13.96 31.1165 14.2367 30.9165 14.51 30.6632L15.49 31.6532ZM22.7728 32.7832H20.9728L19.4728 30.5432H18.2628V32.7832H16.7228V25.7832H19.9228C20.7561 25.7832 21.4028 25.9865 21.8628 26.3932C22.3295 26.7999 22.5628 27.3665 22.5628 28.0932V28.1132C22.5628 28.6799 22.4228 29.1432 22.1428 29.5032C21.8695 29.8565 21.5095 30.1165 21.0628 30.2832L22.7728 32.7832ZM21.0028 28.1932V28.1732C21.0028 27.8399 20.8961 27.5899 20.6828 27.4232C20.4695 27.2565 20.1728 27.1732 19.7928 27.1732H18.2628V29.1832H19.8228C20.2028 29.1832 20.4928 29.0932 20.6928 28.9132C20.8995 28.7332 21.0028 28.4932 21.0028 28.1932ZM30.9494 32.7832H29.4194V28.2132L27.4494 31.2032H27.4094L25.4594 28.2432V32.7832H23.9494V25.7832H25.6094L27.4494 28.7432L29.2894 25.7832H30.9494V32.7832Z" fill="#111119"/>
</svg>
