<svg width="40" height="40" viewBox="0 0 40 40" fill="none" xmlns="http://www.w3.org/2000/svg">
<rect x="5.62207" y="1.77832" width="28.7551" height="36.4439" rx="2.84439" stroke="#111119" stroke-width="2"/>
<rect x="10.0752" y="6.41016" width="19.5286" height="3.482" stroke="#111119" stroke-width="2"/>
<rect x="9.84407" y="13.1986" width="8.45765" height="7.05204" stroke="#111119" stroke-width="1.53775"/>
<rect x="21.3773" y="13.1986" width="8.45765" height="7.05204" stroke="#111119" stroke-width="1.53775"/>
<path d="M15.49 31.6532C15.31 31.8465 15.1233 32.0199 14.93 32.1732C14.7367 32.3265 14.5233 32.4599 14.29 32.5732C14.0633 32.6799 13.8133 32.7599 13.54 32.8132C13.2667 32.8732 12.96 32.9032 12.62 32.9032C12.1067 32.9032 11.63 32.8099 11.19 32.6232C10.75 32.4365 10.37 32.1832 10.05 31.8632C9.73 31.5365 9.48 31.1532 9.3 30.7132C9.12 30.2732 9.03 29.8032 9.03 29.3032V29.2832C9.03 28.7832 9.12 28.3165 9.3 27.8832C9.48 27.4432 9.73 27.0599 10.05 26.7332C10.37 26.3999 10.7533 26.1399 11.2 25.9532C11.6467 25.7599 12.14 25.6632 12.68 25.6632C13.0067 25.6632 13.3033 25.6899 13.57 25.7432C13.8433 25.7965 14.09 25.8699 14.31 25.9632C14.53 26.0565 14.7333 26.1699 14.92 26.3032C15.1067 26.4365 15.28 26.5832 15.44 26.7432L14.46 27.8732C14.1867 27.6265 13.9067 27.4332 13.62 27.2932C13.34 27.1532 13.0233 27.0832 12.67 27.0832C12.3767 27.0832 12.1033 27.1399 11.85 27.2532C11.6033 27.3665 11.39 27.5232 11.21 27.7232C11.03 27.9232 10.89 28.1565 10.79 28.4232C10.69 28.6832 10.64 28.9632 10.64 29.2632V29.2832C10.64 29.5832 10.69 29.8665 10.79 30.1332C10.89 30.3999 11.0267 30.6332 11.2 30.8332C11.38 31.0332 11.5933 31.1932 11.84 31.3132C12.0933 31.4265 12.37 31.4832 12.67 31.4832C13.07 31.4832 13.4067 31.4099 13.68 31.2632C13.96 31.1165 14.2367 30.9165 14.51 30.6632L15.49 31.6532ZM23.7228 32.7832H22.1928V28.2132L20.2228 31.2032H20.1828L18.2328 28.2432V32.7832H16.7228V25.7832H18.3828L20.2228 28.7432L22.0628 25.7832H23.7228V32.7832ZM30.4645 30.7132C30.4645 31.0599 30.4011 31.3699 30.2745 31.6432C30.1478 31.9099 29.9711 32.1365 29.7445 32.3232C29.5178 32.5032 29.2478 32.6432 28.9345 32.7432C28.6211 32.8365 28.2745 32.8832 27.8945 32.8832C27.3611 32.8832 26.8378 32.7932 26.3245 32.6132C25.8111 32.4265 25.3445 32.1432 24.9245 31.7632L25.8345 30.6732C26.1545 30.9332 26.4811 31.1399 26.8145 31.2932C27.1545 31.4465 27.5245 31.5232 27.9245 31.5232C28.2445 31.5232 28.4911 31.4665 28.6645 31.3532C28.8445 31.2332 28.9345 31.0699 28.9345 30.8632V30.8432C28.9345 30.7432 28.9145 30.6565 28.8745 30.5832C28.8411 30.5032 28.7711 30.4299 28.6645 30.3632C28.5645 30.2965 28.4211 30.2299 28.2345 30.1632C28.0545 30.0965 27.8178 30.0265 27.5245 29.9532C27.1711 29.8665 26.8511 29.7699 26.5645 29.6632C26.2778 29.5565 26.0345 29.4265 25.8345 29.2732C25.6345 29.1132 25.4778 28.9165 25.3645 28.6832C25.2578 28.4499 25.2045 28.1599 25.2045 27.8132V27.7932C25.2045 27.4732 25.2645 27.1865 25.3845 26.9332C25.5045 26.6732 25.6711 26.4499 25.8845 26.2632C26.1045 26.0765 26.3645 25.9332 26.6645 25.8332C26.9645 25.7332 27.2945 25.6832 27.6545 25.6832C28.1678 25.6832 28.6378 25.7599 29.0645 25.9132C29.4978 26.0665 29.8945 26.2865 30.2545 26.5732L29.4545 27.7332C29.1411 27.5199 28.8345 27.3532 28.5345 27.2332C28.2345 27.1065 27.9345 27.0432 27.6345 27.0432C27.3345 27.0432 27.1078 27.1032 26.9545 27.2232C26.8078 27.3365 26.7345 27.4799 26.7345 27.6532V27.6732C26.7345 27.7865 26.7545 27.8865 26.7945 27.9732C26.8411 28.0532 26.9211 28.1265 27.0345 28.1932C27.1478 28.2599 27.3011 28.3232 27.4945 28.3832C27.6945 28.4432 27.9445 28.5132 28.2445 28.5932C28.5978 28.6865 28.9111 28.7932 29.1845 28.9132C29.4645 29.0265 29.6978 29.1665 29.8845 29.3332C30.0778 29.4932 30.2211 29.6832 30.3145 29.9032C30.4145 30.1232 30.4645 30.3865 30.4645 30.6932V30.7132Z" fill="#111119"/>
</svg>
