<svg width="26" height="26" viewBox="0 0 26 26" fill="none" xmlns="http://www.w3.org/2000/svg">
<path d="M25.2093 1.38498L23.8955 0.0712631C23.846 0.0216888 23.784 0 23.7189 0C23.6539 0 23.5919 0.0247872 23.5423 0.0712631L21.1844 2.42914C20.1594 1.73464 18.9493 1.36437 17.7111 1.36639C16.1248 1.36639 14.5384 1.97058 13.3269 3.18205L10.1697 6.33931C10.1235 6.38589 10.0977 6.44881 10.0977 6.51437C10.0977 6.57993 10.1235 6.64284 10.1697 6.68943L18.588 15.1078C18.6376 15.1573 18.6995 15.179 18.7646 15.179C18.8266 15.179 18.8916 15.1542 18.9412 15.1078L22.0985 11.9505C24.2333 9.8126 24.4842 6.50662 22.8514 4.09607L25.2093 1.7382C25.3053 1.63905 25.3053 1.48103 25.2093 1.38498ZM20.605 10.4602L18.7646 12.3006L12.9768 6.51282L14.8172 4.67237C15.5887 3.90087 16.6174 3.4733 17.7111 3.4733C18.8049 3.4733 19.8304 3.89778 20.605 4.67237C21.3765 5.44387 21.8041 6.47254 21.8041 7.56627C21.8041 8.66 21.3765 9.68557 20.605 10.4602ZM14.7119 13.7135C14.6653 13.6673 14.6024 13.6415 14.5368 13.6415C14.4713 13.6415 14.4084 13.6673 14.3618 13.7135L12.2983 15.777L9.50041 12.9792L11.567 10.9125C11.6631 10.8165 11.6631 10.6585 11.567 10.5624L10.4392 9.4346C10.3926 9.38847 10.3297 9.36259 10.2642 9.36259C10.1986 9.36259 10.1357 9.38847 10.0891 9.4346L8.02248 11.5012L6.69017 10.1689C6.66704 10.1458 6.63948 10.1275 6.60913 10.1153C6.57878 10.103 6.54628 10.097 6.51356 10.0977C6.45159 10.0977 6.38653 10.1224 6.33695 10.1689L3.18279 13.3262C1.048 15.4641 0.79703 18.7701 2.42988 21.1806L0.0720068 23.5385C0.0258773 23.5851 0 23.648 0 23.7135C0 23.7791 0.0258773 23.842 0.0720068 23.8886L1.38572 25.2023C1.4353 25.2519 1.49727 25.2736 1.56233 25.2736C1.6274 25.2736 1.68937 25.2488 1.73894 25.2023L4.09682 22.8444C5.14097 23.554 6.35554 23.9072 7.57011 23.9072C9.15649 23.9072 10.7429 23.303 11.9543 22.0915L15.1116 18.9343C15.2076 18.8382 15.2076 18.6802 15.1116 18.5841L13.7793 17.2518L15.8459 15.1852C15.942 15.0892 15.942 14.9311 15.8459 14.8351L14.7119 13.7135ZM10.4609 20.6043C10.0817 20.9855 9.6307 21.2877 9.13398 21.4935C8.63726 21.6993 8.10468 21.8046 7.56701 21.8034C6.47328 21.8034 5.44771 21.3789 4.67312 20.6043C4.29196 20.2251 3.98974 19.7741 3.78393 19.2774C3.57811 18.7806 3.47279 18.2481 3.47404 17.7104C3.47404 16.6167 3.89852 15.5911 4.67312 14.8165L6.51356 12.9761L12.3014 18.7639L10.4609 20.6043Z" fill="#111119"/>
</svg>
