<svg width="40" height="40" viewBox="0 0 40 40" fill="none" xmlns="http://www.w3.org/2000/svg">
<mask id="mask0_1139_13071" style="mask-type:luminance" maskUnits="userSpaceOnUse" x="0" y="0" width="40" height="40">
<path d="M37.8151 18.7175C37.8151 19.703 37.135 20.5047 36.2989 20.5047H19.787C18.9509 20.5047 18.2707 19.703 18.2707 18.7175V4.26129C18.2707 3.27622 18.9509 2.47525 19.787 2.47525H36.2989C37.135 2.47525 37.8151 3.27622 37.8151 4.26129V18.7175ZM36.2989 0H19.787C17.7925 0 16.1699 1.91058 16.1699 4.26129V18.7175C16.1699 21.0682 17.7925 22.98 19.787 22.98H26.9669V25.8474H23.2642C22.6842 25.8474 22.2138 26.4008 22.2138 27.085C22.2138 27.768 22.6842 28.3226 23.2642 28.3226H32.7705C33.3505 28.3226 33.8209 27.768 33.8209 27.085C33.8209 26.4008 33.3505 25.8474 32.7705 25.8474H29.0678V22.98H36.2989C38.2934 22.98 39.916 21.0682 39.916 18.7175V4.26129C39.916 1.91058 38.2934 0 36.2989 0ZM25.0785 13.2809C24.8733 13.5226 24.6045 13.6444 24.3356 13.6444C24.0668 13.6444 23.7979 13.5226 23.5928 13.2809L21.5523 10.8772C21.3554 10.6455 21.2447 10.3307 21.2447 10.0019C21.2447 9.67396 21.3554 9.35914 21.5523 9.1267L23.5928 6.72262C24.0031 6.23956 24.6681 6.23956 25.0785 6.72262C25.4884 7.20684 25.4884 7.99002 25.0785 8.47308L23.7809 10.0019L25.0785 11.5316C25.4884 12.0146 25.4884 12.7978 25.0785 13.2809ZM34.5335 11.8185C34.7305 12.0502 34.8411 12.365 34.8411 12.6938C34.8411 13.0217 34.7305 13.3366 34.5335 13.569L32.4931 15.9731C32.2879 16.2148 32.0191 16.3355 31.7503 16.3355C31.4814 16.3355 31.2126 16.2148 31.0074 15.9731C30.5974 15.49 30.5974 14.7057 31.0074 14.2226L32.3053 12.6938L31.0074 11.1653C30.5974 10.6819 30.5974 9.8979 31.0074 9.41484C31.4177 8.93139 32.0828 8.93139 32.4931 9.41484L34.5335 11.8185ZM30.5669 8.44059L27.3418 15.9406C27.1566 16.3711 26.7874 16.6186 26.404 16.6186C26.2444 16.6186 26.0823 16.576 25.9303 16.4851C25.4126 16.1761 25.2058 15.4316 25.4678 14.8217L28.6929 7.32171C28.9552 6.71179 29.5874 6.46813 30.1047 6.77715C30.622 7.08617 30.8292 7.83068 30.5669 8.44059ZM2.10084 24.0602V4.26129C2.10084 3.27622 2.78099 2.47525 3.61706 2.47525H10.3759C11.2119 2.47525 11.8921 3.27622 11.8921 4.26129V24.0602C11.8921 25.0453 11.2119 25.8474 10.3759 25.8474H3.61706C2.78099 25.8474 2.10084 25.0453 2.10084 24.0602ZM28.7602 29.9911C28.4598 29.6365 28.0078 29.5305 27.6155 29.7227C27.4869 29.785 27.3733 29.8762 27.2781 29.9869C27.2771 29.9888 27.2758 29.9888 27.2745 29.9911L24.1518 33.6703C23.7418 34.1534 23.7418 34.9366 24.1518 35.4208C24.3569 35.6621 24.6258 35.7832 24.8946 35.7832C25.1635 35.7832 25.4323 35.6621 25.6375 35.4208L26.9669 33.8533V37.3898H8.04688V28.3226H10.3759C12.3703 28.3226 13.9929 26.4109 13.9929 24.0602V4.26129C13.9929 1.91058 12.3703 0 10.3759 0H3.61706C1.62257 0 0 1.91058 0 4.26129V24.0602C0 26.4109 1.62257 28.3226 3.61706 28.3226H5.94603V38.6274C5.94603 39.3108 6.41643 39.865 6.99646 39.865H28.0173C28.5974 39.865 29.0678 39.3108 29.0678 38.6274V33.8533L30.3975 35.4208C30.8075 35.9039 31.4726 35.9039 31.8829 35.4208C32.2932 34.9366 32.2932 34.1534 31.8829 33.6703L28.7602 29.9911Z" fill="white"/>
</mask>
<g mask="url(#mask0_1139_13071)">
<mask id="mask1_1139_13071" style="mask-type:luminance" maskUnits="userSpaceOnUse" x="0" y="0" width="40" height="40">
<path d="M37.8161 18.7175C37.8161 19.703 37.136 20.5047 36.2999 20.5047H19.7879C18.9519 20.5047 18.2717 19.703 18.2717 18.7175V4.26129C18.2717 3.27622 18.9519 2.47525 19.7879 2.47525H36.2999C37.136 2.47525 37.8161 3.27622 37.8161 4.26129V18.7175ZM36.2999 0H19.7879C17.7935 0 16.1709 1.91058 16.1709 4.26129V18.7175C16.1709 21.0682 17.7935 22.98 19.7879 22.98H26.9679V25.8474H23.2652C22.6851 25.8474 22.2147 26.4008 22.2147 27.085C22.2147 27.768 22.6851 28.3226 23.2652 28.3226H32.7715C33.3515 28.3226 33.8219 27.768 33.8219 27.085C33.8219 26.4008 33.3515 25.8474 32.7715 25.8474H29.0687V22.98H36.2999C38.2944 22.98 39.9169 21.0682 39.9169 18.7175V4.26129C39.9169 1.91058 38.2944 0 36.2999 0ZM25.0794 13.2809C24.8743 13.5226 24.6054 13.6444 24.3366 13.6444C24.0677 13.6444 23.7989 13.5226 23.5937 13.2809L21.5533 10.8772C21.3563 10.6455 21.2457 10.3307 21.2457 10.0019C21.2457 9.67396 21.3563 9.35914 21.5533 9.1267L23.5937 6.72262C24.0041 6.23956 24.6691 6.23956 25.0794 6.72262C25.4894 7.20684 25.4894 7.99002 25.0794 8.47308L23.7818 10.0019L25.0794 11.5316C25.4894 12.0146 25.4894 12.7978 25.0794 13.2809ZM34.5345 11.8185C34.7315 12.0502 34.8421 12.365 34.8421 12.6938C34.8421 13.0217 34.7315 13.3366 34.5345 13.569L32.4941 15.9731C32.2889 16.2148 32.0201 16.3355 31.7512 16.3355C31.4824 16.3355 31.2136 16.2148 31.0084 15.9731C30.5984 15.49 30.5984 14.7057 31.0084 14.2226L32.3063 12.6938L31.0084 11.1653C30.5984 10.6819 30.5984 9.8979 31.0084 9.41484C31.4187 8.93139 32.0838 8.93139 32.4941 9.41484L34.5345 11.8185ZM30.5679 8.44059L27.3428 15.9406C27.1576 16.3711 26.7883 16.6186 26.4049 16.6186C26.2454 16.6186 26.0832 16.576 25.9313 16.4851C25.4136 16.1761 25.2068 15.4316 25.4687 14.8217L28.6939 7.32171C28.9561 6.71179 29.5884 6.46813 30.1057 6.77715C30.623 7.08617 30.8302 7.83068 30.5679 8.44059ZM2.10182 24.0602V4.26129C2.10182 3.27622 2.78196 2.47525 3.61803 2.47525H10.3768C11.2129 2.47525 11.893 3.27622 11.893 4.26129V24.0602C11.893 25.0453 11.2129 25.8474 10.3768 25.8474H3.61803C2.78196 25.8474 2.10182 25.0453 2.10182 24.0602ZM28.7612 29.9911C28.4608 29.6365 28.0088 29.5305 27.6165 29.7227C27.4878 29.785 27.3743 29.8762 27.2791 29.9869C27.2781 29.9888 27.2768 29.9888 27.2755 29.9911L24.1528 33.6703C23.7428 34.1534 23.7428 34.9366 24.1528 35.4208C24.3579 35.6621 24.6268 35.7832 24.8956 35.7832C25.1644 35.7832 25.4333 35.6621 25.6385 35.4208L26.9679 33.8533V37.3898H8.04785V28.3226H10.3768C12.3713 28.3226 13.9939 26.4109 13.9939 24.0602V4.26129C13.9939 1.91058 12.3713 0 10.3768 0H3.61803C1.62355 0 0.000976562 1.91058 0.000976562 4.26129V24.0602C0.000976562 26.4109 1.62355 28.3226 3.61803 28.3226H5.94701V38.6274C5.94701 39.3108 6.4174 39.865 6.99743 39.865H28.0183C28.5983 39.865 29.0687 39.3108 29.0687 38.6274V33.8533L30.3985 35.4208C30.8085 35.9039 31.4735 35.9039 31.8839 35.4208C32.2942 34.9366 32.2942 34.1534 31.8839 33.6703L28.7612 29.9911Z" fill="white"/>
</mask>
<g mask="url(#mask1_1139_13071)">
<path d="M-14.6504 29.8995L29.9376 60.2302L54.5677 9.96681L9.97966 -20.3643L-14.6504 29.8995Z" fill="#111119"/>
</g>
</g>
</svg>
