<svg width="40" height="40" viewBox="0 0 40 40" fill="none" xmlns="http://www.w3.org/2000/svg">
<mask id="mask0_1139_13145" style="mask-type:luminance" maskUnits="userSpaceOnUse" x="0" y="0" width="40" height="40">
<path d="M0 0H40V40H0V0Z" fill="white"/>
</mask>
<g mask="url(#mask0_1139_13145)">
<mask id="mask1_1139_13145" style="mask-type:luminance" maskUnits="userSpaceOnUse" x="0" y="0" width="40" height="40">
<path d="M16.5332 20.4422C13.7785 20.4422 11.5375 22.7815 11.5375 25.6577C11.5375 26.2632 11.0667 26.7542 10.487 26.7542C9.90635 26.7542 9.43662 26.2632 9.43662 25.6577C9.43662 21.573 12.6197 18.2492 16.5332 18.2492C17.1129 18.2492 17.5836 18.7402 17.5836 19.3457C17.5836 19.9519 17.1129 20.4422 16.5332 20.4422ZM23.6307 25.6577C23.6307 29.7428 20.4467 33.0659 16.5332 33.0659C15.9535 33.0659 15.4828 32.5756 15.4828 31.9694C15.4828 31.3639 15.9535 30.8729 16.5332 30.8729C19.2879 30.8729 21.5299 28.5333 21.5299 25.6577C21.5299 25.0516 21.9996 24.5612 22.5803 24.5612C23.16 24.5612 23.6307 25.0516 23.6307 25.6577ZM4.78096 10.2791C4.78096 9.67362 5.25168 9.1826 5.83138 9.1826H10.1509C10.7306 9.1826 11.2013 9.67362 11.2013 10.2791C11.2013 10.8842 10.7306 11.3756 10.1509 11.3756H5.83138C5.25168 11.3756 4.78096 10.8842 4.78096 10.2791ZM32.1779 14.0939H20.0846C19.3736 14.0939 18.7325 13.7824 18.2759 13.2842C18.2106 13.0282 18.0583 12.8089 17.8541 12.6622C17.6821 12.3079 17.5836 11.9077 17.5836 11.4832C17.5836 10.0447 18.7056 8.87353 20.0846 8.87353C20.2927 8.87353 20.5005 8.89991 20.7014 8.95268C21.0047 9.03252 21.3257 8.9657 21.5778 8.77381C21.8299 8.58056 21.9868 8.28074 22.0056 7.95522C22.0256 7.60365 22.0945 7.26648 22.2038 6.9509C22.2038 6.94918 22.2045 6.94816 22.2045 6.94747C22.6877 5.55356 23.9702 4.565 25.4591 4.565C25.8583 4.565 26.2492 4.63593 26.6205 4.77368C27.0384 4.92993 27.5055 4.79458 27.7871 4.43514C28.8694 3.05356 30.4703 2.26134 32.1779 2.26134C35.3029 2.26134 37.8459 4.91485 37.8459 8.17794C37.8459 11.4403 35.3029 14.0939 32.1779 14.0939ZM28.1466 37.7859H4.91981C3.38193 37.7859 2.1316 36.4797 2.1316 34.8744V14.6651H16.6409C17.4845 15.6588 18.7154 16.2868 20.0846 16.2868H30.9348V34.8744C30.9348 36.4797 29.6845 37.7859 28.1466 37.7859ZM4.91981 7.71844H17.2324C16.1675 8.59906 15.4828 9.95871 15.4828 11.4832C15.4828 11.8227 15.5172 12.1527 15.5812 12.4721H2.1316V10.63C2.1316 9.02464 3.38193 7.71844 4.91981 7.71844ZM39.9467 8.17794C39.9467 3.70597 36.4616 0.0683594 32.1779 0.0683594C30.0718 0.0683594 28.0862 0.94658 26.629 2.50086C26.2456 2.41588 25.855 2.37202 25.4591 2.37202C23.3156 2.37202 21.439 3.64806 20.5123 5.52546H4.91981C2.22384 5.52546 0.0307617 7.81473 0.0307617 10.63V34.8744C0.0307617 37.6893 2.22384 39.9789 4.91981 39.9789H28.1466C30.8425 39.9789 33.0356 37.6893 33.0356 34.8744V16.2378C36.9173 15.7903 39.9467 12.3463 39.9467 8.17794Z" fill="white"/>
</mask>
<g mask="url(#mask1_1139_13145)">
<mask id="mask2_1139_13145" style="mask-type:luminance" maskUnits="userSpaceOnUse" x="0" y="0" width="40" height="40">
<path d="M16.5322 20.4422C13.7775 20.4422 11.5365 22.7815 11.5365 25.6577C11.5365 26.2632 11.0658 26.7542 10.4861 26.7542C9.90538 26.7542 9.43564 26.2632 9.43564 25.6577C9.43564 21.573 12.6187 18.2492 16.5322 18.2492C17.1119 18.2492 17.5826 18.7402 17.5826 19.3457C17.5826 19.9519 17.1119 20.4422 16.5322 20.4422ZM23.6298 25.6577C23.6298 29.7428 20.4457 33.0659 16.5322 33.0659C15.9525 33.0659 15.4818 32.5756 15.4818 31.9694C15.4818 31.3639 15.9525 30.8729 16.5322 30.8729C19.2869 30.8729 21.5289 28.5333 21.5289 25.6577C21.5289 25.0516 21.9987 24.5612 22.5794 24.5612C23.1591 24.5612 23.6298 25.0516 23.6298 25.6577ZM4.77998 10.2791C4.77998 9.67362 5.2507 9.1826 5.8304 9.1826H10.1499C10.7296 9.1826 11.2003 9.67362 11.2003 10.2791C11.2003 10.8842 10.7296 11.3756 10.1499 11.3756H5.8304C5.2507 11.3756 4.77998 10.8842 4.77998 10.2791ZM32.1769 14.0939H20.0836C19.3726 14.0939 18.7315 13.7824 18.2749 13.2842C18.2096 13.0282 18.0573 12.8089 17.8531 12.6622C17.6811 12.3079 17.5826 11.9077 17.5826 11.4832C17.5826 10.0447 18.7046 8.87353 20.0836 8.87353C20.2917 8.87353 20.4995 8.89991 20.7004 8.95268C21.0037 9.03252 21.3248 8.9657 21.5769 8.77381C21.829 8.58056 21.9859 8.28074 22.0046 7.95522C22.0246 7.60365 22.0935 7.26648 22.2028 6.9509C22.2028 6.94918 22.2035 6.94816 22.2035 6.94747C22.6867 5.55356 23.9692 4.565 25.4582 4.565C25.8573 4.565 26.2483 4.63593 26.6195 4.77368C27.0374 4.92993 27.5045 4.79458 27.7862 4.43514C28.8684 3.05356 30.4693 2.26134 32.1769 2.26134C35.3019 2.26134 37.8449 4.91485 37.8449 8.17794C37.8449 11.4403 35.3019 14.0939 32.1769 14.0939ZM28.1456 37.7859H4.91883C3.38095 37.7859 2.13063 36.4797 2.13063 34.8744V14.6651H16.6399C17.4835 15.6588 18.7145 16.2868 20.0836 16.2868H30.9338V34.8744C30.9338 36.4797 29.6835 37.7859 28.1456 37.7859ZM4.91883 7.71844H17.2314C16.1665 8.59906 15.4818 9.95871 15.4818 11.4832C15.4818 11.8227 15.5163 12.1527 15.5803 12.4721H2.13063V10.63C2.13063 9.02464 3.38095 7.71844 4.91883 7.71844ZM39.9458 8.17794C39.9458 3.70597 36.4607 0.0683594 32.1769 0.0683594C30.0708 0.0683594 28.0852 0.94658 26.6281 2.50086C26.2447 2.41588 25.854 2.37202 25.4582 2.37202C23.3146 2.37202 21.438 3.64806 20.5113 5.52546H4.91883C2.22287 5.52546 0.0297852 7.81473 0.0297852 10.63V34.8744C0.0297852 37.6893 2.22287 39.9789 4.91883 39.9789H28.1456C30.8416 39.9789 33.0346 37.6893 33.0346 34.8744V16.2378C36.9163 15.7903 39.9458 12.3463 39.9458 8.17794Z" fill="white"/>
</mask>
<g mask="url(#mask2_1139_13145)">
<path d="M-16.5249 30.0013L29.9677 58.0211L56.5023 10.0462L10.0097 -17.9736L-16.5249 30.0013Z" fill="#111119"/>
</g>
</g>
</g>
</svg>
