<svg width="40" height="40" viewBox="0 0 40 40" fill="none" xmlns="http://www.w3.org/2000/svg">
<mask id="mask0_1139_13048" style="mask-type:luminance" maskUnits="userSpaceOnUse" x="0" y="0" width="40" height="40">
<path d="M0 0H40V40H0V0Z" fill="white"/>
</mask>
<g mask="url(#mask0_1139_13048)">
<mask id="mask1_1139_13048" style="mask-type:luminance" maskUnits="userSpaceOnUse" x="0" y="0" width="40" height="40">
<path d="M29.8287 4.98206H25.1455C24.5655 4.98206 24.0951 5.45245 24.0951 6.03248C24.0951 6.61317 24.5655 7.0829 25.1455 7.0829H29.8287C30.4094 7.0829 30.8791 6.61317 30.8791 6.03248C30.8791 5.45245 30.4094 4.98206 29.8287 4.98206ZM19.9892 4.98206H15.306C14.7253 4.98206 14.2556 5.45245 14.2556 6.03248C14.2556 6.61317 14.7253 7.0829 15.306 7.0829H19.9892C20.5689 7.0829 21.0397 6.61317 21.0397 6.03248C21.0397 5.45245 20.5689 4.98206 19.9892 4.98206ZM28.6329 23.9257H34.5119C35.0926 23.9257 35.5624 23.455 35.5624 22.8753C35.5624 22.2946 35.0926 21.8249 34.5119 21.8249H28.6329C28.0529 21.8249 27.5825 22.2946 27.5825 22.8753C27.5825 23.455 28.0529 23.9257 28.6329 23.9257ZM23.9792 22.8753C23.9792 22.2946 23.5085 21.8249 22.9288 21.8249H17.0497C16.469 21.8249 15.9993 22.2946 15.9993 22.8753C15.9993 23.455 16.469 23.9257 17.0497 23.9257H22.9288C23.5085 23.9257 23.9792 23.455 23.9792 22.8753ZM11.3446 21.8249H5.46553C4.88583 21.8249 4.41511 22.2946 4.41511 22.8753C4.41511 23.455 4.88583 23.9257 5.46553 23.9257H11.3446C11.9253 23.9257 12.395 23.455 12.395 22.8753C12.395 22.2946 11.9253 21.8249 11.3446 21.8249ZM28.6329 17.8592H34.5119C35.0926 17.8592 35.5624 17.3888 35.5624 16.8088C35.5624 16.2281 35.0926 15.7584 34.5119 15.7584H28.6329C28.0529 15.7584 27.5825 16.2281 27.5825 16.8088C27.5825 17.3888 28.0529 17.8592 28.6329 17.8592ZM17.0497 17.8592H22.9288C23.5085 17.8592 23.9792 17.3888 23.9792 16.8088C23.9792 16.2281 23.5085 15.7584 22.9288 15.7584H17.0497C16.469 15.7584 15.9993 16.2281 15.9993 16.8088C15.9993 17.3888 16.469 17.8592 17.0497 17.8592ZM11.3446 15.7584H5.46553C4.88583 15.7584 4.41511 16.2281 4.41511 16.8088C4.41511 17.3888 4.88583 17.8592 5.46553 17.8592H11.3446C11.9253 17.8592 12.395 17.3888 12.395 16.8088C12.395 16.2281 11.9253 15.7584 11.3446 15.7584ZM10.1488 4.98206H5.46553C4.88583 4.98206 4.41511 5.45245 4.41511 6.03248C4.41511 6.61317 4.88583 7.0829 5.46553 7.0829H10.1488C10.7295 7.0829 11.1992 6.61317 11.1992 6.03248C11.1992 5.45245 10.7295 4.98206 10.1488 4.98206ZM37.8464 4.10365C37.8464 3.03484 36.9765 2.16529 35.9067 2.16529H4.07077C3.00164 2.16529 2.13209 3.03484 2.13209 4.10365V8.88273H34.6613C35.242 8.88273 35.7117 9.35247 35.7117 9.93315C35.7117 10.5132 35.242 10.9836 34.6613 10.9836H2.13209V35.9399C2.13209 37.0097 3.00164 37.8796 4.07077 37.8796H35.9067C36.9765 37.8796 37.8464 37.0097 37.8464 35.9399V4.10365ZM39.9472 4.10365V35.9399C39.9472 38.1678 38.1346 39.9804 35.9067 39.9804H4.07077C1.8429 39.9804 0.03125 38.1678 0.03125 35.9399V4.10365C0.03125 1.8761 1.8429 0.0644531 4.07077 0.0644531H35.9067C38.1346 0.0644531 39.9472 1.8761 39.9472 4.10365ZM25.221 26.8062C24.81 26.3962 24.1453 26.3962 23.7353 26.8062L21.359 29.1828C20.9487 29.5927 20.9487 30.2575 21.359 30.6684L23.7353 33.045C23.9405 33.2502 24.2093 33.3526 24.4781 33.3526C24.747 33.3526 25.0152 33.2502 25.221 33.045C25.6313 32.634 25.6313 31.9693 25.221 31.5593L23.5866 29.9256L25.221 28.2922C25.6313 27.8812 25.6313 27.2165 25.221 26.8062ZM33.8564 29.4667C33.4464 29.0567 32.7817 29.0567 32.3707 29.4667C31.9604 29.877 31.9604 30.5424 32.3707 30.9524L34.0051 32.5861L32.3707 34.2199C31.9604 34.6298 31.9604 35.2955 32.3707 35.7055C32.5756 35.9104 32.8447 36.0131 33.1136 36.0131C33.3824 36.0131 33.6513 35.9104 33.8564 35.7055L36.233 33.329C36.4303 33.1317 36.5402 32.8642 36.5402 32.5861C36.5402 32.3071 36.4303 32.0399 36.233 31.8433L33.8564 29.4667ZM31.5816 28.3037L27.8254 35.7174C27.6396 36.0827 27.2706 36.2928 26.8875 36.2928C26.7277 36.2928 26.5655 36.2567 26.4135 36.1795C25.8959 35.9173 25.6891 35.2854 25.9514 34.7677L29.7069 27.3544C29.9699 26.8367 30.6018 26.6299 31.1184 26.8922C31.6361 27.1541 31.8439 27.786 31.5816 28.3037Z" fill="white"/>
</mask>
<g mask="url(#mask1_1139_13048)">
<mask id="mask2_1139_13048" style="mask-type:luminance" maskUnits="userSpaceOnUse" x="0" y="0" width="40" height="40">
<path d="M29.8287 4.98206H25.1455C24.5655 4.98206 24.0951 5.45245 24.0951 6.03248C24.0951 6.61317 24.5655 7.0829 25.1455 7.0829H29.8287C30.4094 7.0829 30.8791 6.61317 30.8791 6.03248C30.8791 5.45245 30.4094 4.98206 29.8287 4.98206ZM19.9892 4.98206H15.306C14.7253 4.98206 14.2556 5.45245 14.2556 6.03248C14.2556 6.61317 14.7253 7.0829 15.306 7.0829H19.9892C20.5689 7.0829 21.0397 6.61317 21.0397 6.03248C21.0397 5.45245 20.5689 4.98206 19.9892 4.98206ZM28.6329 23.9257H34.5119C35.0926 23.9257 35.5624 23.455 35.5624 22.8753C35.5624 22.2946 35.0926 21.8249 34.5119 21.8249H28.6329C28.0529 21.8249 27.5825 22.2946 27.5825 22.8753C27.5825 23.455 28.0529 23.9257 28.6329 23.9257ZM23.9792 22.8753C23.9792 22.2946 23.5085 21.8249 22.9288 21.8249H17.0497C16.469 21.8249 15.9993 22.2946 15.9993 22.8753C15.9993 23.455 16.469 23.9257 17.0497 23.9257H22.9288C23.5085 23.9257 23.9792 23.455 23.9792 22.8753ZM11.3446 21.8249H5.46553C4.88583 21.8249 4.41511 22.2946 4.41511 22.8753C4.41511 23.455 4.88583 23.9257 5.46553 23.9257H11.3446C11.9253 23.9257 12.395 23.455 12.395 22.8753C12.395 22.2946 11.9253 21.8249 11.3446 21.8249ZM28.6329 17.8592H34.5119C35.0926 17.8592 35.5624 17.3888 35.5624 16.8088C35.5624 16.2281 35.0926 15.7584 34.5119 15.7584H28.6329C28.0529 15.7584 27.5825 16.2281 27.5825 16.8088C27.5825 17.3888 28.0529 17.8592 28.6329 17.8592ZM17.0497 17.8592H22.9288C23.5085 17.8592 23.9792 17.3888 23.9792 16.8088C23.9792 16.2281 23.5085 15.7584 22.9288 15.7584H17.0497C16.469 15.7584 15.9993 16.2281 15.9993 16.8088C15.9993 17.3888 16.469 17.8592 17.0497 17.8592ZM11.3446 15.7584H5.46553C4.88583 15.7584 4.41511 16.2281 4.41511 16.8088C4.41511 17.3888 4.88583 17.8592 5.46553 17.8592H11.3446C11.9253 17.8592 12.395 17.3888 12.395 16.8088C12.395 16.2281 11.9253 15.7584 11.3446 15.7584ZM10.1488 4.98206H5.46553C4.88583 4.98206 4.41511 5.45245 4.41511 6.03248C4.41511 6.61317 4.88583 7.0829 5.46553 7.0829H10.1488C10.7295 7.0829 11.1992 6.61317 11.1992 6.03248C11.1992 5.45245 10.7295 4.98206 10.1488 4.98206ZM37.8464 4.10365C37.8464 3.03484 36.9765 2.16529 35.9067 2.16529H4.07077C3.00164 2.16529 2.13209 3.03484 2.13209 4.10365V8.88273H34.6613C35.242 8.88273 35.7117 9.35247 35.7117 9.93315C35.7117 10.5132 35.242 10.9836 34.6613 10.9836H2.13209V35.9399C2.13209 37.0097 3.00164 37.8796 4.07077 37.8796H35.9067C36.9765 37.8796 37.8464 37.0097 37.8464 35.9399V4.10365ZM39.9472 4.10365V35.9399C39.9472 38.1678 38.1346 39.9804 35.9067 39.9804H4.07077C1.8429 39.9804 0.03125 38.1678 0.03125 35.9399V4.10365C0.03125 1.8761 1.8429 0.0644531 4.07077 0.0644531H35.9067C38.1346 0.0644531 39.9472 1.8761 39.9472 4.10365ZM25.221 26.8062C24.81 26.3962 24.1453 26.3962 23.7353 26.8062L21.359 29.1828C20.9487 29.5927 20.9487 30.2575 21.359 30.6684L23.7353 33.045C23.9405 33.2502 24.2093 33.3526 24.4781 33.3526C24.747 33.3526 25.0152 33.2502 25.221 33.045C25.6313 32.634 25.6313 31.9693 25.221 31.5593L23.5866 29.9256L25.221 28.2922C25.6313 27.8812 25.6313 27.2165 25.221 26.8062ZM33.8564 29.4667C33.4464 29.0567 32.7817 29.0567 32.3707 29.4667C31.9604 29.877 31.9604 30.5424 32.3707 30.9524L34.0051 32.5861L32.3707 34.2199C31.9604 34.6298 31.9604 35.2955 32.3707 35.7055C32.5756 35.9104 32.8447 36.0131 33.1136 36.0131C33.3824 36.0131 33.6513 35.9104 33.8564 35.7055L36.233 33.329C36.4303 33.1317 36.5402 32.8642 36.5402 32.5861C36.5402 32.3071 36.4303 32.0399 36.233 31.8433L33.8564 29.4667ZM31.5816 28.3037L27.8254 35.7174C27.6396 36.0827 27.2706 36.2928 26.8875 36.2928C26.7277 36.2928 26.5655 36.2567 26.4135 36.1795C25.8959 35.9173 25.6891 35.2854 25.9514 34.7677L29.7069 27.3544C29.9699 26.8367 30.6018 26.6299 31.1184 26.8922C31.6361 27.1541 31.8439 27.786 31.5816 28.3037Z" fill="white"/>
</mask>
<g mask="url(#mask2_1139_13048)">
<path d="M-17.2529 30.0016L29.9684 57.2646L57.2314 10.0436L10.0104 -17.2197L-17.2529 30.0016Z" fill="#111119"/>
</g>
</g>
</g>
</svg>
