<svg width="40" height="40" viewBox="0 0 40 40" fill="none" xmlns="http://www.w3.org/2000/svg">
<mask id="mask0_1139_13119" style="mask-type:luminance" maskUnits="userSpaceOnUse" x="0" y="0" width="40" height="40">
<path d="M0 0H40V40H0V0Z" fill="white"/>
</mask>
<g mask="url(#mask0_1139_13119)">
<mask id="mask1_1139_13119" style="mask-type:luminance" maskUnits="userSpaceOnUse" x="0" y="0" width="40" height="40">
<path d="M37.8464 28.8287H37.0119C36.51 28.8287 36.0781 28.4717 35.9815 27.9763C35.8069 27.0826 35.4622 26.2463 34.9564 25.4901C34.6757 25.0718 34.7302 24.5131 35.0851 24.1561L35.675 23.5644L35.0125 22.8995L34.4236 23.4918C34.0681 23.8482 33.5117 23.9029 33.0949 23.6211C32.3422 23.1131 31.5094 22.767 30.6195 22.5916C30.1261 22.4943 29.7706 22.0609 29.7706 21.5568V20.7189H28.8344V21.5568C28.8344 22.0609 28.4789 22.4943 27.9859 22.5916C27.096 22.767 26.2632 23.1131 25.5102 23.6211C25.0933 23.9029 24.5369 23.8482 24.1817 23.4918L23.5925 22.8995L22.9304 23.5644L23.5203 24.1561C23.8748 24.5131 23.9296 25.0718 23.649 25.4901C23.1428 26.2463 22.7984 27.0826 22.6235 27.9763C22.527 28.4717 22.095 28.8287 21.5934 28.8287H20.759V29.7689H21.5934C22.095 29.7689 22.527 30.1255 22.6235 30.621C22.7984 31.5147 23.1428 32.351 23.649 33.1062C23.9296 33.5248 23.8748 34.0842 23.5203 34.4412L22.9304 35.0329L23.5925 35.6978L24.1817 35.1054C24.5369 34.7494 25.0933 34.6944 25.5102 34.9762C26.2632 35.4842 27.096 35.8303 27.9859 36.006C28.4789 36.1019 28.8344 36.5367 28.8344 37.0404V37.8784H29.7706V37.0404C29.7706 36.5367 30.1261 36.1019 30.6195 36.006C31.5094 35.8303 32.3422 35.4842 33.0949 34.9762C33.5111 34.6944 34.0681 34.7484 34.4236 35.1054L35.0125 35.6978L35.675 35.0329L35.0851 34.4412C34.7302 34.0842 34.6757 33.5248 34.9564 33.1062C35.4622 32.351 35.8069 31.5147 35.9815 30.6203C36.0781 30.1255 36.51 29.7689 37.0119 29.7689H37.8464V28.8287ZM18.6582 28.3956V27.7739C18.6582 27.1914 19.1285 26.719 19.7086 26.719H20.7715C20.9428 26.1451 21.1706 25.5923 21.4539 25.0649L20.7025 24.3103C20.5052 24.1122 20.395 23.8439 20.395 23.5644C20.395 23.2845 20.5052 23.0158 20.7025 22.8184L22.8497 20.6625C23.2596 20.2505 23.9244 20.2505 24.3353 20.6625L25.0867 21.4168C25.6119 21.1326 26.1621 20.9038 26.7336 20.7318V19.664C26.7336 19.0819 27.2043 18.6092 27.784 18.6092H28.2521V8.54162H4.89174C4.31105 8.54162 3.84132 8.06924 3.84132 7.48677C3.84132 6.90462 4.31105 6.43192 4.89174 6.43192H28.2521V3.94411C28.2521 2.96376 27.4571 2.16537 26.4798 2.16537H3.90336C2.9268 2.16537 2.13209 2.96376 2.13209 3.94411V26.6159C2.13209 27.5975 2.9268 28.3956 3.90336 28.3956H18.6582ZM39.9472 27.7739V30.8237C39.9472 31.4059 39.4765 31.8786 38.8968 31.8786H37.8336C37.6622 32.4522 37.4344 33.005 37.1515 33.5324L37.9025 34.2869C38.3135 34.6996 38.3135 35.3672 37.9025 35.7789L35.7554 37.9351C35.5588 38.1332 35.2916 38.244 35.0125 38.244C34.7345 38.244 34.4673 38.1332 34.2697 37.9351L33.5186 37.1805C32.9934 37.465 32.4429 37.6938 31.8715 37.8659V38.9332C31.8715 39.5157 31.4011 39.9881 30.821 39.9881H27.784C27.2043 39.9881 26.7336 39.5157 26.7336 38.9332V37.8659C26.1621 37.6938 25.6119 37.465 25.0867 37.1805L24.3353 37.9351C24.1377 38.1332 23.8705 38.244 23.5925 38.244C23.3135 38.244 23.0463 38.1332 22.8497 37.9351L20.7025 35.7789C20.2916 35.3672 20.2916 34.6996 20.7025 34.2869L21.4539 33.5324C21.1706 33.005 20.9428 32.4522 20.7715 31.8786H19.7086C19.1285 31.8786 18.6582 31.4059 18.6582 30.8237V30.5053H3.90336C1.76805 30.5053 0.03125 28.7612 0.03125 26.6159V3.94411C0.03125 1.7998 1.76805 0.0556641 3.90336 0.0556641H26.4798C28.6161 0.0556641 30.3529 1.7998 30.3529 3.94411V18.6092H30.821C31.4011 18.6092 31.8715 19.0819 31.8715 19.664V20.7318C32.4429 20.9038 32.9934 21.1326 33.5186 21.4168L34.2697 20.6625C34.6807 20.2505 35.3454 20.2505 35.7554 20.6625L37.9025 22.8184C38.1001 23.0158 38.2101 23.2845 38.2101 23.5644C38.2101 23.8439 38.1001 24.1122 37.9025 24.3103L37.1515 25.0649C37.4344 25.5923 37.6622 26.1451 37.8336 26.719H38.8968C39.4765 26.719 39.9472 27.1914 39.9472 27.7739ZM32.289 29.2988C32.289 28.0158 31.4831 26.9188 30.3529 26.4913V26.6159C30.3529 28.7315 28.6631 30.4555 26.5681 30.503C27.0313 31.5585 28.0824 32.2979 29.3025 32.2979C30.9497 32.2979 32.289 30.9526 32.289 29.2988ZM26.4546 28.3956H26.4798C27.4571 28.3956 28.2521 27.5975 28.2521 26.6159V26.4913C27.3993 26.8143 26.7313 27.5181 26.4546 28.3956ZM34.3898 29.2988C34.3898 32.1156 32.1075 34.4076 29.3025 34.4076C26.4976 34.4076 24.2152 32.1156 24.2152 29.2988C24.2152 26.4817 26.4976 24.1897 29.3025 24.1897C32.1075 24.1897 34.3898 26.4817 34.3898 29.2988ZM13.7826 13.3399H18.5607C19.1404 13.3399 19.6111 12.8675 19.6111 12.285C19.6111 11.7029 19.1404 11.2302 18.5607 11.2302H13.7826C13.2019 11.2302 12.7321 11.7029 12.7321 12.285C12.7321 12.8675 13.2019 13.3399 13.7826 13.3399ZM19.6111 17.406C19.6111 16.8235 19.1404 16.3512 18.5607 16.3512H13.7826C13.2019 16.3512 12.7321 16.8235 12.7321 17.406C12.7321 17.9882 13.2019 18.4609 13.7826 18.4609H18.5607C19.1404 18.4609 19.6111 17.9882 19.6111 17.406ZM9.66984 21.4718H4.89174C4.31105 21.4718 3.84132 21.9442 3.84132 22.5267C3.84132 23.1098 4.31105 23.5815 4.89174 23.5815H9.66984C10.2495 23.5815 10.7203 23.1098 10.7203 22.5267C10.7203 21.9442 10.2495 21.4718 9.66984 21.4718ZM9.66984 16.3512H4.89174C4.31105 16.3512 3.84132 16.8235 3.84132 17.406C3.84132 17.9882 4.31105 18.4609 4.89174 18.4609H9.66984C10.2495 18.4609 10.7203 17.9882 10.7203 17.406C10.7203 16.8235 10.2495 16.3512 9.66984 16.3512ZM10.7203 12.285C10.7203 12.8675 10.2495 13.3399 9.66984 13.3399H4.89174C4.31105 13.3399 3.84132 12.8675 3.84132 12.285C3.84132 11.7029 4.31105 11.2302 4.89174 11.2302H9.66984C10.2495 11.2302 10.7203 11.7029 10.7203 12.285Z" fill="white"/>
</mask>
<g mask="url(#mask1_1139_13119)">
<mask id="mask2_1139_13119" style="mask-type:luminance" maskUnits="userSpaceOnUse" x="0" y="0" width="40" height="40">
<path d="M37.8464 28.8287H37.0119C36.51 28.8287 36.0781 28.4717 35.9815 27.9763C35.8069 27.0826 35.4622 26.2463 34.9564 25.4901C34.6757 25.0718 34.7302 24.5131 35.0851 24.1561L35.675 23.5644L35.0125 22.8995L34.4236 23.4918C34.0681 23.8482 33.5117 23.9029 33.0949 23.6211C32.3422 23.1131 31.5094 22.767 30.6195 22.5916C30.1261 22.4943 29.7706 22.0609 29.7706 21.5568V20.7189H28.8344V21.5568C28.8344 22.0609 28.4789 22.4943 27.9859 22.5916C27.096 22.767 26.2632 23.1131 25.5102 23.6211C25.0933 23.9029 24.5369 23.8482 24.1817 23.4918L23.5925 22.8995L22.9304 23.5644L23.5203 24.1561C23.8748 24.5131 23.9296 25.0718 23.649 25.4901C23.1428 26.2463 22.7984 27.0826 22.6235 27.9763C22.527 28.4717 22.095 28.8287 21.5934 28.8287H20.759V29.7689H21.5934C22.095 29.7689 22.527 30.1255 22.6235 30.621C22.7984 31.5147 23.1428 32.351 23.649 33.1062C23.9296 33.5248 23.8748 34.0842 23.5203 34.4412L22.9304 35.0329L23.5925 35.6978L24.1817 35.1054C24.5369 34.7494 25.0933 34.6944 25.5102 34.9762C26.2632 35.4842 27.096 35.8303 27.9859 36.006C28.4789 36.1019 28.8344 36.5367 28.8344 37.0404V37.8784H29.7706V37.0404C29.7706 36.5367 30.1261 36.1019 30.6195 36.006C31.5094 35.8303 32.3422 35.4842 33.0949 34.9762C33.5111 34.6944 34.0681 34.7484 34.4236 35.1054L35.0125 35.6978L35.675 35.0329L35.0851 34.4412C34.7302 34.0842 34.6757 33.5248 34.9564 33.1062C35.4622 32.351 35.8069 31.5147 35.9815 30.6203C36.0781 30.1255 36.51 29.7689 37.0119 29.7689H37.8464V28.8287ZM18.6582 28.3956V27.7739C18.6582 27.1914 19.1285 26.719 19.7086 26.719H20.7715C20.9428 26.1451 21.1706 25.5923 21.4539 25.0649L20.7025 24.3103C20.5052 24.1122 20.395 23.8439 20.395 23.5644C20.395 23.2845 20.5052 23.0158 20.7025 22.8184L22.8497 20.6625C23.2596 20.2505 23.9244 20.2505 24.3353 20.6625L25.0867 21.4168C25.6119 21.1326 26.1621 20.9038 26.7336 20.7318V19.664C26.7336 19.0819 27.2043 18.6092 27.784 18.6092H28.2521V8.54162H4.89174C4.31105 8.54162 3.84132 8.06924 3.84132 7.48677C3.84132 6.90462 4.31105 6.43192 4.89174 6.43192H28.2521V3.94411C28.2521 2.96376 27.4571 2.16537 26.4798 2.16537H3.90336C2.9268 2.16537 2.13209 2.96376 2.13209 3.94411V26.6159C2.13209 27.5975 2.9268 28.3956 3.90336 28.3956H18.6582ZM39.9472 27.7739V30.8237C39.9472 31.4059 39.4765 31.8786 38.8968 31.8786H37.8336C37.6622 32.4522 37.4344 33.005 37.1515 33.5324L37.9025 34.2869C38.3135 34.6996 38.3135 35.3672 37.9025 35.7789L35.7554 37.9351C35.5588 38.1332 35.2916 38.244 35.0125 38.244C34.7345 38.244 34.4673 38.1332 34.2697 37.9351L33.5186 37.1805C32.9934 37.465 32.4429 37.6938 31.8715 37.8659V38.9332C31.8715 39.5157 31.4011 39.9881 30.821 39.9881H27.784C27.2043 39.9881 26.7336 39.5157 26.7336 38.9332V37.8659C26.1621 37.6938 25.6119 37.465 25.0867 37.1805L24.3353 37.9351C24.1377 38.1332 23.8705 38.244 23.5925 38.244C23.3135 38.244 23.0463 38.1332 22.8497 37.9351L20.7025 35.7789C20.2916 35.3672 20.2916 34.6996 20.7025 34.2869L21.4539 33.5324C21.1706 33.005 20.9428 32.4522 20.7715 31.8786H19.7086C19.1285 31.8786 18.6582 31.4059 18.6582 30.8237V30.5053H3.90336C1.76805 30.5053 0.03125 28.7612 0.03125 26.6159V3.94411C0.03125 1.7998 1.76805 0.0556641 3.90336 0.0556641H26.4798C28.6161 0.0556641 30.3529 1.7998 30.3529 3.94411V18.6092H30.821C31.4011 18.6092 31.8715 19.0819 31.8715 19.664V20.7318C32.4429 20.9038 32.9934 21.1326 33.5186 21.4168L34.2697 20.6625C34.6807 20.2505 35.3454 20.2505 35.7554 20.6625L37.9025 22.8184C38.1001 23.0158 38.2101 23.2845 38.2101 23.5644C38.2101 23.8439 38.1001 24.1122 37.9025 24.3103L37.1515 25.0649C37.4344 25.5923 37.6622 26.1451 37.8336 26.719H38.8968C39.4765 26.719 39.9472 27.1914 39.9472 27.7739ZM32.289 29.2988C32.289 28.0158 31.4831 26.9188 30.3529 26.4913V26.6159C30.3529 28.7315 28.6631 30.4555 26.5681 30.503C27.0313 31.5585 28.0824 32.2979 29.3025 32.2979C30.9497 32.2979 32.289 30.9526 32.289 29.2988ZM26.4546 28.3956H26.4798C27.4571 28.3956 28.2521 27.5975 28.2521 26.6159V26.4913C27.3993 26.8143 26.7313 27.5181 26.4546 28.3956ZM34.3898 29.2988C34.3898 32.1156 32.1075 34.4076 29.3025 34.4076C26.4976 34.4076 24.2152 32.1156 24.2152 29.2988C24.2152 26.4817 26.4976 24.1897 29.3025 24.1897C32.1075 24.1897 34.3898 26.4817 34.3898 29.2988ZM13.7826 13.3399H18.5607C19.1404 13.3399 19.6111 12.8675 19.6111 12.285C19.6111 11.7029 19.1404 11.2302 18.5607 11.2302H13.7826C13.2019 11.2302 12.7321 11.7029 12.7321 12.285C12.7321 12.8675 13.2019 13.3399 13.7826 13.3399ZM19.6111 17.406C19.6111 16.8235 19.1404 16.3512 18.5607 16.3512H13.7826C13.2019 16.3512 12.7321 16.8235 12.7321 17.406C12.7321 17.9882 13.2019 18.4609 13.7826 18.4609H18.5607C19.1404 18.4609 19.6111 17.9882 19.6111 17.406ZM9.66984 21.4718H4.89174C4.31105 21.4718 3.84132 21.9442 3.84132 22.5267C3.84132 23.1098 4.31105 23.5815 4.89174 23.5815H9.66984C10.2495 23.5815 10.7203 23.1098 10.7203 22.5267C10.7203 21.9442 10.2495 21.4718 9.66984 21.4718ZM9.66984 16.3512H4.89174C4.31105 16.3512 3.84132 16.8235 3.84132 17.406C3.84132 17.9882 4.31105 18.4609 4.89174 18.4609H9.66984C10.2495 18.4609 10.7203 17.9882 10.7203 17.406C10.7203 16.8235 10.2495 16.3512 9.66984 16.3512ZM10.7203 12.285C10.7203 12.8675 10.2495 13.3399 9.66984 13.3399H4.89174C4.31105 13.3399 3.84132 12.8675 3.84132 12.285C3.84132 11.7029 4.31105 11.2302 4.89174 11.2302H9.66984C10.2495 11.2302 10.7203 11.7029 10.7203 12.285Z" fill="white"/>
</mask>
<g mask="url(#mask2_1139_13119)">
<path d="M-17.187 30.0054L29.9686 57.3455L57.1663 10.0393L10.0107 -17.3008L-17.187 30.0054Z" fill="#111119"/>
</g>
</g>
</g>
</svg>
