<svg width="42" height="42" viewBox="0 0 42 42" fill="none" xmlns="http://www.w3.org/2000/svg">
<path d="M9.33301 23.4997H32.6663M20.9997 23.4997V40.9997M11.833 19.333V11.833H9.87967C8.76973 11.833 7.69134 12.2024 6.81444 12.8828C5.93753 13.5633 5.31198 14.5162 5.03634 15.5913L1.83301 28.083V28.4997H13.4997V30.9997C13.4997 33.4997 13.4997 35.1663 14.7497 37.6663C14.7497 37.6663 15.9997 40.1663 17.6663 40.1663M30.1663 19.333V11.833H32.1197C33.2296 11.833 34.308 12.2024 35.1849 12.8828C36.0618 13.5633 36.6874 14.5162 36.963 15.5913L40.1663 28.083V28.4997H28.4997V30.9997C28.4997 33.4997 28.4997 35.1663 27.2497 37.6663C27.2497 37.6663 25.9997 40.1663 24.333 40.1663M11.583 8.49967C11.583 8.49967 8.91634 6.83301 8.91634 4.74967C8.91634 3.97701 9.22328 3.23599 9.76964 2.68964C10.316 2.14328 11.057 1.83634 11.8297 1.83634C12.6023 1.83634 13.3434 2.14328 13.8897 2.68964C14.4361 3.23599 14.743 3.97701 14.743 4.74967C14.743 6.83301 12.083 8.49967 12.083 8.49967H11.583ZM30.4163 8.49967C30.4163 8.49967 33.083 6.83301 33.083 4.74967C33.083 3.97613 32.7757 3.23426 32.2287 2.68728C31.6818 2.1403 30.9399 1.83301 30.1663 1.83301C28.5563 1.83301 27.2563 3.13967 27.2563 4.74967C27.2563 6.83301 29.9163 8.49967 29.9163 8.49967H30.4163Z" stroke="#111119" stroke-width="2"/>
</svg>
