<svg width="40" height="40" viewBox="0 0 40 40" fill="none" xmlns="http://www.w3.org/2000/svg">
<path d="M26.5585 20.8789C26.597 20.5875 26.6177 20.2939 26.6204 20C26.6177 19.7061 26.597 19.4125 26.5585 19.1211L28.4733 17.6314C28.5597 17.5657 28.6188 17.4707 28.6392 17.3645C28.6596 17.2583 28.6399 17.1483 28.5838 17.0557L26.7707 13.9312C26.7182 13.8374 26.633 13.7661 26.5312 13.7304C26.4294 13.6948 26.318 13.6974 26.218 13.7378L23.9582 14.6431C23.488 14.2865 22.9738 13.9911 22.4282 13.7642L22.0877 11.378C22.0727 11.2724 22.0195 11.1758 21.9381 11.1063C21.8568 11.0367 21.7528 10.999 21.6455 11H18.0104C17.9031 10.999 17.7991 11.0367 17.7177 11.1063C17.6364 11.1758 17.5832 11.2724 17.5682 11.378L17.2277 13.7642C16.6814 13.9897 16.167 14.2851 15.6977 14.6431L13.4291 13.7378C13.3291 13.6974 13.2177 13.6948 13.1158 13.7304C13.014 13.7661 12.9288 13.8374 12.8763 13.9312L11.0632 17.0557C11.0072 17.1483 10.9874 17.2583 11.0078 17.3645C11.0282 17.4707 11.0873 17.5657 11.1738 17.6314L13.0842 19.1211C13.0458 19.4126 13.0251 19.7061 13.0222 20C13.025 20.2939 13.0456 20.5875 13.0842 20.8789L11.1738 22.3686C11.0873 22.4343 11.0282 22.5293 11.0078 22.6355C10.9874 22.7417 11.0072 22.8517 11.0632 22.9443L12.8763 26.0688C12.9288 26.1626 13.014 26.2339 13.1158 26.2696C13.2177 26.3052 13.3291 26.3026 13.4291 26.2622L15.6888 25.3569C16.159 25.7135 16.6732 26.0089 17.2189 26.2358L17.5594 28.622C17.5744 28.7276 17.6275 28.8242 17.7089 28.8937C17.7903 28.9633 17.8943 29.001 18.0016 29H21.6278C21.7351 29.001 21.8391 28.9633 21.9205 28.8937C22.0018 28.8242 22.055 28.7276 22.07 28.622L22.4105 26.2358C22.9569 26.0103 23.4712 25.7149 23.9406 25.3569L26.2003 26.2622C26.3003 26.3026 26.4117 26.3052 26.5135 26.2696C26.6153 26.2339 26.7005 26.1626 26.753 26.0688L28.5661 22.9443C28.6222 22.8517 28.6419 22.7417 28.6215 22.6355C28.6011 22.5293 28.542 22.4343 28.4556 22.3686L26.5585 20.8789ZM19.8235 23.1553C19.1954 23.1561 18.5811 22.9718 18.0583 22.6256C17.5356 22.2795 17.128 21.787 16.887 21.2105C16.646 20.634 16.5825 19.9995 16.7045 19.3871C16.8265 18.7748 17.1285 18.2122 17.5724 17.7704C18.0163 17.3287 18.582 17.0278 19.198 16.9057C19.8141 16.7836 20.4527 16.8458 21.0331 17.0845C21.6136 17.3232 22.1097 17.7276 22.4588 18.2466C22.8079 18.7655 22.9942 19.3758 22.9942 20C22.9948 20.4141 22.9132 20.8243 22.7541 21.2071C22.595 21.5899 22.3616 21.9378 22.0671 22.2308C21.7726 22.5239 21.4229 22.7564 21.0379 22.915C20.6529 23.0736 20.2403 23.1553 19.8235 23.1553Z" stroke="#111119" stroke-width="2"/>
<path d="M35.7266 17.0635C36.3802 20.5475 35.8584 24.1499 34.2432 27.3053C32.6279 30.4607 30.0107 32.9904 26.8022 34.4974C23.5938 36.0045 19.9757 36.4035 16.5159 35.6319C13.0562 34.8603 9.95051 32.9618 7.68644 30.2342M4.27434 22.9522C3.62079 19.4682 4.14258 15.8658 5.75781 12.7104C7.37305 9.55499 9.99029 7.02525 13.1988 5.5182C16.4072 4.01115 20.0253 3.61211 23.4851 4.38371C26.9448 5.15531 30.0505 7.05386 32.3145 9.7814" stroke="#111119" stroke-width="2" stroke-linecap="round" stroke-linejoin="round"/>
<path d="M32.3147 4.01172V10.1663H26.1602" stroke="#111119" stroke-width="2" stroke-linecap="round" stroke-linejoin="round"/>
<path d="M6.00022 35.1548L6.00022 29.0002L12.1548 29.0002" stroke="#111119" stroke-width="2" stroke-linecap="round" stroke-linejoin="round"/>
</svg>
