<svg width="40" height="40" viewBox="0 0 40 40" fill="none" xmlns="http://www.w3.org/2000/svg">
<path d="M33.6207 39H22.8621C19.8954 39 17.4828 36.5653 17.4828 33.5714C17.4843 32.349 17.8938 31.1627 18.6453 30.2039C19.3968 29.2451 20.4464 28.5698 21.6248 28.2867C22.1923 25.1219 24.9439 22.7143 28.2414 22.7143C31.5389 22.7143 34.2904 25.1219 34.8579 28.2867C36.0364 28.5698 37.086 29.2451 37.8374 30.2039C38.5889 31.1627 38.9985 32.349 39 33.5714C39 36.5653 36.5874 39 33.6207 39ZM22.8621 36.2857H33.6207C35.104 36.2857 36.3103 35.0684 36.3103 33.5714C36.3103 32.0745 35.104 30.8571 33.6207 30.8571H32.2759V29.5C32.2759 27.2553 30.4657 25.4286 28.2414 25.4286C26.017 25.4286 24.2069 27.2553 24.2069 29.5V30.8571H22.8621C21.3801 30.8571 20.1724 32.0759 20.1724 33.5714C20.1724 35.067 21.3801 36.2857 22.8621 36.2857ZM13.4483 34.9286H10.7586C5.56759 34.9286 1.34483 30.6671 1.34483 25.4286V22.7143H4.03448V25.4286C4.03448 29.1702 7.05093 32.2143 10.7586 32.2143H13.4483V34.9286ZM33.6207 18.6429V13.2143C33.6207 7.97571 29.3979 3.71429 24.2069 3.71429H14.7931V6.42857H24.2069C27.9146 6.42857 30.931 9.47264 30.931 13.2143V18.6429H33.6207ZM10.7586 9.14286V3.71429C10.7586 2.99441 10.4752 2.30402 9.97084 1.795C9.46643 1.28597 8.78231 1 8.06897 1H0V18.6429H2.68966V11.8571H4.68L7.8269 18.6429H10.7586L7.62517 11.8571H8.06897C8.78231 11.8571 9.46643 11.5712 9.97084 11.0621C10.4752 10.5531 10.7586 9.86273 10.7586 9.14286ZM2.68966 3.71429H8.06897V9.14286H2.68966V3.71429Z" fill="#111119"/>
</svg>
