<svg width="40" height="40" viewBox="0 0 40 40" fill="none" xmlns="http://www.w3.org/2000/svg">
<path d="M0.32421 34.6888V32.6682H6.82947C4.31158 30.5654 2.54386 28.4957 1.52632 26.4589C0.508772 24.4235 0 22.2708 0 20.001C0 16.6953 0.98386 13.7257 2.95158 11.0921C4.9193 8.45861 7.44421 6.62255 10.5263 5.58396V7.72984C8.01684 8.72668 5.98597 10.3452 4.43368 12.5854C2.8814 14.8242 2.10526 17.2961 2.10526 20.001C2.10526 22.0526 2.55649 23.9419 3.45895 25.6688C4.36281 27.3944 5.96281 29.2278 8.25895 31.1689V25.0525H10.3642V34.6908L0.32421 34.6888ZM22.1053 35C20.6737 35 19.4386 34.5016 18.4 33.5047C17.3614 32.5079 16.8421 31.3225 16.8421 29.9485C16.8421 28.5906 17.3193 27.4281 18.2737 26.4609C19.2309 25.4937 20.4975 24.9764 22.0737 24.9091C22.5888 23.7223 23.3937 22.7497 24.4884 21.9913C25.5832 21.2343 26.894 20.8557 28.4211 20.8557C30.146 20.8557 31.6435 21.404 32.9137 22.5005C34.1825 23.5984 34.9172 25.0707 35.1179 26.9176H35.7642C36.9418 26.9176 37.9418 27.3021 38.7642 28.0713C39.5881 28.8405 40 29.7862 40 30.9083C40 32.0371 39.593 33.0016 38.7789 33.8018C37.9621 34.6006 36.9656 35 35.7895 35H22.1053ZM29.2632 17.2792C28.9095 15.7436 28.3214 14.3345 27.4989 13.0521C26.6751 11.7711 25.2821 10.2738 23.32 8.56032V14.6383H21.2147V5H31.2568V7.02061H24.7495C26.9867 8.92268 28.5677 10.6806 29.4926 12.2944C30.4161 13.9095 31.0456 15.5718 31.3811 17.2813L29.2632 17.2792ZM22.1053 32.9794H35.7895C36.3677 32.9794 36.8632 32.7814 37.2758 32.3853C37.6884 31.9893 37.8947 31.5138 37.8947 30.9588C37.8947 30.4038 37.6884 29.9283 37.2758 29.5322C36.8632 29.1362 36.3677 28.9382 35.7895 28.9382H33.1579V27.4227C33.1579 26.1605 32.6968 25.0876 31.7747 24.2039C30.854 23.3189 29.7361 22.8763 28.4211 22.8763C27.106 22.8763 26.0084 23.2603 25.1284 24.0281C24.247 24.7959 23.7789 25.72 23.7242 26.8004V26.9176H22.1053C21.2393 26.9176 20.4961 27.2146 19.8758 27.8086C19.2568 28.4041 18.9474 29.1173 18.9474 29.9485C18.9474 30.7796 19.2568 31.4929 19.8758 32.0883C20.4961 32.6824 21.2393 32.9794 22.1053 32.9794Z" fill="#111119"/>
</svg>
