<svg width="40" height="40" viewBox="0 0 40 40" fill="none" xmlns="http://www.w3.org/2000/svg">
<path d="M23.3246 15.8317C23.1269 15.2715 22.7602 14.7864 22.2752 14.4433C21.7902 14.1003 21.2106 13.9162 20.6165 13.9164H18.3935C17.7593 13.9131 17.1464 14.1451 16.6733 14.5674C16.2002 14.9898 15.9005 15.5727 15.8322 16.2032C15.7639 16.8337 15.9319 17.4672 16.3036 17.9811C16.6753 18.495 17.2243 18.8528 17.8445 18.9853L21.2295 19.7239C21.9217 19.8754 22.5334 20.2773 22.9472 20.8525C23.361 21.4277 23.5477 22.1354 23.4714 22.8399C23.395 23.5443 23.0611 24.1956 22.5337 24.6688C22.0063 25.142 21.3226 25.4035 20.6141 25.4033H18.7012C17.4506 25.4033 16.3871 24.6057 15.9932 23.4905M19.6589 13.9164V11.0435M19.6589 28.2762V25.4058M7.68457 35.9965V29.842H13.8391" stroke="#111119" stroke-width="2" stroke-linecap="round" stroke-linejoin="round"/>
<path d="M35.7257 17.0562C36.3792 20.5402 35.8574 24.1426 34.2422 27.2979C32.627 30.4533 30.0097 32.9831 26.8013 34.4901C23.5928 35.9972 19.9747 36.3962 16.515 35.6246C13.0552 34.853 9.94953 32.9545 7.68546 30.2269M4.27337 22.9448C3.61981 19.4608 4.1416 15.8584 5.75684 12.703C7.37207 9.54766 9.98931 7.01792 13.1978 5.51087C16.4062 4.00382 20.0243 3.60478 23.4841 4.37638C26.9439 5.14798 30.0495 7.04654 32.3136 9.77407" stroke="#111119" stroke-width="2" stroke-linecap="round" stroke-linejoin="round"/>
<path d="M32.3137 4.00391V10.1585H26.1592" stroke="#111119" stroke-width="2" stroke-linecap="round" stroke-linejoin="round"/>
</svg>
