<svg width="40" height="40" viewBox="0 0 40 40" fill="none" xmlns="http://www.w3.org/2000/svg">
<path d="M26.8329 32.9929C26.4827 32.9929 26.1468 32.8574 25.8992 32.6161C25.6516 32.3749 25.5124 32.0476 25.5124 31.7065C25.5124 31.3653 25.6516 31.038 25.8992 30.7968C26.1468 30.5555 26.4827 30.42 26.8329 30.42H32.521C33.139 30.4198 33.7478 30.2743 34.2957 29.9959C34.8436 29.7175 35.3144 29.3143 35.6681 28.8206C36.0219 28.327 36.2481 27.7575 36.3276 27.1604C36.407 26.5634 36.3374 25.9565 36.1246 25.3912C35.9118 24.826 35.5622 24.3192 35.1053 23.9138C34.6484 23.5084 34.0979 23.2164 33.5004 23.0627C32.903 22.9089 32.2763 22.898 31.6735 23.0307C31.0708 23.1634 30.5098 23.4359 30.0383 23.825L30.0441 23.8208C29.7755 24.0303 29.4336 24.1295 29.0911 24.0972C28.7486 24.065 28.4325 23.904 28.2099 23.6483C27.9873 23.3927 27.8759 23.0625 27.8992 22.7281C27.9225 22.3936 28.0788 22.0812 28.3347 21.8572L28.3362 21.8557C29.2052 21.1374 30.2542 20.6565 31.3762 20.4618L31.4153 20.4562C31.4012 18.3343 30.6908 16.2725 29.388 14.5721C28.0851 12.8717 26.2581 11.622 24.1741 11.0055C22.0901 10.3891 19.8583 10.4382 17.805 11.1459C15.7518 11.8535 13.9846 13.1824 12.762 14.9385L12.7388 14.9738C13.7373 15.3197 14.6692 15.8262 15.4958 16.4723L15.477 16.4582C15.6923 16.6238 15.8493 16.8506 15.9264 17.1071C16.0035 17.3636 15.9968 17.6371 15.9072 17.8897C15.8176 18.1423 15.6495 18.3615 15.4263 18.5169C15.2031 18.6723 14.9358 18.7562 14.6615 18.7569C14.3566 18.7575 14.061 18.6545 13.8257 18.4657L13.8286 18.4671C12.619 17.5126 11.1088 16.9933 9.55229 16.9968H9.53198C7.70551 16.9968 5.9553 17.7037 4.66379 18.962C3.37229 20.2203 2.64672 21.9268 2.64672 23.7063C2.64672 25.4857 3.37229 27.1923 4.66379 28.4506C5.9553 29.7089 7.70696 30.4157 9.53343 30.4157H12.5705C12.9207 30.4157 13.2566 30.5513 13.5042 30.7925C13.7518 31.0338 13.8909 31.361 13.8909 31.7022C13.8909 32.0434 13.7518 32.3706 13.5042 32.6119C13.2566 32.8532 12.9207 32.9887 12.5705 32.9887H9.52908C7.00181 32.9887 4.57805 32.0106 2.791 30.2695C1.00395 28.5285 0 26.1671 0 23.7049C0 21.2427 1.00395 18.8813 2.791 17.1402C4.57805 15.3992 7.00181 14.4211 9.52908 14.4211C9.67708 14.4211 9.82219 14.4324 9.97165 14.4394C12.2106 10.5701 16.4013 8 21.2072 8C24.6161 8.00037 27.8854 9.31979 30.296 11.6681C32.7066 14.0164 34.0613 17.2014 34.0621 20.5226V20.5481C36.9177 21.2464 39 23.7247 39 26.6779C38.9996 28.3515 38.317 29.9565 37.1024 31.1399C35.8877 32.3233 34.2403 32.9883 32.5225 32.9887L26.8329 32.9929ZM18.1759 31.7065V25.7873L16.6828 27.2434C16.4349 27.4847 16.0989 27.6201 15.7485 27.62C15.3981 27.6199 15.0622 27.4841 14.8145 27.2427C14.5669 27.0012 14.4278 26.6738 14.428 26.3325C14.4281 25.9911 14.5674 25.6638 14.8153 25.4225L18.5633 21.7695C18.6459 21.6912 18.7386 21.6237 18.839 21.5688L18.8463 21.5659C18.871 21.5518 18.8956 21.5405 18.9203 21.5292C19.0147 21.4798 19.1151 21.4423 19.2192 21.4175L19.2279 21.4161H19.2424C19.3549 21.3961 19.4696 21.3908 19.5834 21.4005H19.5791H19.5936C19.6183 21.4005 19.6429 21.4034 19.6661 21.409H19.6647C19.7895 21.4231 19.9027 21.4514 20.01 21.4952L20.0013 21.4924C20.073 21.5225 20.142 21.5584 20.2074 21.5999L20.203 21.597C20.2234 21.6083 20.2393 21.6225 20.2582 21.6338C20.308 21.6685 20.3555 21.7063 20.4004 21.7469L20.4323 21.7723L24.1833 25.4254C24.306 25.5448 24.4034 25.6867 24.4698 25.8428C24.5363 25.9989 24.5705 26.1663 24.5706 26.3353C24.5706 26.5043 24.5365 26.6717 24.4702 26.8279C24.4039 26.984 24.3066 27.1259 24.184 27.2455C24.0614 27.3651 23.9158 27.4599 23.7555 27.5247C23.5953 27.5894 23.4235 27.6228 23.25 27.6228C23.0766 27.6229 22.9048 27.5897 22.7445 27.525C22.5842 27.4604 22.4385 27.3657 22.3158 27.2462L20.8212 25.7901V31.7135C20.8212 32.0547 20.6821 32.3819 20.4344 32.6232C20.1868 32.8645 19.8509 33 19.5007 33C19.1505 33 18.8147 32.8645 18.567 32.6232C18.3194 32.3819 18.1803 32.0547 18.1803 31.7135L18.1759 31.7065Z" fill="#111119"/>
</svg>
