<svg width="40" height="40" viewBox="0 0 40 40" fill="none" xmlns="http://www.w3.org/2000/svg">
<path d="M28.75 38.7504C28.4934 38.7505 28.243 38.6716 28.0328 38.5244C27.8226 38.3773 27.6628 38.169 27.575 37.9279L23.655 27.1466L21.1488 32.9929C21.0524 33.2177 20.8922 33.4093 20.688 33.5439C20.4838 33.6786 20.2446 33.7504 20 33.7504H15V31.2504H19.175L22.6 23.2579C22.8037 22.7866 23.2862 22.4879 23.785 22.5004C24.0356 22.5074 24.2783 22.5895 24.4816 22.7362C24.6849 22.8829 24.8394 23.0873 24.925 23.3229L28.845 34.1054L31.3512 28.2579C31.4476 28.0331 31.6078 27.8415 31.812 27.7068C32.0162 27.5722 32.2554 27.5004 32.5 27.5004H37.5V30.0004H33.325L29.9 37.9929C29.8035 38.2179 29.6432 38.4096 29.4387 38.5443C29.2343 38.6789 28.9948 38.7506 28.75 38.7504Z" fill="#111119"/>
<path d="M11.25 31.25H5V12.5H35V23.75H37.5V12.5C37.5 11.1212 36.3788 10 35 10H27.5V5C27.5 3.62125 26.3788 2.5 25 2.5H15C13.6212 2.5 12.5 3.62125 12.5 5V10H5C3.62125 10 2.5 11.1212 2.5 12.5V31.25C2.5 32.6288 3.62125 33.75 5 33.75H11.25V31.25ZM15 5H25V10H15V5Z" fill="#111119"/>
</svg>
