<svg width="40" height="40" viewBox="0 0 40 40" fill="none" xmlns="http://www.w3.org/2000/svg">
<mask id="mask0_1187_13159" style="mask-type:luminance" maskUnits="userSpaceOnUse" x="0" y="0" width="40" height="40">
<path d="M29.7975 4.91761H25.1142C24.5342 4.91761 24.0638 5.388 24.0638 5.96803C24.0638 6.54871 24.5342 7.01845 25.1142 7.01845H29.7975C30.3782 7.01845 30.8479 6.54871 30.8479 5.96803C30.8479 5.388 30.3782 4.91761 29.7975 4.91761ZM19.958 4.91761H15.2748C14.6941 4.91761 14.2243 5.388 14.2243 5.96803C14.2243 6.54871 14.6941 7.01845 15.2748 7.01845H19.958C20.5377 7.01845 21.0084 6.54871 21.0084 5.96803C21.0084 5.388 20.5377 4.91761 19.958 4.91761ZM28.6016 23.8613H34.4807C35.0614 23.8613 35.5311 23.3906 35.5311 22.8109C35.5311 22.2302 35.0614 21.7604 34.4807 21.7604H28.6016C28.0216 21.7604 27.5512 22.2302 27.5512 22.8109C27.5512 23.3906 28.0216 23.8613 28.6016 23.8613ZM23.9479 22.8109C23.9479 22.2302 23.4772 21.7604 22.8975 21.7604H17.0184C16.4378 21.7604 15.968 22.2302 15.968 22.8109C15.968 23.3906 16.4378 23.8613 17.0184 23.8613H22.8975C23.4772 23.8613 23.9479 23.3906 23.9479 22.8109ZM11.3134 21.7604H5.43428C4.85458 21.7604 4.38386 22.2302 4.38386 22.8109C4.38386 23.3906 4.85458 23.8613 5.43428 23.8613H11.3134C11.894 23.8613 12.3638 23.3906 12.3638 22.8109C12.3638 22.2302 11.894 21.7604 11.3134 21.7604ZM28.6016 17.7948H34.4807C35.0614 17.7948 35.5311 17.3244 35.5311 16.7444C35.5311 16.1637 35.0614 15.6939 34.4807 15.6939H28.6016C28.0216 15.6939 27.5512 16.1637 27.5512 16.7444C27.5512 17.3244 28.0216 17.7948 28.6016 17.7948ZM17.0184 17.7948H22.8975C23.4772 17.7948 23.9479 17.3244 23.9479 16.7444C23.9479 16.1637 23.4772 15.6939 22.8975 15.6939H17.0184C16.4378 15.6939 15.968 16.1637 15.968 16.7444C15.968 17.3244 16.4378 17.7948 17.0184 17.7948ZM11.3134 15.6939H5.43428C4.85458 15.6939 4.38386 16.1637 4.38386 16.7444C4.38386 17.3244 4.85458 17.7948 5.43428 17.7948H11.3134C11.894 17.7948 12.3638 17.3244 12.3638 16.7444C12.3638 16.1637 11.894 15.6939 11.3134 15.6939ZM10.1175 4.91761H5.43428C4.85458 4.91761 4.38386 5.388 4.38386 5.96803C4.38386 6.54871 4.85458 7.01845 5.43428 7.01845H10.1175C10.6982 7.01845 11.1679 6.54871 11.1679 5.96803C11.1679 5.388 10.6982 4.91761 10.1175 4.91761ZM37.8151 4.03919C37.8151 2.97039 36.9452 2.10084 35.8755 2.10084H4.03952C2.97039 2.10084 2.10084 2.97039 2.10084 4.03919V8.81828H34.6301C35.2107 8.81828 35.6805 9.28801 35.6805 9.8687C35.6805 10.4487 35.2107 10.9191 34.6301 10.9191H2.10084V35.8755C2.10084 36.9452 2.97039 37.8151 4.03952 37.8151H35.8755C36.9452 37.8151 37.8151 36.9452 37.8151 35.8755V4.03919ZM39.916 4.03919V35.8755C39.916 38.1033 38.1033 39.916 35.8755 39.916H4.03952C1.81165 39.916 0 38.1033 0 35.8755V4.03919C0 1.81165 1.81165 0 4.03952 0H35.8755C38.1033 0 39.916 1.81165 39.916 4.03919ZM25.1897 26.7417C24.7788 26.3317 24.114 26.3317 23.704 26.7417L21.3278 29.1183C20.9175 29.5283 20.9175 30.193 21.3278 30.604L23.704 32.9806C23.9092 33.1857 24.178 33.2881 24.4469 33.2881C24.7157 33.2881 24.9839 33.1857 25.1897 32.9806C25.6001 32.5696 25.6001 31.9049 25.1897 31.4949L23.5553 29.8611L25.1897 28.2277C25.6001 27.8168 25.6001 27.152 25.1897 26.7417ZM33.8252 29.4022C33.4152 28.9923 32.7505 28.9923 32.3395 29.4022C31.9292 29.8126 31.9292 30.4779 32.3395 30.8879L33.9739 32.5217L32.3395 34.1554C31.9292 34.5654 31.9292 35.2311 32.3395 35.6411C32.5443 35.8459 32.8135 35.9487 33.0823 35.9487C33.3512 35.9487 33.62 35.8459 33.8252 35.6411L36.2017 33.2645C36.399 33.0672 36.509 32.7997 36.509 32.5217C36.509 32.2426 36.399 31.9754 36.2017 31.7788L33.8252 29.4022ZM31.5504 28.2392L27.7941 35.6529C27.6083 36.0183 27.2394 36.2283 26.8563 36.2283C26.6964 36.2283 26.5343 36.1922 26.3823 36.1151C25.8646 35.8528 25.6578 35.2209 25.9201 34.7033L29.6757 27.2899C29.9386 26.7723 30.5705 26.5655 31.0872 26.8277C31.6048 27.0897 31.8126 27.7216 31.5504 28.2392Z" fill="white"/>
</mask>
<g mask="url(#mask0_1187_13159)">
<mask id="mask1_1187_13159" style="mask-type:luminance" maskUnits="userSpaceOnUse" x="0" y="0" width="40" height="40">
<path d="M29.7975 4.91761H25.1142C24.5342 4.91761 24.0638 5.388 24.0638 5.96803C24.0638 6.54871 24.5342 7.01845 25.1142 7.01845H29.7975C30.3782 7.01845 30.8479 6.54871 30.8479 5.96803C30.8479 5.388 30.3782 4.91761 29.7975 4.91761ZM19.958 4.91761H15.2748C14.6941 4.91761 14.2243 5.388 14.2243 5.96803C14.2243 6.54871 14.6941 7.01845 15.2748 7.01845H19.958C20.5377 7.01845 21.0084 6.54871 21.0084 5.96803C21.0084 5.388 20.5377 4.91761 19.958 4.91761ZM28.6016 23.8613H34.4807C35.0614 23.8613 35.5311 23.3906 35.5311 22.8109C35.5311 22.2302 35.0614 21.7604 34.4807 21.7604H28.6016C28.0216 21.7604 27.5512 22.2302 27.5512 22.8109C27.5512 23.3906 28.0216 23.8613 28.6016 23.8613ZM23.9479 22.8109C23.9479 22.2302 23.4772 21.7604 22.8975 21.7604H17.0184C16.4378 21.7604 15.968 22.2302 15.968 22.8109C15.968 23.3906 16.4378 23.8613 17.0184 23.8613H22.8975C23.4772 23.8613 23.9479 23.3906 23.9479 22.8109ZM11.3134 21.7604H5.43428C4.85458 21.7604 4.38386 22.2302 4.38386 22.8109C4.38386 23.3906 4.85458 23.8613 5.43428 23.8613H11.3134C11.894 23.8613 12.3638 23.3906 12.3638 22.8109C12.3638 22.2302 11.894 21.7604 11.3134 21.7604ZM28.6016 17.7948H34.4807C35.0614 17.7948 35.5311 17.3244 35.5311 16.7444C35.5311 16.1637 35.0614 15.6939 34.4807 15.6939H28.6016C28.0216 15.6939 27.5512 16.1637 27.5512 16.7444C27.5512 17.3244 28.0216 17.7948 28.6016 17.7948ZM17.0184 17.7948H22.8975C23.4772 17.7948 23.9479 17.3244 23.9479 16.7444C23.9479 16.1637 23.4772 15.6939 22.8975 15.6939H17.0184C16.4378 15.6939 15.968 16.1637 15.968 16.7444C15.968 17.3244 16.4378 17.7948 17.0184 17.7948ZM11.3134 15.6939H5.43428C4.85458 15.6939 4.38386 16.1637 4.38386 16.7444C4.38386 17.3244 4.85458 17.7948 5.43428 17.7948H11.3134C11.894 17.7948 12.3638 17.3244 12.3638 16.7444C12.3638 16.1637 11.894 15.6939 11.3134 15.6939ZM10.1175 4.91761H5.43428C4.85458 4.91761 4.38386 5.388 4.38386 5.96803C4.38386 6.54871 4.85458 7.01845 5.43428 7.01845H10.1175C10.6982 7.01845 11.1679 6.54871 11.1679 5.96803C11.1679 5.388 10.6982 4.91761 10.1175 4.91761ZM37.8151 4.03919C37.8151 2.97039 36.9452 2.10084 35.8755 2.10084H4.03952C2.97039 2.10084 2.10084 2.97039 2.10084 4.03919V8.81828H34.6301C35.2107 8.81828 35.6805 9.28801 35.6805 9.8687C35.6805 10.4487 35.2107 10.9191 34.6301 10.9191H2.10084V35.8755C2.10084 36.9452 2.97039 37.8151 4.03952 37.8151H35.8755C36.9452 37.8151 37.8151 36.9452 37.8151 35.8755V4.03919ZM39.916 4.03919V35.8755C39.916 38.1033 38.1033 39.916 35.8755 39.916H4.03952C1.81165 39.916 0 38.1033 0 35.8755V4.03919C0 1.81165 1.81165 0 4.03952 0H35.8755C38.1033 0 39.916 1.81165 39.916 4.03919ZM25.1897 26.7417C24.7788 26.3317 24.114 26.3317 23.704 26.7417L21.3278 29.1183C20.9175 29.5283 20.9175 30.193 21.3278 30.604L23.704 32.9806C23.9092 33.1857 24.178 33.2881 24.4469 33.2881C24.7157 33.2881 24.9839 33.1857 25.1897 32.9806C25.6001 32.5696 25.6001 31.9049 25.1897 31.4949L23.5553 29.8611L25.1897 28.2277C25.6001 27.8168 25.6001 27.152 25.1897 26.7417ZM33.8252 29.4022C33.4152 28.9923 32.7505 28.9923 32.3395 29.4022C31.9292 29.8126 31.9292 30.4779 32.3395 30.8879L33.9739 32.5217L32.3395 34.1554C31.9292 34.5654 31.9292 35.2311 32.3395 35.6411C32.5443 35.8459 32.8135 35.9487 33.0823 35.9487C33.3512 35.9487 33.62 35.8459 33.8252 35.6411L36.2017 33.2645C36.399 33.0672 36.509 32.7997 36.509 32.5217C36.509 32.2426 36.399 31.9754 36.2017 31.7788L33.8252 29.4022ZM31.5504 28.2392L27.7941 35.6529C27.6083 36.0183 27.2394 36.2283 26.8563 36.2283C26.6964 36.2283 26.5343 36.1922 26.3823 36.1151C25.8646 35.8528 25.6578 35.2209 25.9201 34.7033L29.6757 27.2899C29.9386 26.7723 30.5705 26.5655 31.0872 26.8277C31.6048 27.0897 31.8126 27.7216 31.5504 28.2392Z" fill="white"/>
</mask>
<g mask="url(#mask1_1187_13159)">
<path d="M-17.284 29.9371L29.9373 57.2001L57.2003 9.97915L9.97933 -17.2842L-17.284 29.9371Z" fill="#111119"/>
</g>
</g>
</svg>
