<svg width="40" height="40" viewBox="0 0 40 40" fill="none" xmlns="http://www.w3.org/2000/svg">
<mask id="mask0_1187_13181" style="mask-type:luminance" maskUnits="userSpaceOnUse" x="0" y="0" width="40" height="40">
<path d="M0 0H40V40H0V0Z" fill="white"/>
</mask>
<g mask="url(#mask0_1187_13181)">
<mask id="mask1_1187_13181" style="mask-type:luminance" maskUnits="userSpaceOnUse" x="0" y="0" width="40" height="40">
<path d="M37.8466 18.8103C37.8466 19.7957 37.1665 20.5975 36.3304 20.5975H19.8185C18.9824 20.5975 18.3022 19.7957 18.3022 18.8103V4.35407C18.3022 3.369 18.9824 2.56802 19.8185 2.56802H36.3304C37.1665 2.56802 37.8466 3.369 37.8466 4.35407V18.8103ZM36.3304 0.0927734H19.8185C17.824 0.0927734 16.2014 2.00336 16.2014 4.35407V18.8103C16.2014 21.161 17.824 23.0727 19.8185 23.0727H26.9984V25.9402H23.2957C22.7156 25.9402 22.2453 26.4936 22.2453 27.1778C22.2453 27.8608 22.7156 28.4154 23.2957 28.4154H32.802C33.382 28.4154 33.8524 27.8608 33.8524 27.1778C33.8524 26.4936 33.382 25.9402 32.802 25.9402H29.0992V23.0727H36.3304C38.3249 23.0727 39.9475 21.161 39.9475 18.8103V4.35407C39.9475 2.00336 38.3249 0.0927734 36.3304 0.0927734ZM25.1099 13.3736C24.9048 13.6154 24.6359 13.7372 24.3671 13.7372C24.0983 13.7372 23.8294 13.6154 23.6243 13.3736L21.5838 10.9699C21.3869 10.7383 21.2762 10.4235 21.2762 10.0947C21.2762 9.76674 21.3869 9.45192 21.5838 9.21948L23.6243 6.81539C24.0346 6.33233 24.6996 6.33233 25.1099 6.81539C25.5199 7.29961 25.5199 8.0828 25.1099 8.56586L23.8124 10.0947L25.1099 11.6243C25.5199 12.1074 25.5199 12.8906 25.1099 13.3736ZM34.565 11.9113C34.762 12.143 34.8726 12.4578 34.8726 12.7865C34.8726 13.1145 34.762 13.4293 34.565 13.6618L32.5246 16.0659C32.3194 16.3076 32.0506 16.4282 31.7818 16.4282C31.5129 16.4282 31.2441 16.3076 31.0389 16.0659C30.6289 15.5828 30.6289 14.7985 31.0389 14.3154L32.3368 12.7865L31.0389 11.2581C30.6289 10.7746 30.6289 9.99067 31.0389 9.50761C31.4492 9.02416 32.1143 9.02416 32.5246 9.50761L34.565 11.9113ZM30.5984 8.53337L27.3733 16.0334C27.1881 16.4638 26.8189 16.7114 26.4354 16.7114C26.2759 16.7114 26.1138 16.6688 25.9618 16.5779C25.4441 16.2689 25.2373 15.5244 25.4993 14.9145L28.7244 7.41448C28.9867 6.80456 29.6189 6.56091 30.1362 6.86992C30.6535 7.17894 30.8607 7.92345 30.5984 8.53337ZM2.13233 24.153V4.35407C2.13233 3.369 2.81248 2.56802 3.64855 2.56802H10.4073C11.2434 2.56802 11.9236 3.369 11.9236 4.35407V24.153C11.9236 25.138 11.2434 25.9402 10.4073 25.9402H3.64855C2.81248 25.9402 2.13233 25.138 2.13233 24.153ZM28.7917 30.0839C28.4913 29.7292 28.0393 29.6233 27.647 29.8155C27.5184 29.8777 27.4048 29.969 27.3096 30.0796C27.3086 30.0816 27.3073 30.0816 27.306 30.0839L24.1833 33.7631C23.7733 34.2462 23.7733 35.0293 24.1833 35.5136C24.3884 35.7549 24.6573 35.876 24.9261 35.876C25.195 35.876 25.4638 35.7549 25.669 35.5136L26.9984 33.946V37.4826H8.07837V28.4154H10.4073C12.4018 28.4154 14.0244 26.5037 14.0244 24.153V4.35407C14.0244 2.00336 12.4018 0.0927734 10.4073 0.0927734H3.64855C1.65407 0.0927734 0.0314941 2.00336 0.0314941 4.35407V24.153C0.0314941 26.5037 1.65407 28.4154 3.64855 28.4154H5.97753V38.7202C5.97753 39.4036 6.44792 39.9578 7.02795 39.9578H28.0488C28.6289 39.9578 29.0992 39.4036 29.0992 38.7202V33.946L30.429 35.5136C30.839 35.9966 31.5041 35.9966 31.9144 35.5136C32.3247 35.0293 32.3247 34.2462 31.9144 33.7631L28.7917 30.0839Z" fill="white"/>
</mask>
<g mask="url(#mask1_1187_13181)">
<mask id="mask2_1187_13181" style="mask-type:luminance" maskUnits="userSpaceOnUse" x="0" y="0" width="40" height="40">
<path d="M37.8476 18.8103C37.8476 19.7957 37.1675 20.5975 36.3314 20.5975H19.8194C18.9834 20.5975 18.3032 19.7957 18.3032 18.8103V4.35407C18.3032 3.369 18.9834 2.56802 19.8194 2.56802H36.3314C37.1675 2.56802 37.8476 3.369 37.8476 4.35407V18.8103ZM36.3314 0.0927734H19.8194C17.8249 0.0927734 16.2024 2.00336 16.2024 4.35407V18.8103C16.2024 21.161 17.8249 23.0727 19.8194 23.0727H26.9994V25.9402H23.2967C22.7166 25.9402 22.2462 26.4936 22.2462 27.1778C22.2462 27.8608 22.7166 28.4154 23.2967 28.4154H32.803C33.383 28.4154 33.8534 27.8608 33.8534 27.1778C33.8534 26.4936 33.383 25.9402 32.803 25.9402H29.1002V23.0727H36.3314C38.3259 23.0727 39.9484 21.161 39.9484 18.8103V4.35407C39.9484 2.00336 38.3259 0.0927734 36.3314 0.0927734ZM25.1109 13.3736C24.9058 13.6154 24.6369 13.7372 24.3681 13.7372C24.0992 13.7372 23.8304 13.6154 23.6252 13.3736L21.5848 10.9699C21.3878 10.7383 21.2772 10.4235 21.2772 10.0947C21.2772 9.76674 21.3878 9.45192 21.5848 9.21948L23.6252 6.81539C24.0356 6.33233 24.7006 6.33233 25.1109 6.81539C25.5209 7.29961 25.5209 8.0828 25.1109 8.56586L23.8133 10.0947L25.1109 11.6243C25.5209 12.1074 25.5209 12.8906 25.1109 13.3736ZM34.566 11.9113C34.763 12.143 34.8736 12.4578 34.8736 12.7865C34.8736 13.1145 34.763 13.4293 34.566 13.6618L32.5256 16.0659C32.3204 16.3076 32.0516 16.4282 31.7827 16.4282C31.5139 16.4282 31.2451 16.3076 31.0399 16.0659C30.6299 15.5828 30.6299 14.7985 31.0399 14.3154L32.3378 12.7865L31.0399 11.2581C30.6299 10.7746 30.6299 9.99067 31.0399 9.50761C31.4502 9.02416 32.1153 9.02416 32.5256 9.50761L34.566 11.9113ZM30.5994 8.53337L27.3743 16.0334C27.1891 16.4638 26.8198 16.7114 26.4364 16.7114C26.2769 16.7114 26.1147 16.6688 25.9627 16.5779C25.4451 16.2689 25.2383 15.5244 25.5002 14.9145L28.7254 7.41448C28.9876 6.80456 29.6199 6.56091 30.1372 6.86992C30.6545 7.17894 30.8616 7.92345 30.5994 8.53337ZM2.13331 24.153V4.35407C2.13331 3.369 2.81346 2.56802 3.64953 2.56802H10.4083C11.2444 2.56802 11.9245 3.369 11.9245 4.35407V24.153C11.9245 25.138 11.2444 25.9402 10.4083 25.9402H3.64953C2.81346 25.9402 2.13331 25.138 2.13331 24.153ZM28.7926 30.0839C28.4923 29.7292 28.0403 29.6233 27.648 29.8155C27.5193 29.8777 27.4058 29.969 27.3106 30.0796C27.3096 30.0816 27.3083 30.0816 27.307 30.0839L24.1843 33.7631C23.7743 34.2462 23.7743 35.0293 24.1843 35.5136C24.3894 35.7549 24.6583 35.876 24.9271 35.876C25.1959 35.876 25.4648 35.7549 25.6699 35.5136L26.9994 33.946V37.4826H8.07935V28.4154H10.4083C12.4028 28.4154 14.0254 26.5037 14.0254 24.153V4.35407C14.0254 2.00336 12.4028 0.0927734 10.4083 0.0927734H3.64953C1.65504 0.0927734 0.0324707 2.00336 0.0324707 4.35407V24.153C0.0324707 26.5037 1.65504 28.4154 3.64953 28.4154H5.97851V38.7202C5.97851 39.4036 6.4489 39.9578 7.02893 39.9578H28.0498C28.6298 39.9578 29.1002 39.4036 29.1002 38.7202V33.946L30.43 35.5136C30.84 35.9966 31.505 35.9966 31.9153 35.5136C32.3257 35.0293 32.3257 34.2462 31.9153 33.7631L28.7926 30.0839Z" fill="white"/>
</mask>
<g mask="url(#mask2_1187_13181)">
<path d="M-14.619 29.9923L29.969 60.323L54.5991 10.0596L10.011 -20.2715L-14.619 29.9923Z" fill="#111119"/>
</g>
</g>
</g>
</svg>
