<svg width="46" height="26" viewBox="0 0 46 26" fill="none" xmlns="http://www.w3.org/2000/svg">
<mask id="path-1-outside-1_1173_13335" maskUnits="userSpaceOnUse" x="-1" y="-1" width="48" height="28" fill="black">
<rect fill="white" x="-1" y="-1" width="48" height="28"/>
<path d="M22.66 12.715C22.66 14.5117 22.3917 16.18 21.855 17.72C21.3417 19.26 20.6067 20.6017 19.65 21.745C18.6933 22.8883 17.5383 23.7867 16.185 24.44C14.855 25.0933 13.3733 25.42 11.74 25.42C10.1067 25.42 8.61333 25.105 7.26 24.475C5.93 23.8217 4.78667 22.9233 3.83 21.78C2.89667 20.6367 2.17333 19.3067 1.66 17.79C1.14667 16.25 0.89 14.5817 0.89 12.785C0.89 11.0117 1.14667 9.355 1.66 7.815C2.19667 6.25167 2.94333 4.89833 3.9 3.755C4.85667 2.61167 6 1.71333 7.33 1.06C8.68333 0.406666 10.1767 0.0799996 11.81 0.0799996C13.4433 0.0799996 14.925 0.406666 16.255 1.06C17.6083 1.69 18.7517 2.57667 19.685 3.72C20.6417 4.86333 21.3767 6.205 21.89 7.745C22.4033 9.285 22.66 10.9417 22.66 12.715ZM17.13 12.785C17.13 11.665 17.0017 10.6267 16.745 9.67C16.4883 8.71333 16.1267 7.885 15.66 7.185C15.1933 6.485 14.6217 5.93667 13.945 5.54C13.2917 5.14333 12.5567 4.945 11.74 4.945C10.9233 4.945 10.1883 5.14333 9.535 5.54C8.88167 5.91333 8.32167 6.45 7.855 7.15C7.38833 7.82667 7.02667 8.64333 6.77 9.6C6.53667 10.5567 6.42 11.595 6.42 12.715C6.42 13.835 6.54833 14.8733 6.805 15.83C7.06167 16.7867 7.42333 17.615 7.89 18.315C8.35667 19.015 8.91667 19.5633 9.57 19.96C10.2467 20.3567 10.9933 20.555 11.81 20.555C12.6267 20.555 13.3617 20.3683 14.015 19.995C14.6683 19.5983 15.2283 19.05 15.695 18.35C16.1617 17.65 16.5117 16.8333 16.745 15.9C17.0017 14.9433 17.13 13.905 17.13 12.785ZM44.8664 2.775L42.0314 6.94C41.6347 6.63667 41.2497 6.36833 40.8764 6.135C40.5031 5.87833 40.1181 5.66833 39.7214 5.505C39.3247 5.34167 38.9047 5.21333 38.4614 5.12C38.0181 5.02667 37.5397 4.98 37.0264 4.98C36.2564 4.98 35.5797 5.13167 34.9964 5.435C34.4364 5.715 33.9464 6.11167 33.5264 6.625C33.1297 7.115 32.8147 7.71 32.5814 8.41C32.3481 9.11 32.1847 9.85667 32.0914 10.65C32.6981 10.2533 33.3864 9.89167 34.1564 9.565C34.9497 9.23833 35.9531 9.075 37.1664 9.075C38.3797 9.075 39.5114 9.25 40.5614 9.6C41.6114 9.92667 42.5214 10.4167 43.2914 11.07C44.0614 11.7233 44.6681 12.54 45.1114 13.52C45.5547 14.5 45.7764 15.6317 45.7764 16.915C45.7764 18.175 45.5314 19.33 45.0414 20.38C44.5747 21.4067 43.9214 22.305 43.0814 23.075C42.2647 23.8217 41.2847 24.405 40.1414 24.825C38.9981 25.2217 37.7614 25.42 36.4314 25.42C34.8214 25.42 33.4564 25.1983 32.3364 24.755C31.2164 24.3117 30.2247 23.6583 29.3614 22.795C28.4747 21.9083 27.7631 20.7533 27.2264 19.33C26.7131 17.8833 26.4564 15.935 26.4564 13.485C26.4564 11.595 26.6664 9.83333 27.0864 8.2C27.5297 6.56667 28.1947 5.155 29.0814 3.965C29.9681 2.75167 31.0881 1.80666 32.4414 1.13C33.7947 0.429999 35.3814 0.0799996 37.2014 0.0799996C38.0414 0.0799996 38.8114 0.138333 39.5114 0.254999C40.2114 0.371666 40.8647 0.546666 41.4714 0.779999C42.0781 1.01333 42.6614 1.305 43.2214 1.655C43.7814 1.98166 44.3297 2.355 44.8664 2.775ZM40.4214 17.16C40.4214 16.11 40.0364 15.2467 39.2664 14.57C38.5197 13.8933 37.4814 13.555 36.1514 13.555C34.8214 13.555 33.7831 13.8933 33.0364 14.57C32.3131 15.2233 31.9514 16.075 31.9514 17.125C31.9514 18.1983 32.3247 19.085 33.0714 19.785C33.8414 20.4617 34.8914 20.8 36.2214 20.8C37.5514 20.8 38.5781 20.4617 39.3014 19.785C40.0481 19.1083 40.4214 18.2333 40.4214 17.16Z"/>
</mask>
<path d="M21.855 17.72L20.9106 17.3909L20.9063 17.4038L21.855 17.72ZM19.65 21.745L20.4169 22.3867L20.4169 22.3867L19.65 21.745ZM16.185 24.44L15.7502 23.5394L15.7441 23.5424L16.185 24.44ZM7.26 24.475L6.8191 25.3726L6.82849 25.3772L6.83797 25.3816L7.26 24.475ZM3.83 21.78L3.05528 22.4124L3.06306 22.4217L3.83 21.78ZM1.66 17.79L0.711307 18.1062L0.712784 18.1106L1.66 17.79ZM1.66 7.815L0.71414 7.4903L0.711317 7.49877L1.66 7.815ZM3.9 3.755L3.13306 3.11328L3.13306 3.11328L3.9 3.755ZM7.33 1.06L6.89524 0.159427L6.8891 0.162445L7.33 1.06ZM16.255 1.06L15.8141 1.95755L15.8235 1.96217L15.833 1.96658L16.255 1.06ZM19.685 3.72L18.9103 4.35242L18.9181 4.36172L19.685 3.72ZM21.89 7.745L22.8387 7.42877L22.8387 7.42877L21.89 7.745ZM16.745 9.67L17.7108 9.41087L17.7108 9.41087L16.745 9.67ZM15.66 7.185L14.8279 7.7397L14.828 7.7397L15.66 7.185ZM13.945 5.54L13.426 6.39479L13.4326 6.39879L13.4393 6.4027L13.945 5.54ZM9.535 5.54L10.0311 6.40824L10.0426 6.40166L10.054 6.39479L9.535 5.54ZM7.855 7.15L8.67821 7.71773L8.68268 7.71125L8.68705 7.7047L7.855 7.15ZM6.77 9.6L5.80416 9.34087L5.80119 9.35192L5.79848 9.36304L6.77 9.6ZM6.805 15.83L5.83916 16.0891L5.83916 16.0891L6.805 15.83ZM7.89 18.315L7.05795 18.8697L7.05795 18.8697L7.89 18.315ZM9.57 19.96L9.05102 20.8148L9.05762 20.8188L9.06428 20.8227L9.57 19.96ZM14.015 19.995L14.5111 20.8632L14.5226 20.8567L14.534 20.8498L14.015 19.995ZM15.695 18.35L16.5271 18.9047L16.5271 18.9047L15.695 18.35ZM16.745 15.9L15.7792 15.6409L15.7769 15.6491L15.7749 15.6575L16.745 15.9ZM21.66 12.715C21.66 14.411 21.4069 15.9669 20.9107 17.3909L22.7993 18.0491C23.3764 16.3931 23.66 14.6124 23.66 12.715H21.66ZM20.9063 17.4038C20.4291 18.8355 19.7524 20.0643 18.8831 21.1033L20.4169 22.3867C21.4609 21.139 22.2542 19.6845 22.8037 18.0362L20.9063 17.4038ZM18.8831 21.1033C18.0183 22.1368 16.9768 22.9473 15.7503 23.5394L16.6198 25.3406C18.0999 24.626 19.3684 23.6398 20.4169 22.3867L18.8831 21.1033ZM15.7441 23.5424C14.5649 24.1217 13.2363 24.42 11.74 24.42V26.42C13.5104 26.42 15.1452 26.0649 16.6259 25.3376L15.7441 23.5424ZM11.74 24.42C10.2386 24.42 8.89114 24.1313 7.68203 23.5684L6.83797 25.3816C8.33553 26.0787 9.97476 26.42 11.74 26.42V24.42ZM7.7009 23.5774C6.49703 22.9861 5.46454 22.1752 4.59694 21.1383L3.06306 22.4217C4.10879 23.6715 5.36297 24.6573 6.8191 25.3726L7.7009 23.5774ZM4.60466 21.1476C3.75324 20.1046 3.08543 18.8823 2.60722 17.4694L0.712784 18.1106C1.26124 19.731 2.0401 21.1687 3.05534 22.4124L4.60466 21.1476ZM2.60868 17.4738C2.13276 16.046 1.89 14.4856 1.89 12.785H-0.11C-0.11 14.6778 0.16057 16.454 0.711317 18.1062L2.60868 17.4738ZM1.89 12.785C1.89 11.1093 2.13233 9.56028 2.60868 8.13123L0.711317 7.49877C0.161001 9.14972 -0.11 10.9141 -0.11 12.785H1.89ZM2.60582 8.13968C3.10707 6.67953 3.79688 5.43654 4.66694 4.39672L3.13306 3.11328C2.08978 4.36012 1.28626 5.8238 0.714178 7.49031L2.60582 8.13968ZM4.66694 4.39672C5.53454 3.35983 6.56703 2.54893 7.7709 1.95755L6.8891 0.162445C5.43297 0.877737 4.17879 1.8635 3.13306 3.11328L4.66694 4.39672ZM7.76475 1.96055C8.97102 1.37822 10.3139 1.08 11.81 1.08V-0.92C10.0394 -0.92 8.39565 -0.564883 6.89525 0.159448L7.76475 1.96055ZM11.81 1.08C13.3063 1.08 14.6349 1.37827 15.8141 1.95755L16.6959 0.162445C15.2152 -0.564943 13.5804 -0.92 11.81 -0.92V1.08ZM15.833 1.96658C17.0512 2.53369 18.0735 3.32724 18.9103 4.35238L20.4597 3.08762C19.4298 1.82609 18.1655 0.846307 16.677 0.153418L15.833 1.96658ZM18.9181 4.36172C19.7874 5.40068 20.4641 6.62954 20.9413 8.06123L22.8387 7.42877C22.2892 5.78046 21.4959 4.32598 20.4519 3.07828L18.9181 4.36172ZM20.9413 8.06123C21.4177 9.49028 21.66 11.0393 21.66 12.715H23.66C23.66 10.8441 23.389 9.07972 22.8387 7.42877L20.9413 8.06123ZM18.13 12.785C18.13 11.5887 17.9929 10.4622 17.7108 9.41087L15.7792 9.92913C16.0104 10.7911 16.13 11.7413 16.13 12.785H18.13ZM17.7108 9.41087C17.4308 8.36724 17.0287 7.43532 16.4921 6.6303L14.828 7.7397C15.2246 8.33468 15.5458 9.05943 15.7792 9.92913L17.7108 9.41087ZM16.4921 6.6303C15.9476 5.81358 15.2674 5.15607 14.4507 4.6773L13.4393 6.4027C13.9759 6.71726 14.4391 7.15642 14.8279 7.7397L16.4921 6.6303ZM14.464 4.68521C13.6434 4.18701 12.7267 3.945 11.74 3.945V5.945C12.3867 5.945 12.9399 6.09965 13.426 6.39479L14.464 4.68521ZM11.74 3.945C10.7534 3.945 9.83658 4.18701 9.01602 4.68521L10.054 6.39479C10.5401 6.09965 11.0933 5.945 11.74 5.945V3.945ZM9.03886 4.67176C8.23553 5.1308 7.56546 5.78154 7.02295 6.5953L8.68705 7.7047C9.07788 7.11846 9.52781 6.69586 10.0311 6.40824L9.03886 4.67176ZM7.03179 6.58227C6.48857 7.36994 6.08452 8.29588 5.80416 9.34087L7.73584 9.85913C7.96881 8.99079 8.2881 8.28339 8.67821 7.71773L7.03179 6.58227ZM5.79848 9.36304C5.54385 10.407 5.42 11.5259 5.42 12.715H7.42C7.42 11.6641 7.52949 10.7063 7.74152 9.83696L5.79848 9.36304ZM5.42 12.715C5.42 13.9113 5.55709 15.0378 5.83916 16.0891L7.77084 15.5709C7.53958 14.7089 7.42 13.7587 7.42 12.715H5.42ZM5.83916 16.0891C6.11916 17.1328 6.52127 18.0647 7.05795 18.8697L8.72205 17.7603C8.3254 17.1653 8.00418 16.4406 7.77084 15.5709L5.83916 16.0891ZM7.05795 18.8697C7.59751 19.679 8.2605 20.3348 9.05102 20.8148L10.089 19.1052C9.57283 18.7918 9.11583 18.351 8.72205 17.7603L7.05795 18.8697ZM9.06428 20.8227C9.90078 21.3131 10.8232 21.555 11.81 21.555V19.555C11.1635 19.555 10.5926 19.4003 10.0757 19.0973L9.06428 20.8227ZM11.81 21.555C12.7854 21.555 13.694 21.3302 14.5111 20.8632L13.5189 19.1268C13.0294 19.4065 12.4679 19.555 11.81 19.555V21.555ZM14.534 20.8498C15.3245 20.3698 15.9875 19.714 16.5271 18.9047L14.863 17.7953C14.4692 18.386 14.0122 18.8268 13.496 19.1402L14.534 20.8498ZM16.5271 18.9047C17.0657 18.0967 17.4579 17.1713 17.7151 16.1425L15.7749 15.6575C15.5654 16.4953 15.2576 17.2033 14.863 17.7953L16.5271 18.9047ZM17.7108 16.1591C17.9929 15.1078 18.13 13.9813 18.13 12.785H16.13C16.13 13.8287 16.0104 14.7789 15.7792 15.6409L17.7108 16.1591ZM44.8664 2.775L45.6931 3.33769L46.2196 2.56417L45.4827 1.98749L44.8664 2.775ZM42.0314 6.94L41.424 7.73436L42.2634 8.37631L42.8581 7.50269L42.0314 6.94ZM40.8764 6.135L40.3099 6.95904L40.3279 6.97142L40.3464 6.983L40.8764 6.135ZM39.7214 5.505L40.1022 4.58032L40.1022 4.58032L39.7214 5.505ZM34.9964 5.435L35.4436 6.32943L35.4507 6.32588L35.4578 6.32222L34.9964 5.435ZM33.5264 6.625L32.7524 5.99175L32.7492 5.9958L33.5264 6.625ZM32.5814 8.41L33.5301 8.72623L33.5301 8.72623L32.5814 8.41ZM32.0914 10.65L31.0983 10.5332L30.8483 12.6576L32.6387 11.487L32.0914 10.65ZM34.1564 9.565L33.7756 8.64027L33.7659 8.64442L34.1564 9.565ZM40.5614 9.6L40.2452 10.5487L40.2547 10.5519L40.2643 10.5549L40.5614 9.6ZM43.2914 11.07L43.9384 10.3075L43.9384 10.3075L43.2914 11.07ZM45.0414 20.38L44.1352 19.9571L44.131 19.9662L45.0414 20.38ZM43.0814 23.075L43.7562 23.813L43.7571 23.8122L43.0814 23.075ZM40.1414 24.825L40.4692 25.7698L40.4777 25.7668L40.4862 25.7637L40.1414 24.825ZM32.3364 24.755L32.7045 23.8252L32.7045 23.8252L32.3364 24.755ZM27.2264 19.33L26.284 19.6644L26.2873 19.6736L26.2907 19.6828L27.2264 19.33ZM27.0864 8.2L26.1212 7.93803L26.1179 7.95096L27.0864 8.2ZM29.0814 3.965L29.8833 4.56251L29.8888 4.55502L29.0814 3.965ZM32.4414 1.13L32.8887 2.02451L32.9008 2.01822L32.4414 1.13ZM43.2214 1.655L42.6914 2.503L42.7044 2.51109L42.7175 2.51878L43.2214 1.655ZM39.2664 14.57L38.5949 15.311L38.6006 15.3161L38.6063 15.3212L39.2664 14.57ZM33.0364 14.57L33.7067 15.3121L33.7079 15.311L33.0364 14.57ZM33.0714 19.785L32.3875 20.5145L32.3992 20.5255L32.4113 20.5362L33.0714 19.785ZM39.3014 19.785L38.6299 19.044L38.624 19.0493L38.6183 19.0547L39.3014 19.785ZM44.0397 2.21231L41.2047 6.37731L42.8581 7.50269L45.6931 3.33769L44.0397 2.21231ZM42.6389 6.14564C42.2205 5.8257 41.8096 5.53902 41.4064 5.287L40.3464 6.983C40.6898 7.19764 41.049 7.44763 41.424 7.73436L42.6389 6.14564ZM41.4429 5.31096C41.0147 5.01651 40.5677 4.77201 40.1022 4.58032L39.3407 6.42968C39.6685 6.56466 39.9915 6.74015 40.3099 6.95904L41.4429 5.31096ZM40.1022 4.58032C39.6459 4.39247 39.1672 4.24667 38.6674 4.14145L38.2554 6.09855C38.6423 6.18 39.0035 6.29086 39.3407 6.42968L40.1022 4.58032ZM38.6674 4.14145C38.1481 4.03212 37.6 3.98 37.0264 3.98V5.98C37.4795 5.98 37.8881 6.02121 38.2554 6.09855L38.6674 4.14145ZM37.0264 3.98C36.1233 3.98 35.2834 4.15863 34.5351 4.54778L35.4578 6.32222C35.8761 6.1047 36.3895 5.98 37.0264 5.98V3.98ZM34.5492 4.54057C33.8557 4.88733 33.2563 5.3759 32.7524 5.99176L34.3004 7.25824C34.6365 6.84743 35.0171 6.54267 35.4436 6.32943L34.5492 4.54057ZM32.7492 5.9958C32.2654 6.59341 31.8976 7.29903 31.6327 8.09377L33.5301 8.72623C33.7318 8.12097 33.9941 7.63659 34.3037 7.2542L32.7492 5.9958ZM31.6327 8.09377C31.3761 8.86362 31.1989 9.67755 31.0983 10.5332L33.0846 10.7668C33.1706 10.0358 33.32 9.35638 33.5301 8.72623L31.6327 8.09377ZM32.6387 11.487C33.1888 11.1273 33.8234 10.7925 34.547 10.4856L33.7659 8.64442C32.9494 8.9908 32.2074 9.3794 31.5442 9.81303L32.6387 11.487ZM34.5372 10.4897C35.1707 10.2288 36.0336 10.075 37.1664 10.075V8.075C35.8725 8.075 34.7287 8.24787 33.7757 8.64032L34.5372 10.4897ZM37.1664 10.075C38.2826 10.075 39.3065 10.2358 40.2452 10.5487L40.8776 8.65132C39.7163 8.26422 38.4769 8.075 37.1664 8.075V10.075ZM40.2643 10.5549C41.1975 10.8452 41.9858 11.2736 42.6444 11.8325L43.9384 10.3075C43.0571 9.5597 42.0253 9.00817 40.8585 8.64514L40.2643 10.5549ZM42.6444 11.8325C43.2943 12.3839 43.8139 13.0781 44.2003 13.9322L46.0225 13.1078C45.5222 12.0019 44.8286 11.0628 43.9384 10.3075L42.6444 11.8325ZM44.2003 13.9322C44.5748 14.7601 44.7764 15.7468 44.7764 16.915H46.7764C46.7764 15.5166 46.5346 14.2399 46.0225 13.1078L44.2003 13.9322ZM44.7764 16.915C44.7764 18.0418 44.5582 19.0508 44.1352 19.9571L45.9476 20.8029C46.5046 19.6092 46.7764 18.3082 46.7764 16.915H44.7764ZM44.131 19.9662C43.7206 20.8691 43.1476 21.6578 42.4057 22.3378L43.7571 23.8122C44.6952 22.9522 45.4288 21.9442 45.9518 20.7938L44.131 19.9662ZM42.4066 22.337C41.6951 22.9875 40.8303 23.5066 39.7966 23.8863L40.4862 25.7637C41.7392 25.3034 42.8344 24.6558 43.7562 23.813L42.4066 22.337ZM39.8136 23.8802C38.7856 24.2369 37.6608 24.42 36.4314 24.42V26.42C37.862 26.42 39.2105 26.2064 40.4692 25.7698L39.8136 23.8802ZM36.4314 24.42C34.9075 24.42 33.6751 24.2094 32.7045 23.8252L31.9684 25.6848C33.2377 26.1872 34.7354 26.42 36.4314 26.42V24.42ZM32.7045 23.8252C31.7133 23.4328 30.8366 22.856 30.0685 22.0879L28.6543 23.5021C29.6129 24.4607 30.7195 25.1905 31.9684 25.6848L32.7045 23.8252ZM30.0685 22.0879C29.3014 21.3208 28.6591 20.2953 28.1621 18.9772L26.2907 19.6828C26.8671 21.2114 27.6481 22.4959 28.6543 23.5021L30.0685 22.0879ZM28.1688 18.9956C27.7094 17.7009 27.4564 15.8806 27.4564 13.485H25.4564C25.4564 15.9894 25.7167 18.0658 26.284 19.6644L28.1688 18.9956ZM27.4564 13.485C27.4564 11.6691 27.6582 9.99191 28.0549 8.44904L26.1179 7.95096C25.6747 9.67476 25.4564 11.5209 25.4564 13.485H27.4564ZM28.0515 8.46195C28.4665 6.93285 29.0814 5.63875 29.8833 4.56248L28.2795 3.36752C27.3081 4.67125 26.593 6.20048 26.1213 7.93805L28.0515 8.46195ZM29.8888 4.55502C30.6807 3.47133 31.6769 2.6303 32.8886 2.02443L31.9942 0.235571C30.4993 0.983034 29.2554 2.032 28.274 3.37498L29.8888 4.55502ZM32.9008 2.01822C34.087 1.40466 35.5104 1.08 37.2014 1.08V-0.92C35.2524 -0.92 33.5024 -0.544658 31.982 0.241781L32.9008 2.01822ZM37.2014 1.08C37.996 1.08 38.7101 1.13525 39.347 1.24139L39.6758 -0.731395C38.9127 -0.858583 38.0868 -0.92 37.2014 -0.92V1.08ZM39.347 1.24139C39.9865 1.34798 40.5741 1.5063 41.1124 1.71334L41.8304 -0.153347C41.1554 -0.412968 40.4363 -0.604649 39.6758 -0.731395L39.347 1.24139ZM41.1124 1.71334C41.6585 1.92339 42.1847 2.1863 42.6914 2.503L43.7514 0.806999C43.1381 0.423698 42.4976 0.103274 41.8304 -0.153347L41.1124 1.71334ZM42.7175 2.51878C43.2364 2.82147 43.7473 3.16903 44.2501 3.5625L45.4827 1.98749C44.9122 1.54096 44.3264 1.14186 43.7253 0.791219L42.7175 2.51878ZM41.4214 17.16C41.4214 15.8304 40.9185 14.6906 39.9265 13.8188L38.6063 15.3212C39.1543 15.8028 39.4214 16.3896 39.4214 17.16H41.4214ZM39.9379 13.829C38.955 12.9382 37.6485 12.555 36.1514 12.555V14.555C37.3143 14.555 38.0845 14.8485 38.5949 15.311L39.9379 13.829ZM36.1514 12.555C34.6543 12.555 33.3479 12.9382 32.3649 13.829L33.7079 15.311C34.2183 14.8485 34.9885 14.555 36.1514 14.555V12.555ZM32.3661 13.8279C31.4153 14.6867 30.9514 15.8167 30.9514 17.125H32.9514C32.9514 16.3333 33.2108 15.76 33.7067 15.3121L32.3661 13.8279ZM30.9514 17.125C30.9514 18.4596 31.4284 19.6154 32.3875 20.5145L33.7553 19.0555C33.2211 18.5546 32.9514 17.9371 32.9514 17.125H30.9514ZM32.4113 20.5362C33.4126 21.4161 34.7224 21.8 36.2214 21.8V19.8C35.0604 19.8 34.2702 19.5072 33.7315 19.0338L32.4113 20.5362ZM36.2214 21.8C37.7164 21.8 39.02 21.4176 39.9846 20.5153L38.6183 19.0547C38.1361 19.5057 37.3864 19.8 36.2214 19.8V21.8ZM39.9729 20.526C40.9436 19.6463 41.4214 18.4949 41.4214 17.16H39.4214C39.4214 17.9718 39.1525 18.5704 38.6299 19.044L39.9729 20.526Z" fill="#4E4A60" mask="url(#path-1-outside-1_1173_13335)"/>
</svg>
