<svg width="194" height="1329" viewBox="0 0 194 1329" fill="none" xmlns="http://www.w3.org/2000/svg">
<path d="M97.1241 -4.24543e-06L97.1241 75.9916M97.1242 1328.7C97.1242 1243.45 97.1241 1275.15 97.1241 1200.67M5.92398e-06 75.9916L97.1241 75.9916M97.1241 75.9916C97.1241 174.113 97.1242 279.593 97.1242 363.903M97.1242 363.903L193.856 363.903M97.1242 363.903C97.1242 452.506 97.1241 559.929 97.1241 641.116M97.1241 641.116L5.65186e-06 640.26M97.1241 641.116C97.1241 721.859 97.1242 844.944 97.1242 926.273M97.1242 926.273L184.381 926.273M97.1242 926.273C97.1242 1006.2 97.1241 1112.61 97.1241 1200.67M97.1241 1200.67L-2.44035e-06 1200.67" stroke="#FFCD17"/>
</svg>
