<svg width="45" height="26" viewBox="0 0 45 26" fill="none" xmlns="http://www.w3.org/2000/svg">
<mask id="path-1-outside-1_1172_13326" maskUnits="userSpaceOnUse" x="-1" y="-1" width="47" height="28" fill="black">
<rect fill="white" x="-1" y="-1" width="47" height="28"/>
<path d="M22.66 12.715C22.66 14.5117 22.3917 16.18 21.855 17.72C21.3417 19.26 20.6067 20.6017 19.65 21.745C18.6933 22.8883 17.5383 23.7867 16.185 24.44C14.855 25.0933 13.3733 25.42 11.74 25.42C10.1067 25.42 8.61333 25.105 7.26 24.475C5.93 23.8217 4.78667 22.9233 3.83 21.78C2.89667 20.6367 2.17333 19.3067 1.66 17.79C1.14667 16.25 0.89 14.5817 0.89 12.785C0.89 11.0117 1.14667 9.355 1.66 7.815C2.19667 6.25167 2.94333 4.89833 3.9 3.755C4.85667 2.61167 6 1.71333 7.33 1.06C8.68333 0.406666 10.1767 0.0799996 11.81 0.0799996C13.4433 0.0799996 14.925 0.406666 16.255 1.06C17.6083 1.69 18.7517 2.57667 19.685 3.72C20.6417 4.86333 21.3767 6.205 21.89 7.745C22.4033 9.285 22.66 10.9417 22.66 12.715ZM17.13 12.785C17.13 11.665 17.0017 10.6267 16.745 9.67C16.4883 8.71333 16.1267 7.885 15.66 7.185C15.1933 6.485 14.6217 5.93667 13.945 5.54C13.2917 5.14333 12.5567 4.945 11.74 4.945C10.9233 4.945 10.1883 5.14333 9.535 5.54C8.88167 5.91333 8.32167 6.45 7.855 7.15C7.38833 7.82667 7.02667 8.64333 6.77 9.6C6.53667 10.5567 6.42 11.595 6.42 12.715C6.42 13.835 6.54833 14.8733 6.805 15.83C7.06167 16.7867 7.42333 17.615 7.89 18.315C8.35667 19.015 8.91667 19.5633 9.57 19.96C10.2467 20.3567 10.9933 20.555 11.81 20.555C12.6267 20.555 13.3617 20.3683 14.015 19.995C14.6683 19.5983 15.2283 19.05 15.695 18.35C16.1617 17.65 16.5117 16.8333 16.745 15.9C17.0017 14.9433 17.13 13.905 17.13 12.785ZM35.3814 4.98C34.4247 4.98 33.5731 5.24833 32.8264 5.785C32.1031 6.32167 31.2864 7.15 30.3764 8.27L26.5964 5.225C27.2031 4.40833 27.8097 3.685 28.4164 3.055C29.0464 2.425 29.7114 1.9 30.4114 1.48C31.1347 1.03667 31.9281 0.709998 32.7914 0.499998C33.6547 0.266665 34.6347 0.149999 35.7314 0.149999C37.0381 0.149999 38.2047 0.336666 39.2314 0.71C40.2814 1.06 41.1681 1.57333 41.8914 2.25C42.6381 2.90333 43.1981 3.69667 43.5714 4.63C43.9681 5.56333 44.1664 6.60167 44.1664 7.745C44.1664 8.77167 44.0264 9.69333 43.7464 10.51C43.4897 11.3033 43.0931 12.0617 42.5564 12.785C42.0431 13.5083 41.3781 14.2317 40.5614 14.955C39.7447 15.655 38.7997 16.425 37.7264 17.265L33.7364 20.345H44.4114V25H26.2814V20.73L34.4364 14.045C35.2064 13.415 35.8597 12.855 36.3964 12.365C36.9331 11.8517 37.3647 11.3733 37.6914 10.93C38.0414 10.4633 38.2864 10.02 38.4264 9.6C38.5897 9.15667 38.6714 8.67833 38.6714 8.165C38.6714 7.115 38.3681 6.32167 37.7614 5.785C37.1547 5.24833 36.3614 4.98 35.3814 4.98Z"/>
</mask>
<path d="M21.855 17.72L20.9106 17.3909L20.9063 17.4038L21.855 17.72ZM19.65 21.745L20.4169 22.3867L20.4169 22.3867L19.65 21.745ZM16.185 24.44L15.7502 23.5394L15.7441 23.5424L16.185 24.44ZM7.26 24.475L6.8191 25.3726L6.82849 25.3772L6.83797 25.3816L7.26 24.475ZM3.83 21.78L3.05528 22.4124L3.06306 22.4217L3.83 21.78ZM1.66 17.79L0.711307 18.1062L0.712784 18.1106L1.66 17.79ZM1.66 7.815L0.71414 7.4903L0.711317 7.49877L1.66 7.815ZM3.9 3.755L3.13306 3.11328L3.13306 3.11328L3.9 3.755ZM7.33 1.06L6.89524 0.159427L6.8891 0.162445L7.33 1.06ZM16.255 1.06L15.8141 1.95755L15.8235 1.96217L15.833 1.96658L16.255 1.06ZM19.685 3.72L18.9103 4.35242L18.9181 4.36172L19.685 3.72ZM21.89 7.745L22.8387 7.42877L22.8387 7.42877L21.89 7.745ZM16.745 9.67L17.7108 9.41087L17.7108 9.41087L16.745 9.67ZM15.66 7.185L14.8279 7.7397L14.828 7.7397L15.66 7.185ZM13.945 5.54L13.426 6.39479L13.4326 6.39879L13.4393 6.4027L13.945 5.54ZM9.535 5.54L10.0311 6.40824L10.0426 6.40166L10.054 6.39479L9.535 5.54ZM7.855 7.15L8.67821 7.71773L8.68268 7.71125L8.68705 7.7047L7.855 7.15ZM6.77 9.6L5.80416 9.34087L5.80119 9.35192L5.79848 9.36304L6.77 9.6ZM6.805 15.83L5.83916 16.0891L5.83916 16.0891L6.805 15.83ZM7.89 18.315L7.05795 18.8697L7.05795 18.8697L7.89 18.315ZM9.57 19.96L9.05102 20.8148L9.05762 20.8188L9.06428 20.8227L9.57 19.96ZM14.015 19.995L14.5111 20.8632L14.5226 20.8567L14.534 20.8498L14.015 19.995ZM15.695 18.35L16.5271 18.9047L16.5271 18.9047L15.695 18.35ZM16.745 15.9L15.7792 15.6409L15.7769 15.6491L15.7749 15.6575L16.745 15.9ZM21.66 12.715C21.66 14.411 21.4069 15.9669 20.9107 17.3909L22.7993 18.0491C23.3764 16.3931 23.66 14.6124 23.66 12.715H21.66ZM20.9063 17.4038C20.4291 18.8355 19.7524 20.0643 18.8831 21.1033L20.4169 22.3867C21.4609 21.139 22.2542 19.6845 22.8037 18.0362L20.9063 17.4038ZM18.8831 21.1033C18.0183 22.1368 16.9768 22.9473 15.7503 23.5394L16.6198 25.3406C18.0999 24.626 19.3684 23.6398 20.4169 22.3867L18.8831 21.1033ZM15.7441 23.5424C14.5649 24.1217 13.2363 24.42 11.74 24.42V26.42C13.5104 26.42 15.1452 26.0649 16.6259 25.3376L15.7441 23.5424ZM11.74 24.42C10.2386 24.42 8.89114 24.1313 7.68203 23.5684L6.83797 25.3816C8.33553 26.0787 9.97476 26.42 11.74 26.42V24.42ZM7.7009 23.5774C6.49703 22.9861 5.46454 22.1752 4.59694 21.1383L3.06306 22.4217C4.10879 23.6715 5.36297 24.6573 6.8191 25.3726L7.7009 23.5774ZM4.60466 21.1476C3.75324 20.1046 3.08543 18.8823 2.60722 17.4694L0.712784 18.1106C1.26124 19.731 2.0401 21.1687 3.05534 22.4124L4.60466 21.1476ZM2.60868 17.4738C2.13276 16.046 1.89 14.4856 1.89 12.785H-0.11C-0.11 14.6778 0.16057 16.454 0.711317 18.1062L2.60868 17.4738ZM1.89 12.785C1.89 11.1093 2.13233 9.56028 2.60868 8.13123L0.711317 7.49877C0.161001 9.14972 -0.11 10.9141 -0.11 12.785H1.89ZM2.60582 8.13968C3.10707 6.67953 3.79688 5.43654 4.66694 4.39672L3.13306 3.11328C2.08978 4.36012 1.28626 5.8238 0.714178 7.49031L2.60582 8.13968ZM4.66694 4.39672C5.53454 3.35983 6.56703 2.54893 7.7709 1.95755L6.8891 0.162445C5.43297 0.877737 4.17879 1.8635 3.13306 3.11328L4.66694 4.39672ZM7.76475 1.96055C8.97102 1.37822 10.3139 1.08 11.81 1.08V-0.92C10.0394 -0.92 8.39565 -0.564883 6.89525 0.159448L7.76475 1.96055ZM11.81 1.08C13.3063 1.08 14.6349 1.37827 15.8141 1.95755L16.6959 0.162445C15.2152 -0.564943 13.5804 -0.92 11.81 -0.92V1.08ZM15.833 1.96658C17.0512 2.53369 18.0735 3.32724 18.9103 4.35238L20.4597 3.08762C19.4298 1.82609 18.1655 0.846307 16.677 0.153418L15.833 1.96658ZM18.9181 4.36172C19.7874 5.40068 20.4641 6.62954 20.9413 8.06123L22.8387 7.42877C22.2892 5.78046 21.4959 4.32598 20.4519 3.07828L18.9181 4.36172ZM20.9413 8.06123C21.4177 9.49028 21.66 11.0393 21.66 12.715H23.66C23.66 10.8441 23.389 9.07972 22.8387 7.42877L20.9413 8.06123ZM18.13 12.785C18.13 11.5887 17.9929 10.4622 17.7108 9.41087L15.7792 9.92913C16.0104 10.7911 16.13 11.7413 16.13 12.785H18.13ZM17.7108 9.41087C17.4308 8.36724 17.0287 7.43532 16.4921 6.6303L14.828 7.7397C15.2246 8.33468 15.5458 9.05943 15.7792 9.92913L17.7108 9.41087ZM16.4921 6.6303C15.9476 5.81358 15.2674 5.15607 14.4507 4.6773L13.4393 6.4027C13.9759 6.71726 14.4391 7.15642 14.8279 7.7397L16.4921 6.6303ZM14.464 4.68521C13.6434 4.18701 12.7267 3.945 11.74 3.945V5.945C12.3867 5.945 12.9399 6.09965 13.426 6.39479L14.464 4.68521ZM11.74 3.945C10.7534 3.945 9.83658 4.18701 9.01602 4.68521L10.054 6.39479C10.5401 6.09965 11.0933 5.945 11.74 5.945V3.945ZM9.03886 4.67176C8.23553 5.1308 7.56546 5.78154 7.02295 6.5953L8.68705 7.7047C9.07788 7.11846 9.52781 6.69586 10.0311 6.40824L9.03886 4.67176ZM7.03179 6.58227C6.48857 7.36994 6.08452 8.29588 5.80416 9.34087L7.73584 9.85913C7.96881 8.99079 8.2881 8.28339 8.67821 7.71773L7.03179 6.58227ZM5.79848 9.36304C5.54385 10.407 5.42 11.5259 5.42 12.715H7.42C7.42 11.6641 7.52949 10.7063 7.74152 9.83696L5.79848 9.36304ZM5.42 12.715C5.42 13.9113 5.55709 15.0378 5.83916 16.0891L7.77084 15.5709C7.53958 14.7089 7.42 13.7587 7.42 12.715H5.42ZM5.83916 16.0891C6.11916 17.1328 6.52127 18.0647 7.05795 18.8697L8.72205 17.7603C8.3254 17.1653 8.00418 16.4406 7.77084 15.5709L5.83916 16.0891ZM7.05795 18.8697C7.59751 19.679 8.2605 20.3348 9.05102 20.8148L10.089 19.1052C9.57283 18.7918 9.11583 18.351 8.72205 17.7603L7.05795 18.8697ZM9.06428 20.8227C9.90078 21.3131 10.8232 21.555 11.81 21.555V19.555C11.1635 19.555 10.5926 19.4003 10.0757 19.0973L9.06428 20.8227ZM11.81 21.555C12.7854 21.555 13.694 21.3302 14.5111 20.8632L13.5189 19.1268C13.0294 19.4065 12.4679 19.555 11.81 19.555V21.555ZM14.534 20.8498C15.3245 20.3698 15.9875 19.714 16.5271 18.9047L14.863 17.7953C14.4692 18.386 14.0122 18.8268 13.496 19.1402L14.534 20.8498ZM16.5271 18.9047C17.0657 18.0967 17.4579 17.1713 17.7151 16.1425L15.7749 15.6575C15.5654 16.4953 15.2576 17.2033 14.863 17.7953L16.5271 18.9047ZM17.7108 16.1591C17.9929 15.1078 18.13 13.9813 18.13 12.785H16.13C16.13 13.8287 16.0104 14.7789 15.7792 15.6409L17.7108 16.1591ZM32.8264 5.785L32.2428 4.97298L32.2366 4.9774L32.2306 4.9819L32.8264 5.785ZM30.3764 8.27L29.7491 9.04875L30.5246 9.67346L31.1525 8.90059L30.3764 8.27ZM26.5964 5.225L25.7937 4.62868L25.2203 5.40055L25.9691 6.00375L26.5964 5.225ZM28.4164 3.055L27.7093 2.34789L27.7026 2.35456L27.6961 2.36136L28.4164 3.055ZM30.4114 1.48L30.9259 2.33753L30.934 2.3326L30.4114 1.48ZM32.7914 0.499998L33.0278 1.47167L33.0401 1.46867L33.0523 1.46536L32.7914 0.499998ZM39.2314 0.71L38.8897 1.64979L38.9024 1.65441L38.9152 1.65868L39.2314 0.71ZM41.8914 2.25L41.2083 2.98027L41.2204 2.99163L41.2329 3.00258L41.8914 2.25ZM43.5714 4.63L42.6429 5.00139L42.6469 5.01131L42.6511 5.02114L43.5714 4.63ZM43.7464 10.51L42.8005 10.1857L42.7976 10.1939L42.795 10.2022L43.7464 10.51ZM42.5564 12.785L41.7533 12.1892L41.747 12.1976L41.7409 12.2063L42.5564 12.785ZM40.5614 14.955L41.2122 15.7143L41.2184 15.709L41.2244 15.7036L40.5614 14.955ZM37.7264 17.265L38.3375 18.0566L38.3427 18.0525L37.7264 17.265ZM33.7364 20.345L33.1254 19.5534L30.8044 21.345H33.7364V20.345ZM44.4114 20.345H45.4114V19.345H44.4114V20.345ZM44.4114 25V26H45.4114V25H44.4114ZM26.2814 25H25.2814V26H26.2814V25ZM26.2814 20.73L25.6474 19.9566L25.2814 20.2567V20.73H26.2814ZM34.4364 14.045L33.8032 13.271L33.8024 13.2716L34.4364 14.045ZM36.3964 12.365L37.0707 13.1035L37.0792 13.0957L37.0876 13.0876L36.3964 12.365ZM37.6914 10.93L36.8914 10.33L36.8864 10.3368L37.6914 10.93ZM38.4264 9.6L37.4881 9.25429L37.4827 9.26895L37.4777 9.28377L38.4264 9.6ZM37.7614 5.785L37.0988 6.534L37.0988 6.534L37.7614 5.785ZM35.3814 3.98C34.2243 3.98 33.1667 4.30892 32.2428 4.97298L33.41 6.59701C33.9795 6.18774 34.6251 5.98 35.3814 5.98V3.98ZM32.2306 4.9819C31.4124 5.58891 30.5354 6.48845 29.6003 7.63941L31.1525 8.90059C32.0374 7.81155 32.7937 7.05442 33.4223 6.5881L32.2306 4.9819ZM31.0037 7.49125L27.2237 4.44625L25.9691 6.00375L29.7491 9.04875L31.0037 7.49125ZM27.3992 5.82132C27.9844 5.03345 28.5639 4.34352 29.1367 3.74864L27.6961 2.36136C27.0556 3.02647 26.4217 3.78321 25.7937 4.62868L27.3992 5.82132ZM29.1235 3.76211C29.7009 3.1847 30.3021 2.71179 30.9259 2.33749L29.8969 0.622505C29.1207 1.08821 28.3919 1.6653 27.7093 2.34789L29.1235 3.76211ZM30.934 2.3326C31.5645 1.94612 32.2606 1.65826 33.0278 1.47167L32.5551 -0.471669C31.5955 -0.238268 30.7049 0.127213 29.8888 0.627397L30.934 2.3326ZM33.0523 1.46536C33.814 1.25951 34.7038 1.15 35.7314 1.15V-0.850001C34.5657 -0.850001 33.4955 -0.726182 32.5305 -0.465365L33.0523 1.46536ZM35.7314 1.15C36.9438 1.15 37.9917 1.32324 38.8897 1.64979L39.5732 -0.229793C38.4178 -0.649911 37.1324 -0.850001 35.7314 -0.850001V1.15ZM38.9152 1.65868C39.8447 1.96852 40.6018 2.41296 41.2083 2.98027L42.5746 1.51973C41.7343 0.733702 40.7181 0.151477 39.5476 -0.238684L38.9152 1.65868ZM41.2329 3.00258C41.8591 3.55052 42.3274 4.21264 42.6429 5.00139L44.4999 4.25861C44.0687 3.18069 43.417 2.25614 42.5499 1.49742L41.2329 3.00258ZM42.6511 5.02114C42.9889 5.81595 43.1664 6.71898 43.1664 7.745H45.1664C45.1664 6.48435 44.9473 5.31071 44.4917 4.23886L42.6511 5.02114ZM43.1664 7.745C43.1664 8.68162 43.0386 9.49101 42.8005 10.1857L44.6924 10.8343C45.0142 9.89565 45.1664 8.86171 45.1664 7.745H43.1664ZM42.795 10.2022C42.5743 10.8841 42.2304 11.5461 41.7533 12.1892L43.3595 13.3808C43.9558 12.5772 44.4051 11.7226 44.6979 10.8178L42.795 10.2022ZM41.7409 12.2063C41.2805 12.855 40.6704 13.5226 39.8984 14.2064L41.2244 15.7036C42.0857 14.9407 42.8057 14.1616 43.3719 13.3637L41.7409 12.2063ZM39.9106 14.1957C39.1077 14.8839 38.1747 15.6444 37.1101 16.4775L38.3427 18.0525C39.4248 17.2056 40.3817 16.4261 41.2122 15.7143L39.9106 14.1957ZM37.1154 16.4734L33.1254 19.5534L34.3475 21.1366L38.3375 18.0566L37.1154 16.4734ZM33.7364 21.345H44.4114V19.345H33.7364V21.345ZM43.4114 20.345V25H45.4114V20.345H43.4114ZM44.4114 24H26.2814V26H44.4114V24ZM27.2814 25V20.73H25.2814V25H27.2814ZM26.9154 21.5034L35.0704 14.8184L33.8024 13.2716L25.6474 19.9566L26.9154 21.5034ZM35.0696 14.819C35.8489 14.1814 36.5168 13.6092 37.0707 13.1035L35.7221 11.6265C35.2027 12.1008 34.5639 12.6486 33.8032 13.271L35.0696 14.819ZM37.0876 13.0876C37.6526 12.5473 38.1262 12.0257 38.4965 11.5232L36.8864 10.3368C36.6033 10.721 36.2136 11.1561 35.7052 11.6424L37.0876 13.0876ZM38.4914 11.53C38.8866 11.003 39.1923 10.4647 39.3751 9.91623L37.4777 9.28377C37.3806 9.57527 37.1962 9.92365 36.8914 10.33L38.4914 11.53ZM39.3648 9.9457C39.5723 9.38247 39.6714 8.78608 39.6714 8.165H37.6714C37.6714 8.57058 37.6072 8.93086 37.4881 9.25429L39.3648 9.9457ZM39.6714 8.165C39.6714 6.91887 39.3047 5.81509 38.424 5.036L37.0988 6.534C37.4315 6.82824 37.6714 7.31112 37.6714 8.165H39.6714ZM38.424 5.036C37.5979 4.30525 36.5518 3.98 35.3814 3.98V5.98C36.171 5.98 36.7116 6.19142 37.0988 6.534L38.424 5.036Z" fill="#4E4A60" mask="url(#path-1-outside-1_1172_13326)"/>
</svg>
