<svg width="45" height="26" viewBox="0 0 45 26" fill="none" xmlns="http://www.w3.org/2000/svg">
<mask id="path-1-outside-1_1172_13329" maskUnits="userSpaceOnUse" x="-1" y="-1" width="47" height="28" fill="black">
<rect fill="white" x="-1" y="-1" width="47" height="28"/>
<path d="M22.66 12.715C22.66 14.5117 22.3917 16.18 21.855 17.72C21.3417 19.26 20.6067 20.6017 19.65 21.745C18.6933 22.8883 17.5383 23.7867 16.185 24.44C14.855 25.0933 13.3733 25.42 11.74 25.42C10.1067 25.42 8.61333 25.105 7.26 24.475C5.93 23.8217 4.78667 22.9233 3.83 21.78C2.89667 20.6367 2.17333 19.3067 1.66 17.79C1.14667 16.25 0.89 14.5817 0.89 12.785C0.89 11.0117 1.14667 9.355 1.66 7.815C2.19667 6.25167 2.94333 4.89833 3.9 3.755C4.85667 2.61167 6 1.71333 7.33 1.06C8.68333 0.406666 10.1767 0.0799996 11.81 0.0799996C13.4433 0.0799996 14.925 0.406666 16.255 1.06C17.6083 1.69 18.7517 2.57667 19.685 3.72C20.6417 4.86333 21.3767 6.205 21.89 7.745C22.4033 9.285 22.66 10.9417 22.66 12.715ZM17.13 12.785C17.13 11.665 17.0017 10.6267 16.745 9.67C16.4883 8.71333 16.1267 7.885 15.66 7.185C15.1933 6.485 14.6217 5.93667 13.945 5.54C13.2917 5.14333 12.5567 4.945 11.74 4.945C10.9233 4.945 10.1883 5.14333 9.535 5.54C8.88167 5.91333 8.32167 6.45 7.855 7.15C7.38833 7.82667 7.02667 8.64333 6.77 9.6C6.53667 10.5567 6.42 11.595 6.42 12.715C6.42 13.835 6.54833 14.8733 6.805 15.83C7.06167 16.7867 7.42333 17.615 7.89 18.315C8.35667 19.015 8.91667 19.5633 9.57 19.96C10.2467 20.3567 10.9933 20.555 11.81 20.555C12.6267 20.555 13.3617 20.3683 14.015 19.995C14.6683 19.5983 15.2283 19.05 15.695 18.35C16.1617 17.65 16.5117 16.8333 16.745 15.9C17.0017 14.9433 17.13 13.905 17.13 12.785ZM36.9564 5.12H27.3314V0.499998H43.8864V4.56L37.6914 10.475C38.5314 10.615 39.3481 10.8367 40.1414 11.14C40.9347 11.4433 41.6347 11.875 42.2414 12.435C42.8481 12.9717 43.3381 13.6483 43.7114 14.465C44.0847 15.2583 44.2714 16.2267 44.2714 17.37C44.2714 18.5367 44.0614 19.61 43.6414 20.59C43.2447 21.57 42.6614 22.4217 41.8914 23.145C41.1447 23.8683 40.2231 24.4283 39.1264 24.825C38.0297 25.2217 36.8047 25.42 35.4514 25.42C33.2347 25.42 31.3447 25.035 29.7814 24.265C28.2414 23.4717 26.9464 22.445 25.8964 21.185L29.6064 17.65C30.4464 18.6067 31.3214 19.3417 32.2314 19.855C33.1647 20.345 34.2614 20.59 35.5214 20.59C36.5481 20.59 37.3764 20.3217 38.0064 19.785C38.6597 19.2483 38.9864 18.5133 38.9864 17.58C38.9864 16.5533 38.5664 15.7717 37.7264 15.235C36.9097 14.6983 35.7314 14.43 34.1914 14.43H31.9514L31.1114 11L36.9564 5.12Z"/>
</mask>
<path d="M21.855 17.72L20.9106 17.3909L20.9063 17.4038L21.855 17.72ZM19.65 21.745L20.4169 22.3867L20.4169 22.3867L19.65 21.745ZM16.185 24.44L15.7502 23.5394L15.7441 23.5424L16.185 24.44ZM7.26 24.475L6.8191 25.3726L6.82849 25.3772L6.83797 25.3816L7.26 24.475ZM3.83 21.78L3.05528 22.4124L3.06306 22.4217L3.83 21.78ZM1.66 17.79L0.711307 18.1062L0.712784 18.1106L1.66 17.79ZM1.66 7.815L0.71414 7.4903L0.711317 7.49877L1.66 7.815ZM3.9 3.755L3.13306 3.11328L3.13306 3.11328L3.9 3.755ZM7.33 1.06L6.89524 0.159427L6.8891 0.162445L7.33 1.06ZM16.255 1.06L15.8141 1.95755L15.8235 1.96217L15.833 1.96658L16.255 1.06ZM19.685 3.72L18.9103 4.35242L18.9181 4.36172L19.685 3.72ZM21.89 7.745L22.8387 7.42877L22.8387 7.42877L21.89 7.745ZM16.745 9.67L17.7108 9.41087L17.7108 9.41087L16.745 9.67ZM15.66 7.185L14.8279 7.7397L14.828 7.7397L15.66 7.185ZM13.945 5.54L13.426 6.39479L13.4326 6.39879L13.4393 6.4027L13.945 5.54ZM9.535 5.54L10.0311 6.40824L10.0426 6.40166L10.054 6.39479L9.535 5.54ZM7.855 7.15L8.67821 7.71773L8.68268 7.71125L8.68705 7.7047L7.855 7.15ZM6.77 9.6L5.80416 9.34087L5.80119 9.35192L5.79848 9.36304L6.77 9.6ZM6.805 15.83L5.83916 16.0891L5.83916 16.0891L6.805 15.83ZM7.89 18.315L7.05795 18.8697L7.05795 18.8697L7.89 18.315ZM9.57 19.96L9.05102 20.8148L9.05762 20.8188L9.06428 20.8227L9.57 19.96ZM14.015 19.995L14.5111 20.8632L14.5226 20.8567L14.534 20.8498L14.015 19.995ZM15.695 18.35L16.5271 18.9047L16.5271 18.9047L15.695 18.35ZM16.745 15.9L15.7792 15.6409L15.7769 15.6491L15.7749 15.6575L16.745 15.9ZM21.66 12.715C21.66 14.411 21.4069 15.9669 20.9107 17.3909L22.7993 18.0491C23.3764 16.3931 23.66 14.6124 23.66 12.715H21.66ZM20.9063 17.4038C20.4291 18.8355 19.7524 20.0643 18.8831 21.1033L20.4169 22.3867C21.4609 21.139 22.2542 19.6845 22.8037 18.0362L20.9063 17.4038ZM18.8831 21.1033C18.0183 22.1368 16.9768 22.9473 15.7503 23.5394L16.6198 25.3406C18.0999 24.626 19.3684 23.6398 20.4169 22.3867L18.8831 21.1033ZM15.7441 23.5424C14.5649 24.1217 13.2363 24.42 11.74 24.42V26.42C13.5104 26.42 15.1452 26.0649 16.6259 25.3376L15.7441 23.5424ZM11.74 24.42C10.2386 24.42 8.89114 24.1313 7.68203 23.5684L6.83797 25.3816C8.33553 26.0787 9.97476 26.42 11.74 26.42V24.42ZM7.7009 23.5774C6.49703 22.9861 5.46454 22.1752 4.59694 21.1383L3.06306 22.4217C4.10879 23.6715 5.36297 24.6573 6.8191 25.3726L7.7009 23.5774ZM4.60466 21.1476C3.75324 20.1046 3.08543 18.8823 2.60722 17.4694L0.712784 18.1106C1.26124 19.731 2.0401 21.1687 3.05534 22.4124L4.60466 21.1476ZM2.60868 17.4738C2.13276 16.046 1.89 14.4856 1.89 12.785H-0.11C-0.11 14.6778 0.16057 16.454 0.711317 18.1062L2.60868 17.4738ZM1.89 12.785C1.89 11.1093 2.13233 9.56028 2.60868 8.13123L0.711317 7.49877C0.161001 9.14972 -0.11 10.9141 -0.11 12.785H1.89ZM2.60582 8.13968C3.10707 6.67953 3.79688 5.43654 4.66694 4.39672L3.13306 3.11328C2.08978 4.36012 1.28626 5.8238 0.714178 7.49031L2.60582 8.13968ZM4.66694 4.39672C5.53454 3.35983 6.56703 2.54893 7.7709 1.95755L6.8891 0.162445C5.43297 0.877737 4.17879 1.8635 3.13306 3.11328L4.66694 4.39672ZM7.76475 1.96055C8.97102 1.37822 10.3139 1.08 11.81 1.08V-0.92C10.0394 -0.92 8.39565 -0.564883 6.89525 0.159448L7.76475 1.96055ZM11.81 1.08C13.3063 1.08 14.6349 1.37827 15.8141 1.95755L16.6959 0.162445C15.2152 -0.564943 13.5804 -0.92 11.81 -0.92V1.08ZM15.833 1.96658C17.0512 2.53369 18.0735 3.32724 18.9103 4.35238L20.4597 3.08762C19.4298 1.82609 18.1655 0.846307 16.677 0.153418L15.833 1.96658ZM18.9181 4.36172C19.7874 5.40068 20.4641 6.62954 20.9413 8.06123L22.8387 7.42877C22.2892 5.78046 21.4959 4.32598 20.4519 3.07828L18.9181 4.36172ZM20.9413 8.06123C21.4177 9.49028 21.66 11.0393 21.66 12.715H23.66C23.66 10.8441 23.389 9.07972 22.8387 7.42877L20.9413 8.06123ZM18.13 12.785C18.13 11.5887 17.9929 10.4622 17.7108 9.41087L15.7792 9.92913C16.0104 10.7911 16.13 11.7413 16.13 12.785H18.13ZM17.7108 9.41087C17.4308 8.36724 17.0287 7.43532 16.4921 6.6303L14.828 7.7397C15.2246 8.33468 15.5458 9.05943 15.7792 9.92913L17.7108 9.41087ZM16.4921 6.6303C15.9476 5.81358 15.2674 5.15607 14.4507 4.6773L13.4393 6.4027C13.9759 6.71726 14.4391 7.15642 14.8279 7.7397L16.4921 6.6303ZM14.464 4.68521C13.6434 4.18701 12.7267 3.945 11.74 3.945V5.945C12.3867 5.945 12.9399 6.09965 13.426 6.39479L14.464 4.68521ZM11.74 3.945C10.7534 3.945 9.83658 4.18701 9.01602 4.68521L10.054 6.39479C10.5401 6.09965 11.0933 5.945 11.74 5.945V3.945ZM9.03886 4.67176C8.23553 5.1308 7.56546 5.78154 7.02295 6.5953L8.68705 7.7047C9.07788 7.11846 9.52781 6.69586 10.0311 6.40824L9.03886 4.67176ZM7.03179 6.58227C6.48857 7.36994 6.08452 8.29588 5.80416 9.34087L7.73584 9.85913C7.96881 8.99079 8.2881 8.28339 8.67821 7.71773L7.03179 6.58227ZM5.79848 9.36304C5.54385 10.407 5.42 11.5259 5.42 12.715H7.42C7.42 11.6641 7.52949 10.7063 7.74152 9.83696L5.79848 9.36304ZM5.42 12.715C5.42 13.9113 5.55709 15.0378 5.83916 16.0891L7.77084 15.5709C7.53958 14.7089 7.42 13.7587 7.42 12.715H5.42ZM5.83916 16.0891C6.11916 17.1328 6.52127 18.0647 7.05795 18.8697L8.72205 17.7603C8.3254 17.1653 8.00418 16.4406 7.77084 15.5709L5.83916 16.0891ZM7.05795 18.8697C7.59751 19.679 8.2605 20.3348 9.05102 20.8148L10.089 19.1052C9.57283 18.7918 9.11583 18.351 8.72205 17.7603L7.05795 18.8697ZM9.06428 20.8227C9.90078 21.3131 10.8232 21.555 11.81 21.555V19.555C11.1635 19.555 10.5926 19.4003 10.0757 19.0973L9.06428 20.8227ZM11.81 21.555C12.7854 21.555 13.694 21.3302 14.5111 20.8632L13.5189 19.1268C13.0294 19.4065 12.4679 19.555 11.81 19.555V21.555ZM14.534 20.8498C15.3245 20.3698 15.9875 19.714 16.5271 18.9047L14.863 17.7953C14.4692 18.386 14.0122 18.8268 13.496 19.1402L14.534 20.8498ZM16.5271 18.9047C17.0657 18.0967 17.4579 17.1713 17.7151 16.1425L15.7749 15.6575C15.5654 16.4953 15.2576 17.2033 14.863 17.7953L16.5271 18.9047ZM17.7108 16.1591C17.9929 15.1078 18.13 13.9813 18.13 12.785H16.13C16.13 13.8287 16.0104 14.7789 15.7792 15.6409L17.7108 16.1591ZM36.9564 5.12L37.6656 5.82499L39.3605 4.12H36.9564V5.12ZM27.3314 5.12H26.3314V6.12H27.3314V5.12ZM27.3314 0.499998V-0.500002H26.3314V0.499998H27.3314ZM43.8864 0.499998H44.8864V-0.500002H43.8864V0.499998ZM43.8864 4.56L44.577 5.28326L44.8864 4.98782V4.56H43.8864ZM37.6914 10.475L37.0008 9.75174L35.5546 11.1326L37.527 11.4614L37.6914 10.475ZM40.1414 11.14L40.4985 10.2059L40.4985 10.2059L40.1414 11.14ZM42.2414 12.435L41.5631 13.1698L41.5709 13.177L41.5788 13.184L42.2414 12.435ZM43.7114 14.465L42.8019 14.8808L42.8066 14.8908L43.7114 14.465ZM43.6414 20.59L42.7223 20.1961L42.7183 20.2054L42.7145 20.2148L43.6414 20.59ZM41.8914 23.145L41.2067 22.4162L41.2011 22.4214L41.1956 22.4268L41.8914 23.145ZM39.1264 24.825L38.7863 23.8846L38.7863 23.8846L39.1264 24.825ZM29.7814 24.265L29.3234 25.154L29.3315 25.1581L29.3396 25.1621L29.7814 24.265ZM25.8964 21.185L25.2066 20.461L24.5292 21.1064L25.1282 21.8252L25.8964 21.185ZM29.6064 17.65L30.3578 16.9902L29.6706 16.2075L28.9166 16.926L29.6064 17.65ZM32.2314 19.855L31.7401 20.726L31.7532 20.7334L31.7666 20.7404L32.2314 19.855ZM38.0064 19.785L37.3717 19.0123L37.3648 19.018L37.3579 19.0238L38.0064 19.785ZM37.7264 15.235L37.1772 16.0708L37.188 16.0777L37.7264 15.235ZM31.9514 14.43L30.9801 14.6679L31.1668 15.43H31.9514V14.43ZM31.1114 11L30.4022 10.295L30.0067 10.6929L30.1401 11.2379L31.1114 11ZM36.9564 4.12H27.3314V6.12H36.9564V4.12ZM28.3314 5.12V0.499998H26.3314V5.12H28.3314ZM27.3314 1.5H43.8864V-0.500002H27.3314V1.5ZM42.8864 0.499998V4.56H44.8864V0.499998H42.8864ZM43.1958 3.83674L37.0008 9.75174L38.382 11.1983L44.577 5.28326L43.1958 3.83674ZM37.527 11.4614C38.3014 11.5905 39.0534 11.7946 39.7843 12.0741L40.4985 10.2059C39.6427 9.87872 38.7615 9.63955 37.8558 9.48861L37.527 11.4614ZM39.7843 12.0741C40.4623 12.3333 41.0526 12.6985 41.5631 13.1698L42.9197 11.7002C42.2169 11.0515 41.4071 10.5533 40.4985 10.2059L39.7843 12.0741ZM41.5788 13.184C42.07 13.6185 42.4804 14.1773 42.8019 14.8808L44.6209 14.0492C44.1958 13.1193 43.6262 12.3249 42.904 11.686L41.5788 13.184ZM42.8066 14.8908C43.1012 15.5169 43.2714 16.3309 43.2714 17.37H45.2714C45.2714 16.1224 45.0683 14.9998 44.6162 14.0392L42.8066 14.8908ZM43.2714 17.37C43.2714 18.4141 43.0841 19.3519 42.7223 20.1961L44.5606 20.9839C45.0387 19.8681 45.2714 18.6592 45.2714 17.37H43.2714ZM42.7145 20.2148C42.372 21.0609 41.8713 21.7919 41.2067 22.4162L42.5761 23.8738C43.4515 23.0515 44.1175 22.0791 44.5684 20.9652L42.7145 20.2148ZM41.1956 22.4268C40.5622 23.0404 39.7663 23.5302 38.7863 23.8846L39.4665 25.7654C40.6799 25.3265 41.7273 24.6963 42.5872 23.8632L41.1956 22.4268ZM38.7863 23.8846C37.8146 24.2361 36.707 24.42 35.4514 24.42V26.42C36.9024 26.42 38.2449 26.2073 39.4665 25.7654L38.7863 23.8846ZM35.4514 24.42C33.3475 24.42 31.617 24.0544 30.2233 23.3679L29.3396 25.1621C31.0725 26.0156 33.122 26.42 35.4514 26.42V24.42ZM30.2394 23.376C28.8116 22.6405 27.6241 21.6962 26.6646 20.5448L25.1282 21.8252C26.2687 23.1938 27.6712 24.3028 29.3234 25.154L30.2394 23.376ZM26.5862 21.909L30.2962 18.374L28.9166 16.926L25.2066 20.461L26.5862 21.909ZM28.855 18.3098C29.7535 19.3331 30.7134 20.1468 31.7401 20.726L32.7227 18.984C31.9294 18.5365 31.1393 17.8802 30.3578 16.9902L28.855 18.3098ZM31.7666 20.7404C32.8688 21.319 34.1309 21.59 35.5214 21.59V19.59C34.3919 19.59 33.4607 19.371 32.6962 18.9696L31.7666 20.7404ZM35.5214 21.59C36.7266 21.59 37.8035 21.2715 38.6549 20.5462L37.3579 19.0238C36.9493 19.3719 36.3695 19.59 35.5214 19.59V21.59ZM38.6411 20.5577C39.5517 19.8098 39.9864 18.7773 39.9864 17.58H37.9864C37.9864 18.2493 37.7678 18.6869 37.3717 19.0123L38.6411 20.5577ZM39.9864 17.58C39.9864 16.2245 39.4027 15.1193 38.2648 14.3923L37.188 16.0777C37.7302 16.4241 37.9864 16.8822 37.9864 17.58H39.9864ZM38.2756 14.3993C37.2269 13.7101 35.8233 13.43 34.1914 13.43V15.43C35.6395 15.43 36.5926 15.6865 37.1772 16.0707L38.2756 14.3993ZM34.1914 13.43H31.9514V15.43H34.1914V13.43ZM32.9227 14.1921L32.0827 10.7621L30.1401 11.2379L30.9801 14.6679L32.9227 14.1921ZM31.8206 11.705L37.6656 5.82499L36.2472 4.41501L30.4022 10.295L31.8206 11.705Z" fill="#4E4A60" mask="url(#path-1-outside-1_1172_13329)"/>
</svg>
