<svg width="37" height="26" viewBox="0 0 37 26" fill="none" xmlns="http://www.w3.org/2000/svg">
<path d="M22.66 12.715C22.66 14.5117 22.3917 16.18 21.855 17.72C21.3417 19.26 20.6067 20.6017 19.65 21.745C18.6933 22.8883 17.5383 23.7867 16.185 24.44C14.855 25.0933 13.3733 25.42 11.74 25.42C10.1067 25.42 8.61333 25.105 7.26 24.475C5.93 23.8217 4.78667 22.9233 3.83 21.78C2.89667 20.6367 2.17333 19.3067 1.66 17.79C1.14667 16.25 0.89 14.5817 0.89 12.785C0.89 11.0117 1.14667 9.355 1.66 7.815C2.19667 6.25167 2.94333 4.89833 3.9 3.755C4.85667 2.61167 6 1.71333 7.33 1.06C8.68333 0.406666 10.1767 0.0799996 11.81 0.0799996C13.4433 0.0799996 14.925 0.406666 16.255 1.06C17.6083 1.69 18.7517 2.57667 19.685 3.72C20.6417 4.86333 21.3767 6.205 21.89 7.745C22.4033 9.285 22.66 10.9417 22.66 12.715ZM17.13 12.785C17.13 11.665 17.0017 10.6267 16.745 9.67C16.4883 8.71333 16.1267 7.885 15.66 7.185C15.1933 6.485 14.6217 5.93667 13.945 5.54C13.2917 5.14333 12.5567 4.945 11.74 4.945C10.9233 4.945 10.1883 5.14333 9.535 5.54C8.88167 5.91333 8.32167 6.45 7.855 7.15C7.38833 7.82667 7.02667 8.64333 6.77 9.6C6.53667 10.5567 6.42 11.595 6.42 12.715C6.42 13.835 6.54833 14.8733 6.805 15.83C7.06167 16.7867 7.42333 17.615 7.89 18.315C8.35667 19.015 8.91667 19.5633 9.57 19.96C10.2467 20.3567 10.9933 20.555 11.81 20.555C12.6267 20.555 13.3617 20.3683 14.015 19.995C14.6683 19.5983 15.2283 19.05 15.695 18.35C16.1617 17.65 16.5117 16.8333 16.745 15.9C17.0017 14.9433 17.13 13.905 17.13 12.785ZM25.4064 2.425L32.4414 0.324998H36.1164V25H30.7964V5.785L26.5264 6.835L25.4064 2.425Z" fill="#111119"/>
</svg>
