<svg width="45" height="26" viewBox="0 0 45 26" fill="none" xmlns="http://www.w3.org/2000/svg">
<mask id="path-1-outside-1_1173_13333" maskUnits="userSpaceOnUse" x="-1" y="-1" width="47" height="28" fill="black">
<rect fill="white" x="-1" y="-1" width="47" height="28"/>
<path d="M22.66 12.715C22.66 14.5117 22.3917 16.18 21.855 17.72C21.3417 19.26 20.6067 20.6017 19.65 21.745C18.6933 22.8883 17.5383 23.7867 16.185 24.44C14.855 25.0933 13.3733 25.42 11.74 25.42C10.1067 25.42 8.61333 25.105 7.26 24.475C5.93 23.8217 4.78667 22.9233 3.83 21.78C2.89667 20.6367 2.17333 19.3067 1.66 17.79C1.14667 16.25 0.89 14.5817 0.89 12.785C0.89 11.0117 1.14667 9.355 1.66 7.815C2.19667 6.25167 2.94333 4.89833 3.9 3.755C4.85667 2.61167 6 1.71333 7.33 1.06C8.68333 0.406666 10.1767 0.0799996 11.81 0.0799996C13.4433 0.0799996 14.925 0.406666 16.255 1.06C17.6083 1.69 18.7517 2.57667 19.685 3.72C20.6417 4.86333 21.3767 6.205 21.89 7.745C22.4033 9.285 22.66 10.9417 22.66 12.715ZM17.13 12.785C17.13 11.665 17.0017 10.6267 16.745 9.67C16.4883 8.71333 16.1267 7.885 15.66 7.185C15.1933 6.485 14.6217 5.93667 13.945 5.54C13.2917 5.14333 12.5567 4.945 11.74 4.945C10.9233 4.945 10.1883 5.14333 9.535 5.54C8.88167 5.91333 8.32167 6.45 7.855 7.15C7.38833 7.82667 7.02667 8.64333 6.77 9.6C6.53667 10.5567 6.42 11.595 6.42 12.715C6.42 13.835 6.54833 14.8733 6.805 15.83C7.06167 16.7867 7.42333 17.615 7.89 18.315C8.35667 19.015 8.91667 19.5633 9.57 19.96C10.2467 20.3567 10.9933 20.555 11.81 20.555C12.6267 20.555 13.3617 20.3683 14.015 19.995C14.6683 19.5983 15.2283 19.05 15.695 18.35C16.1617 17.65 16.5117 16.8333 16.745 15.9C17.0017 14.9433 17.13 13.905 17.13 12.785ZM27.7164 12.575L28.4164 0.499998H43.4664V5.225H33.0364L32.7564 9.46C33.2464 9.34333 33.7364 9.25 34.2264 9.18C34.7164 9.08667 35.2997 9.04 35.9764 9.04C37.1897 9.04 38.3097 9.19167 39.3364 9.495C40.3864 9.79833 41.2964 10.265 42.0664 10.895C42.8364 11.525 43.4431 12.3417 43.8864 13.345C44.3297 14.325 44.5514 15.515 44.5514 16.915C44.5514 18.2217 44.3297 19.4 43.8864 20.45C43.4431 21.5 42.8131 22.3983 41.9964 23.145C41.2031 23.8683 40.2231 24.4283 39.0564 24.825C37.9131 25.2217 36.6414 25.42 35.2414 25.42C33.2581 25.42 31.5314 25.0933 30.0614 24.44C28.5914 23.7867 27.2614 22.8883 26.0714 21.745L29.3264 17.86C30.2597 18.7 31.1931 19.3533 32.1264 19.82C33.0597 20.2867 34.0747 20.52 35.1714 20.52C36.4314 20.52 37.4231 20.2283 38.1464 19.645C38.8931 19.0617 39.2664 18.21 39.2664 17.09C39.2664 16.0167 38.8697 15.1883 38.0764 14.605C37.3064 14.0217 36.2564 13.73 34.9264 13.73C34.1564 13.73 33.4214 13.8233 32.7214 14.01C32.0447 14.1733 31.4147 14.3833 30.8314 14.64L27.7164 12.575Z"/>
</mask>
<path d="M21.855 17.72L20.9106 17.3909L20.9063 17.4038L21.855 17.72ZM19.65 21.745L20.4169 22.3867L20.4169 22.3867L19.65 21.745ZM16.185 24.44L15.7502 23.5394L15.7441 23.5424L16.185 24.44ZM7.26 24.475L6.8191 25.3726L6.82849 25.3772L6.83797 25.3816L7.26 24.475ZM3.83 21.78L3.05528 22.4124L3.06306 22.4217L3.83 21.78ZM1.66 17.79L0.711307 18.1062L0.712784 18.1106L1.66 17.79ZM1.66 7.815L0.71414 7.4903L0.711317 7.49877L1.66 7.815ZM3.9 3.755L3.13306 3.11328L3.13306 3.11328L3.9 3.755ZM7.33 1.06L6.89524 0.159427L6.8891 0.162445L7.33 1.06ZM16.255 1.06L15.8141 1.95755L15.8235 1.96217L15.833 1.96658L16.255 1.06ZM19.685 3.72L18.9103 4.35242L18.9181 4.36172L19.685 3.72ZM21.89 7.745L22.8387 7.42877L22.8387 7.42877L21.89 7.745ZM16.745 9.67L17.7108 9.41087L17.7108 9.41087L16.745 9.67ZM15.66 7.185L14.8279 7.7397L14.828 7.7397L15.66 7.185ZM13.945 5.54L13.426 6.39479L13.4326 6.39879L13.4393 6.4027L13.945 5.54ZM9.535 5.54L10.0311 6.40824L10.0426 6.40166L10.054 6.39479L9.535 5.54ZM7.855 7.15L8.67821 7.71773L8.68268 7.71125L8.68705 7.7047L7.855 7.15ZM6.77 9.6L5.80416 9.34087L5.80119 9.35192L5.79848 9.36304L6.77 9.6ZM6.805 15.83L5.83916 16.0891L5.83916 16.0891L6.805 15.83ZM7.89 18.315L7.05795 18.8697L7.05795 18.8697L7.89 18.315ZM9.57 19.96L9.05102 20.8148L9.05762 20.8188L9.06428 20.8227L9.57 19.96ZM14.015 19.995L14.5111 20.8632L14.5226 20.8567L14.534 20.8498L14.015 19.995ZM15.695 18.35L16.5271 18.9047L16.5271 18.9047L15.695 18.35ZM16.745 15.9L15.7792 15.6409L15.7769 15.6491L15.7749 15.6575L16.745 15.9ZM21.66 12.715C21.66 14.411 21.4069 15.9669 20.9107 17.3909L22.7993 18.0491C23.3764 16.3931 23.66 14.6124 23.66 12.715H21.66ZM20.9063 17.4038C20.4291 18.8355 19.7524 20.0643 18.8831 21.1033L20.4169 22.3867C21.4609 21.139 22.2542 19.6845 22.8037 18.0362L20.9063 17.4038ZM18.8831 21.1033C18.0183 22.1368 16.9768 22.9473 15.7503 23.5394L16.6198 25.3406C18.0999 24.626 19.3684 23.6398 20.4169 22.3867L18.8831 21.1033ZM15.7441 23.5424C14.5649 24.1217 13.2363 24.42 11.74 24.42V26.42C13.5104 26.42 15.1452 26.0649 16.6259 25.3376L15.7441 23.5424ZM11.74 24.42C10.2386 24.42 8.89114 24.1313 7.68203 23.5684L6.83797 25.3816C8.33553 26.0787 9.97476 26.42 11.74 26.42V24.42ZM7.7009 23.5774C6.49703 22.9861 5.46454 22.1752 4.59694 21.1383L3.06306 22.4217C4.10879 23.6715 5.36297 24.6573 6.8191 25.3726L7.7009 23.5774ZM4.60466 21.1476C3.75324 20.1046 3.08543 18.8823 2.60722 17.4694L0.712784 18.1106C1.26124 19.731 2.0401 21.1687 3.05534 22.4124L4.60466 21.1476ZM2.60868 17.4738C2.13276 16.046 1.89 14.4856 1.89 12.785H-0.11C-0.11 14.6778 0.16057 16.454 0.711317 18.1062L2.60868 17.4738ZM1.89 12.785C1.89 11.1093 2.13233 9.56028 2.60868 8.13123L0.711317 7.49877C0.161001 9.14972 -0.11 10.9141 -0.11 12.785H1.89ZM2.60582 8.13968C3.10707 6.67953 3.79688 5.43654 4.66694 4.39672L3.13306 3.11328C2.08978 4.36012 1.28626 5.8238 0.714178 7.49031L2.60582 8.13968ZM4.66694 4.39672C5.53454 3.35983 6.56703 2.54893 7.7709 1.95755L6.8891 0.162445C5.43297 0.877737 4.17879 1.8635 3.13306 3.11328L4.66694 4.39672ZM7.76475 1.96055C8.97102 1.37822 10.3139 1.08 11.81 1.08V-0.92C10.0394 -0.92 8.39565 -0.564883 6.89525 0.159448L7.76475 1.96055ZM11.81 1.08C13.3063 1.08 14.6349 1.37827 15.8141 1.95755L16.6959 0.162445C15.2152 -0.564943 13.5804 -0.92 11.81 -0.92V1.08ZM15.833 1.96658C17.0512 2.53369 18.0735 3.32724 18.9103 4.35238L20.4597 3.08762C19.4298 1.82609 18.1655 0.846307 16.677 0.153418L15.833 1.96658ZM18.9181 4.36172C19.7874 5.40068 20.4641 6.62954 20.9413 8.06123L22.8387 7.42877C22.2892 5.78046 21.4959 4.32598 20.4519 3.07828L18.9181 4.36172ZM20.9413 8.06123C21.4177 9.49028 21.66 11.0393 21.66 12.715H23.66C23.66 10.8441 23.389 9.07972 22.8387 7.42877L20.9413 8.06123ZM18.13 12.785C18.13 11.5887 17.9929 10.4622 17.7108 9.41087L15.7792 9.92913C16.0104 10.7911 16.13 11.7413 16.13 12.785H18.13ZM17.7108 9.41087C17.4308 8.36724 17.0287 7.43532 16.4921 6.6303L14.828 7.7397C15.2246 8.33468 15.5458 9.05943 15.7792 9.92913L17.7108 9.41087ZM16.4921 6.6303C15.9476 5.81358 15.2674 5.15607 14.4507 4.6773L13.4393 6.4027C13.9759 6.71726 14.4391 7.15642 14.8279 7.7397L16.4921 6.6303ZM14.464 4.68521C13.6434 4.18701 12.7267 3.945 11.74 3.945V5.945C12.3867 5.945 12.9399 6.09965 13.426 6.39479L14.464 4.68521ZM11.74 3.945C10.7534 3.945 9.83658 4.18701 9.01602 4.68521L10.054 6.39479C10.5401 6.09965 11.0933 5.945 11.74 5.945V3.945ZM9.03886 4.67176C8.23553 5.1308 7.56546 5.78154 7.02295 6.5953L8.68705 7.7047C9.07788 7.11846 9.52781 6.69586 10.0311 6.40824L9.03886 4.67176ZM7.03179 6.58227C6.48857 7.36994 6.08452 8.29588 5.80416 9.34087L7.73584 9.85913C7.96881 8.99079 8.2881 8.28339 8.67821 7.71773L7.03179 6.58227ZM5.79848 9.36304C5.54385 10.407 5.42 11.5259 5.42 12.715H7.42C7.42 11.6641 7.52949 10.7063 7.74152 9.83696L5.79848 9.36304ZM5.42 12.715C5.42 13.9113 5.55709 15.0378 5.83916 16.0891L7.77084 15.5709C7.53958 14.7089 7.42 13.7587 7.42 12.715H5.42ZM5.83916 16.0891C6.11916 17.1328 6.52127 18.0647 7.05795 18.8697L8.72205 17.7603C8.3254 17.1653 8.00418 16.4406 7.77084 15.5709L5.83916 16.0891ZM7.05795 18.8697C7.59751 19.679 8.2605 20.3348 9.05102 20.8148L10.089 19.1052C9.57283 18.7918 9.11583 18.351 8.72205 17.7603L7.05795 18.8697ZM9.06428 20.8227C9.90078 21.3131 10.8232 21.555 11.81 21.555V19.555C11.1635 19.555 10.5926 19.4003 10.0757 19.0973L9.06428 20.8227ZM11.81 21.555C12.7854 21.555 13.694 21.3302 14.5111 20.8632L13.5189 19.1268C13.0294 19.4065 12.4679 19.555 11.81 19.555V21.555ZM14.534 20.8498C15.3245 20.3698 15.9875 19.714 16.5271 18.9047L14.863 17.7953C14.4692 18.386 14.0122 18.8268 13.496 19.1402L14.534 20.8498ZM16.5271 18.9047C17.0657 18.0967 17.4579 17.1713 17.7151 16.1425L15.7749 15.6575C15.5654 16.4953 15.2576 17.2033 14.863 17.7953L16.5271 18.9047ZM17.7108 16.1591C17.9929 15.1078 18.13 13.9813 18.13 12.785H16.13C16.13 13.8287 16.0104 14.7789 15.7792 15.6409L17.7108 16.1591ZM27.7164 12.575L26.7181 12.5171L26.6848 13.0909L27.1639 13.4085L27.7164 12.575ZM28.4164 0.499998V-0.500002H27.4727L27.4181 0.442124L28.4164 0.499998ZM43.4664 0.499998H44.4664V-0.500002H43.4664V0.499998ZM43.4664 5.225V6.225H44.4664V5.225H43.4664ZM33.0364 5.225V4.225H32.1003L32.0386 5.15903L33.0364 5.225ZM32.7564 9.46L31.7586 9.39403L31.6691 10.7468L32.988 10.4328L32.7564 9.46ZM34.2264 9.18L34.3678 10.1699L34.3908 10.1667L34.4135 10.1623L34.2264 9.18ZM39.3364 9.495L39.0531 10.454L39.0589 10.4557L39.3364 9.495ZM42.0664 10.895L41.4332 11.669L41.4332 11.669L42.0664 10.895ZM43.8864 13.345L42.9717 13.7492L42.9753 13.7572L43.8864 13.345ZM43.8864 20.45L42.9652 20.061L42.9652 20.061L43.8864 20.45ZM41.9964 23.145L42.6702 23.884L42.6712 23.883L41.9964 23.145ZM39.0564 24.825L38.7345 23.8782L38.7286 23.8802L39.0564 24.825ZM30.0614 24.44L29.6553 25.3538L29.6553 25.3538L30.0614 24.44ZM26.0714 21.745L25.3049 21.1028L24.7049 21.8189L25.3786 22.4661L26.0714 21.745ZM29.3264 17.86L29.9954 17.1167L29.2253 16.4236L28.5599 17.2178L29.3264 17.86ZM32.1264 19.82L31.6792 20.7144L31.6792 20.7144L32.1264 19.82ZM38.1464 19.645L37.5308 18.857L37.5247 18.8617L37.5187 18.8666L38.1464 19.645ZM38.0764 14.605L37.4725 15.4021L37.4783 15.4064L37.484 15.4107L38.0764 14.605ZM32.7214 14.01L32.956 14.9821L32.9676 14.9793L32.9791 14.9762L32.7214 14.01ZM30.8314 14.64L30.2789 15.4735L30.7342 15.7753L31.2341 15.5553L30.8314 14.64ZM28.7147 12.6329L29.4147 0.557872L27.4181 0.442124L26.7181 12.5171L28.7147 12.6329ZM28.4164 1.5H43.4664V-0.500002H28.4164V1.5ZM42.4664 0.499998V5.225H44.4664V0.499998H42.4664ZM43.4664 4.225H33.0364V6.225H43.4664V4.225ZM32.0386 5.15903L31.7586 9.39403L33.7542 9.52597L34.0342 5.29097L32.0386 5.15903ZM32.988 10.4328C33.4488 10.3231 33.9087 10.2355 34.3678 10.1699L34.085 8.19005C33.5641 8.26446 33.0441 8.36356 32.5248 8.48719L32.988 10.4328ZM34.4135 10.1623C34.8245 10.0841 35.342 10.04 35.9764 10.04V8.04C35.2575 8.04 34.6083 8.08927 34.0393 8.19766L34.4135 10.1623ZM35.9764 10.04C37.1064 10.04 38.1297 10.1812 39.0531 10.454L39.6198 8.53598C38.4898 8.20212 37.2731 8.04 35.9764 8.04V10.04ZM39.0589 10.4557C39.9918 10.7252 40.7778 11.1327 41.4332 11.669L42.6996 10.121C41.815 9.39726 40.781 8.87145 39.6139 8.53429L39.0589 10.4557ZM41.4332 11.669C42.0696 12.1896 42.5853 12.8745 42.9717 13.7492L44.8011 12.9408C44.3009 11.8088 43.6033 10.8604 42.6996 10.121L41.4332 11.669ZM42.9753 13.7572C43.3452 14.5749 43.5514 15.6161 43.5514 16.915H45.5514C45.5514 15.4139 45.3143 14.0751 44.7975 12.9328L42.9753 13.7572ZM43.5514 16.915C43.5514 18.1075 43.3495 19.1508 42.9652 20.061L44.8077 20.839C45.31 19.6492 45.5514 18.3359 45.5514 16.915H43.5514ZM42.9652 20.061C42.5761 20.9824 42.0287 21.7605 41.3216 22.407L42.6712 23.883C43.5974 23.0362 44.31 22.0176 44.8077 20.839L42.9652 20.061ZM41.3227 22.406C40.645 23.0239 39.79 23.5194 38.7345 23.8782L39.3783 25.7718C40.6562 25.3373 41.7611 24.7128 42.6702 23.884L41.3227 22.406ZM38.7286 23.8802C37.7058 24.2351 36.547 24.42 35.2414 24.42V26.42C36.7358 26.42 38.1203 26.2082 39.3842 25.7698L38.7286 23.8802ZM35.2414 24.42C33.3663 24.42 31.7836 24.1111 30.4675 23.5262L29.6553 25.3538C31.2793 26.0756 33.1499 26.42 35.2414 26.42V24.42ZM30.4675 23.5262C29.1063 22.9212 27.8728 22.089 26.7642 21.0239L25.3786 22.4661C26.65 23.6877 28.0765 24.6521 29.6553 25.3538L30.4675 23.5262ZM26.8379 22.3872L30.0929 18.5022L28.5599 17.2178L25.3049 21.1028L26.8379 22.3872ZM28.6574 18.6033C29.6445 19.4916 30.6511 20.2004 31.6792 20.7144L32.5736 18.9256C31.735 18.5063 30.875 17.9084 29.9954 17.1167L28.6574 18.6033ZM31.6792 20.7144C32.7585 21.2541 33.9276 21.52 35.1714 21.52V19.52C34.2219 19.52 33.361 19.3193 32.5736 18.9256L31.6792 20.7144ZM35.1714 21.52C36.5788 21.52 37.8188 21.1938 38.7742 20.4234L37.5187 18.8666C37.0273 19.2628 36.284 19.52 35.1714 19.52V21.52ZM38.7621 20.433C39.7968 19.6246 40.2664 18.455 40.2664 17.09H38.2664C38.2664 17.965 37.9893 18.4987 37.5308 18.857L38.7621 20.433ZM40.2664 17.09C40.2664 15.7318 39.7441 14.59 38.6688 13.7993L37.484 15.4107C37.9954 15.7867 38.2664 16.3015 38.2664 17.09H40.2664ZM38.6803 13.8079C37.6816 13.0513 36.3937 12.73 34.9264 12.73V14.73C36.1191 14.73 36.9312 14.992 37.4725 15.4021L38.6803 13.8079ZM34.9264 12.73C34.0749 12.73 33.2529 12.8333 32.4637 13.0438L32.9791 14.9762C33.5899 14.8133 34.2379 14.73 34.9264 14.73V12.73ZM32.4868 13.0379C31.7577 13.2139 31.0709 13.4421 30.4287 13.7247L31.2341 15.5553C31.7585 15.3246 32.3318 15.1328 32.956 14.9821L32.4868 13.0379ZM31.3839 13.8065L28.2689 11.7415L27.1639 13.4085L30.2789 15.4735L31.3839 13.8065Z" fill="#4E4A60" mask="url(#path-1-outside-1_1173_13333)"/>
</svg>
