<svg width="40" height="40" viewBox="0 0 40 40" fill="none" xmlns="http://www.w3.org/2000/svg">
<path d="M29.4395 32.835L30.5949 25.0744H33.9316L32.348 13.3008L34.3285 0L40.0004 40H35.8176L34.848 32.835H29.4395Z" fill="#111119"/>
<path d="M25.8707 40L31.9426 0H27.9176L23.7637 25.8484L20.8098 0H17.7152L14.5441 25.8484L12.3074 14.0707L10.2832 30.6313L12.3387 40H16.3004L19.166 16.82L21.9004 40H25.8707Z" fill="#111119"/>
<path d="M3.82109 26.2676H6.30078C6.97791 26.2928 7.65308 26.0687 8.30703 25.6015L8.94844 20.3538L10.7406 5.68761C10.6029 5.10878 10.446 4.56367 10.2719 4.05872C9.35312 1.35291 8.00729 0 6.23438 0H0V40H3.82109V26.2676ZM7.10234 9.20268C7.46172 10.1627 7.64141 11.4485 7.64141 13.0601C7.64141 14.6717 7.48359 15.9589 7.16797 16.9217C6.82161 17.9786 6.18359 18.507 5.25391 18.507H3.82109V7.76054H5.26484C6.12995 7.76054 6.74271 8.24125 7.10312 9.20268H7.10234Z" fill="#111119"/>
</svg>
