<svg width="34" height="39" viewBox="0 0 34 39" fill="none" xmlns="http://www.w3.org/2000/svg">
<path d="M9.19225 30.4381C8.27428 30.4381 7.52818 29.692 7.52818 28.7779V13.3365H26.5126V28.774C26.5126 29.6881 25.7665 30.4342 24.8485 30.4342H22.9462V35.1373C22.9462 36.3326 21.993 37.3013 20.8133 37.3013C19.6376 37.3013 18.6805 36.3287 18.6805 35.1373V30.4342H15.3602V35.1412C15.3602 36.3365 14.4071 37.3052 13.2274 37.3052C12.0516 37.3052 11.0946 36.3326 11.0946 35.1412V30.4381H9.19225Z" stroke="#111119" stroke-width="1.5"/>
<path d="M23.2313 1.49375L21.4774 4.03281C24.2626 5.32968 26.2196 7.78671 26.4774 10.6617H7.49303C7.74303 7.79062 9.69615 5.33359 12.4852 4.03671L10.7313 1.49765C10.6297 1.3414 10.6532 1.14609 10.7899 1.05234C10.9266 0.954683 11.1219 1.00546 11.2235 1.1539L13.0438 3.79062C14.243 3.31796 15.579 3.05625 16.9813 3.05625C18.3837 3.05625 19.7196 3.31796 20.9188 3.79062L22.7391 1.15C22.8407 1.00156 23.036 0.954683 23.1727 1.04843C23.3094 1.14609 23.3329 1.34531 23.2313 1.49375Z" stroke="#111119" stroke-width="1.5"/>
<path d="M28.7016 15.4381C28.7016 14.2428 29.6547 13.274 30.8344 13.274C32.018 13.274 32.9711 14.2389 32.9672 15.4342V23.8912C32.9672 25.0865 32.0141 26.0553 30.8344 26.0553C29.6586 26.0553 28.7016 25.0826 28.7016 23.8912V15.4381Z" stroke="#111119" stroke-width="1.5"/>
<path d="M1 15.4381C1 14.2428 1.95312 13.274 3.13281 13.274C4.30859 13.274 5.26562 14.2389 5.26562 15.4342V23.8912C5.26562 25.0865 4.3125 26.0553 3.13281 26.0553C1.95703 26.0553 1 25.0826 1 23.8912V15.4381Z" stroke="#111119" stroke-width="1.5"/>
</svg>
