<svg width="59" height="54" viewBox="0 0 59 54" fill="none" xmlns="http://www.w3.org/2000/svg">
<path d="M17.3123 51.6735C17.3123 51.6735 18.2878 46.1495 20.3123 44.0438C22.2229 42.0567 26.6678 41.5555 26.6678 41.5555C30.9807 41.6016 32.0309 41.1247 31.4279 36.2067C34.8499 40.7175 41.0717 36.5956 39.5222 31.4923C44.416 35.8956 50.8711 32.8625 49.7045 28.7405C53.9193 32.733 59.6594 27.7295 55.2264 22.2854C59.8988 20.8097 56.5485 13.0305 51.7999 14.2479C53.2163 9.26243 49.0444 7.42397 45.2722 9.35218C45.4382 2.68642 36.1046 1.62578 33.8487 6.4147C33.7712 0.352995 22.599 0.77731 22.6428 6.19718C20.0535 1.20154 12.0633 3.88851 13.3952 8.48187C8.95206 5.44413 4.17471 9.77712 5.9969 14.792C0.935577 14.792 0.522027 23.3868 5.67047 23.3868C1.55585 23.4987 2.57293 29.8406 5.88804 29.8057C2.53143 33.1624 7.27894 38.5994 11.1864 36.653C11.6806 39.3662 15.3532 38.9446 15.3532 38.9446L12.7421 52" stroke="#111119" stroke-width="3" stroke-linecap="round" stroke-linejoin="round"/>
<ellipse cx="20.1415" cy="27.3061" rx="4.95303" ry="4.95303" stroke="#111119" stroke-width="3"/>
<path d="M20.1152 19.3799L20.1152 22.4523" stroke="#111119" stroke-width="3"/>
<path d="M20.1699 32.1597L20.1699 35.2321" stroke="#111119" stroke-width="3"/>
<path d="M28.0684 27.2788L24.996 27.2788" stroke="#111119" stroke-width="3"/>
<path d="M15.2881 27.3335L12.2157 27.3335" stroke="#111119" stroke-width="3"/>
<path d="M25.7266 21.6821L23.554 23.8546" stroke="#111119" stroke-width="3"/>
<path d="M16.7285 30.7573L14.556 32.9298" stroke="#111119" stroke-width="3"/>
<path d="M25.7656 32.8911L23.5931 30.7186" stroke="#111119" stroke-width="3"/>
<path d="M16.6914 23.8931L14.5189 21.7205" stroke="#111119" stroke-width="3"/>
<ellipse cx="34.1601" cy="18.0902" rx="4.95303" ry="4.95303" stroke="#111119" stroke-width="3"/>
<path d="M34.1338 10.1641L34.1338 13.2365" stroke="#111119" stroke-width="3"/>
<path d="M34.1885 22.9438L34.1885 26.0163" stroke="#111119" stroke-width="3"/>
<path d="M42.0869 18.063L39.0145 18.063" stroke="#111119" stroke-width="3"/>
<path d="M29.3066 18.1177L26.2342 18.1177" stroke="#111119" stroke-width="3"/>
<path d="M39.7451 12.4663L37.5726 14.6388" stroke="#111119" stroke-width="3"/>
<path d="M30.7471 21.5415L28.5746 23.714" stroke="#111119" stroke-width="3"/>
<path d="M39.7842 23.6753L37.6117 21.5028" stroke="#111119" stroke-width="3"/>
<path d="M30.71 14.6772L28.5374 12.5047" stroke="#111119" stroke-width="3"/>
</svg>
