<svg width="65" height="54" viewBox="0 0 65 54" fill="none" xmlns="http://www.w3.org/2000/svg">
<path d="M22.799 9.30891V10.8089C23.3423 10.8089 23.8432 10.5151 24.1083 10.0408C24.3734 9.56656 24.3614 8.98601 24.0767 8.52318L22.799 9.30891ZM31.956 40.179L31.9415 41.6789C32.3423 41.6828 32.7279 41.5261 33.0124 41.2438C33.2969 40.9616 33.4566 40.5772 33.456 40.1765L31.956 40.179ZM21.2494 34.937L22.7489 34.9005C22.7291 34.0865 22.0636 33.437 21.2494 33.437V34.937ZM25.7797 22.0256C26.595 22.1723 27.3749 21.6303 27.5215 20.8149C27.6682 19.9996 27.1262 19.2197 26.3108 19.073L25.7797 22.0256ZM33.4559 6.61615C33.4695 4.17476 32.3706 2.41001 30.6607 1.46925C29.0479 0.581921 27.0803 0.526814 25.3868 0.98475C23.6951 1.44223 22.0164 2.48364 21.1081 4.11526C20.1455 5.84456 20.2049 7.95399 21.5213 10.0946L24.0767 8.52318C23.2395 7.16174 23.3721 6.21613 23.7294 5.57439C24.141 4.83498 25.0287 4.18936 26.17 3.88073C27.3096 3.57257 28.4414 3.6723 29.2145 4.09768C29.8906 4.46963 30.4639 5.17547 30.456 6.59948L33.4559 6.61615ZM22.799 7.80891C18.6749 7.80891 15.4988 9.30871 14.0056 12.2841C12.5627 15.1594 12.9568 18.9192 14.7408 22.8896L17.4772 21.6601C15.8644 18.0705 15.825 15.3473 16.6869 13.6297C17.4987 12.0121 19.3659 10.8089 22.799 10.8089V7.80891ZM30.456 6.59948C30.4345 10.4706 30.4345 18.8687 30.4399 26.2935C30.4425 30.0071 30.4466 33.4791 30.4499 36.0226C30.4516 37.2944 30.4531 38.3341 30.4542 39.0558C30.4548 39.4167 30.4552 39.6981 30.4555 39.8893C30.4556 39.9849 30.4558 40.0579 30.4558 40.1071C30.4559 40.1316 30.4559 40.1502 30.4559 40.1627C30.4559 40.1689 30.456 40.1736 30.456 40.1767C30.456 40.1783 30.456 40.1795 30.456 40.1803C30.456 40.1807 30.456 40.181 30.456 40.1812C30.456 40.1814 30.456 40.1815 31.956 40.179C33.456 40.1765 33.456 40.1764 33.456 40.1762C33.456 40.176 33.456 40.1757 33.456 40.1753C33.456 40.1745 33.456 40.1733 33.456 40.1718C33.456 40.1687 33.4559 40.164 33.4559 40.1577C33.4559 40.1453 33.4559 40.1267 33.4558 40.1022C33.4558 40.0531 33.4556 39.9801 33.4555 39.8845C33.4552 39.6934 33.4547 39.4121 33.4542 39.0513C33.4531 38.3297 33.4516 37.2902 33.4499 36.0186C33.4466 33.4755 33.4425 30.0042 33.4399 26.2914C33.4345 18.8633 33.4345 10.4758 33.4559 6.61615L30.456 6.59948ZM31.956 40.179C31.9704 38.679 31.9704 38.679 31.9703 38.679C31.9703 38.679 31.9702 38.679 31.9701 38.679C31.9699 38.679 31.9696 38.679 31.9692 38.679C31.9685 38.679 31.9674 38.679 31.9659 38.679C31.963 38.679 31.9587 38.6789 31.953 38.6789C31.9416 38.6788 31.9247 38.6786 31.9026 38.6784C31.8584 38.678 31.7933 38.6774 31.7097 38.6767C31.5426 38.6752 31.3014 38.6732 31.0047 38.671C30.4114 38.6665 29.5959 38.6612 28.7073 38.6576C26.9385 38.6505 24.8537 38.6503 23.6663 38.6794L23.7399 41.6785C24.8772 41.6506 26.9188 41.6504 28.6953 41.6576C29.5794 41.6611 30.3912 41.6665 30.9821 41.6709C31.2775 41.6731 31.5175 41.6751 31.6837 41.6766C31.7667 41.6773 31.8313 41.6779 31.8751 41.6783C31.8969 41.6785 31.9136 41.6786 31.9248 41.6787C31.9304 41.6788 31.9346 41.6788 31.9374 41.6789C31.9388 41.6789 31.9398 41.6789 31.9405 41.6789C31.9409 41.6789 31.9411 41.6789 31.9413 41.6789C31.9414 41.6789 31.9414 41.6789 31.9415 41.6789C31.9415 41.6789 31.9415 41.6789 31.956 40.179ZM23.6663 38.6794C23.6656 38.6794 23.6765 38.6794 23.6933 38.6841C23.7095 38.6886 23.7183 38.6939 23.7178 38.6935C23.7125 38.6903 23.6577 38.6534 23.5715 38.5291C23.3859 38.2616 23.2056 37.8112 23.0613 37.2224C22.9228 36.657 22.8431 36.0728 22.7987 35.6183C22.7768 35.3941 22.7642 35.2084 22.7571 35.0811C22.7536 35.0176 22.7514 34.9691 22.7502 34.9381C22.7496 34.9225 22.7493 34.9114 22.7491 34.9051C22.749 34.9019 22.7489 34.8999 22.7489 34.8991C22.7489 34.8987 22.7489 34.8986 22.7489 34.8989C22.7489 34.899 22.7489 34.8992 22.7489 34.8994C22.7489 34.8996 22.7489 34.8998 22.7489 34.8999C22.7489 34.9002 22.7489 34.9005 21.2494 34.937C19.7498 34.9735 19.7498 34.9738 19.7498 34.9742C19.7498 34.9743 19.7498 34.9747 19.7498 34.975C19.7499 34.9756 19.7499 34.9763 19.7499 34.977C19.7499 34.9785 19.75 34.9804 19.75 34.9825C19.7502 34.9868 19.7503 34.9924 19.7505 34.9993C19.751 35.0129 19.7516 35.0316 19.7525 35.0549C19.7543 35.1014 19.7572 35.1667 19.7618 35.248C19.7708 35.4103 19.7864 35.6381 19.8129 35.9098C19.8654 36.4471 19.9632 37.1841 20.1475 37.9363C20.3261 38.6651 20.6139 39.5288 21.1064 40.2389C21.6176 40.976 22.4805 41.7094 23.7399 41.6785L23.6663 38.6794ZM21.2494 33.437C19.8619 33.437 18.5881 32.6859 17.632 31.3941C16.6699 30.0941 16.1337 28.3678 16.2153 26.7453C16.2954 25.1517 16.9574 23.7412 18.308 22.8363C19.6867 21.9125 22.0299 21.3511 25.7797 22.0256L26.3108 19.073C22.1068 18.3167 18.8853 18.8383 16.6381 20.344C14.3628 21.8685 13.3377 24.2337 13.219 26.5947C13.1018 28.9268 13.8552 31.334 15.2206 33.1788C16.5921 35.0319 18.6838 36.437 21.2494 36.437V33.437Z" fill="#111119"/>
<path d="M41.1102 9.30891V10.8089C40.5668 10.8089 40.066 10.5151 39.8009 10.0408C39.5357 9.56656 39.5478 8.98601 39.8324 8.52318L41.1102 9.30891ZM31.9532 40.179L31.9676 41.6789C31.5669 41.6828 31.1813 41.5261 30.8968 41.2438C30.6123 40.9616 30.4525 40.5772 30.4532 40.1765L31.9532 40.179ZM42.6598 34.937L41.1603 34.9005C41.1801 34.0865 41.8456 33.437 42.6598 33.437V34.937ZM38.1295 22.0256C37.3142 22.1723 36.5343 21.6303 36.3876 20.8149C36.241 19.9996 36.783 19.2197 37.5984 19.073L38.1295 22.0256ZM30.4532 6.61615C30.4397 4.17476 31.5386 2.41001 33.2485 1.46925C34.8612 0.581921 36.8289 0.526814 38.5223 0.98475C40.2141 1.44223 41.8928 2.48364 42.8011 4.11526C43.7637 5.84456 43.7043 7.95399 42.3879 10.0946L39.8324 8.52318C40.6696 7.16174 40.537 6.21613 40.1798 5.57439C39.7682 4.83498 38.8805 4.18936 37.7392 3.88073C36.5996 3.57257 35.4678 3.6723 34.6946 4.09768C34.0186 4.46963 33.4453 5.17547 33.4532 6.59948L30.4532 6.61615ZM41.1102 7.80891C45.2343 7.80891 48.4104 9.30871 49.9036 12.2841C51.3465 15.1594 50.9524 18.9192 49.1684 22.8896L46.4319 21.6601C48.0448 18.0705 48.0842 15.3473 47.2222 13.6297C46.4105 12.0121 44.5432 10.8089 41.1102 10.8089V7.80891ZM33.4532 6.59948C33.4747 10.4706 33.4747 18.8687 33.4693 26.2935C33.4666 30.0071 33.4626 33.4791 33.4593 36.0226C33.4576 37.2944 33.4561 38.3341 33.455 39.0558C33.4544 39.4167 33.454 39.6981 33.4537 39.8893C33.4535 39.9849 33.4534 40.0579 33.4533 40.1071C33.4533 40.1316 33.4533 40.1502 33.4532 40.1627C33.4532 40.1689 33.4532 40.1736 33.4532 40.1767C33.4532 40.1783 33.4532 40.1795 33.4532 40.1803C33.4532 40.1807 33.4532 40.181 33.4532 40.1812C33.4532 40.1814 33.4532 40.1815 31.9532 40.179C30.4532 40.1765 30.4532 40.1764 30.4532 40.1762C30.4532 40.176 30.4532 40.1757 30.4532 40.1753C30.4532 40.1745 30.4532 40.1733 30.4532 40.1718C30.4532 40.1687 30.4532 40.164 30.4532 40.1577C30.4533 40.1453 30.4533 40.1267 30.4533 40.1022C30.4534 40.0531 30.4535 39.9801 30.4537 39.8845C30.454 39.6934 30.4544 39.4121 30.455 39.0513C30.4561 38.3297 30.4576 37.2902 30.4593 36.0186C30.4626 33.4755 30.4666 30.0042 30.4693 26.2914C30.4747 18.8633 30.4747 10.4758 30.4532 6.61615L33.4532 6.59948ZM31.9532 40.179C31.9388 38.679 31.9388 38.679 31.9389 38.679C31.9389 38.679 31.939 38.679 31.9391 38.679C31.9393 38.679 31.9396 38.679 31.9399 38.679C31.9407 38.679 31.9418 38.679 31.9432 38.679C31.9462 38.679 31.9505 38.6789 31.9562 38.6789C31.9676 38.6788 31.9845 38.6786 32.0066 38.6784C32.0508 38.678 32.1159 38.6774 32.1994 38.6767C32.3666 38.6752 32.6078 38.6732 32.9045 38.671C33.4978 38.6665 34.3133 38.6612 35.2018 38.6576C36.9706 38.6505 39.0555 38.6503 40.2429 38.6794L40.1693 41.6785C39.032 41.6506 36.9904 41.6504 35.2139 41.6576C34.3298 41.6611 33.518 41.6665 32.9271 41.6709C32.6317 41.6731 32.3916 41.6751 32.2255 41.6766C32.1425 41.6773 32.0779 41.6779 32.0341 41.6783C32.0122 41.6785 31.9956 41.6786 31.9844 41.6787C31.9788 41.6788 31.9746 41.6788 31.9718 41.6789C31.9704 41.6789 31.9693 41.6789 31.9686 41.6789C31.9683 41.6789 31.968 41.6789 31.9679 41.6789C31.9678 41.6789 31.9677 41.6789 31.9677 41.6789C31.9677 41.6789 31.9676 41.6789 31.9532 40.179ZM40.2429 38.6794C40.2435 38.6794 40.2326 38.6794 40.2159 38.6841C40.1997 38.6886 40.1908 38.6939 40.1914 38.6935C40.1966 38.6903 40.2515 38.6534 40.3377 38.5291C40.5233 38.2616 40.7036 37.8112 40.8478 37.2224C40.9864 36.657 41.0661 36.0728 41.1104 35.6183C41.1323 35.3941 41.145 35.2084 41.1521 35.0811C41.1556 35.0176 41.1577 34.9691 41.1589 34.9381C41.1595 34.9225 41.1599 34.9114 41.1601 34.9051C41.1602 34.9019 41.1603 34.8999 41.1603 34.8991C41.1603 34.8987 41.1603 34.8986 41.1603 34.8989C41.1603 34.899 41.1603 34.8992 41.1603 34.8994C41.1603 34.8996 41.1603 34.8998 41.1603 34.8999C41.1603 34.9002 41.1603 34.9005 42.6598 34.937C44.1594 34.9735 44.1594 34.9738 44.1594 34.9742C44.1594 34.9743 44.1593 34.9747 44.1593 34.975C44.1593 34.9756 44.1593 34.9763 44.1593 34.977C44.1593 34.9785 44.1592 34.9804 44.1591 34.9825C44.159 34.9868 44.1589 34.9924 44.1586 34.9993C44.1582 35.0129 44.1576 35.0316 44.1567 35.0549C44.1549 35.1014 44.1519 35.1667 44.1474 35.248C44.1384 35.4103 44.1228 35.6381 44.0963 35.9098C44.0438 36.4471 43.946 37.1841 43.7617 37.9363C43.5831 38.6651 43.2953 39.5288 42.8028 40.2389C42.2915 40.976 41.4287 41.7094 40.1693 41.6785L40.2429 38.6794ZM42.6598 33.437C44.0473 33.437 45.3211 32.6859 46.2772 31.3941C47.2393 30.0941 47.7755 28.3678 47.6939 26.7453C47.6138 25.1517 46.9518 23.7412 45.6012 22.8363C44.2225 21.9125 41.8793 21.3511 38.1295 22.0256L37.5984 19.073C41.8024 18.3167 45.0239 18.8383 47.2711 20.344C49.5464 21.8685 50.5715 24.2337 50.6901 26.5947C50.8074 28.9268 50.0539 31.334 48.6886 33.1788C47.3171 35.0319 45.2254 36.437 42.6598 36.437V33.437Z" fill="#111119"/>
<path d="M23.8926 40.1934H40.0162V43.9384C40.0162 48.3908 36.4068 52.0002 31.9544 52.0002V52.0002C27.502 52.0002 23.8926 48.3908 23.8926 43.9384V40.1934Z" stroke="#111119" stroke-width="3"/>
<path d="M8.72852 2L13.3371 6.60922" stroke="#111119" stroke-width="3" stroke-linecap="round" stroke-linejoin="round"/>
<path d="M8.72852 41.249L13.3371 36.6398" stroke="#111119" stroke-width="3" stroke-linecap="round" stroke-linejoin="round"/>
<path d="M2 21.6245L8.51799 21.6249" stroke="#111119" stroke-width="3" stroke-linecap="round" stroke-linejoin="round"/>
<path d="M55.9072 2L51.2986 6.60922" stroke="#111119" stroke-width="3" stroke-linecap="round" stroke-linejoin="round"/>
<path d="M55.9072 41.249L51.2986 36.6398" stroke="#111119" stroke-width="3" stroke-linecap="round" stroke-linejoin="round"/>
<path d="M62.6357 21.6245L56.1177 21.6249" stroke="#111119" stroke-width="3" stroke-linecap="round" stroke-linejoin="round"/>
</svg>
