<svg width="80" height="80" viewBox="0 0 80 80" fill="none" xmlns="http://www.w3.org/2000/svg">
<path d="M75 60V55H69.7475C69.4251 53.4351 68.8037 51.947 67.9175 50.6175L71.6425 46.8925L68.1075 43.3575L64.3825 47.0825C63.053 46.1963 61.5649 45.5749 60 45.2525V40H55V45.2525C53.4351 45.5749 51.947 46.1963 50.6175 47.0825L46.8925 43.3575L43.3575 46.8925L47.0825 50.6175C46.1963 51.947 45.5749 53.4351 45.2525 55H40V60H45.2525C45.5749 61.5649 46.1963 63.053 47.0825 64.3825L43.3575 68.1075L46.8925 71.6425L50.6175 67.9175C51.947 68.8037 53.4351 69.4251 55 69.7475V75H60V69.7475C61.5649 69.4251 63.053 68.8037 64.3825 67.9175L68.1075 71.6425L71.6425 68.1075L67.9175 64.3825C68.8037 63.053 69.4251 61.5649 69.7475 60H75ZM57.5 65C56.0166 65 54.5666 64.5601 53.3332 63.736C52.0999 62.9119 51.1386 61.7406 50.5709 60.3701C50.0032 58.9997 49.8547 57.4917 50.1441 56.0368C50.4335 54.582 51.1478 53.2456 52.1967 52.1967C53.2456 51.1478 54.582 50.4335 56.0368 50.1441C57.4917 49.8547 58.9997 50.0032 60.3701 50.5709C61.7406 51.1386 62.9119 52.0999 63.736 53.3332C64.5601 54.5666 65 56.0166 65 57.5C64.998 59.4885 64.2072 61.395 62.8011 62.8011C61.395 64.2072 59.4885 64.998 57.5 65Z" fill="#111119"/>
<path d="M35 66.6675L26.915 62.355C23.3134 60.4392 20.3014 57.5789 18.2023 54.0809C16.1032 50.583 14.9961 46.5795 15 42.5V10H65V35H70V10C69.9987 8.67432 69.4715 7.40332 68.5341 6.46593C67.5967 5.52853 66.3257 5.00132 65 5H15C13.6743 5.00132 12.4033 5.52853 11.4659 6.46593C10.5286 7.40332 10.0013 8.67432 10 10V42.5C9.99445 47.4859 11.3468 52.3791 13.912 56.6545C16.4771 60.9299 20.1582 64.426 24.56 66.7675L35 72.335V66.6675Z" fill="#111119"/>
</svg>
