<svg width="80" height="80" viewBox="0 0 80 80" fill="none" xmlns="http://www.w3.org/2000/svg">
<g clip-path="url(#clip0_1115_13093)">
<path d="M51.93 49.18C50.6322 47.1252 49.9615 44.7366 50.0001 42.3066C50.0386 39.8766 50.7847 37.5105 52.147 35.4979C53.5094 33.4853 55.4289 31.9135 57.6706 30.9749C59.9123 30.0362 62.3791 29.7714 64.769 30.2128C67.1589 30.6543 69.3683 31.7828 71.1268 33.4604C72.8853 35.138 74.1166 37.2918 74.67 39.6582C75.2235 42.0247 75.0751 44.5012 74.243 46.7846C73.4109 49.0681 71.9312 51.0594 69.985 52.515C76.06 55.865 80 62.3 80 70V77.5C80 78.163 79.7366 78.7989 79.2678 79.2678C78.7989 79.7366 78.163 80 77.5 80C76.837 80 76.2011 79.7366 75.7322 79.2678C75.2634 78.7989 75 78.163 75 77.5V70C75 61.38 68.62 55 60 55C55.45 55 53.51 54.9 50.975 54.39C44.725 53.12 39.31 49.39 33.05 41.56C32.8265 41.3061 32.6568 41.0096 32.5512 40.6882C32.4457 40.3669 32.4064 40.0275 32.4358 39.6905C32.4652 39.3536 32.5627 39.0261 32.7224 38.7279C32.882 38.4297 33.1005 38.1671 33.3646 37.9558C33.6287 37.7445 33.933 37.589 34.2589 37.4987C34.5849 37.4084 34.9258 37.3852 35.261 37.4304C35.5961 37.4757 35.9187 37.5885 36.209 37.762C36.4993 37.9356 36.7514 38.1662 36.95 38.44C41.45 44.06 45.215 47.14 49.12 48.655C49.895 48.915 50.845 49.07 51.93 49.18ZM60.855 49.82C61.27 49.87 61.69 49.925 62.11 49.99L62.5 50C64.4172 49.9957 66.2599 49.2575 67.6497 47.9368C69.0395 46.6162 69.8708 44.8135 69.9727 42.899C70.0747 40.9845 69.4397 39.1037 68.1981 37.6429C66.9565 36.182 65.2026 35.2522 63.2967 35.0443C61.3908 34.8363 59.4777 35.3662 57.9503 36.5249C56.423 37.6837 55.3973 39.3834 55.0841 41.2748C54.7709 43.1662 55.1939 45.1058 56.2663 46.695C57.3386 48.2842 58.9838 49.4025 60.855 49.82ZM48.9 59.85C49.563 59.85 50.1989 60.1134 50.6678 60.5822C51.1366 61.0511 51.4 61.687 51.4 62.35C51.363 62.7436 51.2791 63.1313 51.15 63.505C50.255 65.405 50 67.375 50 70.015V77.515C50 78.178 49.7366 78.8139 49.2678 79.2828C48.7989 79.7516 48.163 80.015 47.5 80.015C46.837 80.015 46.2011 79.7516 45.7322 79.2828C45.2634 78.8139 45 78.178 45 77.515V70.015C45 66.73 45.36 64.085 46.535 61.535C46.7047 61.0429 47.0238 60.616 47.4478 60.3139C47.8717 60.0119 48.3794 59.8497 48.9 59.85ZM29.79 28.86C30.1801 29.3793 30.3528 30.0301 30.2715 30.6745C30.1902 31.3189 29.8613 31.9064 29.3544 32.3125C28.8476 32.7187 28.2025 32.9116 27.5559 32.8505C26.9092 32.7893 26.3118 32.4789 25.89 31.985L15.55 19.06C15.3265 18.8061 15.1568 18.5096 15.0512 18.1882C14.9457 17.8669 14.9064 17.5275 14.9358 17.1905C14.9652 16.8536 15.0627 16.5261 15.2224 16.2279C15.382 15.9297 15.6005 15.6671 15.8646 15.4558C16.1287 15.2445 16.433 15.089 16.7589 14.9987C17.0849 14.9084 17.4258 14.8852 17.761 14.9304C18.0961 14.9757 18.4187 15.0885 18.709 15.262C18.9993 15.4356 19.2514 15.6662 19.45 15.94L29.79 28.86ZM5 55H32.5C33.163 55 33.7989 55.2634 34.2678 55.7322C34.7366 56.2011 35 56.837 35 57.5C35 58.163 34.7366 58.7989 34.2678 59.2678C33.7989 59.7366 33.163 60 32.5 60H2.5C1.83696 60 1.20107 59.7366 0.732233 59.2678C0.263392 58.7989 0 58.163 0 57.5V2.5C0 1.83696 0.263392 1.20107 0.732233 0.732233C1.20107 0.263392 1.83696 0 2.5 0L62.5 0C63.163 0 63.7989 0.263392 64.2678 0.732233C64.7366 1.20107 65 1.83696 65 2.5V17.5C65 18.163 64.7366 18.7989 64.2678 19.2678C63.7989 19.7366 63.163 20 62.5 20C61.837 20 61.2011 19.7366 60.7322 19.2678C60.2634 18.7989 60 18.163 60 17.5V5H5V55Z" fill="#111119"/>
</g>
<defs>
<clipPath id="clip0_1115_13093">
<rect width="80" height="80" fill="white"/>
</clipPath>
</defs>
</svg>
