<svg width="80" height="80" viewBox="0 0 80 80" fill="none" xmlns="http://www.w3.org/2000/svg">
<path d="M43.3332 70H13.3332C11.5651 70 9.86937 69.2976 8.61913 68.0474C7.36888 66.7971 6.6665 65.1014 6.6665 63.3333V16.6667C6.6665 14.8986 7.36888 13.2029 8.61913 11.9526C9.86937 10.7024 11.5651 10 13.3332 10H66.6665C68.4346 10 70.1303 10.7024 71.3805 11.9526C72.6308 13.2029 73.3332 14.8986 73.3332 16.6667V50" stroke="#111119" stroke-width="4" stroke-linecap="round"/>
<path d="M6.6665 23.3331H73.3332M16.6665 16.6998L16.6998 16.6631M26.6665 16.6998L26.6998 16.6631M36.6665 16.6998L36.6998 16.6631M53.3332 66.6664L59.9998 73.3331L73.3332 59.9997" stroke="#111119" stroke-width="4" stroke-linecap="round" stroke-linejoin="round"/>
</svg>
