<svg width="80" height="80" viewBox="0 0 80 80" fill="none" xmlns="http://www.w3.org/2000/svg">
<path d="M30 27.5H35V42.5H30V27.5ZM17.5 32.5H22.5V42.5H17.5V32.5ZM5 17.5H10V42.5H5V17.5Z" fill="#111119"/>
<path d="M75 71.465L56.12 52.585C60.2464 47.6548 62.5051 41.4291 62.5 35C62.5 19.8375 50.1625 7.5 35 7.5C28.9925 7.5 23.2875 9.4 18.4975 13L21.4975 17C25.3862 14.0657 30.1285 12.4853 35 12.5C47.4075 12.5 57.5 22.5925 57.5 35C57.5 47.4075 47.4075 57.5 35 57.5C31.5047 57.5133 28.055 56.7059 24.9286 55.1427C21.8023 53.5795 19.0866 51.3043 17 48.5L13 51.505C15.5508 54.9315 18.8702 57.7114 22.6913 59.6211C26.5124 61.5308 30.7283 62.5168 35 62.5C41.6825 62.5 47.815 60.1 52.585 56.12L71.465 75L75 71.465Z" fill="#111119"/>
</svg>
