<svg width="174" height="93" viewBox="0 0 174 93" fill="none" xmlns="http://www.w3.org/2000/svg">
<path d="M101.517 32.6316L90.0226 49.0662H97.195C98.2958 49.0662 99.1386 48.8254 99.7234 48.3438C100.317 47.8622 100.841 46.8861 101.297 45.4155L101.723 45.4929L100.897 50.124H86.6557V49.6467L97.8787 33.6765H92.2801C91.3513 33.6765 90.6762 33.7797 90.2548 33.9861C89.842 34.1839 89.5238 34.4763 89.3002 34.8633C89.0852 35.2417 88.8874 35.9555 88.7068 37.0047H88.2166L88.5778 32.6316H101.517ZM126.567 32.2317L126.967 38.1786H126.567C126.034 36.3984 125.273 35.117 124.284 34.3344C123.295 33.5518 122.108 33.1605 120.723 33.1605C119.562 33.1605 118.513 33.4572 117.576 34.0506C116.638 34.6354 115.899 35.5728 115.357 36.8628C114.824 38.1528 114.557 39.7567 114.557 41.6745C114.557 43.2569 114.811 44.6286 115.318 45.7896C115.825 46.9506 116.587 47.8407 117.601 48.4599C118.625 49.0791 119.79 49.3887 121.097 49.3887C122.232 49.3887 123.234 49.1479 124.103 48.6663C124.972 48.1761 125.926 47.2086 126.967 45.7638L127.367 46.0218C126.489 47.5784 125.466 48.7179 124.296 49.4403C123.127 50.1627 121.738 50.5239 120.13 50.5239C117.232 50.5239 114.987 49.4489 113.396 47.2989C112.209 45.6993 111.616 43.8159 111.616 41.6487C111.616 39.9029 112.007 38.299 112.79 36.837C113.572 35.375 114.647 34.2441 116.015 33.4443C117.391 32.6359 118.891 32.2317 120.517 32.2317C121.781 32.2317 123.028 32.5413 124.258 33.1605C124.619 33.3497 124.877 33.4443 125.032 33.4443C125.264 33.4443 125.466 33.3626 125.638 33.1992C125.862 32.967 126.021 32.6445 126.115 32.2317H126.567ZM135.68 37.9593C137.469 37.9593 138.905 38.6387 139.989 39.9975C140.909 41.1585 141.369 42.4915 141.369 43.9965C141.369 45.0543 141.115 46.125 140.608 47.2086C140.1 48.2922 139.399 49.1092 138.505 49.6596C137.619 50.21 136.63 50.4852 135.538 50.4852C133.758 50.4852 132.343 49.7757 131.294 48.3567C130.408 47.1613 129.965 45.8197 129.965 44.3319C129.965 43.2483 130.232 42.1733 130.765 41.1069C131.307 40.0319 132.016 39.2407 132.894 38.7333C133.771 38.2173 134.7 37.9593 135.68 37.9593ZM135.28 38.7978C134.824 38.7978 134.364 38.9354 133.9 39.2106C133.444 39.4772 133.074 39.9502 132.79 40.6296C132.507 41.309 132.365 42.1819 132.365 43.2483C132.365 44.9683 132.704 46.4518 133.384 47.6988C134.072 48.9458 134.975 49.5693 136.093 49.5693C136.927 49.5693 137.615 49.2253 138.157 48.5373C138.699 47.8493 138.969 46.6668 138.969 44.9898C138.969 42.8914 138.518 41.2402 137.615 40.0362C137.004 39.2106 136.226 38.7978 135.28 38.7978ZM147.36 37.9593V40.6167C148.349 38.8451 149.364 37.9593 150.405 37.9593C150.878 37.9593 151.269 38.1055 151.578 38.3979C151.888 38.6817 152.043 39.0128 152.043 39.3912C152.043 39.7266 151.931 40.0104 151.707 40.2426C151.484 40.4748 151.217 40.5909 150.908 40.5909C150.607 40.5909 150.267 40.4447 149.889 40.1523C149.519 39.8513 149.244 39.7008 149.063 39.7008C148.908 39.7008 148.74 39.7868 148.56 39.9588C148.173 40.3114 147.773 40.8919 147.36 41.7003V47.3634C147.36 48.017 147.442 48.5115 147.605 48.8469C147.717 49.0791 147.915 49.2726 148.199 49.4274C148.482 49.5822 148.891 49.6596 149.424 49.6596V50.124H143.374V49.6596C143.976 49.6596 144.423 49.565 144.716 49.3758C144.931 49.2382 145.081 49.0189 145.167 48.7179C145.21 48.5717 145.232 48.1546 145.232 47.4666V42.8871C145.232 41.5111 145.202 40.6941 145.141 40.4361C145.09 40.1695 144.987 39.976 144.832 39.8556C144.686 39.7352 144.501 39.675 144.277 39.675C144.01 39.675 143.709 39.7395 143.374 39.8685L143.245 39.4041L146.818 37.9593H147.36ZM152.642 39.4815L156.28 38.0109H156.77V40.7715C157.381 39.7309 157.991 39.0042 158.602 38.5914C159.221 38.17 159.87 37.9593 160.55 37.9593C161.736 37.9593 162.725 38.4237 163.517 39.3525C164.488 40.4877 164.974 41.9669 164.974 43.7901C164.974 45.8283 164.39 47.5139 163.22 48.8469C162.257 49.9391 161.044 50.4852 159.582 50.4852C158.946 50.4852 158.395 50.3949 157.931 50.2143C157.587 50.0853 157.2 49.8273 156.77 49.4403V53.0394C156.77 53.8478 156.817 54.3595 156.912 54.5745C157.015 54.7981 157.187 54.9744 157.428 55.1034C157.677 55.2324 158.124 55.2969 158.769 55.2969V55.7742H152.577V55.2969H152.9C153.373 55.3055 153.777 55.2152 154.113 55.026C154.276 54.9314 154.401 54.7766 154.487 54.5616C154.581 54.3552 154.629 53.822 154.629 52.962V41.7906C154.629 41.0252 154.594 40.5393 154.525 40.3329C154.457 40.1265 154.345 39.9717 154.19 39.8685C154.044 39.7653 153.842 39.7137 153.584 39.7137C153.377 39.7137 153.115 39.7739 152.797 39.8943L152.642 39.4815ZM156.77 41.5326V45.9444C156.77 46.899 156.809 47.5268 156.886 47.8278C157.006 48.3266 157.299 48.7652 157.763 49.1436C158.236 49.522 158.83 49.7112 159.543 49.7112C160.403 49.7112 161.1 49.3758 161.633 48.705C162.33 47.8278 162.678 46.5937 162.678 45.0027C162.678 43.1967 162.283 41.8078 161.491 40.836C160.941 40.1652 160.287 39.8298 159.531 39.8298C159.118 39.8298 158.709 39.933 158.305 40.1394C157.995 40.2942 157.484 40.7586 156.77 41.5326ZM169.972 47.6214C170.377 47.6214 170.716 47.7633 170.991 48.0471C171.267 48.3223 171.404 48.6577 171.404 49.0533C171.404 49.4489 171.262 49.7886 170.979 50.0724C170.703 50.3476 170.368 50.4852 169.972 50.4852C169.577 50.4852 169.237 50.3476 168.953 50.0724C168.678 49.7886 168.54 49.4489 168.54 49.0533C168.54 48.6491 168.678 48.3094 168.953 48.0342C169.237 47.759 169.577 47.6214 169.972 47.6214Z" fill="#191A20"/>
<path d="M86.8403 58.875V54.8547H87.1906L89.0285 57.9905H88.8447L90.6653 54.8547H91.0157V58.875H90.6079V55.4922H90.7055L89.0285 58.3638H88.8275L87.1389 55.4922H87.2481V58.875H86.8403ZM95.3351 58.875V58.2088L95.3179 58.0997V56.9854C95.3179 56.7289 95.2451 56.5317 95.0996 56.3939C94.958 56.256 94.7455 56.1871 94.4621 56.1871C94.2668 56.1871 94.0811 56.2197 93.905 56.2848C93.7289 56.3499 93.5796 56.436 93.457 56.5432L93.2732 56.2388C93.4264 56.1086 93.6102 56.0091 93.8246 55.9402C94.039 55.8674 94.2649 55.831 94.5023 55.831C94.8929 55.831 95.1934 55.9287 95.404 56.124C95.6184 56.3154 95.7256 56.6083 95.7256 57.0027V58.875H95.3351ZM94.2956 58.9037C94.0697 58.9037 93.8725 58.8673 93.704 58.7946C93.5394 58.718 93.413 58.6146 93.3249 58.4845C93.2369 58.3504 93.1928 58.1973 93.1928 58.025C93.1928 57.868 93.2292 57.7263 93.302 57.6C93.3785 57.4698 93.5011 57.3664 93.6695 57.2898C93.8418 57.2094 94.0716 57.1692 94.3587 57.1692H95.3983V57.4736H94.3702C94.0792 57.4736 93.8763 57.5253 93.7614 57.6287C93.6504 57.7321 93.5949 57.8603 93.5949 58.0135C93.5949 58.1858 93.6619 58.3236 93.7959 58.427C93.9299 58.5304 94.1175 58.5821 94.3587 58.5821C94.5885 58.5821 94.7857 58.5304 94.9503 58.427C95.1188 58.3198 95.2413 58.1667 95.3179 57.9676L95.4098 58.249C95.3332 58.4481 95.1992 58.607 95.0077 58.7257C94.8201 58.8444 94.5827 58.9037 94.2956 58.9037ZM98.3609 58.0939L98.3724 57.5713L100.25 55.8598H100.75L99.4234 57.129L99.1937 57.3243L98.3609 58.0939ZM98.0393 58.875V54.6135H98.4471V58.875H98.0393ZM100.377 58.875L99.119 57.3071L99.3832 56.9912L100.877 58.875H100.377ZM103.858 58.9037C103.544 58.9037 103.268 58.8386 103.031 58.7084C102.793 58.5744 102.608 58.3926 102.474 58.1628C102.34 57.9293 102.273 57.6632 102.273 57.3645C102.273 57.0659 102.336 56.8017 102.462 56.5719C102.592 56.3422 102.768 56.1622 102.99 56.0321C103.216 55.898 103.469 55.831 103.749 55.831C104.032 55.831 104.283 55.8961 104.501 56.0263C104.723 56.1527 104.897 56.3326 105.024 56.5662C105.15 56.7959 105.213 57.062 105.213 57.3645C105.213 57.3837 105.211 57.4047 105.207 57.4277C105.207 57.4468 105.207 57.4679 105.207 57.4909H102.583V57.1865H104.989L104.828 57.3071C104.828 57.0888 104.78 56.8955 104.685 56.727C104.593 56.5547 104.467 56.4207 104.306 56.325C104.145 56.2292 103.959 56.1814 103.749 56.1814C103.542 56.1814 103.356 56.2292 103.192 56.325C103.027 56.4207 102.899 56.5547 102.807 56.727C102.715 56.8993 102.669 57.0965 102.669 57.3186V57.3817C102.669 57.6115 102.719 57.8144 102.818 57.9905C102.922 58.1628 103.063 58.2988 103.243 58.3983C103.427 58.494 103.636 58.5419 103.869 58.5419C104.053 58.5419 104.223 58.5093 104.38 58.4443C104.541 58.3792 104.679 58.2796 104.794 58.1456L105.024 58.4098C104.89 58.5706 104.721 58.6931 104.518 58.7774C104.319 58.8616 104.099 58.9037 103.858 58.9037ZM109.958 58.875V55.8598H110.366V58.875H109.958ZM110.165 55.1935C110.081 55.1935 110.01 55.1648 109.953 55.1074C109.895 55.05 109.867 54.981 109.867 54.9006C109.867 54.8202 109.895 54.7532 109.953 54.6996C110.01 54.6422 110.081 54.6135 110.165 54.6135C110.249 54.6135 110.32 54.6403 110.378 54.6939C110.435 54.7475 110.464 54.8145 110.464 54.8949C110.464 54.9791 110.435 55.05 110.378 55.1074C110.324 55.1648 110.253 55.1935 110.165 55.1935ZM113.66 58.9037C113.377 58.9037 113.159 58.8271 113.006 58.674C112.852 58.5208 112.776 58.3045 112.776 58.025V55.1935H113.184V58.002C113.184 58.1781 113.228 58.3141 113.316 58.4098C113.408 58.5055 113.538 58.5534 113.706 58.5534C113.886 58.5534 114.036 58.5017 114.154 58.3983L114.298 58.6912C114.217 58.764 114.12 58.8176 114.005 58.852C113.894 58.8865 113.779 58.9037 113.66 58.9037ZM112.236 56.1986V55.8598H114.103V56.1986H112.236ZM120.495 55.831C120.74 55.831 120.954 55.8789 121.138 55.9746C121.326 56.0665 121.471 56.2082 121.574 56.3996C121.682 56.5911 121.735 56.8323 121.735 57.1233V58.875H121.328V57.1635C121.328 56.8457 121.247 56.6064 121.086 56.4456C120.929 56.2809 120.707 56.1986 120.42 56.1986C120.206 56.1986 120.018 56.2426 119.857 56.3307C119.7 56.4149 119.578 56.5394 119.49 56.704C119.405 56.8648 119.363 57.0601 119.363 57.2898V58.875H118.956V54.6135H119.363V56.6868L119.283 56.5317C119.379 56.3135 119.532 56.1431 119.742 56.0206C119.953 55.8942 120.204 55.831 120.495 55.831ZM125.932 58.875V58.2088L125.915 58.0997V56.9854C125.915 56.7289 125.842 56.5317 125.697 56.3939C125.555 56.256 125.343 56.1871 125.059 56.1871C124.864 56.1871 124.678 56.2197 124.502 56.2848C124.326 56.3499 124.177 56.436 124.054 56.5432L123.871 56.2388C124.024 56.1086 124.207 56.0091 124.422 55.9402C124.636 55.8674 124.862 55.831 125.1 55.831C125.49 55.831 125.791 55.9287 126.001 56.124C126.216 56.3154 126.323 56.6083 126.323 57.0027V58.875H125.932ZM124.893 58.9037C124.667 58.9037 124.47 58.8673 124.301 58.7946C124.137 58.718 124.01 58.6146 123.922 58.4845C123.834 58.3504 123.79 58.1973 123.79 58.025C123.79 57.868 123.827 57.7263 123.899 57.6C123.976 57.4698 124.098 57.3664 124.267 57.2898C124.439 57.2094 124.669 57.1692 124.956 57.1692H125.996V57.4736H124.968C124.677 57.4736 124.474 57.5253 124.359 57.6287C124.248 57.7321 124.192 57.8603 124.192 58.0135C124.192 58.1858 124.259 58.3236 124.393 58.427C124.527 58.5304 124.715 58.5821 124.956 58.5821C125.186 58.5821 125.383 58.5304 125.548 58.427C125.716 58.3198 125.839 58.1667 125.915 57.9676L126.007 58.249C125.93 58.4481 125.796 58.607 125.605 58.7257C125.417 58.8444 125.18 58.9037 124.893 58.9037ZM130.193 58.9037C129.933 58.9037 129.697 58.8444 129.487 58.7257C129.276 58.6031 129.108 58.4289 128.981 58.203C128.859 57.9733 128.797 57.6938 128.797 57.3645C128.797 57.0352 128.859 56.7576 128.981 56.5317C129.104 56.302 129.27 56.1278 129.481 56.0091C129.691 55.8904 129.929 55.831 130.193 55.831C130.48 55.831 130.737 55.8961 130.963 56.0263C131.192 56.1527 131.372 56.3326 131.503 56.5662C131.633 56.7959 131.698 57.062 131.698 57.3645C131.698 57.6708 131.633 57.9388 131.503 58.1686C131.372 58.3983 131.192 58.5783 130.963 58.7084C130.737 58.8386 130.48 58.9037 130.193 58.9037ZM128.637 59.9892V55.8598H129.027V56.7672L128.987 57.3703L129.044 57.979V59.9892H128.637ZM130.164 58.5419C130.379 58.5419 130.57 58.494 130.739 58.3983C130.907 58.2988 131.041 58.1609 131.141 57.9848C131.24 57.8048 131.29 57.5981 131.29 57.3645C131.29 57.1309 131.24 56.9261 131.141 56.75C131.041 56.5738 130.907 56.436 130.739 56.3365C130.57 56.2369 130.379 56.1871 130.164 56.1871C129.95 56.1871 129.757 56.2369 129.584 56.3365C129.416 56.436 129.282 56.5738 129.182 56.75C129.086 56.9261 129.039 57.1309 129.039 57.3645C129.039 57.5981 129.086 57.8048 129.182 57.9848C129.282 58.1609 129.416 58.2988 129.584 58.3983C129.757 58.494 129.95 58.5419 130.164 58.5419ZM135.292 58.9037C135.031 58.9037 134.796 58.8444 134.585 58.7257C134.375 58.6031 134.206 58.4289 134.08 58.203C133.957 57.9733 133.896 57.6938 133.896 57.3645C133.896 57.0352 133.957 56.7576 134.08 56.5317C134.202 56.302 134.369 56.1278 134.579 56.0091C134.79 55.8904 135.027 55.831 135.292 55.831C135.579 55.831 135.835 55.8961 136.061 56.0263C136.291 56.1527 136.471 56.3326 136.601 56.5662C136.731 56.7959 136.796 57.062 136.796 57.3645C136.796 57.6708 136.731 57.9388 136.601 58.1686C136.471 58.3983 136.291 58.5783 136.061 58.7084C135.835 58.8386 135.579 58.9037 135.292 58.9037ZM133.735 59.9892V55.8598H134.126V56.7672L134.085 57.3703L134.143 57.979V59.9892H133.735ZM135.263 58.5419C135.477 58.5419 135.669 58.494 135.837 58.3983C136.006 58.2988 136.14 58.1609 136.239 57.9848C136.339 57.8048 136.389 57.5981 136.389 57.3645C136.389 57.1309 136.339 56.9261 136.239 56.75C136.14 56.5738 136.006 56.436 135.837 56.3365C135.669 56.2369 135.477 56.1871 135.263 56.1871C135.048 56.1871 134.855 56.2369 134.683 56.3365C134.514 56.436 134.38 56.5738 134.281 56.75C134.185 56.9261 134.137 57.1309 134.137 57.3645C134.137 57.5981 134.185 57.8048 134.281 57.9848C134.38 58.1609 134.514 58.2988 134.683 58.3983C134.855 58.494 135.048 58.5419 135.263 58.5419ZM140.114 58.9037C139.8 58.9037 139.525 58.8386 139.287 58.7084C139.05 58.5744 138.864 58.3926 138.73 58.1628C138.596 57.9293 138.529 57.6632 138.529 57.3645C138.529 57.0659 138.592 56.8017 138.719 56.5719C138.849 56.3422 139.025 56.1622 139.247 56.0321C139.473 55.898 139.726 55.831 140.005 55.831C140.289 55.831 140.539 55.8961 140.758 56.0263C140.98 56.1527 141.154 56.3326 141.28 56.5662C141.407 56.7959 141.47 57.062 141.47 57.3645C141.47 57.3837 141.468 57.4047 141.464 57.4277C141.464 57.4468 141.464 57.4679 141.464 57.4909H138.839V57.1865H141.246L141.085 57.3071C141.085 57.0888 141.037 56.8955 140.941 56.727C140.85 56.5547 140.723 56.4207 140.562 56.325C140.402 56.2292 140.216 56.1814 140.005 56.1814C139.799 56.1814 139.613 56.2292 139.448 56.325C139.284 56.4207 139.155 56.5547 139.063 56.727C138.972 56.8993 138.926 57.0965 138.926 57.3186V57.3817C138.926 57.6115 138.975 57.8144 139.075 57.9905C139.178 58.1628 139.32 58.2988 139.5 58.3983C139.684 58.494 139.892 58.5419 140.126 58.5419C140.31 58.5419 140.48 58.5093 140.637 58.4443C140.798 58.3792 140.936 58.2796 141.051 58.1456L141.28 58.4098C141.146 58.5706 140.978 58.6931 140.775 58.7774C140.576 58.8616 140.356 58.9037 140.114 58.9037ZM145.045 55.831C145.29 55.831 145.505 55.8789 145.688 55.9746C145.876 56.0665 146.022 56.2082 146.125 56.3996C146.232 56.5911 146.286 56.8323 146.286 57.1233V58.875H145.878V57.1635C145.878 56.8457 145.798 56.6064 145.637 56.4456C145.48 56.2809 145.258 56.1986 144.971 56.1986C144.756 56.1986 144.568 56.2426 144.408 56.3307C144.251 56.4149 144.128 56.5394 144.04 56.704C143.956 56.8648 143.914 57.0601 143.914 57.2898V58.875H143.506V55.8598H143.897V56.6868L143.833 56.5317C143.929 56.3135 144.082 56.1431 144.293 56.0206C144.503 55.8942 144.754 55.831 145.045 55.831ZM148.633 58.9037C148.549 58.9037 148.477 58.8731 148.415 58.8118C148.358 58.7506 148.329 58.6759 148.329 58.5878C148.329 58.4959 148.358 58.4213 148.415 58.3638C148.477 58.3064 148.549 58.2777 148.633 58.2777C148.718 58.2777 148.789 58.3064 148.846 58.3638C148.907 58.4213 148.938 58.4959 148.938 58.5878C148.938 58.6759 148.907 58.7506 148.846 58.8118C148.789 58.8731 148.718 58.9037 148.633 58.9037Z" fill="#191A20"/>
<path d="M87.7512 0C56.803 16.1165 39.7354 25.5868 9.58776 42.9261C28.6503 35.5828 39.3075 31.2849 58.1913 22.8655C34.3657 50.2015 21.7328 65.5176 0 92.8259C40.3043 70.4941 56.7618 60.921 78.1536 47.6629C60.7427 54.422 50.8795 58.5638 33.1179 66.5298C55.0084 41.1368 66.9572 26.5561 87.7512 0Z" fill="white"/>
</svg>
